<svg width="50" height="50" viewBox="0 0 50 50" fill="none" xmlns="http://www.w3.org/2000/svg">
<path d="M12.2019 37.36C10.5219 37.36 9.06986 37.156 7.84586 36.748C6.62186 36.34 5.60186 35.812 4.78586 35.164C3.99386 34.492 3.39386 33.772 2.98586 33.004C2.57786 32.212 2.36186 31.432 2.33786 30.664C2.33786 30.448 2.40986 30.28 2.55386 30.16C2.72186 30.016 2.91386 29.944 3.12986 29.944H6.36986C6.60986 29.944 6.81386 29.992 6.98186 30.088C7.14986 30.184 7.29386 30.376 7.41386 30.664C7.62986 31.312 7.97786 31.828 8.45786 32.212C8.96186 32.596 9.53786 32.872 10.1859 33.04C10.8339 33.184 11.5179 33.256 12.2379 33.256C13.6779 33.256 14.8179 32.92 15.6579 32.248C16.5219 31.552 16.9539 30.568 16.9539 29.296C16.9539 28.024 16.5579 27.112 15.7659 26.56C14.9739 25.984 13.8699 25.696 12.4539 25.696H8.74586C8.48186 25.696 8.26586 25.624 8.09786 25.48C7.92986 25.312 7.84586 25.096 7.84586 24.832V23.32C7.84586 23.08 7.89386 22.876 7.98986 22.708C8.10986 22.516 8.22986 22.36 8.34986 22.24L14.7939 15.94H4.49786C4.23386 15.94 4.01786 15.856 3.84986 15.688C3.70586 15.52 3.63386 15.316 3.63386 15.076V12.7C3.63386 12.436 3.70586 12.22 3.84986 12.052C4.01786 11.884 4.23386 11.8 4.49786 11.8H19.9419C20.2059 11.8 20.4219 11.884 20.5899 12.052C20.7579 12.22 20.8419 12.436 20.8419 12.7V14.86C20.8419 15.076 20.7939 15.268 20.6979 15.436C20.6019 15.604 20.4939 15.748 20.3739 15.868L14.1459 22.276L14.5779 22.312C16.0419 22.432 17.3379 22.768 18.4659 23.32C19.6179 23.848 20.5059 24.628 21.1299 25.66C21.7779 26.692 22.1019 27.988 22.1019 29.548C22.1019 31.18 21.6699 32.584 20.8059 33.76C19.9659 34.912 18.8019 35.8 17.3139 36.424C15.8259 37.048 14.1219 37.36 12.2019 37.36ZM27.3536 37C27.1136 37 26.9096 36.916 26.7416 36.748C26.5736 36.58 26.4896 36.376 26.4896 36.136V12.7C26.4896 12.436 26.5736 12.22 26.7416 12.052C26.9096 11.884 27.1136 11.8 27.3536 11.8H36.1376C38.5616 11.8 40.5536 12.172 42.1136 12.916C43.6976 13.66 44.8856 14.764 45.6776 16.228C46.4936 17.692 46.9136 19.48 46.9376 21.592C46.9856 22.648 47.0096 23.584 47.0096 24.4C47.0096 25.216 46.9856 26.14 46.9376 27.172C46.8896 29.404 46.4816 31.252 45.7136 32.716C44.9456 34.156 43.7816 35.236 42.2216 35.956C40.6856 36.652 38.7176 37 36.3176 37H27.3536ZM31.4936 32.86H36.1376C37.4816 32.86 38.5736 32.668 39.4136 32.284C40.2536 31.9 40.8656 31.288 41.2496 30.448C41.6576 29.584 41.8736 28.456 41.8976 27.064C41.9216 26.344 41.9336 25.72 41.9336 25.192C41.9576 24.64 41.9576 24.1 41.9336 23.572C41.9336 23.02 41.9216 22.396 41.8976 21.7C41.8496 19.732 41.3576 18.28 40.4216 17.344C39.4856 16.408 37.9976 15.94 35.9576 15.94H31.4936V32.86Z" fill="#170F58"/>
</svg>
