<svg width="100" height="100" viewBox="0 0 100 100" fill="none" xmlns="http://www.w3.org/2000/svg">
<path d="M73.3693 52.5851C73.2733 41.9934 82.1023 36.8405 82.5061 36.6006C77.5058 29.3609 69.7556 28.3717 67.0321 28.2928C60.5228 27.6126 54.2088 32.1608 50.8929 32.1608C47.5109 32.1608 42.4047 28.3586 36.9015 28.4703C29.8197 28.5787 23.1946 32.6505 19.5611 38.9733C12.0623 51.8654 17.6549 70.8109 24.8393 81.2317C28.4331 86.3353 32.6325 92.0337 38.1292 91.8332C43.5067 91.6131 45.5154 88.4286 52.0048 88.4286C58.4347 88.4286 60.3209 91.8332 65.9268 91.7051C71.6981 91.6131 75.3316 86.5785 78.7997 81.4289C82.9528 75.5793 84.6207 69.8184 84.6869 69.5226C84.5512 69.4766 73.4785 65.28 73.3693 52.5851Z" fill="#170F58"/>
<path d="M62.7797 21.4376C65.672 17.8457 67.6509 12.959 67.1016 8C62.9154 8.18403 57.6802 10.8755 54.6655 14.3885C51.9982 17.4842 49.6156 22.5583 50.2311 27.33C54.9335 27.6783 59.7617 24.9737 62.7797 21.4376Z" fill="#170F58"/>
</svg>
