<svg width="57" height="57" viewBox="0 0 57 57" fill="none" xmlns="http://www.w3.org/2000/svg">
<circle cx="28.5" cy="28.5" r="27.5" fill="#170F58" stroke="#170F58" stroke-width="2"/>
<path fill-rule="evenodd" clip-rule="evenodd" d="M28 22.4375C25.7564 22.4375 23.9375 24.2563 23.9375 26.5C23.9375 28.7436 25.7564 30.5625 28 30.5625C30.2436 30.5625 32.0625 28.7436 32.0625 26.5C32.0625 24.2563 30.2436 22.4375 28 22.4375ZM25.8125 26.5C25.8125 25.2919 26.7919 24.3125 28 24.3125C29.2081 24.3125 30.1875 25.2919 30.1875 26.5C30.1875 27.7081 29.2081 28.6875 28 28.6875C26.7919 28.6875 25.8125 27.7081 25.8125 26.5Z" fill="white"/>
<path fill-rule="evenodd" clip-rule="evenodd" d="M28 16.8125C22.6497 16.8125 18.3125 21.1497 18.3125 26.5C18.3125 28.2708 18.9283 30.0647 19.7849 31.7168C20.6457 33.3769 21.7826 34.9563 22.9013 36.3148C24.0224 37.676 25.1408 38.8341 25.9779 39.6514C26.3971 40.0605 26.7471 40.3856 26.9937 40.6095C27.1171 40.7215 27.2146 40.8083 27.282 40.8678C27.3158 40.8974 27.342 40.9202 27.3601 40.936C27.3691 40.944 27.3763 40.95 27.3813 40.9544L27.3871 40.9595L27.3889 40.961L27.3895 40.9615C27.3897 40.9616 27.3899 40.9618 28 40.25L27.3899 40.9618L28 41.4848L28.6101 40.9618L28 40.25C28.6101 40.9618 28.6103 40.9616 28.6105 40.9615L28.6111 40.961L28.6129 40.9595L28.6187 40.9544C28.6237 40.95 28.6309 40.944 28.6399 40.936C28.658 40.9202 28.6842 40.8974 28.718 40.8678C28.7854 40.8083 28.883 40.7215 29.0063 40.6095C29.2529 40.3856 29.6029 40.0605 30.0221 39.6514C30.8592 38.8341 31.9776 37.676 33.0986 36.3148C34.2174 34.9563 35.3542 33.3769 36.2151 31.7168C37.0716 30.0647 37.6875 28.2708 37.6875 26.5C37.6875 21.1497 33.3503 16.8125 28 16.8125ZM28.7123 38.3096C28.4403 38.5753 28.1993 38.8031 28 38.988C27.8007 38.8031 27.5597 38.5753 27.2877 38.3096C26.4842 37.5253 25.4151 36.4177 24.3487 35.1227C23.2799 33.825 22.2293 32.3575 21.4495 30.8536C20.6654 29.3415 20.1875 27.8542 20.1875 26.5C20.1875 22.1853 23.6853 18.6875 28 18.6875C32.3147 18.6875 35.8125 22.1853 35.8125 26.5C35.8125 27.8542 35.3346 29.3415 34.5505 30.8536C33.7708 32.3575 32.7201 33.825 31.6514 35.1227C30.5849 36.4177 29.5158 37.5253 28.7123 38.3096Z" fill="white"/>
</svg>
