<svg width="390" height="654" viewBox="0 0 390 654" fill="none" xmlns="http://www.w3.org/2000/svg">
<g clip-path="url(#clip0_340_134)">
<rect y="0.000244141" width="390" height="642" fill="#170F58"/>
<path d="M120.96 202.359C92.5214 140.617 22.9701 146.073 -2.06836 187.234V641.747H392.365V206.768C392.365 132.12 282.01 120.037 260.063 206.768C233.784 120.862 139.813 137.605 120.96 202.359Z" fill="#EDEDED" fill-opacity="0.4"/>
<path d="M120.922 154.013C51.7053 87.8187 -17.0573 140.457 -20 192.757V585.492H414V192.757C413.461 103.826 309.84 108.77 269.678 154.013C227.782 201.207 146.1 178.091 120.922 154.013Z" fill="white" fill-opacity="0.2"/>
<path d="M63.1517 211.042C36.5676 230.994 33.3028 177 0.227295 177V651H394.66V213.844C379.328 244.665 342.799 213.216 328.683 200.373C282.439 166.8 266.86 174.89 233.784 200.373C207.076 226.241 174.64 211.152 161.76 200.373C114.774 161.054 95.4267 186.82 63.1517 211.042Z" fill="#EDEDED"/>
</g>
<defs>
<clipPath id="clip0_340_134">
<rect width="390" height="654" rx="10" fill="white"/>
</clipPath>
</defs>
</svg>
