<svg width="57" height="57" viewBox="0 0 57 57" fill="none" xmlns="http://www.w3.org/2000/svg">
<g clip-path="url(#clip0_1_2360)">
<g clip-path="url(#clip1_1_2360)">
<g style="mix-blend-mode:multiply" opacity="0.3">
<path d="M29.0017 52.4417C40.7527 52.4417 50.2787 51.4431 50.2787 50.2113C50.2787 48.9795 40.7527 47.981 29.0017 47.981C17.2507 47.981 7.72467 48.9795 7.72467 50.2113C7.72467 51.4431 17.2507 52.4417 29.0017 52.4417Z" fill="#99B5C6"/>
</g>
<g style="mix-blend-mode:multiply" opacity="0.3">
<path d="M1.32708 27.1133L0.00639394 40.7941C-0.0140867 41.0081 0.0155093 41.224 0.0928425 41.4246C0.170176 41.6252 0.293122 41.8051 0.451962 41.95C0.610801 42.0948 0.801179 42.2008 1.00803 42.2594C1.21488 42.318 1.43254 42.3277 1.64378 42.2877L6.13592 41.4365L2.11546 40.3853L1.32708 27.1133Z" fill="#99B5C6"/>
</g>
<path d="M38.6407 40.3853H19.3604V49.2842H38.6407V40.3853Z" fill="white"/>
<path d="M44.1402 48.1719H13.8609C13.6562 48.1719 13.4903 48.3378 13.4903 48.5425V50.0249C13.4903 50.2296 13.6562 50.3955 13.8609 50.3955H44.1402C44.3449 50.3955 44.5108 50.2296 44.5108 50.0249V48.5425C44.5108 48.3378 44.3449 48.1719 44.1402 48.1719Z" fill="white"/>
<path d="M55.7757 3.98975H2.22491C1.72872 3.98975 1.32648 4.39199 1.32648 4.88817V40.5378C1.32648 41.034 1.72872 41.4362 2.22491 41.4362H55.7757C56.2719 41.4362 56.6742 41.034 56.6742 40.5378V4.88817C56.6742 4.39199 56.2719 3.98975 55.7757 3.98975Z" fill="white"/>
<g style="mix-blend-mode:multiply" opacity="0.3">
<path d="M38.6395 41.4355H19.2694V42.9112H38.6395V41.4355Z" fill="#99B5C6"/>
</g>
<g style="mix-blend-mode:multiply" opacity="0.3">
<path d="M38.6395 47.79H19.2694V48.1719H38.6395V47.79Z" fill="#99B5C6"/>
</g>
<path d="M55.6319 5.10107H2.3663V38.161H55.6319V5.10107Z" fill="#0A1D35"/>
<g style="mix-blend-mode:multiply" opacity="0.5">
<path d="M55.6566 5.10107H2.3663V5.70078H55.6566V5.10107Z" fill="#9ABAD8"/>
</g>
<g style="mix-blend-mode:multiply" opacity="0.3">
<path d="M44.152 50.396H13.8301C13.7849 50.3963 13.74 50.3876 13.6982 50.3704C13.6564 50.3533 13.6184 50.328 13.5864 50.296C13.5544 50.264 13.5291 50.226 13.512 50.1842C13.4948 50.1424 13.4861 50.0976 13.4864 50.0523V50.0254H44.5137V50.0366C44.5137 50.084 44.5043 50.1309 44.4861 50.1747C44.4679 50.2184 44.4412 50.2581 44.4076 50.2915C44.374 50.3249 44.3341 50.3514 44.2903 50.3693C44.2464 50.3872 44.1994 50.3963 44.152 50.396Z" fill="#99B5C6"/>
</g>
<path d="M29.6022 39.7831C29.6022 39.9427 29.5388 40.0959 29.4259 40.2087C29.313 40.3216 29.1599 40.385 29.0003 40.385C28.8406 40.385 28.6875 40.3216 28.5746 40.2087C28.4617 40.0959 28.3983 39.9427 28.3983 39.7831C28.3983 39.6235 28.4617 39.4703 28.5746 39.3575C28.6875 39.2446 28.8406 39.1812 29.0003 39.1812C29.1599 39.1812 29.313 39.2446 29.4259 39.3575C29.5388 39.4703 29.6022 39.6235 29.6022 39.7831Z" fill="#0A1D35"/>
<path d="M40.0742 33.2223L40.8649 33.0673V31.4457L40.0787 31.275C40.0074 31.0267 39.9087 30.7872 39.7845 30.5607L40.2337 29.8869L39.0927 28.7459L38.4189 29.1794C38.194 29.0546 37.956 28.9552 37.7091 28.8829L37.5542 28.0923H35.9392L35.7663 28.8807C35.5188 28.9512 35.28 29.0492 35.0543 29.1726L34.3805 28.7234L33.2395 29.8644L33.6729 30.5383C33.5486 30.7641 33.4492 31.0029 33.3765 31.2503L32.5858 31.4052V33.0202L33.372 33.1931C33.4425 33.4402 33.5412 33.6783 33.6662 33.9029L33.217 34.5767L34.3602 35.7177L35.0341 35.282C35.2581 35.4086 35.4963 35.5081 35.7438 35.5784L35.8988 36.3691H37.5137L37.6867 35.5829C37.9339 35.5106 38.1726 35.412 38.3987 35.2887L39.0725 35.7379L40.2135 34.5947L39.78 33.9208C39.9024 33.699 40.0011 33.4649 40.0742 33.2223ZM34.4793 32.2453C34.4793 31.6496 34.7159 31.0783 35.1371 30.6571C35.5584 30.2358 36.1297 29.9992 36.7254 29.9992C37.3211 29.9992 37.8923 30.2358 38.3136 30.6571C38.7348 31.0783 38.9714 31.6496 38.9714 32.2453C38.9714 32.841 38.7348 33.4123 38.3136 33.8335C37.8923 34.2547 37.3211 34.4913 36.7254 34.4913C36.1297 34.4913 35.5584 34.2547 35.1371 33.8335C34.7159 33.4123 34.4793 32.841 34.4793 32.2453Z" fill="white"/>
<path d="M50.554 28.2697L51.7062 28.0451V25.689L50.5607 25.4397C50.4566 25.0783 50.3127 24.7295 50.1317 24.3998L50.7853 23.425L49.121 21.7606L48.1305 22.394C47.8027 22.2116 47.4554 22.0669 47.095 21.9628L46.8704 20.8105H44.5143L44.265 21.9583C43.9041 22.0621 43.5561 22.2059 43.2273 22.3873L42.2503 21.7314L40.5882 23.398L41.2193 24.3863C41.0373 24.7142 40.8926 25.0615 40.7881 25.4217L39.6358 25.6463V28.0002L40.7836 28.2495C40.8876 28.6107 41.0307 28.9594 41.2103 29.2895L40.559 30.2643L42.2233 31.9286L43.2116 31.2952C43.5395 31.4773 43.8868 31.6219 44.247 31.7265L44.4716 32.8787H46.8255L47.0771 31.7309C47.4381 31.6278 47.7863 31.4839 48.1148 31.3019L49.0918 31.9578L50.7539 30.2935L50.1205 29.3052C50.3037 28.9776 50.4492 28.6302 50.554 28.2697ZM42.403 26.8457C42.4048 25.9802 42.7499 25.1507 43.3626 24.5392C43.9752 23.9278 44.8055 23.5844 45.671 23.5844C46.5384 23.5844 47.3702 23.929 47.9835 24.5423C48.5968 25.1556 48.9413 25.9874 48.9413 26.8547C48.9413 27.7221 48.5968 28.5539 47.9835 29.1672C47.3702 29.7805 46.5384 30.125 45.671 30.125C45.2409 30.125 44.815 30.0401 44.4178 29.8752C44.0206 29.7102 43.6598 29.4685 43.3562 29.1639C43.0526 28.8592 42.8121 28.4976 42.6485 28.0998C42.485 27.702 42.4015 27.2758 42.403 26.8457Z" fill="white"/>
<g opacity="0.2">
<path d="M19.3483 9.00244H13.6793C13.4994 9.00244 13.3536 9.14825 13.3536 9.32812V10.2737C13.3536 10.4536 13.4994 10.5994 13.6793 10.5994H19.3483C19.5282 10.5994 19.674 10.4536 19.674 10.2737V9.32812C19.674 9.14825 19.5282 9.00244 19.3483 9.00244Z" fill="white"/>
<path d="M33.0211 9.00244H20.6452C20.4654 9.00244 20.3195 9.14825 20.3195 9.32812V10.2737C20.3195 10.4536 20.4654 10.5994 20.6452 10.5994H33.0211C33.2009 10.5994 33.3468 10.4536 33.3468 10.2737V9.32812C33.3468 9.14825 33.2009 9.00244 33.0211 9.00244Z" fill="white"/>
<path d="M28.7616 11.7539H13.6793C13.4994 11.7539 13.3536 11.8997 13.3536 12.0796V13.0252C13.3536 13.2051 13.4994 13.3509 13.6793 13.3509H28.7616C28.9415 13.3509 29.0873 13.2051 29.0873 13.0252V12.0796C29.0873 11.8997 28.9415 11.7539 28.7616 11.7539Z" fill="white"/>
<path d="M35.5113 11.7539H30.0601C29.8802 11.7539 29.7344 11.8997 29.7344 12.0796V13.0252C29.7344 13.2051 29.8802 13.3509 30.0601 13.3509H35.5113C35.6912 13.3509 35.837 13.2051 35.837 13.0252V12.0796C35.837 11.8997 35.6912 11.7539 35.5113 11.7539Z" fill="white"/>
<path d="M23.5777 14.5078H13.6793C13.4994 14.5078 13.3536 14.6536 13.3536 14.8335V15.7791C13.3536 15.959 13.4994 16.1048 13.6793 16.1048H23.5777C23.7576 16.1048 23.9034 15.959 23.9034 15.7791V14.8335C23.9034 14.6536 23.7576 14.5078 23.5777 14.5078Z" fill="white"/>
<path d="M32.7033 14.5078H24.8757C24.6958 14.5078 24.55 14.6536 24.55 14.8335V15.7791C24.55 15.959 24.6958 16.1048 24.8757 16.1048H32.7033C32.8831 16.1048 33.0289 15.959 33.0289 15.7791V14.8335C33.0289 14.6536 32.8831 14.5078 32.7033 14.5078Z" fill="white"/>
<path d="M26.3134 17.2588H13.6793C13.4994 17.2588 13.3536 17.4046 13.3536 17.5845V18.5301C13.3536 18.7099 13.4994 18.8557 13.6793 18.8557H26.3134C26.4933 18.8557 26.6391 18.7099 26.6391 18.5301V17.5845C26.6391 17.4046 26.4933 17.2588 26.3134 17.2588Z" fill="white"/>
<path d="M33.9044 17.2588H27.6109C27.431 17.2588 27.2852 17.4046 27.2852 17.5845V18.5301C27.2852 18.7099 27.431 18.8557 27.6109 18.8557H33.9044C34.0843 18.8557 34.2301 18.7099 34.2301 18.5301V17.5845C34.2301 17.4046 34.0843 17.2588 33.9044 17.2588Z" fill="white"/>
<path d="M23.2543 20.0103H13.6793C13.4994 20.0103 13.3536 20.1561 13.3536 20.3359V21.2815C13.3536 21.4614 13.4994 21.6072 13.6793 21.6072H23.2543C23.4341 21.6072 23.5799 21.4614 23.5799 21.2815V20.3359C23.5799 20.1561 23.4341 20.0103 23.2543 20.0103Z" fill="white"/>
<path d="M32.7043 20.0103H24.5533C24.3734 20.0103 24.2276 20.1561 24.2276 20.3359V21.2815C24.2276 21.4614 24.3734 21.6072 24.5533 21.6072H32.7043C32.8841 21.6072 33.03 21.4614 33.03 21.2815V20.3359C33.03 20.1561 32.8841 20.0103 32.7043 20.0103Z" fill="white"/>
<path d="M29.5433 22.7642H13.6793C13.4994 22.7642 13.3536 22.91 13.3536 23.0898V24.0354C13.3536 24.2153 13.4994 24.3611 13.6793 24.3611H29.5433C29.7231 24.3611 29.8689 24.2153 29.8689 24.0354V23.0898C29.8689 22.91 29.7231 22.7642 29.5433 22.7642Z" fill="white"/>
<path d="M33.9049 22.7642H30.8413C30.6614 22.7642 30.5156 22.91 30.5156 23.0898V24.0354C30.5156 24.2153 30.6614 24.3611 30.8413 24.3611H33.9049C34.0848 24.3611 34.2306 24.2153 34.2306 24.0354V23.0898C34.2306 22.91 34.0848 22.7642 33.9049 22.7642Z" fill="white"/>
<path d="M22.3513 25.5156H13.6793C13.4994 25.5156 13.3536 25.6614 13.3536 25.8413V26.7869C13.3536 26.9668 13.4994 27.1126 13.6793 27.1126H22.3513C22.5312 27.1126 22.677 26.9668 22.677 26.7869V25.8413C22.677 25.6614 22.5312 25.5156 22.3513 25.5156Z" fill="white"/>
</g>
<path d="M10.8769 9.00244H4.94953C4.498 9.00244 4.13196 9.36848 4.13196 9.82001V26.2972C4.13196 26.7487 4.498 27.1148 4.94953 27.1148H10.8769C11.3284 27.1148 11.6945 26.7487 11.6945 26.2972V9.82001C11.6945 9.36848 11.3284 9.00244 10.8769 9.00244Z" fill="white"/>
<path d="M7.91541 20.6083C9.32335 20.6083 10.4647 19.467 10.4647 18.0591C10.4647 16.6511 9.32335 15.5098 7.91541 15.5098C6.50748 15.5098 5.36612 16.6511 5.36612 18.0591C5.36612 19.467 6.50748 20.6083 7.91541 20.6083Z" fill="#0A1D35"/>
<path d="M7.66617 18.8405V17.1964C7.66554 17.1813 7.66954 17.1663 7.67763 17.1536C7.68573 17.1408 7.69754 17.1308 7.71147 17.1249C7.7254 17.1191 7.74079 17.1176 7.75557 17.1207C7.77036 17.1239 7.78384 17.1315 7.7942 17.1425L8.61626 17.9645C8.63053 17.9788 8.63853 17.9982 8.63853 18.0184C8.63853 18.0386 8.63053 18.058 8.61626 18.0723L7.7942 18.8944C7.78384 18.9054 7.77036 18.913 7.75557 18.9161C7.74079 18.9192 7.7254 18.9178 7.71147 18.9119C7.69754 18.906 7.68573 18.8961 7.67763 18.8833C7.66954 18.8705 7.66554 18.8556 7.66617 18.8405Z" fill="#EAEAEA"/>
<path d="M4.78231 36.4521H26.6343C26.9928 36.4521 27.2834 36.1615 27.2834 35.803V30.4596C27.2834 30.1011 26.9928 29.8105 26.6343 29.8105L4.78231 29.8105C4.42381 29.8105 4.13319 30.1011 4.13319 30.4596V35.803C4.13319 36.1615 4.42381 36.4521 4.78231 36.4521Z" fill="#FF6724"/>
<path d="M8.66798 35.2126H5.42017C5.42017 34.7819 5.59126 34.3688 5.8958 34.0643C6.20034 33.7597 6.61339 33.5886 7.04408 33.5886C7.47477 33.5886 7.88781 33.7597 8.19235 34.0643C8.49689 34.3688 8.66798 34.7819 8.66798 35.2126ZM7.04408 31.4639C6.8058 31.4639 6.57728 31.5585 6.40879 31.727C6.2403 31.8955 6.14565 32.124 6.14565 32.3623C6.14565 32.6006 6.2403 32.8291 6.40879 32.9976C6.57728 33.1661 6.8058 33.2607 7.04408 33.2607C7.28236 33.2607 7.51087 33.1661 7.67936 32.9976C7.84784 32.8291 7.94251 32.6006 7.94251 32.3623C7.94251 32.124 7.84784 31.8955 7.67936 31.727C7.51087 31.5585 7.28236 31.4639 7.04408 31.4639Z" fill="#0A1D35"/>
<path d="M16.9342 31.5552H11.5504C11.3705 31.5552 11.2247 31.701 11.2247 31.8809V32.056C11.2247 32.2359 11.3705 32.3817 11.5504 32.3817H16.9342C17.1141 32.3817 17.2599 32.2359 17.2599 32.056V31.8809C17.2599 31.701 17.1141 31.5552 16.9342 31.5552Z" fill="#0A1D35"/>
<path d="M20.2651 32.9189H11.465C11.3323 32.9189 11.2247 33.0265 11.2247 33.1593V33.1862C11.2247 33.319 11.3323 33.4266 11.465 33.4266H20.2651C20.3979 33.4266 20.5055 33.319 20.5055 33.1862V33.1593C20.5055 33.0265 20.3979 32.9189 20.2651 32.9189Z" fill="#0A1D35"/>
<path d="M16.4805 33.75H11.465C11.3323 33.75 11.2247 33.8576 11.2247 33.9903V34.0173C11.2247 34.15 11.3323 34.2576 11.465 34.2576H16.4805C16.6132 34.2576 16.7208 34.15 16.7208 34.0173V33.9903C16.7208 33.8576 16.6132 33.75 16.4805 33.75Z" fill="#0A1D35"/>
<path d="M22.3038 33.75H17.2883C17.1555 33.75 17.0479 33.8576 17.0479 33.9903V34.0173C17.0479 34.15 17.1555 34.2576 17.2883 34.2576H22.3038C22.4365 34.2576 22.5441 34.15 22.5441 34.0173V33.9903C22.5441 33.8576 22.4365 33.75 22.3038 33.75Z" fill="#0A1D35"/>
<path d="M20.2651 34.5835H11.465C11.3323 34.5835 11.2247 34.6911 11.2247 34.8238V34.8508C11.2247 34.9835 11.3323 35.0911 11.465 35.0911H20.2651C20.3979 35.0911 20.5055 34.9835 20.5055 34.8508V34.8238C20.5055 34.6911 20.3979 34.5835 20.2651 34.5835Z" fill="#0A1D35"/>
<path d="M24.2059 31.5552H18.0269C17.8471 31.5552 17.7013 31.701 17.7013 31.8809V32.056C17.7013 32.2359 17.8471 32.3817 18.0269 32.3817H24.2059C24.3858 32.3817 24.5316 32.2359 24.5316 32.056V31.8809C24.5316 31.701 24.3858 31.5552 24.2059 31.5552Z" fill="#0A1D35"/>
<path d="M51.2336 8.95312H40.9488C40.2231 8.95312 39.6349 9.5414 39.6349 10.2671V15.9676C39.6349 16.6933 40.2231 17.2816 40.9488 17.2816H51.2336C51.9592 17.2816 52.5475 16.6933 52.5475 15.9676V10.2671C52.5475 9.5414 51.9592 8.95312 51.2336 8.95312Z" fill="#FFAA22"/>
<path opacity="0.2" d="M55.6319 5.10107H2.3663V7.34715H55.6319V5.10107Z" fill="white"/>
<path d="M54.4988 6.22392C54.4982 6.3268 54.4571 6.42529 54.3843 6.49803C54.3116 6.57077 54.2131 6.6119 54.1102 6.61249C54.0075 6.6119 53.9093 6.5707 53.8369 6.49789C53.7645 6.42508 53.7239 6.32659 53.7239 6.22392C53.7245 6.12185 53.7654 6.02417 53.8378 5.9522C53.9102 5.88024 54.0081 5.83984 54.1102 5.83984C54.2125 5.83984 54.3106 5.88016 54.3834 5.95206C54.4561 6.02396 54.4976 6.12165 54.4988 6.22392Z" fill="white"/>
<path d="M52.9333 6.61005C53.1467 6.61005 53.3196 6.43709 53.3196 6.22373C53.3196 6.01037 53.1467 5.8374 52.9333 5.8374C52.7199 5.8374 52.547 6.01037 52.547 6.22373C52.547 6.43709 52.7199 6.61005 52.9333 6.61005Z" fill="white"/>
<path d="M51.7575 6.61005C51.9709 6.61005 52.1438 6.43709 52.1438 6.22373C52.1438 6.01037 51.9709 5.8374 51.7575 5.8374C51.5441 5.8374 51.3712 6.01037 51.3712 6.22373C51.3712 6.43709 51.5441 6.61005 51.7575 6.61005Z" fill="white"/>
<path d="M42.7294 13.4477V12.9559L44.6521 12.1675V12.8211L43.6818 13.2029L44.6521 13.5915V14.2316L42.7294 13.4477Z" fill="black"/>
<path d="M46.5371 11.6934H47.175L45.5668 15.1366H44.929L46.5371 11.6934Z" fill="black"/>
<path d="M47.5304 14.2316V13.5825L48.5007 13.2029L47.5304 12.8143V12.1675L49.453 12.9559V13.4477L47.5304 14.2316Z" fill="black"/>
</g>
</g>
<defs>
<clipPath id="clip0_1_2360">
<rect width="57" height="57" fill="white"/>
</clipPath>
<clipPath id="clip1_1_2360">
<rect width="56.6751" height="48.45" fill="white" transform="translate(0 3.99023)"/>
</clipPath>
</defs>
</svg>
