<svg width="561" height="617" viewBox="0 0 561 617" fill="none" xmlns="http://www.w3.org/2000/svg">
<path d="M120.334 90.6211C124.97 138.25 133.4 243.202 238.352 194.309C293.294 168.713 435.599 162.697 459.215 252.053C484.613 348.154 459.215 392.832 412.008 423.601C400.354 431.197 373.652 447.542 336.56 423.601C290.196 393.675 134.243 393.254 117.805 493.991" stroke="black" stroke-width="2.52896" stroke-linecap="round" stroke-dasharray="5.06 5.06"/>
<g filter="url(#filter0_d_114_59)">
<circle cx="484.497" cy="302.497" r="72.497" fill="white"/>
</g>
<g filter="url(#filter1_d_114_59)">
<circle cx="76.497" cy="536.497" r="72.497" fill="white"/>
</g>
<g filter="url(#filter2_d_114_59)">
<circle cx="76.497" cy="72.497" r="72.497" fill="white"/>
</g>
<g clip-path="url(#clip0_114_59)">
<path d="M87.2504 51.3757C87.2502 49.1761 88.0233 47.0464 89.4347 45.3592C90.8461 43.6721 92.8057 42.5349 94.9708 42.1467C97.1359 41.7585 99.3686 42.1439 101.278 43.2356C103.188 44.3272 104.653 46.0556 105.417 48.1183C106.181 50.181 106.195 52.4466 105.457 54.5188C104.72 56.5911 103.277 58.3379 101.381 59.4537C99.4856 60.5696 97.258 60.9833 95.0882 60.6226C92.9183 60.2619 90.9444 59.1498 89.5117 57.4807L64.3192 69.1807C64.8983 71.0161 64.8983 72.9853 64.3192 74.8207L89.5117 86.5207C91.0261 84.7594 93.1404 83.6231 95.4449 83.3319C97.7494 83.0407 100.08 83.6154 101.985 84.9445C103.89 86.2737 105.233 88.2628 105.755 90.5262C106.277 92.7896 105.941 95.1662 104.81 97.1954C103.68 99.2245 101.836 100.762 99.637 101.509C97.4377 102.257 95.0393 102.161 92.9065 101.241C90.7737 100.321 89.0584 98.6417 88.0931 96.529C87.1278 94.4162 86.9812 92.0204 87.6817 89.8057L62.4892 78.1057C61.2421 79.5591 59.5798 80.5957 57.7259 81.076C55.872 81.5564 53.9154 81.4574 52.1195 80.7925C50.3235 80.1276 48.7742 78.9286 47.6801 77.3568C46.586 75.785 45.9995 73.9158 45.9995 72.0007C45.9995 70.0856 46.586 68.2164 47.6801 66.6446C48.7742 65.0728 50.3235 63.8738 52.1195 63.2089C53.9154 62.544 55.872 62.445 57.7259 62.9254C59.5798 63.4057 61.2421 64.4423 62.4892 65.8957L87.6817 54.1957C87.3949 53.2832 87.2495 52.3322 87.2504 51.3757Z" fill="#0915EA"/>
</g>
<path d="M466.67 285.669C466.594 284.888 466.683 284.1 466.929 283.355C467.176 282.61 467.576 281.926 468.103 281.345C468.631 280.764 469.274 280.299 469.991 279.982C470.708 279.664 471.484 279.5 472.269 279.5H481.25C481.747 279.5 482.224 279.698 482.576 280.049C482.927 280.401 483.125 280.878 483.125 281.375V282.807C483.125 285.418 481.261 287.24 479.855 288.316C479.686 288.437 479.54 288.586 479.424 288.759C479.405 288.788 479.39 288.82 479.379 288.852L479.375 288.875V288.886L479.386 288.924C479.401 288.961 479.439 289.029 479.521 289.122C479.808 289.429 480.152 289.676 480.534 289.85C481.587 290.375 483.163 290.75 485 290.75C486.845 290.75 488.42 290.375 489.462 289.85C489.845 289.676 490.191 289.429 490.479 289.122C490.534 289.062 490.579 288.994 490.614 288.92L490.625 288.882V288.852C490.614 288.82 490.599 288.788 490.58 288.759C490.464 288.586 490.318 288.437 490.149 288.316C488.743 287.24 486.879 285.418 486.879 282.807V281.375C486.879 280.878 487.076 280.402 487.427 280.05C487.777 279.699 488.253 279.501 488.75 279.5H497.731C498.516 279.5 499.292 279.664 500.009 279.982C500.726 280.299 501.369 280.764 501.897 281.345C502.424 281.926 502.824 282.61 503.071 283.355C503.317 284.1 503.406 284.888 503.33 285.669L502.419 296.375H503.307C504.039 296.375 504.882 295.824 505.839 294.575C506.626 293.547 507.819 292.625 509.375 292.625C511.505 292.625 512.926 294.301 513.702 295.858C514.539 297.526 515 299.701 515 302C515 304.299 514.539 306.474 513.702 308.142C512.926 309.699 511.505 311.375 509.375 311.375C507.819 311.375 506.626 310.452 505.839 309.425C504.882 308.176 504.039 307.625 503.307 307.625H502.419L503.33 318.331C503.406 319.112 503.317 319.9 503.071 320.645C502.824 321.39 502.424 322.074 501.897 322.655C501.369 323.236 500.726 323.701 500.009 324.018C499.292 324.336 498.516 324.5 497.731 324.5H488.75C488.253 324.5 487.776 324.302 487.424 323.951C487.073 323.599 486.875 323.122 486.875 322.625V321.193C486.875 318.583 488.739 316.76 490.145 315.684C490.314 315.563 490.46 315.414 490.576 315.241C490.595 315.212 490.61 315.18 490.621 315.147L490.625 315.125V315.114L490.614 315.076C490.579 315.004 490.533 314.937 490.479 314.877C490.192 314.571 489.848 314.324 489.466 314.15C488.412 313.625 486.837 313.25 485 313.25C483.159 313.25 481.58 313.625 480.538 314.15C480.155 314.324 479.809 314.571 479.521 314.877C479.466 314.938 479.421 315.006 479.386 315.08L479.375 315.118V315.125L479.379 315.147C479.39 315.18 479.405 315.212 479.424 315.241C479.484 315.342 479.611 315.496 479.855 315.684C481.261 316.76 483.125 318.583 483.125 321.193V322.625C483.125 323.122 482.927 323.599 482.576 323.951C482.224 324.302 481.747 324.5 481.25 324.5H472.269C471.484 324.5 470.708 324.336 469.991 324.018C469.274 323.701 468.631 323.236 468.103 322.655C467.576 322.074 467.176 321.39 466.929 320.645C466.683 319.9 466.594 319.112 466.67 318.331L467.585 307.625H466.693C465.961 307.625 465.118 308.176 464.161 309.425C463.374 310.452 462.181 311.375 460.625 311.375C458.495 311.375 457.074 309.699 456.297 308.142C455.461 306.474 455 304.299 455 302C455 299.701 455.461 297.526 456.297 295.858C457.074 294.301 458.495 292.625 460.625 292.625C462.181 292.625 463.374 293.547 464.161 294.575C465.118 295.824 465.961 296.375 466.693 296.375H467.585L466.67 285.669Z" fill="#0915EA"/>
<path d="M81 513.3V534.075C81 536.625 78.925 538.7 76.375 538.7H53.5C52.125 538.7 51 537.575 51 536.2V520.225C51 515.125 55.125 511 60.225 511H78.675C79.975 511 81 512.025 81 513.3Z" fill="#0915EA"/>
<path d="M99.75 544.75C100.45 544.75 101 545.3 101 546V548.5C101 552.65 97.65 556 93.5 556C93.5 551.875 90.125 548.5 86 548.5C81.875 548.5 78.5 551.875 78.5 556H73.5C73.5 551.875 70.125 548.5 66 548.5C61.875 548.5 58.5 551.875 58.5 556C54.35 556 51 552.65 51 548.5V543.5C51 542.125 52.125 541 53.5 541H77.25C80.7 541 83.5 538.2 83.5 534.75V521C83.5 519.625 84.625 518.5 86 518.5H88.1C89.9 518.5 91.55 519.475 92.45 521.025L94.05 523.825C94.275 524.225 93.975 524.75 93.5 524.75C90.05 524.75 87.25 527.55 87.25 531V538.5C87.25 541.95 90.05 544.75 93.5 544.75H99.75Z" fill="#0915EA"/>
<path d="M66 561C68.7614 561 71 558.761 71 556C71 553.239 68.7614 551 66 551C63.2386 551 61 553.239 61 556C61 558.761 63.2386 561 66 561Z" fill="#0915EA"/>
<path d="M86 561C88.7615 561 91 558.761 91 556C91 553.239 88.7615 551 86 551C83.2385 551 81 553.239 81 556C81 558.761 83.2385 561 86 561Z" fill="#0915EA"/>
<path d="M101 537.325V541H93.5C92.125 541 91 539.875 91 538.5V531C91 529.625 92.125 528.5 93.5 528.5H96.725L100.35 534.85C100.775 535.6 101 536.45 101 537.325Z" fill="#0915EA"/>
<defs>
<filter id="filter0_d_114_59" x="408" y="230" width="152.994" height="152.994" filterUnits="userSpaceOnUse" color-interpolation-filters="sRGB">
<feFlood flood-opacity="0" result="BackgroundImageFix"/>
<feColorMatrix in="SourceAlpha" type="matrix" values="0 0 0 0 0 0 0 0 0 0 0 0 0 0 0 0 0 0 127 0" result="hardAlpha"/>
<feOffset dy="4"/>
<feGaussianBlur stdDeviation="2"/>
<feComposite in2="hardAlpha" operator="out"/>
<feColorMatrix type="matrix" values="0 0 0 0 0 0 0 0 0 0 0 0 0 0 0 0 0 0 0.25 0"/>
<feBlend mode="normal" in2="BackgroundImageFix" result="effect1_dropShadow_114_59"/>
<feBlend mode="normal" in="SourceGraphic" in2="effect1_dropShadow_114_59" result="shape"/>
</filter>
<filter id="filter1_d_114_59" x="0" y="464" width="152.994" height="152.994" filterUnits="userSpaceOnUse" color-interpolation-filters="sRGB">
<feFlood flood-opacity="0" result="BackgroundImageFix"/>
<feColorMatrix in="SourceAlpha" type="matrix" values="0 0 0 0 0 0 0 0 0 0 0 0 0 0 0 0 0 0 127 0" result="hardAlpha"/>
<feOffset dy="4"/>
<feGaussianBlur stdDeviation="2"/>
<feComposite in2="hardAlpha" operator="out"/>
<feColorMatrix type="matrix" values="0 0 0 0 0 0 0 0 0 0 0 0 0 0 0 0 0 0 0.25 0"/>
<feBlend mode="normal" in2="BackgroundImageFix" result="effect1_dropShadow_114_59"/>
<feBlend mode="normal" in="SourceGraphic" in2="effect1_dropShadow_114_59" result="shape"/>
</filter>
<filter id="filter2_d_114_59" x="0" y="0" width="152.994" height="152.994" filterUnits="userSpaceOnUse" color-interpolation-filters="sRGB">
<feFlood flood-opacity="0" result="BackgroundImageFix"/>
<feColorMatrix in="SourceAlpha" type="matrix" values="0 0 0 0 0 0 0 0 0 0 0 0 0 0 0 0 0 0 127 0" result="hardAlpha"/>
<feOffset dy="4"/>
<feGaussianBlur stdDeviation="2"/>
<feComposite in2="hardAlpha" operator="out"/>
<feColorMatrix type="matrix" values="0 0 0 0 0 0 0 0 0 0 0 0 0 0 0 0 0 0 0.25 0"/>
<feBlend mode="normal" in2="BackgroundImageFix" result="effect1_dropShadow_114_59"/>
<feBlend mode="normal" in="SourceGraphic" in2="effect1_dropShadow_114_59" result="shape"/>
</filter>
<clipPath id="clip0_114_59">
<rect width="60" height="60" fill="white" transform="translate(46 42)"/>
</clipPath>
</defs>
</svg>
