<svg width="495" height="420" viewBox="0 0 495 420" fill="none" xmlns="http://www.w3.org/2000/svg">
<g clip-path="url(#clip0_1_1099)">
<path d="M254.236 31.3283C254.236 31.3283 197.127 28.8114 164.878 80.265C132.628 131.719 109.065 109.13 72.9275 148.481C36.79 187.831 44.2874 270.271 48.4538 303.891C52.6203 337.512 67.2509 375.159 67.2509 375.159H451.011C451.011 375.159 490.222 214.029 456.58 154.286C422.938 94.5422 350.278 91.5539 330.196 61.4358C310.113 31.3176 254.236 31.3283 254.236 31.3283Z" fill="#E5E5EC"/>
<path d="M9.158 372.963C9.158 372.963 118.802 364.063 481.194 375.555C489.592 375.823 512.609 399.408 470.216 406.391C427.824 413.374 391.547 406.391 330.197 416.202C268.847 426.013 207.261 408.169 148.792 408.169C90.3227 408.169 87.3238 405.213 59.637 402.203C14.9631 397.362 -16.3439 377.623 9.158 372.963Z" fill="#DAD7EB"/>
<path d="M381.115 358.472C374.86 357.637 369.655 373.467 369.655 373.467L369.591 373.403C368.532 370.007 367.783 366.523 367.352 362.992C368.53 362.114 374.85 357.326 376.317 355.334C377.988 353.192 377.881 347.837 374.753 347.526C371.626 347.215 367.149 360.239 367.149 360.239L366.988 359.972C366.645 356.855 366.42 353.685 366.27 350.696C367.877 348.961 371.626 344.773 372.461 342.738C373.532 340.136 373.607 337.522 371.315 337.522C369.569 337.522 367.127 342.792 366.067 345.287C366.003 342.803 365.981 340.628 365.981 338.958C367.309 336.186 368.385 333.3 369.194 330.335C369.708 327.422 369.708 322.945 367.738 322.42C365.767 321.896 363.571 324.562 362.843 329.189C362.286 332.745 364.064 337.126 364.985 339.043C364.985 340.693 364.985 342.792 365.049 345.202C363.978 342.181 361.258 335.198 358.173 334.191C356.374 333.613 354.424 335.552 355.26 339.086C356.095 342.621 364.01 349.507 364.01 349.507L365.274 351.178C365.392 353.449 365.563 355.816 365.788 358.183C363.86 355.398 360.122 350.504 356.149 348.254C353.428 346.701 346.67 349.818 350.633 354.927C353.985 359.211 363.486 362.157 366.292 362.938C366.666 365.916 367.243 368.864 368.016 371.764C364.803 368.39 357.199 361.257 352.09 362.21C345.417 363.463 344.174 369.922 349.947 372.632C355.72 375.341 369.537 375.545 369.537 375.545C369.537 375.545 377.87 371.796 380.997 369.301C384.125 366.805 387.36 359.308 381.115 358.472Z" fill="#A7A3D1"/>
<path d="M13.9016 299.564C13.9016 299.564 11.3739 309.953 18.5072 326.887C25.6404 343.82 53.4772 362.232 53.4772 362.232C54.0609 348.62 51.3492 335.069 45.5728 322.731C36.0511 302.809 13.9016 299.564 13.9016 299.564Z" fill="url(#paint0_linear_1_1099)"/>
<path d="M53.6498 307.158C53.6498 307.158 47.9518 312.513 45.4883 325.644C43.0249 338.775 52.5681 361.214 52.5681 361.214C58.4023 353.164 62.2053 343.824 63.6535 333.988C65.8277 318.029 53.6498 307.158 53.6498 307.158Z" fill="url(#paint1_linear_1_1099)"/>
<path d="M1.24243 345.181C1.24243 345.181 4.79837 352.11 16.8049 358.033C28.8115 363.956 52.9745 360.893 52.9745 360.893C46.8106 353.088 38.8516 346.89 29.7754 342.824C15.0162 336.419 1.24243 345.181 1.24243 345.181Z" fill="url(#paint2_linear_1_1099)"/>
<path d="M29.6041 372.964H95.8275C95.3133 370.16 94.2236 367.493 92.6271 365.132C91.0307 362.77 88.9623 360.765 86.5522 359.243C78.2193 353.802 68.6441 359.243 68.6441 359.243C68.6441 359.243 64.0492 347.697 47.1051 347.697C30.161 347.697 27.6654 360.325 27.6654 360.325C27.6654 360.325 11.8245 356.566 9.60736 372.964H29.6041Z" fill="url(#paint3_linear_1_1099)"/>
<path d="M267.776 375.159H333.999C333.485 372.355 332.396 369.689 330.799 367.327C329.203 364.966 327.134 362.961 324.724 361.439C316.391 355.998 306.827 361.439 306.827 361.439C306.827 361.439 302.221 349.839 285.277 349.839C268.333 349.839 265.837 362.478 265.837 362.478C265.837 362.478 249.996 358.718 247.779 375.116L267.776 375.159Z" fill="url(#paint4_linear_1_1099)"/>
<path d="M438.212 361.31C438.212 361.31 436.348 353.074 436.745 346.915C437.141 340.757 444.242 339.943 444.456 335.005C444.671 330.068 442.871 323.77 448.805 320.332C454.739 316.894 450.09 313.584 453.7 307.661C457.309 301.738 461.508 303.613 463.693 305.83C465.878 308.047 460.736 318.34 463.264 323.684C465.792 329.029 457.641 338.872 458.562 341.078C459.483 343.285 462.761 347.322 462.354 353.792C462.204 355.734 461.669 357.626 460.779 359.359C459.888 361.091 458.662 362.629 457.17 363.881L438.212 361.31Z" fill="url(#paint5_linear_1_1099)"/>
<path d="M444.553 358.515C444.553 358.515 445.624 350.118 448.012 344.463C450.401 338.808 457.47 340.436 459.29 335.841C461.111 331.246 461.582 324.723 468.319 323.491C475.056 322.26 471.811 317.579 477.199 313.209C482.586 308.839 485.917 312.031 487.224 314.859C488.53 317.686 480.23 325.634 480.797 331.514C481.365 337.394 470.387 343.916 470.515 346.316C470.644 348.715 472.368 353.61 469.798 359.565C469.004 361.343 467.863 362.944 466.441 364.274C465.019 365.604 463.345 366.635 461.518 367.308L444.553 358.515Z" fill="url(#paint6_linear_1_1099)"/>
<path d="M409.197 375.545H475.41C474.895 372.741 473.806 370.075 472.209 367.713C470.613 365.352 468.544 363.347 466.134 361.825C457.801 356.384 448.237 361.825 448.237 361.825C448.237 361.825 443.642 350.279 426.698 350.279C409.754 350.279 407.248 362.917 407.248 362.917C407.248 362.917 391.417 359.147 389.189 375.545H409.197Z" fill="url(#paint7_linear_1_1099)"/>
<path d="M185.228 342.974C185.228 342.974 188.152 343.392 195.029 350.054C199.044 353.785 201.422 358.951 201.648 364.427C201.648 364.427 203.983 348.597 212.519 343.006C215.246 350.76 215.246 359.212 212.519 366.966C217.962 359.925 225.838 355.169 234.604 353.631C234.604 353.631 233.533 367.255 222.523 375.545H190.391C186.524 371.168 183.985 365.779 183.07 360.011C182.156 354.242 182.905 348.332 185.228 342.974Z" fill="#A7A3D1"/>
<path d="M144.946 353.342C138.702 352.517 133.497 368.337 133.497 368.337L133.432 368.272C132.37 364.882 131.62 361.4 131.194 357.873C132.361 356.984 138.691 352.196 140.159 350.204C141.829 348.062 141.722 342.706 138.595 342.396C135.467 342.085 130.99 355.109 130.99 355.109L130.83 354.841C130.487 351.725 130.262 348.554 130.112 345.566C131.719 343.831 135.467 339.643 136.303 337.608C137.374 335.005 137.449 332.403 135.157 332.403C133.411 332.403 130.969 337.662 129.898 340.157C129.834 337.683 129.823 335.498 129.823 333.827C131.149 331.073 132.224 328.205 133.036 325.259C133.55 322.335 133.55 317.858 131.579 317.333C129.609 316.808 127.413 319.475 126.674 324.113C126.128 327.658 127.906 332.039 128.816 333.966C128.816 335.605 128.816 337.704 128.891 340.114C127.82 337.094 125.1 330.111 122.015 329.104C120.215 328.526 118.266 330.464 119.091 333.999C119.916 337.533 127.841 344.42 127.841 344.42L129.116 346.091C129.234 348.362 129.405 350.729 129.63 353.106C127.702 350.311 123.964 345.416 119.991 343.167C117.27 341.614 110.512 344.731 114.475 349.84C117.827 354.124 127.327 357.069 130.133 357.851C130.508 360.828 131.084 363.777 131.858 366.677C128.645 363.303 121.04 356.17 115.931 357.133C109.259 358.376 108.016 364.834 113.789 367.544C119.562 370.254 133.379 370.457 133.379 370.457C133.379 370.457 141.712 366.709 144.828 364.213C147.945 361.718 151.201 354.177 144.946 353.342Z" fill="#E7B142"/>
<path d="M148.192 68.6869C148.192 66.8661 163.808 0 244.855 0C299.371 0 348.072 35.6127 348.072 86.8628C348.072 122.475 321.542 144.282 286.647 159.181C274.298 164.632 273.934 174.807 273.934 186.803V207.153H213.954V167.524C213.954 151.533 214.683 138.456 231.091 127.895C253.262 113.714 273.934 112.632 273.934 86.8306C273.934 69.3831 260.845 57.0231 244.49 57.0231C218.324 57.0231 205.611 78.8298 201.648 94.4566L148.192 68.6869ZM285.565 269.296C285.536 277.515 283.073 285.541 278.489 292.363C273.904 299.185 267.402 304.496 259.803 307.628C252.204 310.759 243.847 311.571 235.788 309.96C227.728 308.349 220.325 304.388 214.514 298.577C208.702 292.765 204.741 285.362 203.13 277.303C201.519 269.243 202.331 260.887 205.463 253.287C208.594 245.688 213.906 239.186 220.727 234.602C227.549 230.017 235.575 227.554 243.794 227.525C249.29 227.488 254.738 228.543 259.823 230.629C264.908 232.715 269.527 235.791 273.413 239.677C277.3 243.563 280.375 248.182 282.461 253.267C284.547 258.352 285.602 263.8 285.565 269.296Z" fill="url(#paint8_linear_1_1099)"/>
<path opacity="0.47" d="M147.217 80.5114C147.217 78.8084 163.422 6.72626 239.21 6.72626C290.182 6.72626 335.723 40.0255 335.723 87.9446C335.723 121.244 310.917 141.637 278.293 155.571C266.736 160.669 266.394 170.18 266.394 181.394V200.427H210.324V163.39C210.324 148.395 210.998 136.196 226.293 126.342C247.029 113.093 266.394 112.075 266.394 87.9446C266.394 71.6324 254.162 60.0971 238.867 60.0971C214.404 60.0971 200.909 90.0867 197.171 104.664L147.217 80.5114ZM287.043 264.615C287.01 272.299 284.702 279.8 280.411 286.173C276.121 292.547 270.039 297.508 262.934 300.43C255.828 303.353 248.017 304.107 240.483 302.596C232.95 301.086 226.033 297.379 220.603 291.943C215.173 286.508 211.474 279.586 209.972 272.051C208.47 264.516 209.232 256.705 212.162 249.603C215.093 242.5 220.06 236.425 226.438 232.141C232.817 227.857 240.32 225.558 248.003 225.533C253.143 225.5 258.238 226.489 262.992 228.442C267.746 230.395 272.065 233.273 275.697 236.909C279.329 240.546 282.203 244.867 284.151 249.624C286.099 254.38 287.082 259.476 287.043 264.615Z" stroke="white" stroke-miterlimit="10"/>
<path d="M78.8834 92.9678C78.7548 92.5822 77.0733 77.3304 94.1566 71.311C105.638 67.2624 118.555 71.1504 122.358 81.9466C125.003 89.444 121.029 96.0203 114.785 101.75C112.643 103.818 113.264 106.035 114.153 108.52L115.674 112.804L103.036 117.259L100.09 108.916C98.9015 105.542 98.0875 102.736 100.744 99.2763C104.364 94.6386 108.648 92.85 106.731 87.4412C106.471 86.6033 106.042 85.8275 105.47 85.1617C104.899 84.4959 104.197 83.9541 103.409 83.5698C102.62 83.1855 101.761 82.9667 100.884 82.927C100.008 82.8873 99.1326 83.0275 98.3124 83.339C92.8071 85.2883 91.7361 90.8364 92.0574 94.4137L78.8834 92.9678ZM122.69 125.046C123.291 126.78 123.366 128.653 122.905 130.429C122.443 132.205 121.467 133.805 120.098 135.027C118.729 136.25 117.029 137.039 115.212 137.297C113.395 137.555 111.543 137.269 109.888 136.476C108.233 135.683 106.85 134.418 105.913 132.84C104.976 131.262 104.527 129.442 104.622 127.609C104.717 125.777 105.353 124.013 106.449 122.541C107.544 121.069 109.051 119.954 110.779 119.337C111.936 118.921 113.163 118.739 114.39 118.802C115.618 118.864 116.82 119.17 117.928 119.701C119.037 120.232 120.028 120.978 120.845 121.896C121.663 122.813 122.29 123.884 122.69 125.046Z" fill="url(#paint9_linear_1_1099)"/>
<path d="M370.821 101.119C370.961 100.744 379.39 87.9446 396.398 94.2318C407.826 98.4624 415.27 109.698 411.296 120.441C408.533 127.938 401.282 130.412 392.81 130.83C389.8 131.012 388.933 133.111 388.001 135.628L386.427 139.912L373.863 135.264L376.937 126.963C378.179 123.611 379.336 120.922 383.588 119.991C389.329 118.738 393.753 120.119 395.755 114.71C396.096 113.898 396.266 113.024 396.255 112.142C396.243 111.261 396.051 110.392 395.689 109.588C395.328 108.785 394.805 108.064 394.153 107.471C393.501 106.878 392.734 106.426 391.9 106.142C386.416 104.118 382.057 107.695 380.011 110.662L370.821 101.119ZM384.027 153.836C383.383 155.555 382.245 157.044 380.755 158.117C379.266 159.189 377.492 159.797 375.658 159.864C373.824 159.93 372.011 159.452 370.448 158.49C368.885 157.528 367.642 156.124 366.876 154.457C366.109 152.789 365.853 150.932 366.14 149.119C366.427 147.306 367.244 145.619 368.488 144.27C369.732 142.921 371.348 141.97 373.132 141.538C374.916 141.105 376.787 141.211 378.511 141.84C379.668 142.257 380.73 142.899 381.635 143.73C382.541 144.561 383.272 145.565 383.785 146.681C384.299 147.798 384.585 149.006 384.626 150.234C384.668 151.463 384.464 152.687 384.027 153.836Z" fill="url(#paint10_linear_1_1099)"/>
<path d="M161.344 120.633C161.419 120.43 165.982 113.522 175.15 116.917C181.308 119.198 185.325 125.26 183.183 131.055C181.694 135.082 177.774 136.41 173.211 136.667C171.583 136.763 171.069 137.899 170.619 139.259L169.762 141.551L162.983 139.045L164.643 134.568C165.307 132.758 165.939 131.355 168.231 130.798C171.326 130.123 173.715 130.873 174.796 127.949C174.974 127.512 175.06 127.043 175.051 126.572C175.042 126.1 174.937 125.635 174.742 125.206C174.548 124.776 174.269 124.39 173.921 124.072C173.573 123.754 173.164 123.509 172.719 123.354C169.762 122.283 167.363 124.189 166.292 125.785L161.344 120.633ZM168.477 149.07C168.129 149.999 167.514 150.804 166.709 151.383C165.904 151.963 164.946 152.291 163.955 152.327C162.963 152.363 161.984 152.105 161.139 151.585C160.295 151.064 159.623 150.306 159.209 149.405C158.795 148.503 158.657 147.5 158.812 146.52C158.968 145.541 159.409 144.629 160.082 143.9C160.755 143.171 161.629 142.658 162.593 142.425C163.557 142.192 164.568 142.249 165.5 142.59C166.126 142.815 166.702 143.163 167.192 143.614C167.683 144.065 168.078 144.609 168.356 145.214C168.633 145.82 168.787 146.475 168.808 147.141C168.828 147.806 168.716 148.47 168.477 149.091V149.07Z" fill="#B6B6CE"/>
<path d="M357.895 37.0906C357.895 36.8335 358.837 27.0976 370.308 25.6089C378.009 24.6128 385.549 28.7471 386.492 35.9981C387.145 41.0321 383.793 44.5666 379.134 47.3513C377.484 48.3474 377.623 49.7934 377.838 51.4963L378.212 54.3668L369.73 55.4378L369.012 49.8362C368.712 47.5762 368.573 45.7126 370.694 43.9239C373.575 41.5141 376.477 40.9785 376.049 37.3262C375.993 36.7707 375.824 36.2323 375.554 35.7435C375.284 35.2548 374.918 34.8258 374.478 34.4825C374.037 34.1392 373.532 33.8886 372.992 33.746C372.452 33.6033 371.889 33.5715 371.336 33.6525C367.641 34.1345 366.238 37.444 365.981 39.7361L357.895 37.0906ZM380.997 62.9459C381.144 64.1084 380.942 65.2881 380.419 66.3364C379.896 67.3847 379.074 68.2546 378.057 68.8365C377.04 69.4184 375.873 69.6861 374.705 69.6061C373.536 69.526 372.417 69.1017 371.489 68.3866C370.56 67.6716 369.865 66.6977 369.489 65.5879C369.114 64.4781 369.075 63.2819 369.379 62.1502C369.682 61.0185 370.313 60.002 371.194 59.2286C372.074 58.4553 373.163 57.9599 374.325 57.8048C375.099 57.6996 375.887 57.7488 376.643 57.9496C377.399 58.1504 378.107 58.4988 378.727 58.9747C379.348 59.4507 379.868 60.0448 380.257 60.7227C380.647 61.4006 380.898 62.1489 380.997 62.9245V62.9459Z" fill="#E5E5EC"/>
<path d="M319.314 322.399L342.481 371.025L341.871 378.126C345.213 379.893 353.567 368.283 353.567 368.283L351.157 365.306C351.157 365.306 343.938 327.765 337.951 322.399H319.314Z" fill="#D36762"/>
<path d="M341.935 376.477C341.935 376.477 340.318 379.079 338.336 381.661C336.355 384.242 334.309 387.134 335.198 388.483C336.087 389.833 345.32 383.406 352.014 378.844C358.708 374.281 357.808 374.142 357.68 373.403C357.551 372.664 353.213 367.598 353.213 367.598C353.213 367.598 348.222 374.024 345.277 376.016C342.331 378.008 341.935 376.477 341.935 376.477Z" fill="#282E4E"/>
<path d="M340.178 322.399L321.316 317.494L326.736 379.315L321.316 384.67H338.646L337.779 379.733C338.196 374.131 341.185 333.249 340.178 322.399Z" fill="#FF897F"/>
<path d="M341.411 232.355C341.411 232.355 349.005 249.846 350.151 257.439C351.297 265.033 340.029 276.301 340.029 276.301L341.411 232.355Z" fill="#FF897F"/>
<path d="M318.554 194.397L317.322 197.996C317.322 197.996 314.409 197.996 314.109 198.917C313.809 199.838 315.651 201.37 315.651 201.37C315.651 201.37 313.691 209.124 315.876 212.691C318.061 216.257 331.182 214.297 331.182 214.297C333.005 213.958 334.719 213.186 336.181 212.045C337.642 210.904 338.808 209.428 339.579 207.742C342.567 201.755 344.752 197.16 343.606 191.173C342.931 187.681 336.666 185.25 330.582 185.432C327.903 185.524 325.315 186.431 323.166 188.034C321.017 189.636 319.407 191.856 318.554 194.397Z" fill="#FF897F"/>
<path d="M323.459 213.612L322.645 221.548L335.883 219.706L336.932 211.341L323.459 213.612Z" fill="#FF897F"/>
<path d="M331.204 218.731C331.204 218.731 320.696 218.731 316.444 228.446C310.629 241.759 316.252 261.199 316.252 261.199L315.18 271.738C315.18 271.738 317.023 276.301 345.063 271.47L341.411 261.349C341.411 261.349 344.731 237.893 343.906 230.502C342.792 220.552 331.204 218.731 331.204 218.731Z" fill="#BDBED1"/>
<path d="M323.887 187.531C323.845 190.742 324.758 193.892 326.511 196.582C329.382 200.78 330.999 201.412 330.999 201.412C330.999 201.412 330.303 203.833 330.71 204.518C331.117 205.204 332.723 202.044 334.737 202.505C336.751 202.965 336.879 206.939 334.962 209.231C334.411 209.898 333.702 210.416 332.899 210.737C332.096 211.059 331.226 211.175 330.367 211.073C330.367 211.073 329.5 217.232 332.895 222.116C334.592 224.546 337.077 226.315 339.928 227.123C342.78 227.931 345.823 227.729 348.543 226.55C351.036 225.525 353.088 223.654 354.34 221.267C355.591 218.879 355.962 216.127 355.387 213.494C354.466 208.374 347.793 204.465 347.793 204.465C347.793 204.465 350.374 193.144 345.951 187.531C341.527 181.919 329.093 181.973 324.38 184.04C324.38 184.04 319.839 182.38 316.957 185.421C316.3 186.145 315.804 187 315.503 187.931C315.202 188.861 315.102 189.844 315.21 190.816C315.319 191.788 315.633 192.725 316.132 193.566C316.631 194.407 317.303 195.132 318.103 195.693C318.103 195.693 320.46 189.406 323.887 187.531Z" fill="#282E4E"/>
<path d="M323.985 226.411L307.576 245.69L314.656 253.327L334.76 237.603C335.599 236.946 336.295 236.123 336.803 235.186C337.312 234.249 337.623 233.218 337.718 232.156C337.812 231.094 337.687 230.023 337.352 229.011C337.016 227.999 336.477 227.067 335.766 226.272C335.024 225.436 334.112 224.77 333.09 224.318C332.068 223.866 330.961 223.639 329.844 223.652C328.727 223.665 327.625 223.919 326.614 224.394C325.604 224.87 324.707 225.558 323.985 226.411Z" fill="#D3D5E2"/>
<path d="M299.949 217.553C299.949 217.553 301.492 241.566 301.952 246.397C302.413 251.227 304.512 255.062 308.732 255.372C310.89 255.449 313 254.724 314.655 253.337L307.779 216.921L299.949 217.553Z" fill="#FF897F"/>
<path d="M303.442 207.389C302.915 207.741 302.481 208.215 302.178 208.771C301.318 209.081 300.615 209.715 300.218 210.538C299.791 211.093 299.432 211.697 299.147 212.337C298.526 213.644 300.218 218.667 300.218 218.667L307.951 218.024C308.632 216.581 309.211 215.092 309.686 213.569C310.039 212.112 309.001 210.356 308.69 209.809C308.379 209.263 307.844 209.424 307.619 209.959C307.543 210.835 307.608 211.718 307.812 212.573L307.265 213.333C306.984 212.994 306.772 212.603 306.641 212.183C306.511 211.762 306.464 211.319 306.505 210.881C306.623 209.349 308.808 205.59 308.037 204.551C307.265 203.512 305.434 206.853 305.434 206.853C304.745 206.923 304.073 207.104 303.442 207.389Z" fill="#FF897F"/>
<path d="M315.18 271.738L317.172 322.399H340.178C340.178 322.399 347.183 280.36 345.062 271.47C345.062 271.47 325.987 274.234 315.18 271.738Z" fill="url(#paint11_linear_1_1099)"/>
<path d="M323.706 382.314C323.706 382.314 320.932 383.599 317.858 384.67C314.784 385.742 311.496 387.048 311.496 388.666C311.496 390.283 322.742 389.962 330.85 389.812C338.958 389.662 339.258 389.426 339.568 388.74C339.879 388.055 338.015 381.061 338.015 381.061C338.015 381.061 330.282 383.749 326.759 383.749C323.235 383.749 323.706 382.314 323.706 382.314Z" fill="#282E4E"/>
<path d="M328.107 213.291C326.644 214.142 325.015 214.668 323.33 214.833" stroke="#BA6561" stroke-linecap="round" stroke-linejoin="round"/>
<path d="M300.635 217.885L305.219 217.275" stroke="#BA6561" stroke-linecap="round" stroke-linejoin="round"/>
<path d="M177.238 384.692H163.25V392.95H177.238V384.692Z" fill="#FF897F"/>
<path d="M163.25 391.954C163.25 391.954 163.025 400.897 163.25 402.343C163.25 402.343 170.212 402.728 173.725 402.728C177.238 402.728 187.253 403.114 190.391 402.343C193.529 401.572 192.297 400.276 191.537 398.98C190.777 397.684 176.939 391.954 176.939 391.954C176.939 391.954 168.991 393.175 163.25 391.954Z" fill="#282E4E"/>
<path d="M156.3 273.548C156.3 273.548 155.84 285.705 156.3 302.67C156.761 319.636 160.959 387.445 160.959 387.445L179.167 388.28L185.883 273.548H156.3Z" fill="url(#paint12_linear_1_1099)"/>
<path d="M175.567 179.07L176.788 182.669C176.788 182.669 179.691 182.669 180.002 183.579C180.312 184.49 178.47 186.032 178.47 186.032C178.47 186.032 180.419 193.744 178.245 197.3C176.071 200.855 162.993 198.906 162.993 198.906C161.176 198.571 159.467 197.801 158.01 196.664C156.554 195.527 155.394 194.054 154.628 192.373C151.64 186.407 149.466 181.823 150.612 175.857C151.287 172.376 157.52 169.955 163.593 170.138C166.26 170.233 168.835 171.139 170.974 172.735C173.114 174.331 174.716 176.541 175.567 179.07Z" fill="#FF897F"/>
<path d="M170.673 198.221L171.476 206.125L158.292 204.294L157.242 195.961L170.673 198.221Z" fill="#FF897F"/>
<path d="M170.888 172.654C169.286 174.977 167.02 176.761 164.387 177.774C164.387 177.774 165.95 184.083 164.729 184.789C163.508 185.496 163.583 183.815 161.131 183.579C158.678 183.344 158.464 186.482 159.224 189.309C159.519 190.333 160.162 191.222 161.042 191.822C161.921 192.422 162.983 192.696 164.044 192.597C165.115 192.373 165.415 193.669 163.273 195.586C161.53 197.028 159.666 198.318 157.703 199.442C157.703 199.442 148.064 190.573 146.382 186.043C144.701 181.512 146.382 178.995 146.382 178.995C146.382 178.995 145.161 173.115 149.97 170.137C154.779 167.16 164.579 166.464 168.553 166.839C172.527 167.213 172.141 169.366 172.141 169.366C172.723 169.479 173.261 169.754 173.693 170.159C174.126 170.565 174.434 171.085 174.583 171.658C174.787 172.319 174.818 173.02 174.671 173.696C174.525 174.371 174.207 174.998 173.748 175.514C172.912 174.451 171.952 173.491 170.888 172.654Z" fill="#282E4E"/>
<path d="M158.131 203.008C154.842 207.887 152.21 213.177 150.302 218.742C147.817 226.764 156.299 273.548 156.299 273.548H185.882C185.882 273.548 184.982 228.157 182.808 220.252C180.948 214.059 176.927 208.738 171.476 205.257L158.131 203.008Z" fill="url(#paint13_linear_1_1099)"/>
<path d="M167.021 274.266L166.314 384.124" stroke="#F96786" stroke-linecap="round" stroke-linejoin="round"/>
<path d="M160.744 384.124H179.745" stroke="#F96786" stroke-linecap="round" stroke-linejoin="round"/>
<path d="M152.101 216.793C147.902 224.419 140.051 239.917 135.66 256.347L148.042 261.392L167.824 225.233C168.499 224.015 168.881 222.657 168.938 221.266C168.996 219.875 168.728 218.49 168.156 217.221C168.156 217.157 168.103 217.093 168.07 217.039C164.943 210.495 155.593 210.441 152.101 216.793Z" fill="url(#paint14_linear_1_1099)"/>
<path d="M172.044 280.799C172.044 280.799 175.182 281.399 175.182 280.799C175.182 280.199 173.629 279.428 171.894 279.396C171.434 279.396 170.973 279.396 170.534 279.396V279.053L171.862 278.796C171.862 278.796 174.722 279.867 174.904 279.278C175.086 278.689 172.965 277.136 171.691 277.275C170.858 277.367 170.032 277.506 169.216 277.693L167.835 277.822C168.906 277.125 169.902 276.751 169.656 276.322C169.409 275.894 168.777 275.883 166.946 276.601C165.946 277.009 164.994 277.526 164.107 278.143H163.529L148.009 261.306L135.628 256.261C135.628 256.261 132.072 264.294 137.577 270.828C143.083 277.361 161.773 286.079 161.773 286.079C163.818 286.958 169.848 284.559 169.848 284.559L171.005 284.366C171.005 284.366 174.143 284.966 174.143 284.366C174.143 283.766 172.59 282.995 170.855 282.963H170.041V282.856L171.798 282.566C171.798 282.566 174.936 283.155 174.936 282.566C174.936 281.977 173.383 281.185 171.648 281.153C171.176 281.153 170.705 281.153 170.255 281.153V281.024L172.044 280.799Z" fill="#FF897F"/>
<path d="M165.168 197.289C165.168 197.289 168.156 199.592 170.802 199.431" stroke="#BA6561" stroke-linecap="round" stroke-linejoin="round"/>
<path d="M163.561 278.229C163.561 278.229 165.189 281.731 164.953 283.22" stroke="#BA6561" stroke-linecap="round" stroke-linejoin="round"/>
<path d="M406.005 213.215C406.005 213.215 397.64 228.317 391.717 240.26L375.78 227.214L374.773 226.057C374.517 225.212 374.114 224.418 373.584 223.712C372.374 222.223 372.117 219.042 371.335 220.638C370.928 221.473 371.271 223.069 371.678 224.386L368.358 224.162C366.557 223.516 364.668 223.155 362.756 223.09C360.614 223.24 361.16 224.065 361.278 224.162C361.396 224.258 364.148 224.644 366.119 225.372L366.055 225.522C364.598 225.048 363.078 224.798 361.546 224.783C359.404 224.943 359.95 225.757 360.068 225.918C361.858 226.272 363.625 226.737 365.359 227.31V227.396C364.053 226.998 362.696 226.796 361.332 226.796C359.189 226.946 359.725 227.771 359.843 227.921C359.961 228.071 362.542 228.381 364.502 229.067C363.548 228.894 362.575 228.851 361.61 228.938C359.468 229.228 360.089 230.01 360.207 230.159C360.325 230.309 362.242 230.406 364.052 230.781L371.549 233.383C373.938 237.668 382.346 251.816 390.304 255.426C392.714 256.497 396.023 255.233 397.683 253.176L406.991 241.588L406.005 213.215Z" fill="#FF897F"/>
<path d="M410.365 356.662L412.86 383.931L408.512 388.976C408.512 388.976 409.861 393.121 423.142 388.29L421.739 382.282C421.739 382.282 423.614 363.206 423.142 357.283L410.365 356.662Z" fill="#FF897F"/>
<path d="M442.154 356.662L448.238 383.931L448.859 389.233C450.556 391.062 452.819 392.268 455.284 392.656C457.749 393.045 460.273 392.594 462.451 391.375L456.806 382.367L454.471 356.662H442.154Z" fill="#FF897F"/>
<path d="M408.961 388.097C408.961 388.097 400.318 394.684 400.157 396.013C399.996 397.341 400.778 397.726 402.963 397.951C405.148 398.176 416.126 396.548 420.025 395.809C423.924 395.07 424.084 394.32 424.084 394.32C424.242 391.829 423.816 389.335 422.842 387.037C422.842 387.037 419.629 390.057 411.435 389.65C410.92 389.645 410.416 389.497 409.979 389.223C409.543 388.949 409.19 388.559 408.961 388.097Z" fill="#464F96"/>
<path d="M448.473 385.913C448.473 385.913 448.548 394.406 449.715 396.752C450.882 399.097 456.495 400.725 459.355 401.539C462.214 402.353 468.994 402.825 469.99 400.468C470.986 398.112 462.493 391.354 462.493 391.354C459.827 391.785 457.127 391.961 454.428 391.878C451.589 391.611 448.473 385.913 448.473 385.913Z" fill="#464F96"/>
<path d="M447.616 286.219C446.305 278.591 443.526 271.291 439.433 264.723L437.109 253.284C439.251 247.404 446.116 227.578 446.052 214.565L429.536 209.788L420.432 209.467C420.432 209.467 414.927 210.538 406.005 213.215C406.005 213.215 401.946 229.228 402.492 237.014C402.94 241.851 403.873 246.631 405.277 251.281L405.073 265.205L402.931 377.784L425.841 379.594L424.984 298.707L426.784 299.446L440.568 381.457L462.418 378.651C462.418 378.651 449.137 294.305 447.616 286.219Z" fill="url(#paint15_linear_1_1099)"/>
<path d="M417.135 210.698C417.135 210.698 414.607 212.991 416.064 214.886C417.52 216.782 421.119 214.49 421.119 214.49C421.119 214.49 424.332 217.35 428.284 216.257C432.237 215.165 433.104 210.698 433.104 210.698" stroke="#F96786" stroke-linecap="round" stroke-linejoin="round"/>
<path d="M446.31 214.565C446.31 214.565 439.391 222.148 439.016 229.935C438.716 236.2 451.569 249.428 455.949 254.976L439.316 270.024L438.727 270.11C438.12 269.799 437.481 269.558 436.82 269.392C435.527 269.033 434.161 269.033 432.868 269.392C432.686 269.607 432.868 269.939 433.65 270.078C434.138 270.158 434.633 270.201 435.128 270.206L435.813 270.592L433.029 271.042C431.722 271.053 430.42 271.193 429.141 271.46C427.545 271.888 425.927 273.109 426.227 273.602C426.527 274.094 428.369 273.291 429.323 272.82H432.182L432.279 272.98C431.399 273.018 430.524 273.136 429.665 273.334C428.07 273.762 426.452 274.994 426.752 275.54C427.052 276.087 428.894 275.219 429.848 274.758H433.425V274.833C432.703 274.882 431.986 274.993 431.283 275.165C429.687 275.594 428.07 276.815 428.369 277.308C428.669 277.8 430.512 276.997 431.465 276.526H434.592C434.275 276.573 433.96 276.638 433.65 276.718C432.054 277.147 430.437 278.368 430.736 278.861C431.036 279.353 432.932 278.55 433.832 278.089H435.642C435.642 278.089 440.997 278.679 443.289 275.219C447.124 273.42 464.892 262.366 467.002 258.564C470.076 252.995 446.31 214.565 446.31 214.565Z" fill="#FF897F"/>
<path d="M410.451 194.376C410.451 194.376 408.137 201.873 408.416 206.875C408.694 211.877 413.503 210.881 414.681 210.441C415.86 210.002 417.68 212.112 419.223 211.437C420.765 210.763 418.709 206.939 418.709 206.939L410.451 194.376Z" fill="#282E4E"/>
<path d="M418.387 204.433L418.654 213.804C418.654 213.804 419.586 214.522 422.264 214.565C424.942 214.608 428.915 212.027 428.915 212.027L428.401 202.58L418.387 204.433Z" fill="#FF897F"/>
<path d="M433.971 190.766C433.285 190.702 432.593 190.794 431.947 191.034C432.24 188.187 432.39 185.327 432.397 182.465L410.676 181.148C410.676 181.148 409.251 192.33 410.419 198.713C411.052 201.52 412.647 204.017 414.928 205.772C416.11 206.738 417.542 207.351 419.058 207.541C420.573 207.73 422.112 207.488 423.496 206.843C426.36 205.684 428.663 203.462 429.922 200.641C429.922 200.513 430.019 200.373 430.072 200.234C431.717 199.696 433.223 198.804 434.485 197.621C437.056 195.211 437.398 190.991 433.971 190.766Z" fill="#FF897F"/>
<path d="M418.12 186.418C422.319 188.281 427.878 187.274 427.878 187.274C427.377 188.917 427.303 190.661 427.663 192.34C428.338 194.6 429.688 194.815 429.688 194.815C429.688 194.815 431.316 191.119 433.469 191.473C435.621 191.826 434.882 196.014 433.244 197.771C432.839 198.266 432.34 198.675 431.775 198.975C431.211 199.275 430.592 199.459 429.955 199.517C429.955 199.517 427.738 202.205 428.402 204.872C428.402 204.872 428.809 210.656 428.917 212.005C428.917 212.005 429.763 213.001 431.905 211.844C434.047 210.688 436.853 212.915 440.677 210.527C444.5 208.139 444.018 204.551 441.962 199.57C440.604 196.008 439.656 192.304 439.134 188.528C439.134 188.528 438.984 181.373 436.992 177.71C435 174.047 431.412 172.654 427.289 171.819C424.858 171.312 422.331 171.562 420.048 172.537C420.048 172.537 411.308 173.554 408.427 178.781C403.297 188.078 410.002 191.741 410.002 191.741C412.025 188.845 413.268 185.478 413.611 181.962C414.651 183.852 416.218 185.4 418.12 186.418Z" fill="#282E4E"/>
<path d="M406.928 241.663C406.928 241.663 412.947 239.638 416.567 239.638C420.187 239.638 429.881 242.852 429.881 242.852" stroke="#F96786" stroke-miterlimit="10"/>
<path d="M421.097 214.49C420.351 217.898 419.992 221.38 420.026 224.869" stroke="#F96786" stroke-linecap="round" stroke-linejoin="round"/>
<path d="M415.85 292.859C415.85 292.859 424.161 295.001 426.817 299.425" stroke="#F96786" stroke-linecap="round" stroke-linejoin="round"/>
<path d="M439.808 376.777L461.754 374.195" stroke="#F96786" stroke-linecap="round" stroke-linejoin="round"/>
<path d="M403.039 373.285L425.82 375.556" stroke="#F96786" stroke-linecap="round" stroke-linejoin="round"/>
<path d="M455.949 254.976C458.17 255.351 460.348 255.946 462.451 256.754" stroke="#BA6561" stroke-linecap="round" stroke-linejoin="round"/>
<path d="M391.719 240.26C391.992 242.945 391.992 245.651 391.719 248.336" stroke="#BA6561" stroke-linecap="round" stroke-linejoin="round"/>
<path d="M418.709 207.646C418.709 207.646 422.993 208.535 427.695 204.026" stroke="#BA6561" stroke-linecap="round" stroke-linejoin="round"/>
<path d="M61.0391 355.913L63.781 381.254L61.0606 394.471C61.0606 394.471 60.3751 395.424 66.4159 396.377C72.4566 397.33 75.6805 394.878 75.6805 394.878L73.4205 380.9L74.3738 358.14L61.0391 355.913Z" fill="#FF897F"/>
<path d="M96.1816 356.866L101.494 379.893L103.133 390.786L125.614 391.332L112.665 379.893L108.445 354.82L96.1816 356.866Z" fill="#FF897F"/>
<path d="M62.8064 386.513C63.1567 387.606 63.8075 388.578 64.6844 389.319C65.5614 390.059 66.629 390.538 67.7653 390.701C73.6347 391.332 74.3523 386.77 74.3523 386.77C74.3523 386.77 76.4302 395.017 76.4944 396.923C76.5587 398.83 72.3495 401.25 68.1617 401.25C66.5643 401.338 64.9718 401.006 63.5421 400.289C62.1124 399.571 60.8951 398.492 60.0109 397.159C58.9291 395.552 62.8064 386.513 62.8064 386.513Z" fill="#464F96"/>
<path d="M101.975 383.042C101.755 385.308 101.755 387.589 101.975 389.854C102.382 391.9 102.864 393.196 103.336 393.335C103.807 393.474 111.722 393.828 113.628 393.914C115.535 393.999 124.393 394.374 127.049 393.914C129.705 393.453 130.176 393.335 130.583 392.168C130.99 391 118.673 385.185 118.673 385.185C116.302 385.997 113.821 386.441 111.315 386.502C106.817 386.705 103.871 382.892 101.975 383.042Z" fill="#464F96"/>
<path d="M75.4882 190.498V199.463L64.5955 198.799L62.8711 186.171L75.4882 190.498Z" fill="#FF897F"/>
<path d="M134.375 200.963C132.904 200.583 131.369 200.532 129.876 200.813V200.309C131.826 199.945 135.607 199.356 133.668 198.778C131.451 198.103 127.906 199.099 127.906 199.099L124.553 198.189C125.496 196.85 126.278 193.979 125.496 194.365C124.714 194.75 121.918 198.649 121.126 199.634L106.495 215.475L85.4918 196.678C83.2533 199.067 82.5999 210.602 85.9095 216.15C89.2191 221.698 106.774 228.167 106.774 228.167C113.757 227.975 122.422 211.705 124.982 206.586L128.538 206.521C128.538 206.521 129.534 206.468 130.198 206.404C132.211 206.2 134.857 205.9 133.24 205.258C132.232 204.926 131.171 204.788 130.112 204.851V204.39C132.051 204.101 135.992 203.672 134.054 202.998C132.741 202.647 131.368 202.577 130.026 202.794V202.473C131.612 202.184 136.474 201.744 134.375 200.963Z" fill="#FF897F"/>
<path d="M78.927 164.9C78.927 164.9 82.8256 178.353 83.2112 184.329C83.5968 190.306 79.7088 193.776 74.707 193.776C71.3923 193.636 68.1798 192.587 65.4209 190.745L59.1659 179.252C58.0378 177.189 57.7343 174.775 58.3168 172.497C58.8992 170.219 60.3242 168.246 62.3041 166.978C64.0499 165.836 65.9048 164.871 67.8415 164.097C74.4071 161.515 78.927 164.9 78.927 164.9Z" fill="#FF897F"/>
<path d="M61.082 179.841C61.082 179.841 57.6118 178.631 56.4764 180.816C55.3411 183.001 58.0402 186.386 60.4394 187.521C62.8385 188.656 66.3302 187.521 66.3302 187.521L61.082 179.841Z" fill="#FF897F"/>
<path d="M98.313 256.315C98.313 256.315 92.9577 259.528 81.5188 260.203C76.7043 260.424 71.8814 260.391 67.0703 260.106C60.8903 259.785 56.2097 259.228 56.2097 259.228L57.977 237.261L49.1836 201.273C53.0608 198.21 64.1784 195.597 64.1784 195.597C64.1784 195.597 69.2124 199.463 74.1071 198.981C75.778 198.82 75.5209 195.083 75.5209 195.083C75.5209 195.083 81.8294 194.686 84.6785 195.779C85.0765 195.894 85.4429 196.1 85.7495 196.378C92.8506 203.447 90.9548 236.125 90.9548 236.125L98.313 256.315Z" fill="url(#paint16_linear_1_1099)"/>
<path d="M77.3741 164.461C76.7719 166.92 75.4698 169.153 73.6254 170.887C70.3479 174.218 67.3168 174.4 67.3168 174.4C66.8177 175.461 66.0854 176.394 65.1747 177.132L63.8359 178.042C64.4092 179.65 64.5963 181.371 64.3821 183.065C64.3821 183.065 61.758 179.252 59.2839 179.52C56.8097 179.788 55.7922 182.669 57.4202 184.875C58.8408 186.614 60.8868 187.725 63.1183 187.971L63.9751 193.969C62.5428 194.28 61.0501 194.153 59.6909 193.604L59.5624 193.551C58.3521 193.005 56.9597 194.761 54.4106 194.825C51.8615 194.89 51.3902 193.305 49.2695 193.969C47.1488 194.633 43.0895 195.372 41.6971 191.066C40.3048 186.76 43.6893 185.496 42.6075 182.947C41.5257 180.398 42.9074 178.47 45.1459 177.26C47.3844 176.05 45.146 169.688 48.4769 167.139C51.8079 164.589 52.654 164.354 53.3823 162.779C54.1107 161.205 57.2167 159.641 60.0229 159.748C63.5253 159.887 62.7541 156.385 67.681 156.867C73.4968 157.435 74.6429 159.877 74.6429 159.877C76.7336 160.025 78.7054 160.905 80.2124 162.362C85 166.517 84.0896 172.108 81.8403 176.018C81.7868 176.06 78.8307 166.035 77.3741 164.461Z" fill="#282E4E"/>
<path d="M49.5797 200.491L30.3007 221.056L14.3633 206.521C13.4851 205.568 10.3255 201.937 9.56503 201.637C8.80458 201.337 9.77923 204.111 10.8289 205.375L7.6157 206.564C7.6157 206.564 4.00623 205.868 1.8534 206.735C-0.020947 207.475 3.78133 207.742 5.76279 207.946V208.46C4.2528 208.313 2.72878 208.495 1.29643 208.995C-0.738576 209.906 4.14548 209.927 5.81633 210.066V210.377C4.46027 210.279 3.09881 210.469 1.82131 210.934C-0.0423341 211.769 3.90983 211.855 5.86987 212.005V212.455C4.80735 212.485 3.7603 212.717 2.78522 213.14C1.22147 213.912 3.85626 213.987 5.91269 214.008C6.57674 214.008 7.5836 214.008 7.5836 214.008L11.1181 213.783C14.1063 218.667 24.1207 234.133 31.0933 233.737C31.0933 233.737 51.5291 222.898 54.3567 217.135C57.1843 211.373 52.0003 202.687 49.5797 200.491Z" fill="#FF897F"/>
<path d="M113.896 356.598L108.595 357.455L95.367 359.597L81.4432 286.583L79.5368 284.13V359.586H58.0085C58.0085 359.586 52.2891 306.462 52.2891 290.374C52.2891 274.287 56.4983 255.158 56.4983 255.158C77.6196 261.649 97.2735 253.584 97.2735 253.584C97.4663 254.076 97.659 254.655 97.8625 255.169C105.638 277.693 113.896 356.598 113.896 356.598Z" fill="url(#paint17_linear_1_1099)"/>
<path d="M30.3008 221.056C31.9705 222.835 33.4962 224.744 34.8635 226.764" stroke="#BA6561" stroke-linecap="round" stroke-linejoin="round"/>
<path d="M106.462 215.518C105.932 217.548 105.932 219.68 106.462 221.709" stroke="#BA6561" stroke-linecap="round" stroke-linejoin="round"/>
<path d="M75.4984 193.776C75.4984 193.776 67.926 194.847 64.3594 188.902" stroke="#BA6561" stroke-linecap="round" stroke-linejoin="round"/>
<path d="M58.877 236.736L62.872 238.085" stroke="#F96786" stroke-linecap="round" stroke-linejoin="round"/>
<path d="M54.0449 269.285C56.2253 268.705 58.1751 267.469 59.6308 265.746C61.0865 264.022 61.978 261.893 62.185 259.646" stroke="#7954B3" stroke-miterlimit="10"/>
<path d="M55.9297 258.114C55.9297 258.114 78.4219 265.376 98.3114 256.315" stroke="#7954B3" stroke-miterlimit="10"/>
<path d="M79.5684 284.119C79.5684 284.119 81.1857 279.203 85.3199 276.911" stroke="#7954B3" stroke-miterlimit="10"/>
<path d="M94.082 257.986C94.082 257.986 96.5348 265.408 101.023 266.972" stroke="#7954B3" stroke-miterlimit="10"/>
<path d="M57.3555 353.385C57.3555 353.385 65.1314 354.552 79.5371 353.385" stroke="#7954B3" stroke-miterlimit="10"/>
<path d="M113.179 349.989C106.915 351.504 100.533 352.482 94.1035 352.913" stroke="#7954B3" stroke-miterlimit="10"/>
<path d="M61.2751 196.346C64.4664 199.168 68.5517 200.773 72.8105 200.877C79.6331 200.877 77.4589 195.018 77.4589 195.018" stroke="#F96786" stroke-linecap="round" stroke-linejoin="round"/>
<path d="M66.9941 223.455C73.2136 222.263 79.5028 221.469 85.8234 221.077" stroke="#F96786" stroke-linecap="round" stroke-linejoin="round"/>
</g>
<defs>
<linearGradient id="paint0_linear_1_1099" x1="16.3436" y1="302.252" x2="35.7405" y2="330.346" gradientUnits="userSpaceOnUse">
<stop stop-color="#DC911B"/>
<stop offset="1" stop-color="#E7B142"/>
</linearGradient>
<linearGradient id="paint1_linear_1_1099" x1="45.0813" y1="334.191" x2="63.9106" y2="334.191" gradientUnits="userSpaceOnUse">
<stop stop-color="#DC911B"/>
<stop offset="1" stop-color="#E7B142"/>
</linearGradient>
<linearGradient id="paint2_linear_1_1099" x1="31.0928" y1="332.007" x2="25.5233" y2="361.428" gradientUnits="userSpaceOnUse">
<stop stop-color="#DC911B"/>
<stop offset="1" stop-color="#E7B142"/>
</linearGradient>
<linearGradient id="paint3_linear_1_1099" x1="49.5043" y1="317.815" x2="52.4818" y2="368.947" gradientUnits="userSpaceOnUse">
<stop stop-color="#FFE9EC"/>
<stop offset="1" stop-color="#A7A3D1"/>
</linearGradient>
<linearGradient id="paint4_linear_1_1099" x1="291.918" y1="390.068" x2="289.69" y2="357.969" gradientUnits="userSpaceOnUse">
<stop stop-color="#DC911B"/>
<stop offset="1" stop-color="#E7B142"/>
</linearGradient>
<linearGradient id="paint5_linear_1_1099" x1="447.532" y1="271.994" x2="452.457" y2="366.225" gradientUnits="userSpaceOnUse">
<stop stop-color="#FFE9EC"/>
<stop offset="1" stop-color="#A7A3D1"/>
</linearGradient>
<linearGradient id="paint6_linear_1_1099" x1="452.928" y1="325.708" x2="467.87" y2="337.747" gradientUnits="userSpaceOnUse">
<stop stop-color="#FFE9EC"/>
<stop offset="1" stop-color="#A7A3D1"/>
</linearGradient>
<linearGradient id="paint7_linear_1_1099" x1="389.189" y1="362.928" x2="475.41" y2="362.928" gradientUnits="userSpaceOnUse">
<stop stop-color="#DC911B"/>
<stop offset="1" stop-color="#E7B142"/>
</linearGradient>
<linearGradient id="paint8_linear_1_1099" x1="167.663" y1="190.006" x2="358.644" y2="91.7146" gradientUnits="userSpaceOnUse">
<stop stop-color="#7954B3"/>
<stop offset="0.05" stop-color="#7153AE"/>
<stop offset="0.21" stop-color="#5951A1"/>
<stop offset="0.37" stop-color="#4B4F99"/>
<stop offset="0.5" stop-color="#464F96"/>
<stop offset="0.64" stop-color="#4A4F98"/>
<stop offset="0.78" stop-color="#56519F"/>
<stop offset="0.92" stop-color="#6952AA"/>
<stop offset="1" stop-color="#7954B3"/>
</linearGradient>
<linearGradient id="paint9_linear_1_1099" x1="116.092" y1="146.874" x2="100.637" y2="87.4197" gradientUnits="userSpaceOnUse">
<stop stop-color="#DC911B"/>
<stop offset="1" stop-color="#E7B142"/>
</linearGradient>
<linearGradient id="paint10_linear_1_1099" x1="366.023" y1="126.171" x2="412.378" y2="126.171" gradientUnits="userSpaceOnUse">
<stop stop-color="#DC911B"/>
<stop offset="1" stop-color="#E7B142"/>
</linearGradient>
<linearGradient id="paint11_linear_1_1099" x1="338.465" y1="311.378" x2="320.621" y2="276.301" gradientUnits="userSpaceOnUse">
<stop offset="0.15" stop-color="#464F96"/>
<stop offset="0.4" stop-color="#4A4F98"/>
<stop offset="0.63" stop-color="#55509F"/>
<stop offset="0.85" stop-color="#6852A9"/>
<stop offset="1" stop-color="#7954B3"/>
</linearGradient>
<linearGradient id="paint12_linear_1_1099" x1="210.057" y1="297.369" x2="147.036" y2="347.301" gradientUnits="userSpaceOnUse">
<stop stop-color="#CD536C"/>
<stop offset="1" stop-color="#8B1F5A"/>
</linearGradient>
<linearGradient id="paint13_linear_1_1099" x1="182.947" y1="302.435" x2="161.548" y2="213.708" gradientUnits="userSpaceOnUse">
<stop offset="0.15" stop-color="#464F96"/>
<stop offset="0.4" stop-color="#4A4F98"/>
<stop offset="0.63" stop-color="#55509F"/>
<stop offset="0.85" stop-color="#6852A9"/>
<stop offset="1" stop-color="#7954B3"/>
</linearGradient>
<linearGradient id="paint14_linear_1_1099" x1="148.652" y1="243.291" x2="163.647" y2="213.569" gradientUnits="userSpaceOnUse">
<stop stop-color="#464F96"/>
<stop offset="0.28" stop-color="#4A4F98"/>
<stop offset="0.56" stop-color="#56519F"/>
<stop offset="0.84" stop-color="#6A53AB"/>
<stop offset="1" stop-color="#7954B3"/>
</linearGradient>
<linearGradient id="paint15_linear_1_1099" x1="402.438" y1="295.451" x2="462.45" y2="295.451" gradientUnits="userSpaceOnUse">
<stop stop-color="#CD536C"/>
<stop offset="1" stop-color="#8B1F5A"/>
</linearGradient>
<linearGradient id="paint16_linear_1_1099" x1="63.8892" y1="198.371" x2="82.9112" y2="270.303" gradientUnits="userSpaceOnUse">
<stop stop-color="#CD536C"/>
<stop offset="1" stop-color="#8B1F5A"/>
</linearGradient>
<linearGradient id="paint17_linear_1_1099" x1="63.7387" y1="253.262" x2="92.5608" y2="362.232" gradientUnits="userSpaceOnUse">
<stop stop-color="#464F96"/>
<stop offset="0.28" stop-color="#4A4F98"/>
<stop offset="0.56" stop-color="#56519F"/>
<stop offset="0.84" stop-color="#6A53AB"/>
<stop offset="1" stop-color="#7954B3"/>
</linearGradient>
<clipPath id="clip0_1_1099">
<rect width="495" height="419.148" fill="white"/>
</clipPath>
</defs>
</svg>
