<svg width="390" height="654" viewBox="0 0 390 654" fill="none" xmlns="http://www.w3.org/2000/svg">
<g clip-path="url(#clip0_340_101)">
<rect y="0.000244141" width="390" height="642" fill="#59ED6C"/>
<path d="M119.376 202.359C91.2571 140.617 22.4875 146.073 -2.26953 187.234V641.747H387.73V206.768C387.73 132.12 278.616 120.037 256.915 206.768C230.932 120.862 138.017 137.605 119.376 202.359Z" fill="#EDEDED" fill-opacity="0.4"/>
<path d="M119.339 154.013C50.8994 87.8187 -17.0903 140.457 -20 192.757V585.492H409.122V192.757C408.589 103.826 306.133 108.77 266.422 154.013C224.998 201.207 144.234 178.091 119.339 154.013Z" fill="white" fill-opacity="0.2"/>
<path d="M62.2172 211.042C35.9319 230.994 32.7038 177 0 177V651H390V213.844C374.84 244.665 338.722 213.216 324.764 200.373C279.04 166.8 263.636 174.89 230.932 200.373C204.524 226.241 172.452 211.152 159.717 200.373C113.259 161.054 94.1294 186.82 62.2172 211.042Z" fill="#EDEDED"/>
</g>
<defs>
<clipPath id="clip0_340_101">
<rect width="390" height="654" rx="10" fill="white"/>
</clipPath>
</defs>
</svg>
