<svg width="50" height="50" viewBox="0 0 50 50" fill="none" xmlns="http://www.w3.org/2000/svg">
<g clip-path="url(#clip0_1_1212)">
<path d="M25 3.125C20.856 3.125 16.8817 4.7712 13.9515 7.70146C11.0212 10.6317 9.375 14.606 9.375 18.75V21.875H12.5C13.3288 21.875 14.1237 22.2042 14.7097 22.7903C15.2958 23.3763 15.625 24.1712 15.625 25V34.375C15.625 35.2038 15.2958 35.9987 14.7097 36.5847C14.1237 37.1708 13.3288 37.5 12.5 37.5H9.375C8.5462 37.5 7.75134 37.1708 7.16529 36.5847C6.57924 35.9987 6.25 35.2038 6.25 34.375V18.75C6.25 16.2877 6.73498 13.8495 7.67726 11.5747C8.61953 9.29983 10.0006 7.23285 11.7417 5.49175C13.4828 3.75065 15.5498 2.36953 17.8247 1.42726C20.0995 0.484983 22.5377 0 25 0C27.4623 0 29.9005 0.484983 32.1753 1.42726C34.4502 2.36953 36.5172 3.75065 38.2583 5.49175C39.9994 7.23285 41.3805 9.29983 42.3227 11.5747C43.265 13.8495 43.75 16.2877 43.75 18.75V37.5C43.75 39.572 42.9269 41.5591 41.4618 43.0243C39.9966 44.4894 38.0095 45.3125 35.9375 45.3125H29.2688C28.9945 45.7875 28.6 46.182 28.125 46.4563C27.6499 46.7306 27.111 46.875 26.5625 46.875H23.4375C22.6087 46.875 21.8138 46.5458 21.2278 45.9597C20.6417 45.3737 20.3125 44.5788 20.3125 43.75C20.3125 42.9212 20.6417 42.1263 21.2278 41.5403C21.8138 40.9542 22.6087 40.625 23.4375 40.625H26.5625C27.111 40.625 27.6499 40.7694 28.125 41.0437C28.6 41.318 28.9945 41.7125 29.2688 42.1875H35.9375C37.1807 42.1875 38.373 41.6936 39.2521 40.8146C40.1311 39.9355 40.625 38.7432 40.625 37.5H37.5C36.6712 37.5 35.8763 37.1708 35.2903 36.5847C34.7042 35.9987 34.375 35.2038 34.375 34.375V25C34.375 24.1712 34.7042 23.3763 35.2903 22.7903C35.8763 22.2042 36.6712 21.875 37.5 21.875H40.625V18.75C40.625 16.6981 40.2208 14.6663 39.4356 12.7706C38.6504 10.8749 37.4995 9.15237 36.0485 7.70146C34.5976 6.25054 32.8751 5.09961 30.9794 4.31438C29.0837 3.52915 27.0519 3.125 25 3.125Z" fill="#170F58"/>
</g>
<defs>
<clipPath id="clip0_1_1212">
<rect width="50" height="50" fill="white"/>
</clipPath>
</defs>
</svg>
