<svg width="38" height="38" viewBox="0 0 38 38" fill="none" xmlns="http://www.w3.org/2000/svg">
<circle cx="19.1165" cy="18.8235" r="18.8235" fill="#170F58"/>
<g clip-path="url(#clip0_1_964)">
<rect width="12.0471" height="12.0471" transform="translate(13.0936 12.7999)" fill="#170F58"/>
<path d="M16.207 23.3409H14.0216V16.3032H16.207V23.3409ZM15.1131 15.3432C14.4143 15.3432 13.8475 14.7644 13.8475 14.0656C13.8475 13.7299 13.9808 13.408 14.2182 13.1706C14.4555 12.9333 14.7774 12.7999 15.1131 12.7999C15.4488 12.7999 15.7707 12.9333 16.0081 13.1706C16.2454 13.408 16.3788 13.7299 16.3788 14.0656C16.3788 14.7644 15.8117 15.3432 15.1131 15.3432ZM24.3863 23.3409H22.2056V19.915C22.2056 19.0985 22.1891 18.0515 21.0694 18.0515C19.9331 18.0515 19.759 18.9385 19.759 19.8562V23.3409H17.5759V16.3032H19.6719V17.2632H19.7025C19.9943 16.7103 20.707 16.1268 21.7703 16.1268C23.9821 16.1268 24.3886 17.5832 24.3886 19.475V23.3409H24.3863Z" fill="white"/>
</g>
<defs>
<clipPath id="clip0_1_964">
<rect width="12.0471" height="12.0471" fill="white" transform="translate(13.0936 12.7999)"/>
</clipPath>
</defs>
</svg>
