<svg width="50" height="50" viewBox="0 0 50 50" fill="none" xmlns="http://www.w3.org/2000/svg">
<circle cx="25" cy="25" r="25" fill="#0463C2"/>
<g clip-path="url(#clip0_1_1340)">
<path d="M13 15.2017C13 14.4295 13.2703 13.7924 13.8108 13.2905C14.3513 12.7886 15.0541 12.5376 15.9189 12.5376C16.7683 12.5376 17.4556 12.7847 17.9807 13.2789C18.5212 13.7886 18.7915 14.4526 18.7915 15.2712C18.7915 16.0125 18.529 16.6302 18.0039 17.1245C17.4633 17.6341 16.7529 17.8889 15.8726 17.8889H15.8494C15 17.8889 14.3127 17.6341 13.7876 17.1245C13.2625 16.6148 13 15.9739 13 15.2017ZM13.3012 35.472V19.9971H18.444V35.472H13.3012ZM21.2934 35.472H26.4363V26.831C26.4363 26.2905 26.4981 25.8735 26.6216 25.5801C26.8378 25.055 27.166 24.6109 27.6062 24.248C28.0463 23.8851 28.5984 23.7036 29.2626 23.7036C30.9923 23.7036 31.8571 24.8696 31.8571 27.2017V35.472H37V26.5994C37 24.3137 36.4595 22.5801 35.3784 21.3986C34.2973 20.2171 32.8687 19.6264 31.0927 19.6264C29.1004 19.6264 27.5483 20.4835 26.4363 22.1978V22.2442H26.4131L26.4363 22.1978V19.9971H21.2934C21.3243 20.4913 21.3398 22.0279 21.3398 24.6071C21.3398 27.1862 21.3243 30.8079 21.2934 35.472Z" fill="white"/>
</g>
<defs>
<clipPath id="clip0_1_1340">
<rect width="24" height="24" fill="white" transform="translate(13 12)"/>
</clipPath>
</defs>
</svg>
