<svg width="18" height="22" viewBox="0 0 18 22" fill="none" xmlns="http://www.w3.org/2000/svg">
<path fill-rule="evenodd" clip-rule="evenodd" d="M8.78446 4.7832C6.78928 4.7832 5.17188 6.44885 5.17188 8.50353C5.17188 10.5582 6.78928 12.2239 8.78446 12.2239C10.7796 12.2239 12.397 10.5582 12.397 8.50353C12.397 6.44885 10.7796 4.7832 8.78446 4.7832ZM7.23621 8.50353C7.23621 7.62295 7.92941 6.90911 8.78446 6.90911C9.6395 6.90911 10.3327 7.62295 10.3327 8.50353C10.3327 9.38408 9.6395 10.098 8.78446 10.098C7.92941 10.098 7.23621 9.38408 7.23621 8.50353Z" fill="white"/>
<path fill-rule="evenodd" clip-rule="evenodd" d="M8.78858 0C4.22818 0 0.53125 3.80719 0.53125 8.50361C0.53125 10.0684 1.05875 11.6374 1.77604 13.062C2.49797 14.4959 3.44856 15.8548 4.37924 17.0186C5.31243 18.1856 6.24274 19.1776 6.93863 19.8771C7.28719 20.2275 7.57857 20.5062 7.78418 20.6985C7.88709 20.7947 7.96852 20.8694 8.02519 20.9208C8.05347 20.9464 8.07556 20.9663 8.09094 20.9801C8.09579 20.9844 8.09992 20.9881 8.10343 20.9913L8.1091 20.9963L8.11643 21.0028C8.11664 21.003 8.11685 21.0032 8.78858 20.1961L8.11685 21.0032L8.78858 21.5961L9.46031 21.0032L8.78858 20.1961C9.46031 21.0032 9.46052 21.003 9.46073 21.0028L9.46805 20.9963L9.47476 20.9903C9.47796 20.9874 9.48189 20.9839 9.48622 20.9801C9.5016 20.9663 9.52369 20.9464 9.55197 20.9208C9.60863 20.8694 9.69007 20.7947 9.79298 20.6985C9.99859 20.5062 10.29 20.2275 10.6385 19.8771C11.3344 19.1776 12.2647 18.1856 13.1979 17.0186C14.1286 15.8548 15.0792 14.4959 15.8011 13.062C16.5184 11.6374 17.0459 10.0684 17.0459 8.50361C17.0459 3.80719 13.349 0 8.78858 0ZM9.19649 18.3559C9.04838 18.5048 8.91151 18.6396 8.78858 18.7591C8.66565 18.6396 8.52878 18.5048 8.38067 18.3559C7.72184 17.6936 6.84584 16.7589 5.97276 15.6672C5.09714 14.5722 4.24144 13.3401 3.60865 12.0834C2.97123 10.8174 2.59558 9.59622 2.59558 8.50361C2.59558 4.9813 5.36828 2.1259 8.78858 2.1259C12.2089 2.1259 14.9816 4.9813 14.9816 8.50361C14.9816 9.59622 14.606 10.8174 13.9685 12.0834C13.3357 13.3401 12.48 14.5722 11.6044 15.6672C10.7313 16.7589 9.85532 17.6936 9.19649 18.3559Z" fill="white"/>
</svg>
