<svg width="57" height="56" viewBox="0 0 57 56" fill="none" xmlns="http://www.w3.org/2000/svg">
<path d="M31.1077 4.44766C31.1083 4.75302 31.0765 5.05757 31.0127 5.35619C30.804 6.35692 30.2571 7.25529 29.464 7.90025C28.6709 8.54522 27.6799 8.89745 26.6576 8.89775C25.9234 8.89822 25.2005 8.7167 24.5535 8.36943C23.9066 8.02215 23.3558 7.51996 22.9504 6.90775C22.4618 6.1806 22.2022 5.32374 22.2051 4.44766C22.2054 3.86265 22.3211 3.28345 22.5455 2.74318C22.7699 2.20292 23.0986 1.7122 23.5128 1.2991C23.927 0.886003 24.4186 0.558631 24.9595 0.335719C25.5004 0.112808 26.0799 -0.00127023 26.6649 1.0668e-05C27.8435 0.00194571 28.9731 0.471313 29.806 1.30513C30.6389 2.13895 31.1071 3.26911 31.1077 4.44766Z" fill="#28B4D2"/>
<path d="M40.8218 12.4612L28.3996 21.9606C27.4415 22.6972 26.2663 23.0955 25.0578 23.0932C24.3342 23.0945 23.6174 22.9529 22.9487 22.6767C22.2799 22.4004 21.6723 21.9948 21.1606 21.4832L17.9941 18.3167C18.5732 18.4324 19.1623 18.4904 19.7527 18.4896C21.9665 18.4941 24.0998 17.6594 25.7227 16.1538L37.0294 7.49717C37.688 6.99299 38.5199 6.77108 39.3421 6.88025C40.1643 6.98942 40.9095 7.42074 41.4137 8.07931C41.6637 8.40544 41.8467 8.77777 41.9523 9.1749C42.0579 9.57202 42.084 9.9861 42.0289 10.3933C41.9739 10.8005 41.839 11.1929 41.6318 11.5478C41.4247 11.9026 41.1494 12.2131 40.8218 12.4612Z" fill="#28B4D2"/>
<path d="M25.718 16.1589C24.0951 17.6645 21.9618 18.4992 19.748 18.4947C19.1575 18.4955 18.5684 18.4375 17.9894 18.3218L14.8717 15.2016C14.5811 14.912 14.3506 14.5679 14.1933 14.189C14.036 13.8101 13.9551 13.4039 13.9551 12.9936C13.9551 12.5834 14.036 12.1772 14.1933 11.7983C14.3506 11.4194 14.5811 11.0753 14.8717 10.7856C15.4576 10.2006 16.2517 9.87207 17.0797 9.87207C17.9076 9.87207 18.7017 10.2006 19.2877 10.7856L25.1212 16.6314L25.718 16.1589Z" fill="#E1BA23"/>
<path style="mix-blend-mode:multiply" opacity="0.57" d="M25.718 16.1589C24.0951 17.6645 21.9618 18.4992 19.748 18.4947C19.1575 18.4955 18.5684 18.4375 17.9894 18.3218L14.8717 15.2016C14.5811 14.912 14.3506 14.5679 14.1933 14.189C14.036 13.8101 13.9551 13.4039 13.9551 12.9936C13.9551 12.5834 14.036 12.1772 14.1933 11.7983C14.3506 11.4194 14.5811 11.0753 14.8717 10.7856C15.4576 10.2006 16.2517 9.87207 17.0797 9.87207C17.9076 9.87207 18.7017 10.2006 19.2877 10.7856L25.1212 16.6314L25.718 16.1589Z" fill="url(#paint0_linear_1_659)"/>
<path d="M31.1077 4.44766C31.1083 4.75302 31.0765 5.05757 31.0127 5.35619C30.804 6.35692 30.2571 7.25529 29.464 7.90025C28.6709 8.54522 27.6799 8.89745 26.6576 8.89775C25.9234 8.89822 25.2005 8.7167 24.5535 8.36943C23.9066 8.02215 23.3558 7.51996 22.9504 6.90775C22.4618 6.1806 22.2022 5.32374 22.2051 4.44766C22.2054 3.86265 22.3211 3.28345 22.5455 2.74318C22.7699 2.20292 23.0986 1.7122 23.5128 1.2991C23.927 0.886003 24.4186 0.558631 24.9595 0.335719C25.5004 0.112808 26.0799 -0.00127023 26.6649 1.0668e-05C27.8435 0.00194571 28.9731 0.471313 29.806 1.30513C30.6389 2.13895 31.1071 3.26911 31.1077 4.44766Z" fill="#35FF2A"/>
<path d="M40.8218 12.4612L28.3996 21.9606C27.4415 22.6972 26.2663 23.0955 25.0578 23.0932C24.3342 23.0945 23.6174 22.9529 22.9487 22.6767C22.2799 22.4004 21.6723 21.9948 21.1606 21.4832L17.9941 18.3167C18.5732 18.4324 19.1623 18.4904 19.7527 18.4896C21.9665 18.4941 24.0998 17.6594 25.7227 16.1538L37.0294 7.49717C37.688 6.99299 38.5199 6.77108 39.3421 6.88025C40.1643 6.98942 40.9095 7.42074 41.4137 8.07931C41.6637 8.40544 41.8467 8.77777 41.9523 9.1749C42.0579 9.57202 42.084 9.9861 42.0289 10.3933C41.9739 10.8005 41.839 11.1929 41.6318 11.5478C41.4247 11.9026 41.1494 12.2131 40.8218 12.4612Z" fill="#28B4D2"/>
<path d="M25.718 16.1589C24.0951 17.6645 21.9618 18.4992 19.748 18.4947C19.1575 18.4955 18.5684 18.4375 17.9894 18.3218L14.8717 15.2016C14.5811 14.912 14.3506 14.5679 14.1933 14.189C14.036 13.8101 13.9551 13.4039 13.9551 12.9936C13.9551 12.5834 14.036 12.1772 14.1933 11.7983C14.3506 11.4194 14.5811 11.0753 14.8717 10.7856C15.4576 10.2006 16.2517 9.87207 17.0797 9.87207C17.9076 9.87207 18.7017 10.2006 19.2877 10.7856L25.1212 16.6314L25.718 16.1589Z" fill="#E1BA23"/>
<path style="mix-blend-mode:multiply" opacity="0.57" d="M25.718 16.1589C24.0951 17.6645 21.9618 18.4992 19.748 18.4947C19.1575 18.4955 18.5684 18.4375 17.9894 18.3218L14.8717 15.2016C14.5811 14.912 14.3506 14.5679 14.1933 14.189C14.036 13.8101 13.9551 13.4039 13.9551 12.9936C13.9551 12.5834 14.036 12.1772 14.1933 11.7983C14.3506 11.4194 14.5811 11.0753 14.8717 10.7856C15.4576 10.2006 16.2517 9.87207 17.0797 9.87207C17.9076 9.87207 18.7017 10.2006 19.2877 10.7856L25.1212 16.6314L25.718 16.1589Z" fill="url(#paint1_linear_1_659)"/>
<path d="M24.8906 51.5497C24.8899 51.2444 24.9217 50.9398 24.9856 50.6412C25.1943 49.6405 25.7412 48.7421 26.5343 48.0971C27.3275 47.4522 28.3185 47.0999 29.3407 47.0996C30.0763 47.0975 30.8008 47.2783 31.4492 47.6256C32.0976 47.973 32.6495 48.4761 33.0552 49.0896C33.5387 49.8184 33.7932 50.6752 33.7859 51.5497C33.7859 52.73 33.3171 53.8618 32.4825 54.6964C31.648 55.531 30.5161 55.9998 29.3359 55.9998C28.1565 55.9985 27.0258 55.5291 26.1923 54.6947C25.3588 53.8603 24.8906 52.7291 24.8906 51.5497Z" fill="#35FF2A"/>
<path d="M15.1828 43.5339L27.6051 34.0345C28.564 33.2997 29.7388 32.9024 30.9469 32.9043C31.6703 32.9025 32.387 33.0436 33.0558 33.3195C33.7246 33.5954 34.3323 34.0006 34.8441 34.5119L38.0105 37.6784C37.4324 37.5617 36.8441 37.5029 36.2544 37.503C34.0409 37.5002 31.9082 38.3346 30.2844 39.8388L18.9777 48.4954C18.6519 48.7455 18.2799 48.9289 17.8832 49.0351C17.4864 49.1414 17.0726 49.1683 16.6654 49.1145C16.2582 49.0606 15.8656 48.9271 15.5101 48.7214C15.1545 48.5157 14.843 48.2419 14.5934 47.9157C14.3439 47.5895 14.1612 47.2173 14.0558 46.8203C13.9504 46.4234 13.9243 46.0095 13.979 45.6025C14.0338 45.1955 14.1683 44.8032 14.3749 44.4483C14.5814 44.0933 14.856 43.7826 15.1828 43.5339Z" fill="#28B4D2"/>
<path d="M30.2852 39.8364C31.9105 38.3357 34.043 37.5048 36.2551 37.5103C36.8449 37.5102 37.4332 37.569 38.0113 37.6857L41.1315 40.8058C41.422 41.0955 41.6525 41.4396 41.8098 41.8185C41.9671 42.1974 42.0481 42.6036 42.0481 43.0138C42.0481 43.4241 41.9671 43.8303 41.8098 44.2092C41.6525 44.5881 41.422 44.9322 41.1315 45.2218C40.5456 45.8068 39.7514 46.1354 38.9235 46.1354C38.0955 46.1354 37.3014 45.8068 36.7155 45.2218L30.8819 39.3882L30.2852 39.8364Z" fill="#E1BA23"/>
<path style="mix-blend-mode:multiply" opacity="0.57" d="M30.2852 39.8364C31.9105 38.3357 34.043 37.5048 36.2551 37.5103C36.8449 37.5102 37.4332 37.569 38.0113 37.6857L41.1315 40.8058C41.422 41.0955 41.6525 41.4396 41.8098 41.8185C41.9671 42.1974 42.0481 42.6036 42.0481 43.0138C42.0481 43.4241 41.9671 43.8303 41.8098 44.2092C41.6525 44.5881 41.422 44.9322 41.1315 45.2218C40.5456 45.8068 39.7514 46.1354 38.9235 46.1354C38.0955 46.1354 37.3014 45.8068 36.7155 45.2218L30.8819 39.3882L30.2852 39.8364Z" fill="url(#paint2_linear_1_659)"/>
<path d="M4.45008 24.8882C4.7553 24.8877 5.05976 24.9187 5.35861 24.9807C6.35976 25.1895 7.25843 25.7368 7.90345 26.5304C8.54846 27.324 8.90043 28.3156 8.90016 29.3383C8.90112 30.0723 8.72007 30.7952 8.37321 31.4422C8.02636 32.0891 7.52452 32.64 6.91261 33.0455C6.18374 33.5321 5.32648 33.7907 4.45008 33.7884C3.26985 33.7884 2.13795 33.3195 1.3034 32.485C0.468849 31.6504 0 30.5185 0 29.3383C0 28.7539 0.115104 28.1752 0.338741 27.6353C0.562379 27.0954 0.890173 26.6048 1.3034 26.1916C1.71663 25.7784 2.2072 25.4506 2.74711 25.2269C3.28701 25.0033 3.86569 24.8882 4.45008 24.8882Z" fill="#E1BA23"/>
<path d="M12.465 15.1775L21.9644 27.5997C22.7023 28.5548 23.1031 29.7273 23.1043 30.9342C23.1061 31.6577 22.965 32.3744 22.6891 33.0431C22.4133 33.7119 22.008 34.3196 21.4967 34.8314L18.3303 37.9979C18.448 37.4191 18.5068 36.8299 18.5057 36.2393C18.5095 34.0263 17.6749 31.894 16.1698 30.2717L7.5132 18.9626C7.26311 18.6368 7.07971 18.2648 6.97349 17.8681C6.86727 17.4713 6.84031 17.0575 6.89415 16.6503C6.94799 16.2431 7.08158 15.8505 7.28727 15.495C7.49296 15.1394 7.76672 14.8279 8.09289 14.5783C8.75234 14.0785 9.58318 13.8609 10.4029 13.9733C11.2227 14.0856 11.9644 14.5187 12.465 15.1775Z" fill="#28B4D2"/>
<path d="M16.1642 30.2832C17.6693 31.9055 18.504 34.0378 18.5001 36.2508C18.5012 36.8414 18.4425 37.4306 18.3247 38.0094L15.2045 41.1295C14.9147 41.4198 14.5706 41.65 14.1917 41.8071C13.8128 41.9642 13.4067 42.0451 12.9965 42.0451C12.5864 42.0451 12.1803 41.9642 11.8014 41.8071C11.4225 41.65 11.0784 41.4198 10.7886 41.1295C10.2036 40.5436 9.875 39.7495 9.875 38.9215C9.875 38.0936 10.2036 37.2995 10.7886 36.7135L16.6221 30.8678L16.1642 30.2832Z" fill="#E1BA23"/>
<path style="mix-blend-mode:multiply" opacity="0.57" d="M16.1642 30.2832C17.6693 31.9055 18.504 34.0378 18.5001 36.2508C18.5012 36.8414 18.4425 37.4306 18.3247 38.0094L15.2045 41.1295C14.9147 41.4198 14.5706 41.65 14.1917 41.8071C13.8128 41.9642 13.4067 42.0451 12.9965 42.0451C12.5864 42.0451 12.1803 41.9642 11.8014 41.8071C11.4225 41.65 11.0784 41.4198 10.7886 41.1295C10.2036 40.5436 9.875 39.7495 9.875 38.9215C9.875 38.0936 10.2036 37.2995 10.7886 36.7135L16.6221 30.8678L16.1642 30.2832Z" fill="url(#paint3_linear_1_659)"/>
<path d="M12.465 15.1775L21.9644 27.5997C22.7023 28.5548 23.1031 29.7273 23.1043 30.9342C23.1061 31.6577 22.965 32.3744 22.6891 33.0431C22.4133 33.7119 22.008 34.3196 21.4967 34.8314L18.3303 37.9979C18.448 37.4191 18.5068 36.8299 18.5057 36.2393C18.5095 34.0263 17.6749 31.894 16.1698 30.2717L7.5132 18.9626C7.26311 18.6368 7.07971 18.2648 6.97349 17.8681C6.86727 17.4713 6.84031 17.0575 6.89415 16.6503C6.94799 16.2431 7.08158 15.8505 7.28727 15.495C7.49296 15.1394 7.76672 14.8279 8.09289 14.5783C8.75234 14.0785 9.58318 13.8609 10.4029 13.9733C11.2227 14.0856 11.9644 14.5187 12.465 15.1775Z" fill="#28B4D2"/>
<path d="M16.1642 30.2832C17.6693 31.9055 18.504 34.0378 18.5001 36.2508C18.5012 36.8414 18.4425 37.4306 18.3247 38.0094L15.2045 41.1295C14.9147 41.4198 14.5706 41.65 14.1917 41.8071C13.8128 41.9642 13.4067 42.0451 12.9965 42.0451C12.5864 42.0451 12.1803 41.9642 11.8014 41.8071C11.4225 41.65 11.0784 41.4198 10.7886 41.1295C10.2036 40.5436 9.875 39.7495 9.875 38.9215C9.875 38.0936 10.2036 37.2995 10.7886 36.7135L16.6221 30.8678L16.1642 30.2832Z" fill="#35FF2A"/>
<path style="mix-blend-mode:multiply" opacity="0.57" d="M16.1642 30.2832C17.6693 31.9055 18.504 34.0378 18.5001 36.2508C18.5012 36.8414 18.4425 37.4306 18.3247 38.0094L15.2045 41.1295C14.9147 41.4198 14.5706 41.65 14.1917 41.8071C13.8128 41.9642 13.4067 42.0451 12.9965 42.0451C12.5864 42.0451 12.1803 41.9642 11.8014 41.8071C11.4225 41.65 11.0784 41.4198 10.7886 41.1295C10.2036 40.5436 9.875 39.7495 9.875 38.9215C9.875 38.0936 10.2036 37.2995 10.7886 36.7135L16.6221 30.8678L16.1642 30.2832Z" fill="url(#paint4_linear_1_659)"/>
<path d="M51.5673 31.1092C51.2613 31.1096 50.956 31.0785 50.6563 31.0166C49.6556 30.8074 48.7575 30.2599 48.113 29.4663C47.4684 28.6728 47.1168 27.6815 47.1172 26.6591C47.1162 25.9251 47.2973 25.2022 47.6441 24.5552C47.991 23.9083 48.4928 23.3574 49.1048 22.9519C49.8329 22.4637 50.6906 22.2049 51.5673 22.209C52.7475 22.209 53.8794 22.6779 54.714 23.5124C55.5485 24.347 56.0174 25.4789 56.0174 26.6591C56.0174 27.8394 55.5485 28.9713 54.714 29.8058C53.8794 30.6404 52.7475 31.1092 51.5673 31.1092Z" fill="#E1BA23"/>
<path d="M43.528 40.8204L34.0286 28.3981C33.2931 27.4396 32.8957 26.2645 32.8985 25.0563C32.8963 24.3328 33.0372 23.616 33.3131 22.9472C33.589 22.2784 33.9944 21.6707 34.506 21.1591L37.6725 17.9927C37.5545 18.5714 37.4957 19.1606 37.4971 19.7513C37.4949 21.9639 38.3293 24.0956 39.833 25.7188L48.4969 37.0231C48.7467 37.3492 48.9298 37.7214 49.0356 38.1183C49.1415 38.5153 49.168 38.9292 49.1137 39.3364C49.0594 39.7437 48.9253 40.1362 48.7192 40.4915C48.5131 40.8469 48.2389 41.1581 47.9123 41.4074C47.5862 41.6574 47.2139 41.8405 46.8168 41.9464C46.4197 42.0522 46.0056 42.0786 45.5983 42.0241C45.191 41.9695 44.7984 41.8351 44.4432 41.6286C44.0879 41.422 43.7769 41.1474 43.528 40.8204Z" fill="#28B4D2"/>
<path d="M39.8418 25.714C38.3381 24.0908 37.5037 21.9591 37.5059 19.7465C37.5045 19.1558 37.5633 18.5666 37.6813 17.9879L40.8014 14.858C41.0912 14.5677 41.4354 14.3375 41.8143 14.1804C42.1932 14.0232 42.5993 13.9424 43.0094 13.9424C43.4196 13.9424 43.8257 14.0232 44.2046 14.1804C44.5834 14.3375 44.9276 14.5677 45.2174 14.858C45.8024 15.4439 46.131 16.238 46.131 17.066C46.131 17.8939 45.8024 18.688 45.2174 19.2739L39.3887 25.1173L39.8418 25.714Z" fill="#35FF2A"/>
<path style="mix-blend-mode:multiply" opacity="0.57" d="M39.8418 25.714C38.3381 24.0908 37.5037 21.9591 37.5059 19.7465C37.5045 19.1558 37.5633 18.5666 37.6813 17.9879L40.8014 14.858C41.0912 14.5677 41.4354 14.3375 41.8143 14.1804C42.1932 14.0232 42.5993 13.9424 43.0094 13.9424C43.4196 13.9424 43.8257 14.0232 44.2046 14.1804C44.5834 14.3375 44.9276 14.5677 45.2174 14.858C45.8024 15.4439 46.131 16.238 46.131 17.066C46.131 17.8939 45.8024 18.688 45.2174 19.2739L39.3887 25.1173L39.8418 25.714Z" fill="url(#paint5_linear_1_659)"/>
<path style="mix-blend-mode:overlay" opacity="0.48" d="M22.9568 6.90774C22.4681 6.18059 22.2085 5.32373 22.2115 4.44765C22.2118 3.86326 22.3272 3.28465 22.5511 2.74486C22.7751 2.20507 23.1031 1.71468 23.5166 1.30168C23.93 0.888675 24.4208 0.561155 24.9608 0.337813C25.5008 0.114471 26.0796 -0.000319286 26.664 6.67008e-07C27.8425 0.00193571 28.9722 0.471303 29.8051 1.30512C30.638 2.13894 31.1061 3.2691 31.1068 4.44765C31.1074 4.75301 31.0755 5.05756 31.0118 5.35618C30.803 6.35691 30.2562 7.25528 29.463 7.90024C28.6699 8.54521 27.6789 8.89744 26.6567 8.89774C25.9237 8.897 25.2022 8.71491 24.5567 8.36769C23.9111 8.02047 23.3615 7.51892 22.9568 6.90774ZM17.9928 18.3216L21.1592 21.488C21.6709 21.9997 22.2785 22.4053 22.9473 22.6816C23.6161 22.9578 24.3328 23.0994 25.0564 23.0981C26.2649 23.1004 27.4401 22.7021 28.3982 21.9654L40.8205 12.4661C41.1476 12.2172 41.4223 11.9061 41.6288 11.5507C41.8353 11.1953 41.9694 10.8025 42.0235 10.395C42.0776 9.98754 42.0506 9.57339 41.9441 9.17639C41.8375 8.77939 41.6535 8.40737 41.4026 8.08176C40.8984 7.42319 40.1532 6.99188 39.331 6.88271C38.5088 6.77354 37.6769 6.99545 37.0183 7.49963L25.7116 16.1562L25.1148 16.6166L19.2813 10.7708C18.6954 10.1858 17.9012 9.85726 17.0733 9.85726C16.2453 9.85726 15.4512 10.1858 14.8653 10.7708C14.5747 11.0604 14.3442 11.4046 14.1869 11.7835C14.0297 12.1624 13.9487 12.5686 13.9487 12.9788C13.9487 13.389 14.0297 13.7953 14.1869 14.1742C14.3442 14.553 14.5747 14.8972 14.8653 15.1868L17.9928 18.3216ZM29.3408 47.0998C28.3186 47.1001 27.3276 47.4523 26.5345 48.0973C25.7413 48.7422 25.1945 49.6406 24.9858 50.6413C24.9218 50.9399 24.89 51.2445 24.8908 51.5499C24.8908 52.7301 25.3596 53.862 26.1942 54.6965C27.0287 55.5311 28.1606 56 29.3408 56C30.5202 55.9987 31.6509 55.5292 32.4844 54.6948C33.3179 53.8604 33.7861 52.7293 33.7861 51.5499C33.7933 50.6753 33.5388 49.8186 33.0553 49.0898C32.6496 48.4762 32.0977 47.9731 31.4494 47.6258C30.801 47.2784 30.0764 47.0977 29.3408 47.0998ZM38.0121 37.6759L34.8456 34.5095C34.3338 33.9982 33.7261 33.593 33.0573 33.3171C32.3885 33.0412 31.6719 32.9001 30.9484 32.9019C29.7404 32.9 28.5655 33.2973 27.6066 34.0321L15.1844 43.5314C14.8577 43.7807 14.5835 44.092 14.3774 44.4474C14.1713 44.8028 14.0374 45.1955 13.9833 45.6028C13.9292 46.0101 13.9561 46.424 14.0623 46.8209C14.1685 47.2178 14.352 47.5899 14.6022 47.9157C14.8519 48.2419 15.1634 48.5157 15.5189 48.7214C15.8744 48.9271 16.267 49.0607 16.6742 49.1145C17.0814 49.1683 17.4952 49.1414 17.892 49.0352C18.2888 48.9289 18.6607 48.7455 18.9865 48.4955L30.2932 39.8389L30.89 39.3809L36.7089 45.2121C37.2949 45.7971 38.089 46.1256 38.9169 46.1256C39.7449 46.1256 40.539 45.7971 41.1249 45.2121C41.4155 44.9225 41.646 44.5783 41.8033 44.1994C41.9605 43.8205 42.0415 43.4143 42.0415 43.0041C42.0415 42.5938 41.9605 42.1876 41.8033 41.8088C41.646 41.4299 41.4155 41.0857 41.1249 40.7961L38.0121 37.6759ZM5.35861 24.9809C5.05976 24.9189 4.7553 24.8879 4.45008 24.8883C3.26985 24.8883 2.13795 25.3572 1.3034 26.1917C0.468849 27.0263 0 28.1582 0 29.3384C0 30.5187 0.468849 31.6505 1.3034 32.4851C2.13795 33.3196 3.26985 33.7885 4.45008 33.7885C5.32648 33.7908 6.18374 33.5322 6.91261 33.0456C7.52452 32.6401 8.02636 32.0892 8.37321 31.4423C8.72007 30.7953 8.90112 30.0725 8.90016 29.3384C8.90043 28.3157 8.54846 27.3242 7.90345 26.5305C7.25843 25.7369 6.35976 25.1897 5.35861 24.9809ZM18.324 38.0096L21.4905 34.8432C22.0018 34.3314 22.407 33.7237 22.6829 33.0549C22.9587 32.3861 23.0998 31.6694 23.0981 30.946C23.1012 29.7377 22.7038 28.5625 21.9679 27.6042L12.4685 15.1819C12.2191 14.8555 11.9077 14.5815 11.5521 14.3756C11.1966 14.1697 10.804 14.036 10.3967 13.9822C9.98938 13.9283 9.57546 13.9554 9.17865 14.0618C8.78183 14.1682 8.40991 14.3518 8.0842 14.6022C7.75803 14.8519 7.48426 15.1634 7.27857 15.5189C7.07288 15.8744 6.93929 16.267 6.88545 16.6742C6.83161 17.0814 6.85857 17.4952 6.96479 17.892C7.07102 18.2888 7.25441 18.6607 7.50449 18.9865L16.1611 30.2957L16.619 30.8924L10.7854 36.7382C10.2004 37.3241 9.87187 38.1182 9.87187 38.9462C9.87187 39.7741 10.2004 40.5682 10.7854 41.1542C11.0752 41.4444 11.4194 41.6747 11.7983 41.8318C12.1771 41.9889 12.5833 42.0697 12.9934 42.0697C13.4036 42.0697 13.8097 41.9889 14.1886 41.8318C14.5674 41.6747 14.9116 41.4444 15.2014 41.1542L18.324 38.0096ZM51.5669 22.209C50.6903 22.2049 49.8325 22.4637 49.1044 22.9519C48.4925 23.3574 47.9906 23.9083 47.6438 24.5552C47.2969 25.2022 47.1159 25.925 47.1168 26.6591C47.1161 27.6813 47.4676 28.6725 48.1123 29.4657C48.7569 30.259 49.6552 30.8058 50.6559 31.0142C50.9554 31.0781 51.2607 31.1099 51.5669 31.1092C52.7471 31.1092 53.879 30.6403 54.7136 29.8058C55.5481 28.9712 56.017 27.8393 56.017 26.6591C56.017 25.4789 55.5481 24.347 54.7136 23.5124C53.879 22.6779 52.7471 22.209 51.5669 22.209ZM39.8535 25.714L39.3956 25.1173L45.2291 19.2837C45.8141 18.6978 46.1427 17.9037 46.1427 17.0757C46.1427 16.2478 45.8141 15.4536 45.2291 14.8677C44.9393 14.5775 44.5952 14.3472 44.2163 14.1901C43.8374 14.033 43.4313 13.9521 43.0211 13.9521C42.611 13.9521 42.2049 14.033 41.826 14.1901C41.4471 14.3472 41.1029 14.5775 40.8131 14.8677L37.6832 17.9879L34.5168 21.1543C34.0051 21.6659 33.5997 22.2736 33.3238 22.9424C33.0479 23.6112 32.907 24.328 32.9092 25.0515C32.902 26.2611 33.296 27.4389 34.0296 28.4007L43.529 40.8229C43.7781 41.1497 44.0892 41.4241 44.4446 41.6305C44.7999 41.8368 45.1925 41.971 45.5998 42.0253C46.0071 42.0796 46.4211 42.053 46.8181 41.9469C47.2151 41.8409 47.5873 41.6576 47.9133 41.4075C48.2395 41.1578 48.5132 40.8463 48.7189 40.4908C48.9246 40.1353 49.0582 39.7427 49.1121 39.3355C49.1659 38.9283 49.1389 38.5145 49.0327 38.1177C48.9265 37.7209 48.7431 37.349 48.493 37.0232L39.8535 25.714Z" fill="url(#paint6_linear_1_659)"/>
<defs>
<linearGradient id="paint0_linear_1_659" x1="17.7361" y1="9.39726" x2="21.2484" y2="18.5483" gradientUnits="userSpaceOnUse">
<stop stop-color="white" stop-opacity="0"/>
<stop offset="0.34" stop-color="#D3D3D3" stop-opacity="0.2"/>
<stop offset="0.82" stop-color="#5B5858" stop-opacity="0.75"/>
<stop offset="1" stop-color="#231F20"/>
</linearGradient>
<linearGradient id="paint1_linear_1_659" x1="17.7361" y1="9.39726" x2="21.2484" y2="18.5483" gradientUnits="userSpaceOnUse">
<stop stop-color="white" stop-opacity="0"/>
<stop offset="0.34" stop-color="#D3D3D3" stop-opacity="0.2"/>
<stop offset="0.82" stop-color="#5B5858" stop-opacity="0.75"/>
<stop offset="1" stop-color="#231F20"/>
</linearGradient>
<linearGradient id="paint2_linear_1_659" x1="38.2671" y1="46.6004" x2="34.7547" y2="37.447" gradientUnits="userSpaceOnUse">
<stop stop-color="white" stop-opacity="0"/>
<stop offset="0.34" stop-color="#D3D3D3" stop-opacity="0.2"/>
<stop offset="0.82" stop-color="#5B5858" stop-opacity="0.75"/>
<stop offset="1" stop-color="#231F20"/>
</linearGradient>
<linearGradient id="paint3_linear_1_659" x1="9.40263" y1="38.2627" x2="18.5537" y2="34.7503" gradientUnits="userSpaceOnUse">
<stop stop-color="white" stop-opacity="0"/>
<stop offset="0.34" stop-color="#D3D3D3" stop-opacity="0.2"/>
<stop offset="0.82" stop-color="#5B5858" stop-opacity="0.75"/>
<stop offset="1" stop-color="#231F20"/>
</linearGradient>
<linearGradient id="paint4_linear_1_659" x1="9.40263" y1="38.2627" x2="18.5537" y2="34.7503" gradientUnits="userSpaceOnUse">
<stop stop-color="white" stop-opacity="0"/>
<stop offset="0.34" stop-color="#D3D3D3" stop-opacity="0.2"/>
<stop offset="0.82" stop-color="#5B5858" stop-opacity="0.75"/>
<stop offset="1" stop-color="#231F20"/>
</linearGradient>
<linearGradient id="paint5_linear_1_659" x1="46.6058" y1="17.7321" x2="37.4547" y2="21.2445" gradientUnits="userSpaceOnUse">
<stop stop-color="white" stop-opacity="0"/>
<stop offset="0.34" stop-color="#D3D3D3" stop-opacity="0.2"/>
<stop offset="0.82" stop-color="#5B5858" stop-opacity="0.75"/>
<stop offset="1" stop-color="#231F20"/>
</linearGradient>
<linearGradient id="paint6_linear_1_659" x1="18.3557" y1="2.86686" x2="37.6491" y2="53.1282" gradientUnits="userSpaceOnUse">
<stop stop-color="white" stop-opacity="0"/>
<stop offset="0.34" stop-color="#D3D3D3" stop-opacity="0.2"/>
<stop offset="0.82" stop-color="#5B5858" stop-opacity="0.75"/>
<stop offset="1" stop-color="#231F20"/>
</linearGradient>
</defs>
</svg>
