<svg width="429" height="866" viewBox="0 0 429 866" fill="none" xmlns="http://www.w3.org/2000/svg">
<path d="M357.695 0H71.2248C33.8902 0 3.62463 30.2656 3.62463 67.6001V797.508C3.62463 834.843 33.8902 865.108 71.2248 865.108H357.695C395.029 865.108 425.295 834.843 425.295 797.508V67.6001C425.295 30.2656 395.029 0 357.695 0Z" fill="#5E465D"/>
<g style="mix-blend-mode:screen">
<path d="M357.171 2.01367H71.7483C54.2149 2.01367 37.3995 8.97881 25.0014 21.3768C12.6034 33.7749 5.63831 50.5902 5.63831 68.1237V796.965C5.63831 814.498 12.6034 831.313 25.0014 843.711C37.3995 856.109 54.2149 863.074 71.7483 863.074H357.171C374.705 863.074 391.52 856.109 403.918 843.711C416.316 831.313 423.281 814.498 423.281 796.965V68.1237C423.281 59.442 421.571 50.8453 418.249 42.8245C414.926 34.8036 410.057 27.5157 403.918 21.3768C397.779 15.238 390.491 10.3683 382.47 7.04599C374.449 3.72366 365.853 2.01367 357.171 2.01367ZM421.267 796.461C421.262 813.601 414.449 830.037 402.328 842.155C390.206 854.273 373.767 861.081 356.627 861.081H72.2719C55.1337 861.081 38.6973 854.273 26.5787 842.154C14.4601 830.036 7.65201 813.599 7.65201 796.461V68.6472C7.65201 51.509 14.4601 35.0727 26.5787 22.9541C38.6973 10.8355 55.1337 4.02738 72.2719 4.02738H356.627C373.767 4.02738 390.206 10.8349 402.328 22.9529C414.449 35.0709 421.262 51.5071 421.267 68.6472V796.461Z" fill="#706F6F"/>
</g>
<path d="M356.003 6.60498H72.9364C38.6047 6.60498 10.7733 34.4364 10.7733 68.7681V796.34C10.7733 830.672 38.6047 858.503 72.9364 858.503H356.003C390.335 858.503 418.166 830.672 418.166 796.34V68.7681C418.166 34.4364 390.335 6.60498 356.003 6.60498Z" fill="#1D1D1B"/>
<path d="M427.772 221.024H425.295V325.294H427.772V221.024Z" fill="url(#paint0_linear_183_67)"/>
<path d="M427.751 325.254V221.065L429 222.414C428.376 233.509 428.416 312.87 429 323.945L427.751 325.254Z" fill="url(#paint1_linear_183_67)"/>
<path d="M2.11443 199.095H0.704834V265.145H2.11443V199.095Z" fill="url(#paint2_linear_183_67)"/>
<path d="M0.704748 265.125V199.095L0 199.961C0.362467 206.989 0.322193 257.251 0 264.279L0.704748 265.125Z" fill="url(#paint3_linear_183_67)"/>
<path d="M3.62466 199.095H2.11438V265.145H3.62466V199.095Z" fill="url(#paint4_linear_183_67)"/>
<path d="M2.11443 282.181H0.704834V348.23H2.11443V282.181Z" fill="url(#paint5_linear_183_67)"/>
<path d="M0.704748 348.23V282.201L0 283.046C0.362467 290.094 0.322193 340.357 0 347.364L0.704748 348.23Z" fill="url(#paint6_linear_183_67)"/>
<path d="M3.62466 282.201H2.11438V348.25H3.62466V282.201Z" fill="url(#paint7_linear_183_67)"/>
<path d="M2.11443 136.69H0.704834V170.601H2.11443V136.69Z" fill="url(#paint8_linear_183_67)"/>
<path d="M0.704748 170.581V136.69L0 137.496C0.362467 144.161 0.322193 163.13 0 169.715L0.704748 170.581Z" fill="url(#paint9_linear_183_67)"/>
<path d="M3.62466 136.69H2.11438V170.601H3.62466V136.69Z" fill="url(#paint10_linear_183_67)"/>
<path d="M246.317 60.5118H178.958C177.156 60.5144 175.37 60.1617 173.704 59.4737C172.038 58.7857 170.524 57.776 169.248 56.5023C167.973 55.2287 166.961 53.716 166.27 52.0509C165.58 50.3858 165.225 48.601 165.225 46.7984C165.225 43.1561 166.672 39.6629 169.247 37.0874C171.823 34.5119 175.316 33.0649 178.958 33.0649H246.317C248.119 33.0649 249.904 33.4203 251.569 34.1107C253.234 34.8011 254.747 35.8131 256.02 37.0886C257.294 38.3641 258.304 39.8783 258.992 41.5444C259.68 43.2105 260.033 44.9959 260.03 46.7984C260.03 50.4354 258.585 53.9235 256.013 56.4952C253.442 59.067 249.954 60.5118 246.317 60.5118Z" fill="#1D1D1B"/>
<path d="M242.511 52.7993C245.825 52.7993 248.512 50.1126 248.512 46.7985C248.512 43.4843 245.825 40.7976 242.511 40.7976C239.197 40.7976 236.51 43.4843 236.51 46.7985C236.51 50.1126 239.197 52.7993 242.511 52.7993Z" fill="url(#paint11_linear_183_67)"/>
<path d="M242.511 50.2218C244.401 50.2218 245.934 48.6892 245.934 46.7985C245.934 44.9079 244.401 43.3752 242.511 43.3752C240.62 43.3752 239.087 44.9079 239.087 46.7985C239.087 48.6892 240.62 50.2218 242.511 50.2218Z" fill="url(#paint12_linear_183_67)"/>
<path d="M245.511 46.7985C245.511 47.3919 245.335 47.972 245.005 48.4655C244.676 48.9589 244.207 49.3435 243.659 49.5705C243.111 49.7976 242.507 49.8571 241.925 49.7413C241.343 49.6255 240.809 49.3398 240.389 48.9201C239.969 48.5005 239.684 47.9659 239.568 47.3839C239.452 46.8018 239.512 46.1986 239.739 45.6503C239.966 45.1021 240.35 44.6334 240.844 44.3038C241.337 43.9741 241.917 43.7981 242.511 43.7981C243.306 43.7981 244.07 44.1142 244.632 44.6769C245.195 45.2396 245.511 46.0028 245.511 46.7985Z" fill="url(#paint13_linear_183_67)"/>
<path style="mix-blend-mode:multiply" d="M245.511 46.7985C245.511 47.3919 245.335 47.972 245.005 48.4655C244.676 48.9589 244.207 49.3435 243.659 49.5705C243.111 49.7976 242.507 49.8571 241.925 49.7413C241.343 49.6255 240.809 49.3398 240.389 48.9201C239.969 48.5005 239.684 47.9659 239.568 47.3839C239.452 46.8018 239.512 46.1986 239.739 45.6503C239.966 45.1021 240.35 44.6334 240.844 44.3038C241.337 43.9741 241.917 43.7981 242.511 43.7981C243.306 43.7981 244.07 44.1142 244.632 44.6769C245.195 45.2396 245.511 46.0028 245.511 46.7985Z" fill="url(#paint14_radial_183_67)"/>
<path style="mix-blend-mode:screen" d="M245.149 48.349C245.149 48.2089 245.121 48.0701 245.067 47.9406C245.014 47.8111 244.935 47.6934 244.836 47.5943C244.737 47.4952 244.619 47.4166 244.49 47.363C244.36 47.3093 244.221 47.2817 244.081 47.2817C243.941 47.2817 243.802 47.3093 243.673 47.363C243.543 47.4166 243.426 47.4952 243.327 47.5943C243.227 47.6934 243.149 47.8111 243.095 47.9406C243.042 48.0701 243.014 48.2089 243.014 48.349C243.014 48.4892 243.042 48.6279 243.095 48.7574C243.149 48.8869 243.227 49.0046 243.327 49.1037C243.426 49.2028 243.543 49.2814 243.673 49.335C243.802 49.3887 243.941 49.4163 244.081 49.4163C244.221 49.4163 244.36 49.3887 244.49 49.335C244.619 49.2814 244.737 49.2028 244.836 49.1037C244.935 49.0046 245.014 48.8869 245.067 48.7574C245.121 48.6279 245.149 48.4892 245.149 48.349Z" fill="url(#paint15_radial_183_67)"/>
<defs>
<linearGradient id="paint0_linear_183_67" x1="426.523" y1="221.024" x2="426.523" y2="325.294" gradientUnits="userSpaceOnUse">
<stop stop-color="#68595F"/>
<stop offset="0.02" stop-color="#896E80"/>
<stop offset="0.04" stop-color="#5E3B5B"/>
<stop offset="0.08" stop-color="#2B1D2A"/>
<stop offset="0.11" stop-color="#704A6A"/>
<stop offset="0.9" stop-color="#615060"/>
<stop offset="0.94" stop-color="#2B1D2A"/>
<stop offset="0.96" stop-color="#5E3B5B"/>
<stop offset="0.98" stop-color="#845675"/>
<stop offset="1" stop-color="#5B4A5C"/>
</linearGradient>
<linearGradient id="paint1_linear_183_67" x1="428.376" y1="221.065" x2="428.376" y2="325.294" gradientUnits="userSpaceOnUse">
<stop stop-color="#676067"/>
<stop offset="0.06" stop-color="#654E63"/>
<stop offset="0.19" stop-color="#786F77"/>
<stop offset="0.81" stop-color="#786F77"/>
<stop offset="0.92" stop-color="#654E63"/>
<stop offset="1" stop-color="#676067"/>
</linearGradient>
<linearGradient id="paint2_linear_183_67" x1="1.40963" y1="199.075" x2="1.40963" y2="265.125" gradientUnits="userSpaceOnUse">
<stop stop-color="#68595F"/>
<stop offset="0.02" stop-color="#896E80"/>
<stop offset="0.04" stop-color="#5E3B5B"/>
<stop offset="0.08" stop-color="#2D1E2C"/>
<stop offset="0.11" stop-color="#704A6A"/>
<stop offset="0.9" stop-color="#615060"/>
<stop offset="0.94" stop-color="#2D1E2C"/>
<stop offset="0.96" stop-color="#5E3B5B"/>
<stop offset="0.98" stop-color="#845675"/>
<stop offset="1" stop-color="#5B4A5C"/>
</linearGradient>
<linearGradient id="paint3_linear_183_67" x1="0.342306" y1="199.095" x2="0.342306" y2="265.125" gradientUnits="userSpaceOnUse">
<stop stop-color="#676067"/>
<stop offset="0.06" stop-color="#654E63"/>
<stop offset="0.19" stop-color="#786F77"/>
<stop offset="0.81" stop-color="#786F77"/>
<stop offset="0.92" stop-color="#654E63"/>
<stop offset="1" stop-color="#676067"/>
</linearGradient>
<linearGradient id="paint4_linear_183_67" x1="2.85945" y1="265.165" x2="2.85945" y2="199.095" gradientUnits="userSpaceOnUse">
<stop stop-color="#68595F"/>
<stop offset="0.05" stop-color="#2D1E2C"/>
<stop offset="0.52" stop-color="#5E3B5B"/>
<stop offset="0.96" stop-color="#2D1E2C"/>
<stop offset="1" stop-color="#5B4A5C"/>
</linearGradient>
<linearGradient id="paint5_linear_183_67" x1="1.40963" y1="282.181" x2="1.40963" y2="348.23" gradientUnits="userSpaceOnUse">
<stop stop-color="#68595F"/>
<stop offset="0.02" stop-color="#896E80"/>
<stop offset="0.04" stop-color="#5E3B5B"/>
<stop offset="0.08" stop-color="#2D1E2C"/>
<stop offset="0.11" stop-color="#704A6A"/>
<stop offset="0.9" stop-color="#615060"/>
<stop offset="0.94" stop-color="#2D1E2C"/>
<stop offset="0.96" stop-color="#5E3B5B"/>
<stop offset="0.98" stop-color="#845675"/>
<stop offset="1" stop-color="#5B4A5C"/>
</linearGradient>
<linearGradient id="paint6_linear_183_67" x1="0.342306" y1="282.201" x2="0.342306" y2="348.23" gradientUnits="userSpaceOnUse">
<stop stop-color="#676067"/>
<stop offset="0.06" stop-color="#654E63"/>
<stop offset="0.19" stop-color="#786F77"/>
<stop offset="0.81" stop-color="#786F77"/>
<stop offset="0.92" stop-color="#654E63"/>
<stop offset="1" stop-color="#676067"/>
</linearGradient>
<linearGradient id="paint7_linear_183_67" x1="2.85945" y1="348.25" x2="2.85945" y2="282.201" gradientUnits="userSpaceOnUse">
<stop stop-color="#68595F"/>
<stop offset="0.05" stop-color="#2D1E2C"/>
<stop offset="0.52" stop-color="#5E3B5B"/>
<stop offset="0.96" stop-color="#2D1E2C"/>
<stop offset="1" stop-color="#5B4A5C"/>
</linearGradient>
<linearGradient id="paint8_linear_183_67" x1="1.40963" y1="136.67" x2="1.40963" y2="170.581" gradientUnits="userSpaceOnUse">
<stop stop-color="#68595F"/>
<stop offset="0.02" stop-color="#896E80"/>
<stop offset="0.04" stop-color="#5E3B5B"/>
<stop offset="0.08" stop-color="#2D1E2C"/>
<stop offset="0.11" stop-color="#704A6A"/>
<stop offset="0.9" stop-color="#615060"/>
<stop offset="0.94" stop-color="#2D1E2C"/>
<stop offset="0.96" stop-color="#5E3B5B"/>
<stop offset="0.98" stop-color="#845675"/>
<stop offset="1" stop-color="#5B4A5C"/>
</linearGradient>
<linearGradient id="paint9_linear_183_67" x1="0.342307" y1="136.69" x2="0.342307" y2="170.581" gradientUnits="userSpaceOnUse">
<stop stop-color="#676067"/>
<stop offset="0.06" stop-color="#654E63"/>
<stop offset="0.19" stop-color="#786F77"/>
<stop offset="0.81" stop-color="#786F77"/>
<stop offset="0.92" stop-color="#654E63"/>
<stop offset="1" stop-color="#676067"/>
</linearGradient>
<linearGradient id="paint10_linear_183_67" x1="2.85945" y1="170.601" x2="2.85945" y2="136.69" gradientUnits="userSpaceOnUse">
<stop stop-color="#68595F"/>
<stop offset="0.05" stop-color="#2D1E2C"/>
<stop offset="0.52" stop-color="#5E3B5B"/>
<stop offset="0.96" stop-color="#2D1E2C"/>
<stop offset="1" stop-color="#5B4A5C"/>
</linearGradient>
<linearGradient id="paint11_linear_183_67" x1="242.511" y1="52.4167" x2="242.511" y2="40.6164" gradientUnits="userSpaceOnUse">
<stop stop-color="#666666"/>
<stop offset="1" stop-color="#010104"/>
</linearGradient>
<linearGradient id="paint12_linear_183_67" x1="242.511" y1="43.5968" x2="242.511" y2="50.3427" gradientUnits="userSpaceOnUse">
<stop stop-color="#0B131C"/>
<stop offset="1" stop-color="#354039"/>
</linearGradient>
<linearGradient id="paint13_linear_183_67" x1="244.625" y1="48.9129" x2="240.396" y2="44.6841" gradientUnits="userSpaceOnUse">
<stop stop-color="#231F20"/>
<stop offset="0.08" stop-color="#222326"/>
<stop offset="0.2" stop-color="#1F2C37"/>
<stop offset="0.33" stop-color="#1A3D54"/>
<stop offset="0.47" stop-color="#13537C"/>
<stop offset="0.62" stop-color="#0B71AE"/>
<stop offset="0.78" stop-color="#0095EE"/>
<stop offset="0.8" stop-color="#0488D6"/>
<stop offset="0.84" stop-color="#0D689F"/>
<stop offset="0.88" stop-color="#154E72"/>
<stop offset="0.91" stop-color="#1B394E"/>
<stop offset="0.95" stop-color="#1F2B35"/>
<stop offset="0.98" stop-color="#222225"/>
<stop offset="1" stop-color="#231F20"/>
</linearGradient>
<radialGradient id="paint14_radial_183_67" cx="0" cy="0" r="1" gradientUnits="userSpaceOnUse" gradientTransform="translate(242.511 46.7985) scale(3.00041 3.00042)">
<stop stop-color="#231F20"/>
<stop offset="0.2" stop-color="#175168"/>
<stop offset="0.38" stop-color="#0D78A2"/>
<stop offset="0.54" stop-color="#0695CB"/>
<stop offset="0.66" stop-color="#02A7E5"/>
<stop offset="0.73" stop-color="#00ADEE"/>
<stop offset="0.76" stop-color="#02A6E4"/>
<stop offset="0.81" stop-color="#0693C8"/>
<stop offset="0.87" stop-color="#0E749C"/>
<stop offset="0.94" stop-color="#184A5F"/>
<stop offset="1" stop-color="#231F20"/>
</radialGradient>
<radialGradient id="paint15_radial_183_67" cx="0" cy="0" r="1" gradientUnits="userSpaceOnUse" gradientTransform="translate(244.162 48.349) scale(1.06726 1.06727)">
<stop stop-color="#CCCCCC"/>
<stop offset="0.02" stop-color="#C4C4C4"/>
<stop offset="0.22" stop-color="#898989"/>
<stop offset="0.41" stop-color="#585858"/>
<stop offset="0.59" stop-color="#323232"/>
<stop offset="0.75" stop-color="#161616"/>
<stop offset="0.89" stop-color="#060606"/>
<stop offset="1"/>
</radialGradient>
</defs>
</svg>
