<svg width="581" height="422" viewBox="0 0 581 422" fill="none" xmlns="http://www.w3.org/2000/svg">
<path opacity="0.25" d="M543.446 118.096H523.203C525.459 116.814 527.335 114.957 528.639 112.714C529.943 110.47 530.629 107.921 530.628 105.327C530.628 101.434 529.081 97.7003 526.329 94.9477C523.576 92.195 519.843 90.6486 515.95 90.6486H444.015C427.918 67.4619 407.332 47.7415 383.475 32.6556C359.618 17.5698 332.976 7.42521 305.127 2.8229C277.278 -1.7794 248.789 -0.745855 221.347 5.86232C193.905 12.4705 168.068 24.5189 145.367 41.2938H83.2793C80.2396 41.2738 77.2687 42.198 74.7768 43.9388C72.2848 45.6796 70.3948 48.1512 69.3678 51.0122C68.3407 53.8732 68.2272 56.9825 69.043 59.9107C69.8588 62.839 71.5636 65.4417 73.922 67.3595H38.2423C34.3494 67.3595 30.616 68.9059 27.8634 71.6586C25.1107 74.4112 23.5643 78.1446 23.5643 82.0375C23.5643 85.9303 25.1107 89.6637 27.8634 92.4164C30.616 95.1691 34.3494 96.7155 38.2423 96.7155H93.2848C81.5193 114.974 72.6523 134.944 66.9989 155.917H28.9952C25.0942 155.917 21.3531 157.466 18.5947 160.225C15.8363 162.983 14.2866 166.724 14.2866 170.625C14.2866 174.526 15.8363 178.267 18.5947 181.026C21.3531 183.784 25.0942 185.334 28.9952 185.334H61.3234C58.6104 207.754 59.4857 230.463 63.9165 252.608H14.7086C10.8076 252.608 7.06642 254.158 4.30803 256.916C1.54964 259.674 0 263.416 0 267.317C0 271.217 1.54964 274.959 4.30803 277.717C7.06642 280.475 10.8076 282.025 14.7086 282.025H34.9642C32.1177 283.619 29.8832 286.115 28.6136 289.12C27.344 292.125 27.1117 295.467 27.9533 298.619C28.7949 301.771 30.6624 304.553 33.261 306.525C35.8596 308.497 39.0412 309.547 42.3032 309.51H84.3068C100.104 339.366 122.841 364.991 150.604 384.231C178.368 403.471 210.345 415.761 243.847 420.069C277.35 424.377 311.397 420.577 343.124 408.987C374.852 397.398 403.332 378.358 426.169 353.47H496.795C500.688 353.47 504.421 351.924 507.174 349.171C509.926 346.418 511.473 342.685 511.473 338.792C511.473 334.899 509.926 331.166 507.174 328.413C504.421 325.661 500.688 324.114 496.795 324.114H476.552C479.392 322.518 481.62 320.022 482.885 317.019C484.15 314.017 484.381 310.679 483.54 307.531C482.699 304.383 480.835 301.605 478.241 299.633C475.647 297.662 472.471 296.609 469.213 296.642H463.439C472.93 275.326 478.8 252.577 480.808 229.331H529.356C533.248 229.331 536.982 227.785 539.734 225.032C542.487 222.279 544.034 218.546 544.034 214.653C544.034 210.76 542.487 207.027 539.734 204.274C536.982 201.522 533.248 199.975 529.356 199.975H481.334C480.43 182.18 477.265 164.571 471.916 147.575H543.434C547.327 147.575 551.06 146.028 553.813 143.276C556.566 140.523 558.112 136.79 558.112 132.897C558.128 130.96 557.761 129.039 557.031 127.245C556.302 125.451 555.224 123.819 553.861 122.443C552.498 121.067 550.876 119.975 549.088 119.229C547.301 118.483 545.383 118.098 543.446 118.096Z" fill="white"/>
<g clip-path="url(#clip0_1_2274)">
<path d="M345.856 47.6787H212.934C196.668 47.6787 183.481 60.8656 183.481 77.1325V343.477C183.481 359.744 196.668 372.931 212.934 372.931H345.856C362.123 372.931 375.31 359.744 375.31 343.477V77.1325C375.31 60.8656 362.123 47.6787 345.856 47.6787Z" fill="#2F3F55"/>
<path d="M362.198 78.3555H196.581C194.548 78.3555 192.9 80.0038 192.9 82.0372V331.428C192.9 333.462 194.548 335.11 196.581 335.11H362.198C364.231 335.11 365.88 333.462 365.88 331.428V82.0372C365.88 80.0038 364.231 78.3555 362.198 78.3555Z" fill="white"/>
<path d="M305.126 61.5493H253.667C251.863 61.5493 250.401 63.0115 250.401 64.8152V65.0109C250.401 66.8146 251.863 68.2767 253.667 68.2767H305.126C306.929 68.2767 308.392 66.8146 308.392 65.0109V64.8152C308.392 63.0115 306.929 61.5493 305.126 61.5493Z" fill="#1B243C"/>
<path d="M291.201 356.868C292.564 350.306 288.349 343.883 281.788 342.52C275.226 341.158 268.803 345.373 267.44 351.934C266.078 358.495 270.293 364.919 276.854 366.281C283.415 367.644 289.839 363.429 291.201 356.868Z" fill="#1B243C"/>
<path d="M229.606 295.774H207.1C204.992 295.774 203.283 297.483 203.283 299.59V322.096C203.283 324.204 204.992 325.913 207.1 325.913H229.606C231.714 325.913 233.422 324.204 233.422 322.096V299.59C233.422 297.483 231.714 295.774 229.606 295.774Z" stroke="#8E9298" stroke-width="1.03945" stroke-miterlimit="10"/>
<path d="M270.3 295.774H247.794C245.686 295.774 243.977 297.483 243.977 299.59V322.096C243.977 324.204 245.686 325.913 247.794 325.913H270.3C272.408 325.913 274.116 324.204 274.116 322.096V299.59C274.116 297.483 272.408 295.774 270.3 295.774Z" stroke="#FF845E" stroke-width="1.03945" stroke-miterlimit="10"/>
<path d="M288.491 295.774H310.985C311.997 295.774 312.968 296.176 313.684 296.892C314.399 297.607 314.801 298.578 314.801 299.59V322.084C314.801 323.096 314.399 324.067 313.684 324.783C312.968 325.498 311.997 325.901 310.985 325.901H288.491C287.476 325.901 286.502 325.497 285.784 324.779C285.066 324.061 284.663 323.087 284.663 322.072V299.651C284.656 299.144 284.75 298.641 284.94 298.171C285.129 297.701 285.41 297.273 285.766 296.913C286.123 296.552 286.547 296.265 287.015 296.07C287.482 295.875 287.984 295.774 288.491 295.774Z" fill="#6ED5DB"/>
<path d="M351.691 295.774H329.185C327.077 295.774 325.368 297.483 325.368 299.59V322.096C325.368 324.204 327.077 325.913 329.185 325.913H351.691C353.798 325.913 355.507 324.204 355.507 322.096V299.59C355.507 297.483 353.798 295.774 351.691 295.774Z" stroke="#FFD77B" stroke-width="1.03945" stroke-miterlimit="10"/>
<path d="M229.606 89.8662H207.1C204.992 89.8662 203.283 91.5748 203.283 93.6825V116.189C203.283 118.296 204.992 120.005 207.1 120.005H229.606C231.714 120.005 233.422 118.296 233.422 116.189V93.6825C233.422 91.5748 231.714 89.8662 229.606 89.8662Z" fill="#8E9298"/>
<path d="M247.794 89.8662H270.324C271.34 89.8662 272.314 90.2696 273.032 90.9876C273.75 91.7055 274.153 92.6793 274.153 93.6947V116.177C274.155 116.68 274.057 117.178 273.865 117.644C273.673 118.109 273.391 118.531 273.035 118.887C272.679 119.243 272.257 119.525 271.791 119.717C271.326 119.909 270.828 120.007 270.324 120.005H247.794C246.78 120.002 245.81 119.597 245.094 118.879C244.379 118.162 243.977 117.19 243.977 116.177V93.6825C243.977 92.6703 244.38 91.6997 245.095 90.984C245.811 90.2683 246.782 89.8662 247.794 89.8662Z" fill="#FFD77B"/>
<path d="M288.49 89.8662H310.984C311.996 89.8662 312.967 90.2683 313.683 90.984C314.398 91.6997 314.801 92.6703 314.801 93.6825V116.177C314.801 117.189 314.398 118.159 313.683 118.875C312.967 119.591 311.996 119.993 310.984 119.993H288.49C287.479 119.99 286.51 119.586 285.795 118.871C285.08 118.156 284.677 117.188 284.674 116.177V93.6825C284.677 92.6713 285.08 91.7025 285.795 90.9875C286.51 90.2725 287.479 89.8694 288.49 89.8662Z" stroke="#D8E3E0" stroke-width="1.03945" stroke-miterlimit="10" stroke-dasharray="2.08 2.08"/>
<path d="M351.691 89.8662H329.185C327.077 89.8662 325.368 91.5748 325.368 93.6825V116.189C325.368 118.296 327.077 120.005 329.185 120.005H351.691C353.798 120.005 355.507 118.296 355.507 116.189V93.6825C355.507 91.5748 353.798 89.8662 351.691 89.8662Z" stroke="#8E9298" stroke-width="1.03945" stroke-miterlimit="10"/>
<path d="M247.794 126.732H270.324C271.34 126.732 272.314 127.135 273.032 127.853C273.75 128.571 274.153 129.545 274.153 130.56V153.054C274.155 153.558 274.057 154.056 273.865 154.521C273.673 154.987 273.391 155.409 273.035 155.765C272.679 156.121 272.257 156.403 271.791 156.595C271.326 156.787 270.828 156.885 270.324 156.883H247.794C246.783 156.88 245.814 156.477 245.099 155.762C244.384 155.047 243.981 154.078 243.977 153.067V130.56C243.977 130.059 244.076 129.563 244.268 129.1C244.46 128.637 244.741 128.216 245.095 127.862C245.45 127.508 245.87 127.226 246.333 127.035C246.796 126.843 247.293 126.744 247.794 126.744V126.732Z" stroke="#FF845E" stroke-width="1.03945" stroke-miterlimit="10"/>
<path d="M288.749 200.489H311.243C312.258 200.489 313.232 200.893 313.95 201.611C314.668 202.329 315.072 203.302 315.072 204.318V226.812C315.072 227.825 314.67 228.797 313.955 229.515C313.239 230.232 312.269 230.637 311.255 230.64H288.749C288.248 230.64 287.752 230.542 287.289 230.35C286.826 230.158 286.405 229.877 286.05 229.523C285.696 229.168 285.415 228.747 285.223 228.284C285.031 227.821 284.933 227.325 284.933 226.824V204.306C284.933 203.804 285.031 203.308 285.223 202.845C285.415 202.382 285.696 201.961 286.05 201.607C286.405 201.253 286.826 200.972 287.289 200.78C287.752 200.588 288.248 200.489 288.749 200.489Z" stroke="#FFD77B" stroke-width="1.03945" stroke-miterlimit="10"/>
<path d="M270.289 193.761H247.795C246.78 193.761 245.806 193.358 245.088 192.64C244.37 191.922 243.967 190.948 243.967 189.932V167.438C243.967 166.423 244.37 165.449 245.088 164.731C245.806 164.013 246.78 163.61 247.795 163.61H270.289C271.305 163.61 272.279 164.013 272.997 164.731C273.715 165.449 274.118 166.423 274.118 167.438V189.932C274.118 190.948 273.715 191.922 272.997 192.64C272.279 193.358 271.305 193.761 270.289 193.761Z" stroke="#D8E3E0" stroke-width="1.03945" stroke-miterlimit="10" stroke-dasharray="2.05 2.05"/>
<path d="M311.241 268.301H288.747C287.731 268.301 286.757 267.898 286.039 267.18C285.321 266.462 284.918 265.488 284.918 264.473V241.979C284.918 240.964 285.321 239.99 286.039 239.272C286.757 238.554 287.731 238.15 288.747 238.15H311.241C312.256 238.15 313.23 238.554 313.948 239.272C314.666 239.99 315.069 240.964 315.069 241.979V264.473C315.069 265.488 314.666 266.462 313.948 267.18C313.23 267.898 312.256 268.301 311.241 268.301Z" stroke="#D8E3E0" stroke-width="1.03945" stroke-miterlimit="10" stroke-dasharray="2.05 2.05"/>
<path d="M230.634 268.301H208.14C207.125 268.301 206.151 267.898 205.433 267.18C204.715 266.462 204.312 265.488 204.312 264.473V241.979C204.312 240.964 204.715 239.99 205.433 239.272C206.151 238.554 207.125 238.15 208.14 238.15H230.634C231.65 238.15 232.624 238.554 233.342 239.272C234.06 239.99 234.463 240.964 234.463 241.979V264.473C234.463 265.488 234.06 266.462 233.342 267.18C232.624 267.898 231.65 268.301 230.634 268.301Z" stroke="#FFD77B" stroke-width="1.03945" stroke-miterlimit="10" stroke-dasharray="2.05 2.05"/>
<path d="M350.651 268.301H328.194C327.178 268.301 326.205 267.898 325.487 267.18C324.769 266.462 324.365 265.488 324.365 264.473V241.979C324.365 240.964 324.769 239.99 325.487 239.272C326.205 238.554 327.178 238.15 328.194 238.15H350.688C351.703 238.15 352.677 238.554 353.395 239.272C354.113 239.99 354.516 240.964 354.516 241.979V264.473C354.516 265.488 354.113 266.462 353.395 267.18C352.677 267.898 351.703 268.301 350.688 268.301H350.651Z" stroke="#6ED5DB" stroke-width="1.03945" stroke-miterlimit="10" stroke-dasharray="2.05 2.05"/>
<path d="M288.49 126.732H310.984C311.996 126.732 312.967 127.134 313.683 127.85C314.398 128.565 314.801 129.536 314.801 130.548V153.054C314.801 153.556 314.702 154.052 314.51 154.515C314.318 154.978 314.037 155.399 313.683 155.753C313.328 156.107 312.908 156.388 312.445 156.58C311.982 156.772 311.485 156.871 310.984 156.871H288.49C287.479 156.868 286.51 156.464 285.795 155.749C285.08 155.034 284.677 154.066 284.674 153.054V130.56C284.674 129.547 285.076 128.575 285.791 127.858C286.506 127.14 287.477 126.735 288.49 126.732Z" fill="#6ED5DB"/>
<path d="M229.606 163.61H207.1C204.992 163.61 203.283 165.318 203.283 167.426V189.932C203.283 192.04 204.992 193.749 207.1 193.749H229.606C231.714 193.749 233.422 192.04 233.422 189.932V167.426C233.422 165.318 231.714 163.61 229.606 163.61Z" stroke="#FFD77B" stroke-width="1.03945" stroke-miterlimit="10"/>
<path d="M351.691 163.61H329.185C327.077 163.61 325.368 165.318 325.368 167.426V189.932C325.368 192.04 327.077 193.749 329.185 193.749H351.691C353.798 193.749 355.507 192.04 355.507 189.932V167.426C355.507 165.318 353.798 163.61 351.691 163.61Z" fill="#FF845E"/>
<path d="M229.606 200.489H207.1C204.992 200.489 203.283 202.198 203.283 204.306V226.812C203.283 228.919 204.992 230.628 207.1 230.628H229.606C231.714 230.628 233.422 228.919 233.422 226.812V204.306C233.422 202.198 231.714 200.489 229.606 200.489Z" fill="#6ED5DB"/>
</g>
<path d="M552.976 284.031H552.866C548.522 283.212 544.404 281.469 540.793 278.918C533.063 273.414 521.504 268.692 508.172 266.136C494.839 263.579 482.363 263.689 473.14 265.916C468.839 266.94 464.368 267.032 460.028 266.185L436.36 261.635C435.156 261.405 433.911 261.663 432.897 262.351C431.883 263.039 431.184 264.101 430.953 265.304L428.507 278.319C428.392 278.915 428.395 279.528 428.517 280.122C428.639 280.717 428.878 281.281 429.219 281.784C429.56 282.286 429.996 282.716 430.504 283.049C431.012 283.382 431.58 283.612 432.176 283.725L455.747 288.251C460.109 289.08 464.243 290.836 467.868 293.4C475.599 298.917 487.17 303.65 500.539 306.219C513.908 308.788 526.409 308.665 535.632 306.427C539.946 305.382 544.436 305.282 548.793 306.133C550.134 306.388 551.521 306.101 552.651 305.336C553.782 304.57 554.563 303.388 554.823 302.048L557.123 290.122C557.257 289.449 557.256 288.756 557.12 288.084C556.983 287.412 556.714 286.773 556.328 286.206C555.942 285.639 555.447 285.154 554.871 284.781C554.296 284.407 553.651 284.152 552.976 284.031Z" fill="#2D3C64"/>
<path d="M430.563 267.359L362.334 254.246C362.368 253.571 362.174 252.904 361.784 252.352C361.394 251.799 360.829 251.394 360.181 251.201L342.519 245.953C342.113 245.835 341.687 245.802 341.268 245.858C340.848 245.913 340.445 246.055 340.084 246.275C339.723 246.495 339.411 246.788 339.169 247.134C338.927 247.481 338.76 247.875 338.678 248.289L336.428 259.995C336.351 260.41 336.362 260.837 336.459 261.248C336.556 261.658 336.737 262.044 336.991 262.381C337.245 262.718 337.567 262.999 337.935 263.205C338.304 263.411 338.711 263.539 339.131 263.579L357.478 265.255C358.152 265.314 358.826 265.146 359.393 264.778C359.961 264.41 360.389 263.863 360.61 263.224L428.838 276.337L430.563 267.359Z" fill="#8E9298"/>
<path d="M476.857 271.763L532.12 282.392" stroke="white" stroke-width="1.66514" stroke-miterlimit="10"/>
<path d="M475.172 280.593L530.422 291.21" stroke="white" stroke-width="1.66514" stroke-miterlimit="10"/>
<path d="M473.471 289.413L528.721 300.042" stroke="white" stroke-width="1.66514" stroke-miterlimit="10"/>
<path opacity="0.96" d="M489.819 146.498C489.983 142.065 489.3 137.642 487.806 133.467L494.688 128.439L491.381 123.031L488.074 117.574L480.459 121.392C477.445 118.142 473.842 115.497 469.842 113.598L471.16 105.168L464.985 103.663L458.797 102.158L456.112 110.258C451.687 110.093 447.272 110.779 443.103 112.277L438.087 105.376L432.657 108.692L427.226 112.02L431.034 119.654C427.792 122.675 425.154 126.288 423.26 130.299L414.851 128.977L413.35 135.168L411.849 141.383L419.916 144.075C419.755 148.508 420.443 152.931 421.942 157.105L415.059 162.146L418.366 167.591L421.661 173.035L429.289 169.218C432.302 172.468 435.905 175.113 439.906 177.012L438.576 185.429L444.763 186.934L450.938 188.439L453.635 180.352C458.057 180.506 462.467 179.817 466.632 178.321L471.648 185.221L477.078 181.906L482.521 178.59L478.763 170.906C482.004 167.888 484.639 164.274 486.524 160.262L494.933 161.583L496.446 155.392L497.947 149.202L489.819 146.498ZM449.974 165.437C445.983 164.469 442.369 162.336 439.588 159.308C436.808 156.279 434.986 152.492 434.354 148.424C433.722 144.357 434.307 140.194 436.036 136.46C437.766 132.727 440.561 129.592 444.068 127.453C447.576 125.313 451.638 124.265 455.74 124.441C459.841 124.617 463.799 126.009 467.111 128.441C470.424 130.873 472.942 134.236 474.347 138.104C475.752 141.971 475.98 146.17 475.004 150.168C473.697 155.517 470.329 160.127 465.637 162.99C460.945 165.852 455.312 166.732 449.974 165.437Z" fill="#8E9298"/>
<path d="M563.653 7.47209L432.097 75.3148C428.329 70.8708 423.175 67.8313 417.47 66.6878C411.765 65.5443 405.842 66.3639 400.66 69.0139L366.953 86.3263C368.876 90.0766 372.206 92.9078 376.211 94.1972C380.216 95.4866 384.568 95.1287 388.309 93.2023L396.559 88.9446C400.225 87.056 404.488 86.7047 408.412 87.9678C410.355 88.5932 412.156 89.5962 413.713 90.9194C415.269 92.2427 416.55 93.8603 417.483 95.6799C418.415 97.4995 418.981 99.4855 419.149 101.524C419.316 103.563 419.081 105.615 418.457 107.563C417.833 109.511 416.833 111.317 415.513 112.877C414.193 114.437 412.579 115.722 410.764 116.657L403.32 120.498C399.367 122.539 396.384 126.068 395.025 130.312C393.666 134.556 394.042 139.167 396.071 143.133L429.717 125.796C434.909 123.12 439.046 118.763 441.456 113.432C443.866 108.102 444.409 102.111 442.995 96.4323L574.539 28.6385C577.347 27.1913 579.466 24.6851 580.431 21.6713C581.395 18.6575 581.126 15.3829 579.683 12.5679C578.239 9.75298 575.74 7.62823 572.733 6.6611C569.727 5.69397 566.461 5.96369 563.653 7.41092V7.47209Z" fill="#8E9298"/>
<path d="M447.768 76.4897L557.761 19.8052" stroke="white" stroke-width="1.66514" stroke-miterlimit="10"/>
<path d="M451.622 84.0141L561.614 27.3296" stroke="white" stroke-width="1.66514" stroke-miterlimit="10"/>
<path d="M70.0038 86.8266L69.5742 332.952L116.544 333.034L116.973 86.9086L70.0038 86.8266Z" fill="#8E9298"/>
<path d="M83.916 319.258L115.584 319.319" stroke="white" stroke-width="1.5844" stroke-miterlimit="10"/>
<path d="M100.16 310.269L115.597 310.305" stroke="white" stroke-width="1.5844" stroke-miterlimit="10"/>
<path d="M83.9531 301.229L115.609 301.278" stroke="white" stroke-width="1.5844" stroke-miterlimit="10"/>
<path d="M100.197 292.238L115.634 292.263" stroke="white" stroke-width="1.5844" stroke-miterlimit="10"/>
<path d="M83.9785 283.188L115.646 283.249" stroke="white" stroke-width="1.5844" stroke-miterlimit="10"/>
<path d="M100.235 274.198L115.659 274.222" stroke="white" stroke-width="1.5844" stroke-miterlimit="10"/>
<path d="M84.0166 265.158L115.672 265.207" stroke="white" stroke-width="1.5844" stroke-miterlimit="10"/>
<path d="M100.261 256.169L115.697 256.193" stroke="white" stroke-width="1.5844" stroke-miterlimit="10"/>
<path d="M84.04 247.115L115.708 247.176" stroke="white" stroke-width="1.5844" stroke-miterlimit="10"/>
<path d="M100.295 238.125L115.719 238.15" stroke="white" stroke-width="1.5844" stroke-miterlimit="10"/>
<path d="M84.0781 229.075L115.746 229.136" stroke="white" stroke-width="1.5844" stroke-miterlimit="10"/>
<path d="M100.319 220.085L115.756 220.122" stroke="white" stroke-width="1.5844" stroke-miterlimit="10"/>
<path d="M84.1143 211.045L115.77 211.094" stroke="white" stroke-width="1.5844" stroke-miterlimit="10"/>
<path d="M100.357 202.055L115.794 202.079" stroke="white" stroke-width="1.5844" stroke-miterlimit="10"/>
<path d="M84.1377 193.003L115.805 193.064" stroke="white" stroke-width="1.5844" stroke-miterlimit="10"/>
<path d="M100.396 184.013L115.82 184.037" stroke="white" stroke-width="1.5844" stroke-miterlimit="10"/>
<path d="M84.1738 174.974L115.829 175.023" stroke="white" stroke-width="1.5844" stroke-miterlimit="10"/>
<path d="M100.418 165.984L115.854 166.008" stroke="white" stroke-width="1.5844" stroke-miterlimit="10"/>
<path d="M84.2012 156.932L115.869 156.993" stroke="white" stroke-width="1.5844" stroke-miterlimit="10"/>
<path d="M100.456 147.942L115.88 147.966" stroke="white" stroke-width="1.5844" stroke-miterlimit="10"/>
<path d="M84.2354 138.891L115.903 138.952" stroke="white" stroke-width="1.5844" stroke-miterlimit="10"/>
<path d="M100.479 129.901L115.915 129.938" stroke="white" stroke-width="1.5844" stroke-miterlimit="10"/>
<path d="M84.2598 120.861L115.928 120.91" stroke="white" stroke-width="1.5844" stroke-miterlimit="10"/>
<path d="M100.516 111.871L115.952 111.896" stroke="white" stroke-width="1.5844" stroke-miterlimit="10"/>
<path d="M84.2979 102.819L115.966 102.88" stroke="white" stroke-width="1.5844" stroke-miterlimit="10"/>
<path d="M188.608 205.255L180.272 171.872L14.7475 213.203L23.0831 246.586L188.608 205.255Z" fill="#2D3C64"/>
<path d="M169.209 192.355L38.1592 225.075" stroke="white" stroke-width="1.66514" stroke-miterlimit="10"/>
<path d="M159.927 204.367L51.3096 231.485" stroke="white" stroke-width="1.66514" stroke-miterlimit="10"/>
<path d="M155.303 185.811L46.6738 212.929" stroke="white" stroke-width="1.66514" stroke-miterlimit="10"/>
<path d="M188.548 205.26L223.702 180.687C224.047 180.458 224.314 180.129 224.464 179.743C224.615 179.358 224.643 178.935 224.544 178.533C224.444 178.131 224.223 177.769 223.91 177.498C223.598 177.227 223.209 177.059 222.797 177.017L180.206 171.843L188.548 205.26Z" fill="#455C7D"/>
<path d="M208.827 175.353L212.166 188.747" stroke="#2F3F55" stroke-width="1.66514" stroke-miterlimit="10"/>
<defs>
<clipPath id="clip0_1_2274">
<rect width="191.829" height="325.252" fill="white" transform="translate(183.481 47.6787)"/>
</clipPath>
</defs>
</svg>
