<svg width="17" height="17" viewBox="0 0 17 17" fill="none" xmlns="http://www.w3.org/2000/svg">
<path d="M12.9962 9.41073C12.9176 9.33201 12.8243 9.26956 12.7215 9.22696C12.6188 9.18435 12.5086 9.16242 12.3974 9.16242C12.2862 9.16242 12.1761 9.18435 12.0733 9.22696C11.9706 9.26956 11.8772 9.33201 11.7986 9.41073L10.4487 10.7607C9.82282 10.5744 8.65494 10.1509 7.91474 9.41073C7.17455 8.67053 6.75109 7.50265 6.56477 6.87679L7.91474 5.52682C7.99346 5.44824 8.05591 5.35491 8.09852 5.25216C8.14112 5.14942 8.16305 5.03929 8.16305 4.92806C8.16305 4.81683 8.14112 4.7067 8.09852 4.60395C8.05591 4.50121 7.99346 4.40788 7.91474 4.3293L4.52712 0.941673C4.44854 0.862957 4.3552 0.800508 4.25246 0.757899C4.14972 0.715291 4.03958 0.693359 3.92836 0.693359C3.81713 0.693359 3.70699 0.715291 3.60425 0.757899C3.50151 0.800508 3.40818 0.862957 3.32959 0.941673L1.03279 3.23848C0.710962 3.56031 0.529724 4.00239 0.536499 4.45379C0.555978 5.65978 0.875262 9.84858 4.1765 13.1498C7.47774 16.4511 11.6665 16.7695 12.8734 16.7898H12.8971C13.3443 16.7898 13.7669 16.6137 14.087 16.2935L16.3838 13.9967C16.4625 13.9181 16.525 13.8248 16.5676 13.7221C16.6102 13.6193 16.6321 13.5092 16.6321 13.398C16.6321 13.2867 16.6102 13.1766 16.5676 13.0739C16.525 12.9711 16.4625 12.8778 16.3838 12.7992L12.9962 9.41073ZM12.8886 15.0952C11.8317 15.0774 8.21539 14.7937 5.37402 11.9514C2.52334 9.10076 2.24725 5.47177 2.23031 4.43601L3.92836 2.73796L6.11845 4.92806L5.02341 6.02311C4.92386 6.12258 4.85067 6.24528 4.81045 6.38014C4.77023 6.51499 4.76425 6.65774 4.79305 6.79549C4.81337 6.89288 5.31051 9.20239 6.71637 10.6083C8.12223 12.0141 10.4317 12.5113 10.5291 12.5316C10.6668 12.5612 10.8097 12.5557 10.9447 12.5156C11.0796 12.4755 11.2024 12.402 11.3015 12.3021L12.3974 11.207L14.5875 13.3971L12.8886 15.0952Z" fill="white"/>
</svg>
