<svg width="50" height="50" viewBox="0 0 50 50" fill="none" xmlns="http://www.w3.org/2000/svg">
<g clip-path="url(#clip0_1_1210)">
<path d="M25.0013 45.8332C13.5221 45.8332 4.16797 36.479 4.16797 24.9998C4.16797 13.5207 13.5221 4.1665 25.0013 4.1665C36.4805 4.1665 45.8346 12.5832 45.8346 22.9165C45.8346 29.8123 40.2305 35.4165 33.3346 35.4165H29.6471C29.0638 35.4165 28.6055 35.8748 28.6055 36.4582C28.6055 36.7082 28.7096 36.9373 28.8763 37.1457C29.7305 38.1248 30.2096 39.354 30.2096 40.6248C30.2096 43.4998 27.8763 45.8332 25.0013 45.8332ZM25.0013 8.33317C15.8138 8.33317 8.33464 15.8123 8.33464 24.9998C8.33464 34.1873 15.8138 41.6665 25.0013 41.6665C25.5846 41.6665 26.043 41.2082 26.043 40.6248C26.043 40.2915 25.8763 40.0415 25.7513 39.8957C24.8971 38.9373 24.4388 37.7082 24.4388 36.4582C24.4388 33.5832 26.7721 31.2498 29.6471 31.2498H33.3346C37.9388 31.2498 41.668 27.5207 41.668 22.9165C41.668 14.8748 34.1888 8.33317 25.0013 8.33317Z" fill="#170F58"/>
<path d="M36.457 27.0835C38.1829 27.0835 39.582 25.6844 39.582 23.9585C39.582 22.2326 38.1829 20.8335 36.457 20.8335C34.7311 20.8335 33.332 22.2326 33.332 23.9585C33.332 25.6844 34.7311 27.0835 36.457 27.0835Z" fill="#170F58"/>
<path d="M13.543 27.0835C15.2689 27.0835 16.668 25.6844 16.668 23.9585C16.668 22.2326 15.2689 20.8335 13.543 20.8335C11.8171 20.8335 10.418 22.2326 10.418 23.9585C10.418 25.6844 11.8171 27.0835 13.543 27.0835Z" fill="#170F58"/>
<path d="M30.207 18.75C31.9329 18.75 33.332 17.3509 33.332 15.625C33.332 13.8991 31.9329 12.5 30.207 12.5C28.4811 12.5 27.082 13.8991 27.082 15.625C27.082 17.3509 28.4811 18.75 30.207 18.75Z" fill="#170F58"/>
<path d="M19.793 18.75C21.5189 18.75 22.918 17.3509 22.918 15.625C22.918 13.8991 21.5189 12.5 19.793 12.5C18.0671 12.5 16.668 13.8991 16.668 15.625C16.668 17.3509 18.0671 18.75 19.793 18.75Z" fill="#170F58"/>
</g>
<defs>
<clipPath id="clip0_1_1210">
<rect width="50" height="50" fill="white"/>
</clipPath>
</defs>
</svg>
