<svg width="47" height="47" viewBox="0 0 47 47" fill="none" xmlns="http://www.w3.org/2000/svg">
<g clip-path="url(#clip0_1_876)">
<path d="M30.1412 4.3487C30.251 3.1585 32.0913 3.06695 33.492 3.55219C33.5744 3.57965 35.8907 4.44025 35.2316 4.9438C32.6772 4.2663 30.0679 6.61007 30.1412 4.3487ZM11.7389 4.98042C14.5496 4.23884 17.4152 6.81149 17.3328 4.33039C17.2138 3.03033 15.1905 2.92962 13.6524 3.45148C13.5608 3.47894 11.0248 4.41279 11.7389 4.98042ZM30.7088 14.6485C29.9031 14.6485 29.244 15.3077 29.244 16.1133C29.244 16.919 29.9031 17.5782 30.7088 17.5782C31.5145 17.5782 32.1737 16.919 32.1737 16.1133C32.1737 15.3077 31.5145 14.6485 30.7088 14.6485ZM16.0877 14.6485C15.282 14.6485 14.6228 15.3077 14.6228 16.1133C14.6228 16.919 15.282 17.5782 16.0877 17.5782C16.8934 17.5782 17.5526 16.919 17.5526 16.1133C17.5526 15.3077 16.8934 14.6485 16.0877 14.6485ZM45.2475 29.59C44.3411 31.7873 41.5213 30.5971 39.3973 29.4802C38.1613 35.8065 34.078 39.6792 27.834 40.8511C27.8615 40.9335 27.6509 40.842 30.0313 40.9427C33.1075 41.0708 35.8724 40.6589 38.9486 40.2102C37.1359 38.9468 37.9049 36.8136 38.0514 36.722C38.1796 36.6396 39.3973 36.8777 40.029 37.7749C40.8163 36.6305 42.6291 36.4199 42.7939 36.5298C42.9404 36.6305 43.3981 38.4433 42.1622 39.6975C42.5925 39.6151 42.9129 39.5511 43.0594 39.5053C43.2974 39.432 44.6799 40.5398 43.3432 40.7229C42.034 40.9335 41.2741 41.1899 39.031 41.7117C34.8287 42.6913 31.1666 42.792 28.2552 42.8836L28.3467 43.9456C28.6946 45.6027 26.2044 46.1704 25.8199 44.5133C25.8931 46.1521 23.3388 46.5091 23.2197 44.4217L23.174 44.9069C23.1099 46.5915 20.5738 46.5457 20.583 44.852C19.8963 46.088 18.0103 45.4746 18.166 44.0738L18.2758 42.9385C14.9158 43.0209 12.8101 43.2224 12.6178 43.2224C10.7044 43.2224 10.7044 40.3293 12.6178 40.3293C12.8376 40.3293 15.1539 40.4483 18.404 40.5856C12.8101 39.1665 8.9099 35.5502 7.8845 29.764C5.59566 30.9359 2.62017 32.2176 1.64055 29.8372C0.679234 27.5118 3.60895 25.937 7.75633 23.1172C7.82041 22.5129 7.90281 21.8995 8.00352 21.3044C6.68515 19.51 6.9415 17.981 6.52951 15.7746C4.99141 15.9943 4.40547 14.9415 4.36884 13.6597C4.39631 12.9914 4.56111 12.2956 4.58857 12.2498C4.68928 12.085 5.51326 12.0667 5.7513 12.0117C6.30063 9.10949 10.3839 8.97216 14.0735 8.85314C15.8771 6.85727 18.2117 5.05366 21.4802 4.4311C20.0794 2.65496 21.1689 0.778112 21.2605 0.732335C21.4161 0.659092 23.2014 1.12602 23.6683 2.85638C24.1444 2.05071 25.3438 1.81267 25.4628 1.87675C25.5635 1.93169 26.0487 3.25006 25.0142 4.24799C28.7038 4.56843 31.6244 6.50937 33.8033 8.88976C37.1084 9.02709 40.3769 9.42993 40.8621 12.0026C41.1093 12.0575 41.9241 12.0758 42.0248 12.2406C42.0523 12.2864 42.2171 12.9822 42.2446 13.6505C42.1988 14.9231 41.622 15.976 40.0839 15.7654C39.7909 17.3493 39.8367 18.7775 39.2874 20.1325C39.5071 21.2037 39.6536 22.3115 39.7268 23.4651C43.1143 25.7905 46.1631 27.3561 45.2475 29.59ZM20.4548 14.6393C20.5372 10.611 16.9849 10.7758 13.2587 10.9497C11.272 11.0413 9.69726 11.1237 9.09301 12.2223C8.0493 14.1358 9.63318 20.7276 11.2171 21.4875C12.1143 21.9178 17.9371 22.2108 19.1181 20.8375C19.8689 19.9769 20.4914 16.3148 20.4548 14.6393ZM25.2156 19.9769C24.8219 18.8416 24.6663 17.2211 23.8148 16.9831C23.6317 16.9373 22.9908 16.9373 22.8077 16.9831C21.8922 17.2394 21.819 19.0064 21.2513 20.3889C22.6613 20.3889 23.0183 21.277 23.4211 21.277C23.8148 21.277 23.9979 20.2424 25.2156 19.9769ZM37.6394 12.2223C37.0352 11.1145 35.3689 11.0413 33.3822 10.9497C29.7017 10.7758 26.2227 10.6018 26.3051 14.6393C26.2593 16.3148 26.7629 19.9769 27.5136 20.8467C28.7038 22.2108 34.5266 21.927 35.4147 21.4967C36.8612 20.8009 38.7564 14.2731 37.6394 12.2223Z" fill="white"/>
</g>
<defs>
<clipPath id="clip0_1_876">
<rect width="46.8754" height="46.8754" fill="white"/>
</clipPath>
</defs>
</svg>
