<svg width="100" height="100" viewBox="0 0 100 100" fill="none" xmlns="http://www.w3.org/2000/svg">
<path d="M17.2634 17.0983C16.4631 17.9151 16 19.1868 16 20.8337V79.577C16 81.2239 16.4631 82.4956 17.2634 83.3124L17.4609 83.4917L51.2227 50.5872V49.8102L17.4609 16.9058L17.2634 17.0983Z" fill="#170F58"/>
<path d="M66.552 61.5605L55.3105 50.5869V49.8099L66.5656 38.8362L66.8176 38.979L80.1466 46.3733C83.9505 48.4718 83.9505 51.9249 80.1466 54.0367L66.8176 61.4178L66.552 61.5605Z" fill="#170F58"/>
<path d="M64.773 63.4612L53.266 52.2418L19.3066 85.3555C20.5701 86.6504 22.6304 86.8064 24.9733 85.5115L64.773 63.4612Z" fill="#170F58"/>
<path d="M64.773 36.9356L24.9733 14.8853C22.6304 13.6037 20.5701 13.7597 19.3066 15.0546L53.266 48.155L64.773 36.9356Z" fill="#170F58"/>
</svg>
