<svg width="29" height="31" viewBox="0 0 29 31" fill="none" xmlns="http://www.w3.org/2000/svg">
<path d="M0.540906 1.3267C0.198283 1.67639 0 2.22084 0 2.92591V28.0755C0 28.7806 0.198283 29.325 0.540906 29.6747L0.625469 29.7515L15.0798 15.6642V15.3315L0.625469 1.24425L0.540906 1.3267Z" fill="#170F58"/>
<path d="M21.6428 20.3623L16.8301 15.6642V15.3315L21.6487 10.6334L21.7566 10.6945L27.4631 13.8603C29.0916 14.7587 29.0916 16.237 27.4631 17.1411L21.7566 20.3012L21.6428 20.3623Z" fill="#170F58"/>
<path d="M20.8814 21.1758L15.9549 16.3725L1.41602 30.5493C1.95692 31.1037 2.839 31.1705 3.84208 30.6161L20.8814 21.1758Z" fill="#170F58"/>
<path d="M20.8814 9.81924L3.84208 0.378907C2.839 -0.1698 1.95692 -0.102991 1.41602 0.451403L15.9549 14.6226L20.8814 9.81924Z" fill="#170F58"/>
</svg>
