<svg width="390" height="529" viewBox="0 0 390 529" fill="none" xmlns="http://www.w3.org/2000/svg">
<path d="M121.646 80.1264C93.5266 18.4574 24.7571 23.9067 0 65.0196V519H390V84.5306C390 9.97043 280.886 -2.09887 259.185 84.5306C231.534 22.578 138.81 36.5601 121.646 80.1264Z" fill="#EDEDED" fill-opacity="0.4"/>
<path d="M126.635 31.739C64.4357 -34.4217 2.6444 18.1903 0 70.4633V463H390V70.4635C389.515 -18.4222 296.4 -13.4805 260.309 31.739C222.662 78.9097 149.261 55.8054 126.635 31.739Z" fill="white" fill-opacity="0.2"/>
<path d="M62.2172 88.7846C35.9319 108.736 32.7038 54.7422 0 54.7422V528.742H390V91.5859C374.84 122.407 338.722 90.9578 324.764 78.1154C279.04 44.5421 263.636 52.6318 230.932 78.1154C204.524 103.984 172.452 88.8938 159.717 78.1154C113.259 38.7959 94.1294 64.5621 62.2172 88.7846Z" fill="#EDEDED"/>
</svg>
