<svg width="57" height="57" viewBox="0 0 57 57" fill="none" xmlns="http://www.w3.org/2000/svg">
<path d="M40.647 21.0014C40.647 22.3228 39.7698 23.392 38.6893 23.392C37.6088 23.392 36.7316 22.3228 36.7316 21.0014C36.7316 19.6799 37.6088 18.6069 38.6893 18.6069C39.7698 18.6069 40.647 19.6799 40.647 21.0014Z" fill="#E0BC89"/>
<path d="M20.4684 21.1032C20.6755 22.4096 19.9827 23.6068 18.9135 23.7762C17.8443 23.9456 16.8128 23.0232 16.6019 21.7244C16.3911 20.4255 17.0914 19.2208 18.1568 19.0514C19.2222 18.882 20.2613 19.8006 20.4684 21.1032Z" fill="#E0BC89"/>
<path d="M22.9415 29.8296V40.5744H33.7729V31.1812L22.9415 29.8296Z" fill="#D4B282"/>
<path d="M17.7695 15.3018L19.3357 27.7257C19.3357 27.7257 19.5089 30.2632 22.6412 32.3602L26.2931 34.1033C26.2931 34.1033 27.8592 35.4925 30.472 34.1033L34.1239 32.3602C34.1239 32.3602 37.9527 30.2142 37.7795 27.7257L39.5188 15.3018C39.5188 15.3018 39.7786 3.77399 28.3373 4.0074C28.3373 3.99234 17.7695 4.2107 17.7695 15.3018Z" fill="#E0BC89"/>
<path d="M35.3202 12.3428C35.3202 12.3428 38.7989 15.5466 37.9556 21.3971L38.7085 20.9868C38.7085 20.9868 40.1617 16.8229 39.5368 13.5475L35.3202 12.3428Z" fill="#431A13"/>
<path d="M17.7199 12.6023C17.4338 15.9266 18.5481 20.0415 18.5481 20.0415L19.3011 20.4557C18.454 14.6052 21.9365 11.4013 21.9365 11.4013C21.9365 11.4013 22.8325 10.3434 25.2683 9.68831L21.5713 6.38281C21.5713 6.38281 18.0663 8.60029 17.7199 12.6023Z" fill="#2A0B01"/>
<path d="M21.771 9.12363C21.771 9.12363 24.316 12.1355 34.6881 12.7115C34.6881 12.7115 32.2748 11.7326 31.6762 10.366C31.6762 10.366 34.3869 11.7929 39.4919 14.7332C39.4919 14.7332 40.2223 3.90561 29.327 3.25053C29.327 3.25053 22.652 2.60675 20.9992 6.94381C20.8895 7.34247 20.9047 7.76518 21.0427 8.15496C21.1807 8.54473 21.4349 8.88281 21.771 9.12363Z" fill="#431A13"/>
<path d="M48.2825 41.2338L28.6415 36.3396V36.2681L28.5022 36.3057L28.3591 36.2681V36.3396L8.71809 41.2338C8.71809 41.2338 3.2403 42.4536 2.28027 55.8752H54.7203C53.764 42.4612 48.2825 41.2338 48.2825 41.2338Z" fill="#D4B282"/>
<path d="M22.9453 37.6946L8.71809 41.2335C8.71809 41.2335 3.2403 42.4533 2.28027 55.8748H54.7203C53.764 42.4533 48.2825 41.2335 48.2825 41.2335L33.7766 37.623L28.6415 40.5784L22.9453 37.6946Z" fill="white"/>
<path d="M28.6418 40.5749L22.9418 37.6948L16.1689 39.3815L25.8144 44.8818L28.6418 40.5749Z" fill="#D6D6D6"/>
<path d="M28.4989 40.5748L33.7734 37.627L40.8324 39.3814L31.187 44.8817L28.4989 40.5748Z" fill="#D6D6D6"/>
<path d="M26.9815 46.0752L25.5546 55.8788H32.079L30.046 46.0752H26.9815Z" fill="#C03D39"/>
<path d="M25.8145 44.8812L27.6404 46.7523H29.4023L31.1868 44.8812L28.4988 40.5742L25.8145 44.8812Z" fill="#E74645"/>
<path d="M27.5083 37.2466C23.303 36.6669 20.1858 35.0292 18.2394 32.3524C15.3442 28.4069 16.0972 23.6933 16.1311 23.4976L16.9028 23.6256C16.9028 23.6707 16.1725 28.2262 18.8756 31.9081C20.6902 34.3816 23.6306 35.9139 27.6175 36.4636L27.5083 37.2466Z" fill="#DADADA"/>
<path d="M15.8406 22.7144C14.4574 20.4356 13.7268 17.8205 13.7285 15.1547C13.7325 11.2878 15.2704 7.58037 18.0047 4.84604C20.7391 2.11171 24.4465 0.573811 28.3134 0.569824C32.18 0.573812 35.887 2.11183 38.6207 4.84627C41.3544 7.5807 42.8915 11.2881 42.8945 15.1547C42.9032 17.4481 42.365 19.7106 41.3246 21.7544L40.6996 21.4382C41.6903 19.4972 42.2064 17.3489 42.2055 15.1697C42.2025 11.4889 40.7392 7.95959 38.1368 5.35648C35.5344 2.75336 32.0055 1.28913 28.3247 1.28514C24.6435 1.28913 21.1142 2.75325 18.5112 5.35625C15.9082 7.95926 14.4441 11.4885 14.4401 15.1697C14.4384 17.7068 15.1339 20.1956 16.4505 22.3643L15.8406 22.7144Z" fill="#C6C6C6"/>
<path d="M17.7201 22.9287C17.7201 23.3141 17.567 23.6837 17.2944 23.9563C17.0219 24.2288 16.6523 24.3819 16.2669 24.3819C16.0762 24.3819 15.8874 24.3443 15.7113 24.2712C15.5352 24.1981 15.3752 24.091 15.2406 23.9561C15.106 23.8211 14.9993 23.6608 14.9266 23.4845C14.854 23.3082 14.8169 23.1194 14.8174 22.9287V18.9229C14.8169 18.7323 14.854 18.5434 14.9266 18.3671C14.9993 18.1908 15.106 18.0306 15.2406 17.8956C15.3752 17.7606 15.5352 17.6535 15.7113 17.5804C15.8874 17.5073 16.0762 17.4697 16.2669 17.4697C16.4577 17.4697 16.6467 17.5073 16.823 17.5803C16.9993 17.6534 17.1595 17.7604 17.2944 17.8954C17.4294 18.0303 17.5364 18.1905 17.6094 18.3668C17.6825 18.5431 17.7201 18.7321 17.7201 18.9229V22.9287Z" fill="#1D1D1B"/>
<path d="M14.8886 18.4678V23.1512C14.8886 23.1512 12.705 21.0881 14.8886 18.4678Z" fill="#F9B233"/>
<path d="M39.4727 18.8067C39.4722 18.6161 39.5093 18.4272 39.5819 18.2509C39.6545 18.0746 39.7612 17.9144 39.8959 17.7794C40.0305 17.6444 40.1905 17.5373 40.3666 17.4642C40.5427 17.3911 40.7315 17.3535 40.9221 17.3535C41.3075 17.3535 41.6772 17.5066 41.9497 17.7792C42.2222 18.0517 42.3753 18.4213 42.3753 18.8067V22.8125C42.3753 23.1979 42.2222 23.5675 41.9497 23.8401C41.6772 24.1126 41.3075 24.2657 40.9221 24.2657C40.7315 24.2657 40.5427 24.2281 40.3666 24.155C40.1905 24.0819 40.0305 23.9748 39.8959 23.8398C39.7612 23.7048 39.6545 23.5446 39.5819 23.3683C39.5093 23.192 39.4722 23.0031 39.4727 22.8125V18.8067Z" fill="#1D1D1B"/>
<path d="M42.3047 23.2605V18.5884C42.3047 18.5884 44.4807 20.6477 42.3047 23.2605Z" fill="#F9B233"/>
<path d="M30.1741 36.8134C30.1741 37.09 30.0643 37.3553 29.8687 37.5508C29.6731 37.7464 29.4079 37.8563 29.1313 37.8563H26.7068C26.569 37.8578 26.4324 37.8319 26.3048 37.7801C26.1772 37.7283 26.0611 37.6517 25.9634 37.5546C25.8656 37.4576 25.7882 37.3421 25.7355 37.2148C25.6828 37.0876 25.6559 36.9511 25.6564 36.8134C25.6559 36.6767 25.6824 36.5411 25.7344 36.4146C25.7864 36.2881 25.8628 36.1731 25.9594 36.0762C26.0559 35.9794 26.1706 35.9025 26.297 35.85C26.4233 35.7976 26.5587 35.7706 26.6955 35.7706H29.12C29.2579 35.7691 29.3947 35.7949 29.5226 35.8467C29.6504 35.8984 29.7667 35.975 29.8647 36.072C29.9628 36.169 30.0406 36.2845 30.0937 36.4117C30.1468 36.539 30.1742 36.6755 30.1741 36.8134Z" fill="#1D1D1B"/>
</svg>
