<svg width="153" height="153" viewBox="0 0 153 153" fill="none" xmlns="http://www.w3.org/2000/svg">
<g filter="url(#filter0_d_249_70)">
<circle cx="76.497" cy="72.497" r="72.497" fill="white"/>
</g>
<path d="M58.67 55.6687C58.5942 54.8879 58.6825 54.0998 58.9294 53.3551C59.1762 52.6104 59.5761 51.9256 60.1034 51.3446C60.6307 50.7637 61.2736 50.2994 61.991 49.9818C62.7083 49.6641 63.4842 49.5 64.2687 49.5H73.25C73.7473 49.5 74.2242 49.6975 74.5758 50.0492C74.9275 50.4008 75.125 50.8777 75.125 51.375V52.8075C75.125 55.4175 73.2612 57.24 71.855 58.3162C71.6857 58.4365 71.5396 58.5864 71.4237 58.7587C71.405 58.788 71.3898 58.8195 71.3787 58.8525L71.375 58.875V58.8862L71.3862 58.9237C71.4012 58.9613 71.4387 59.0287 71.5212 59.1225C71.8082 59.4285 72.1521 59.6757 72.5338 59.85C73.5875 60.375 75.1625 60.75 77 60.75C78.845 60.75 80.42 60.375 81.4625 59.85C81.8454 59.6761 82.1907 59.4289 82.4788 59.1225C82.5338 59.0623 82.5794 58.994 82.6138 58.92L82.625 58.8825V58.8525C82.6139 58.8195 82.5988 58.788 82.58 58.7587C82.4641 58.5864 82.318 58.4365 82.1488 58.3162C80.7425 57.24 78.8788 55.4175 78.8788 52.8075V51.375C78.8787 50.8784 79.0758 50.402 79.4266 50.0505C79.7774 49.699 80.2534 49.501 80.75 49.5H89.7313C90.5158 49.5 91.2917 49.6641 92.009 49.9818C92.7264 50.2994 93.3693 50.7637 93.8966 51.3446C94.4239 51.9256 94.8238 52.6104 95.0706 53.3551C95.3175 54.0998 95.4058 54.8879 95.33 55.6687L94.4188 66.375H95.3075C96.0387 66.375 96.8825 65.8237 97.8387 64.575C98.6263 63.5475 99.8187 62.625 101.375 62.625C103.505 62.625 104.926 64.3013 105.702 65.8575C106.539 67.5263 107 69.7013 107 72C107 74.2987 106.539 76.4737 105.702 78.1425C104.926 79.6987 103.505 81.375 101.375 81.375C99.8187 81.375 98.6263 80.4525 97.8387 79.425C96.8825 78.1762 96.0387 77.625 95.3075 77.625H94.4188L95.33 88.3312C95.4058 89.1121 95.3175 89.9002 95.0706 90.6449C94.8238 91.3896 94.4239 92.0744 93.8966 92.6554C93.3693 93.2363 92.7264 93.7006 92.009 94.0182C91.2917 94.3359 90.5158 94.5 89.7313 94.5H80.75C80.2527 94.5 79.7758 94.3025 79.4242 93.9508C79.0725 93.5992 78.875 93.1223 78.875 92.625V91.1925C78.875 88.5825 80.7388 86.76 82.145 85.6838C82.3143 85.5635 82.4604 85.4136 82.5763 85.2412C82.595 85.212 82.6102 85.1805 82.6213 85.1475L82.625 85.125V85.1138L82.6138 85.0763C82.579 85.0036 82.5335 84.9366 82.4788 84.8775C82.1918 84.5714 81.8479 84.3242 81.4663 84.15C80.4125 83.625 78.8375 83.25 77 83.25C75.1588 83.25 73.58 83.625 72.5375 84.15C72.1545 84.3238 71.8093 84.571 71.5212 84.8775C71.4662 84.9377 71.4207 85.006 71.3862 85.08L71.375 85.1175V85.125L71.3787 85.1475C71.3898 85.1805 71.405 85.212 71.4237 85.2412C71.4837 85.3425 71.6112 85.4963 71.855 85.6838C73.2612 86.76 75.125 88.5825 75.125 91.1925V92.625C75.125 93.1223 74.9275 93.5992 74.5758 93.9508C74.2242 94.3025 73.7473 94.5 73.25 94.5H64.2687C63.4842 94.5 62.7083 94.3359 61.991 94.0182C61.2736 93.7006 60.6307 93.2363 60.1034 92.6554C59.5761 92.0744 59.1762 91.3896 58.9294 90.6449C58.6825 89.9002 58.5942 89.1121 58.67 88.3312L59.585 77.625H58.6925C57.9613 77.625 57.1175 78.1762 56.1613 79.425C55.3738 80.4525 54.1813 81.375 52.625 81.375C50.495 81.375 49.0738 79.6987 48.2975 78.1425C47.4612 76.4737 47 74.2987 47 72C47 69.7013 47.4612 67.5263 48.2975 65.8575C49.0738 64.3013 50.495 62.625 52.625 62.625C54.1813 62.625 55.3738 63.5475 56.1613 64.575C57.1175 65.8237 57.9613 66.375 58.6925 66.375H59.585L58.67 55.6687Z" fill="#0915EA"/>
<defs>
<filter id="filter0_d_249_70" x="0" y="0" width="152.994" height="152.994" filterUnits="userSpaceOnUse" color-interpolation-filters="sRGB">
<feFlood flood-opacity="0" result="BackgroundImageFix"/>
<feColorMatrix in="SourceAlpha" type="matrix" values="0 0 0 0 0 0 0 0 0 0 0 0 0 0 0 0 0 0 127 0" result="hardAlpha"/>
<feOffset dy="4"/>
<feGaussianBlur stdDeviation="2"/>
<feComposite in2="hardAlpha" operator="out"/>
<feColorMatrix type="matrix" values="0 0 0 0 0 0 0 0 0 0 0 0 0 0 0 0 0 0 0.25 0"/>
<feBlend mode="normal" in2="BackgroundImageFix" result="effect1_dropShadow_249_70"/>
<feBlend mode="normal" in="SourceGraphic" in2="effect1_dropShadow_249_70" result="shape"/>
</filter>
</defs>
</svg>
