<svg width="234" height="223" viewBox="0 0 234 223" fill="none" xmlns="http://www.w3.org/2000/svg">
<g clip-path="url(#clip0_1_1572)">
<path d="M216.5 221.169C227.594 200.207 233.998 175.481 233.998 149C233.998 73.277 181.616 11.8901 116.999 11.8901C52.3814 11.8901 -0.00193024 73.277 -0.00193024 149C-0.00193024 175.481 6.40516 200.207 17.4964 221.169H216.5Z" fill="#9EDFF6"/>
<g style="mix-blend-mode:screen" opacity="0.25">
<path d="M200.753 56.1971C195.689 55.4352 190.542 56.0746 185.451 55.5954C180.276 55.0896 175.269 53.4833 170.766 50.8843C169.497 50.1561 168.241 49.3444 166.862 48.9649C165.014 48.4547 163.085 48.7589 161.189 48.8491C157.455 49.0194 153.729 48.3626 150.278 46.9256C149.1 46.4384 147.785 45.6321 147.586 44.1851C147.338 42.3384 149.055 41.0179 150.555 40.3853C152.056 39.7526 153.857 38.9706 154.182 37.14C154.327 36.3176 154.132 35.3902 154.511 34.6754C154.771 34.1895 155.242 33.9244 155.692 33.6969C160.672 31.1812 166.091 30.1972 171.482 29.928C172.664 29.8701 173.882 29.9199 175.116 29.9818C168.705 25.6566 161.852 22.0261 154.673 19.1517C151.253 19.3644 147.825 19.4092 144.389 19.2863C137.203 19.0319 129.477 18.2095 123.34 22.6002C122.543 23.1696 121.74 23.8978 121.477 24.9477C120.83 27.5401 123.655 29.3088 125.889 29.9711C126.242 31.7667 124.218 32.787 122.668 33.1087C117.637 34.1569 112.719 35.6933 107.986 37.6959C104.603 39.1241 100.852 41.4056 100.179 45.546C99.7105 48.4588 101.046 51.4685 103.016 53.3287C104.987 55.1889 107.493 56.0705 109.977 56.6345C118.428 58.554 127.169 57.2362 135.74 58.1946C136.884 58.3292 138.078 58.5149 139.009 59.3037C140.48 60.5501 140.875 62.8895 141.904 64.6434C143.949 68.1255 148.045 68.7609 151.647 68.991C159.664 69.5038 167.702 69.5806 175.727 69.2212C177.746 69.131 179.81 69.018 181.763 69.6385C183.816 70.2926 185.617 71.7154 187.519 72.8313C192.043 75.487 197.139 76.409 202.14 77.3041C207.272 78.2234 212.446 79.1481 217.62 79.0001C213.648 71.1529 208.937 63.7018 203.552 56.7476C202.624 56.5309 201.692 56.3438 200.753 56.1971Z" fill="white"/>
</g>
<g style="mix-blend-mode:screen" opacity="0.25">
<path d="M180.337 101.166C179.55 99.898 178.347 99.0877 177.156 98.377C159.644 87.9264 138.763 91.5553 119.174 89.7301C114.159 89.2617 109.071 88.3841 104.554 85.7903C99.2774 82.7604 94.6794 77.383 88.8161 76.955C84.6946 76.6548 79.2337 78.1799 77.4637 73.8093C77.0276 72.7325 77.0518 71.4982 76.9253 70.3177C75.1284 54.2462 49.1258 58.9182 46.5886 59.0569L27.9421 60.0758C21.6749 68.7197 16.4079 78.0462 12.242 87.8766C18.0838 87.8134 23.9255 87.769 29.7659 87.703C32.6478 87.6707 35.5821 87.6478 38.3374 88.6358C42.0942 89.9818 45.2385 93.1073 48.9845 94.4937C51.861 95.5584 54.9366 95.5409 57.9544 95.5126L90.7032 95.2098C92.764 95.1909 94.884 95.1842 96.8034 96.0645C98.6879 96.9287 100.221 98.5735 101.918 99.8563C107.539 104.087 114.623 104.155 121.183 105.633C123.265 106.102 125.557 106.931 126.555 109.124C128.214 112.775 125.074 116.955 121.901 118.779C109.176 126.096 93.5084 118.997 79.966 123.904C76.3452 125.217 72.9868 127.357 69.4576 128.978C57.8817 134.292 45.0016 133.823 32.6383 132.301C22.1743 131.011 11.6672 129.019 1.18843 129.348C0.390381 135.868 -0.00877026 142.431 -0.00682889 149C-0.00682889 151.093 0.0344387 153.174 0.116995 155.243L17.6557 155.704C28.6931 155.996 39.7642 156.286 50.768 155.24C56.9368 154.653 63.1514 153.625 68.8747 150.857C72.3246 149.189 75.5564 146.907 79.1045 145.55C85.3434 143.166 92.0775 143.8 98.6313 143.418C108.752 142.821 118.632 139.746 128.423 136.688C143.509 131.977 180.677 124.917 181.631 107.051C181.754 104.998 181.369 102.828 180.337 101.166Z" fill="white"/>
</g>
<path d="M205.412 95.4878C205.412 95.4878 205.076 99.3738 202.459 99.643C205.076 99.9122 205.412 103.797 205.412 103.797C205.412 103.797 205.749 99.9122 208.365 99.643C205.753 99.3738 205.412 95.4878 205.412 95.4878Z" fill="white"/>
<path d="M84.5283 34.873C84.5283 34.873 84.2995 37.5059 82.5254 37.6889C84.2995 37.8707 84.5283 40.5048 84.5283 40.5048C84.5283 40.5048 84.7558 37.8707 86.5298 37.6889C84.7558 37.5059 84.5283 34.873 84.5283 34.873Z" fill="white"/>
<path d="M217.629 152.668C217.629 152.668 217.392 155.393 215.558 155.581C217.392 155.77 217.629 158.493 217.629 158.493C217.629 158.493 217.864 155.77 219.697 155.581C217.866 155.393 217.629 152.668 217.629 152.668Z" fill="white"/>
<path d="M193.908 127.694C195.304 127.694 195.306 125.151 193.908 125.151C192.509 125.151 192.511 127.694 193.908 127.694Z" fill="white"/>
<path d="M168.108 142.877C168.807 142.877 168.807 141.606 168.108 141.606C167.409 141.606 167.409 142.877 168.108 142.877Z" fill="white"/>
<path d="M207.882 115.758C208.58 115.758 208.582 114.486 207.882 114.486C207.182 114.486 207.183 115.758 207.882 115.758Z" fill="white"/>
<path d="M186.669 87.5088C187.366 87.5088 187.367 86.2368 186.669 86.2368C185.97 86.2368 185.969 87.5088 186.669 87.5088Z" fill="white"/>
<path d="M72.8917 53.6113C73.5889 53.6113 73.5902 52.3394 72.8917 52.3394C72.1931 52.3394 72.1917 53.6113 72.8917 53.6113Z" fill="white"/>
<path d="M93.3809 69.7834C94.7768 69.7834 94.7795 67.2407 93.3809 67.2407C91.9824 67.2407 91.9824 69.7834 93.3809 69.7834Z" fill="white"/>
<path d="M94.3447 50.2204C95.0433 50.2204 95.0446 48.9497 94.3447 48.9497C93.6448 48.9497 93.6461 50.2204 94.3447 50.2204Z" fill="white"/>
<path d="M73.6153 37.5084C74.3125 37.5084 74.3139 36.2378 73.6153 36.2378C72.9167 36.2378 72.9153 37.5084 73.6153 37.5084Z" fill="white"/>
<path d="M65.659 37.1905C66.0076 37.1905 66.0089 36.5552 65.659 36.5552C65.309 36.5552 65.309 37.1905 65.659 37.1905Z" fill="white"/>
<path d="M32.1511 91.4288C32.4998 91.4288 32.5011 90.7935 32.1511 90.7935C31.8012 90.7935 31.8012 91.4288 32.1511 91.4288Z" fill="white"/>
<path d="M51.9192 89.239C52.9664 89.239 52.9678 87.333 51.9192 87.333C50.8707 87.333 50.8707 89.239 51.9192 89.239Z" fill="white"/>
<path d="M12.6269 123.668C13.3242 123.668 13.3255 122.397 12.6269 122.397C11.9284 122.397 11.927 123.668 12.6269 123.668Z" fill="white"/>
<path d="M182.812 51.8623C184.383 51.8623 184.386 49.002 182.812 49.002C181.239 49.002 181.24 51.8623 182.812 51.8623Z" fill="white"/>
<path d="M155.573 31.0461C156.619 31.0461 156.622 29.1401 155.573 29.1401C154.525 29.1401 154.523 31.0461 155.573 31.0461Z" fill="white"/>
<path d="M131.227 38.3565C131.924 38.3565 131.925 37.0845 131.227 37.0845C130.528 37.0845 130.527 38.3565 131.227 38.3565Z" fill="white"/>
<path d="M173.411 42.9984C173.935 42.9984 173.936 42.0454 173.411 42.0454C172.886 42.0454 172.886 42.9984 173.411 42.9984Z" fill="white"/>
<path d="M194.624 57.9724C195.147 57.9724 195.147 57.0181 194.624 57.0181C194.1 57.0181 194.099 57.9724 194.624 57.9724Z" fill="white"/>
<path d="M174.375 86.5023C174.898 86.5023 174.9 85.5493 174.375 85.5493C173.85 85.5493 173.851 86.5023 174.375 86.5023Z" fill="white"/>
<path d="M88.319 88.1971C88.8426 88.1971 88.8439 87.2441 88.319 87.2441C87.794 87.2441 87.7954 88.1971 88.319 88.1971Z" fill="white"/>
<path d="M225.358 222.189H7.5023C7.28866 222.189 7.0771 222.147 6.87967 222.065C6.68224 221.984 6.5028 221.864 6.35167 221.713C6.20054 221.562 6.08067 221.382 5.99887 221.185C5.91707 220.988 5.87498 220.776 5.87498 220.563C5.87498 220.349 5.91707 220.137 5.99887 219.94C6.08067 219.743 6.20054 219.563 6.35167 219.412C6.5028 219.261 6.68224 219.142 6.87967 219.06C7.0771 218.978 7.28866 218.936 7.5023 218.937H225.358C225.789 218.937 226.203 219.108 226.508 219.413C226.813 219.718 226.984 220.131 226.984 220.563C226.984 220.994 226.813 221.407 226.508 221.712C226.203 222.017 225.789 222.189 225.358 222.189Z" fill="#7A9AFB"/>
<path d="M60.3174 71.9399H5.36047C4.90908 71.9398 4.46209 72.0285 4.04501 72.2011C3.62793 72.3737 3.24895 72.6268 2.9297 72.946C2.61046 73.2651 2.35721 73.644 2.18443 74.061C2.01165 74.478 1.92271 74.925 1.92271 75.3764V98.0555C1.92254 98.507 2.01133 98.9542 2.18403 99.3713C2.35673 99.7885 2.60995 100.168 2.92921 100.487C3.24847 100.806 3.62751 101.059 4.04468 101.232C4.46185 101.405 4.90897 101.493 5.36047 101.493H48.6271C50.377 103.936 53.5536 108.312 53.8336 108.312C54.1136 108.312 53.5913 104.18 53.2346 101.493H60.3174C60.7688 101.493 61.2157 101.404 61.6328 101.232C62.0498 101.059 62.4286 100.806 62.7478 100.486C63.0669 100.167 63.32 99.7881 63.4926 99.371C63.6652 98.954 63.754 98.5069 63.7538 98.0555V75.3764C63.7538 74.465 63.3918 73.5909 62.7473 72.9464C62.1029 72.302 61.2288 71.9399 60.3174 71.9399Z" fill="#001989"/>
<path d="M22.3346 86.7166C22.3346 88.4204 21.8294 90.086 20.8828 91.5026C19.9362 92.9193 18.5908 94.0234 17.0167 94.6754C15.4426 95.3275 13.7105 95.4981 12.0394 95.1657C10.3684 94.8333 8.83339 94.0128 7.62862 92.808C6.42385 91.6033 5.6034 90.0683 5.271 88.3972C4.93861 86.7262 5.10919 84.9941 5.76121 83.42C6.41322 81.8458 7.51737 80.5004 8.93403 79.5539C10.3507 78.6073 12.0162 78.1021 13.72 78.1021C16.0048 78.1021 18.1959 79.0096 19.8114 80.6252C21.427 82.2407 22.3346 84.4319 22.3346 86.7166Z" fill="white"/>
<path d="M34.8472 79.293H24.7277C24.3345 79.293 24.0157 79.6118 24.0157 80.005V80.0777C24.0157 80.4709 24.3345 80.7897 24.7277 80.7897H34.8472C35.2404 80.7897 35.5592 80.4709 35.5592 80.0777V80.005C35.5592 79.6118 35.2404 79.293 34.8472 79.293Z" fill="white"/>
<path d="M31.1012 83.2441H24.7277C24.3345 83.2441 24.0157 83.5629 24.0157 83.9562V84.0289C24.0157 84.4221 24.3345 84.7409 24.7277 84.7409H31.1012C31.4944 84.7409 31.8132 84.4221 31.8132 84.0289V83.9562C31.8132 83.5629 31.4944 83.2441 31.1012 83.2441Z" fill="white"/>
<path d="M42.0421 83.2441H33.8704C33.4772 83.2441 33.1584 83.5629 33.1584 83.9562V84.0289C33.1584 84.4221 33.4772 84.7409 33.8704 84.7409H42.0421C42.4354 84.7409 42.7542 84.4221 42.7542 84.0289V83.9562C42.7542 83.5629 42.4354 83.2441 42.0421 83.2441Z" fill="white"/>
<path d="M56.3219 83.2441H44.8107C44.4174 83.2441 44.0986 83.5629 44.0986 83.9562V84.0289C44.0986 84.4221 44.4174 84.7409 44.8107 84.7409H56.3219C56.7152 84.7409 57.0339 84.4221 57.0339 84.0289V83.9562C57.0339 83.5629 56.7152 83.2441 56.3219 83.2441Z" fill="white"/>
<path d="M56.3191 79.293H38.1828C37.7895 79.293 37.4707 79.6118 37.4707 80.005V80.0777C37.4707 80.4709 37.7895 80.7897 38.1828 80.7897H56.3191C56.7124 80.7897 57.0312 80.4709 57.0312 80.0777V80.005C57.0312 79.6118 56.7124 79.293 56.3191 79.293Z" fill="white"/>
<path d="M56.3203 90.9888H24.7277C24.3345 90.9888 24.0157 91.3076 24.0157 91.7008V91.7735C24.0157 92.1668 24.3345 92.4856 24.7277 92.4856H56.3203C56.7136 92.4856 57.0324 92.1668 57.0324 91.7735V91.7008C57.0324 91.3076 56.7136 90.9888 56.3203 90.9888Z" fill="white"/>
<path d="M40.3605 87.1958H24.7277C24.3345 87.1958 24.0157 87.5146 24.0157 87.9079V87.9805C24.0157 88.3738 24.3345 88.6926 24.7277 88.6926H40.3605C40.7537 88.6926 41.0725 88.3738 41.0725 87.9805V87.9079C41.0725 87.5146 40.7537 87.1958 40.3605 87.1958Z" fill="white"/>
<path d="M56.322 87.1958H44.2804C43.8872 87.1958 43.5684 87.5146 43.5684 87.9079V87.9805C43.5684 88.3738 43.8872 88.6926 44.2804 88.6926H56.322C56.7152 88.6926 57.034 88.3738 57.034 87.9805V87.9079C57.034 87.5146 56.7152 87.1958 56.322 87.1958Z" fill="white"/>
<path d="M11.3574 88.8198L11.4342 93.4111C11.6589 94.142 15.1357 95.1071 15.1774 94.321L15.2151 89.1927L11.3574 88.8198Z" fill="#F98548"/>
<g style="mix-blend-mode:multiply" opacity="0.5">
<path d="M14.8207 91.9749C14.9497 91.9566 15.0756 91.9208 15.1949 91.8686L15.2151 89.1927L11.3574 88.8198L11.387 90.5697C12.3198 91.6303 13.8274 92.0974 14.8207 91.9749Z" fill="#FF916C"/>
</g>
<path d="M14.1089 81.961C14.1089 81.961 15.6932 82.3338 16.1805 82.852C16.6677 83.3703 16.8306 85.8887 16.6879 87.2805C16.4631 89.4543 15.8143 91.1005 14.4414 91.2728C13.0684 91.4451 10.6294 90.379 10.5231 88.0612C10.4168 85.7433 9.17705 83.4658 11.5097 82.6569C13.8424 81.8479 14.1089 81.961 14.1089 81.961Z" fill="#F99F70"/>
<path d="M18.0629 80.8755C17.4437 79.1257 14.8782 78.9588 14.2321 79.6802C13.586 80.4017 12.8187 79.6224 11.7473 79.8054C11.3731 79.8687 10.8791 80.1904 10.4295 80.6413C10.2826 80.7926 10.0902 80.8919 9.88173 80.924C9.21948 81.0141 8.61781 81.6643 8.56666 82.6105C8.54151 83.0035 8.6308 83.3953 8.82374 83.7385C8.91742 83.9032 8.95978 84.0922 8.94539 84.2812C8.931 84.4701 8.86054 84.6505 8.743 84.7992C8.32842 85.3295 9.13333 86.5167 9.53444 86.9434C9.93556 87.3701 9.39984 87.9327 9.53444 88.7134C9.66905 89.4941 11.2506 89.9141 11.2506 89.9141C11.2506 89.8549 9.88577 87.0995 11.0595 84.9728C11.1188 84.8731 11.2072 84.7938 11.3128 84.7457C11.4184 84.6976 11.5362 84.6829 11.6504 84.7036C12.5711 84.8382 13.6116 84.6121 13.8929 84.1369C13.9689 84.0191 14.0812 83.9292 14.2127 83.8806C14.3443 83.8321 14.4881 83.8275 14.6224 83.8677C15.4718 84.0992 15.9052 84.1733 16.4826 84.0589C19.0926 83.5528 18.4613 81.9994 18.0629 80.8755Z" fill="#000444"/>
<path d="M10.8298 87.1802C10.8298 87.1802 10.64 86.3793 10.1662 86.5543C9.69236 86.7293 10.1662 88.6312 10.8392 88.6689C11.5122 88.7066 10.8298 87.1802 10.8298 87.1802Z" fill="#F99F70"/>
<path d="M162.41 88.8501H218.313C219.241 88.8501 220.131 89.2188 220.788 89.8751C221.444 90.5314 221.813 91.4216 221.813 92.3498V115.419C221.813 116.347 221.444 117.238 220.788 117.894C220.131 118.55 219.241 118.919 218.313 118.919H174.298C172.517 121.404 169.287 125.855 169.003 125.855C168.719 125.855 169.249 121.651 169.611 118.919H162.41C161.482 118.919 160.591 118.55 159.935 117.894C159.279 117.238 158.91 116.347 158.91 115.419V92.3471C158.911 91.4194 159.28 90.5299 159.936 89.8742C160.592 89.2184 161.482 88.8501 162.41 88.8501Z" fill="#FF5136"/>
<path d="M201.05 103.715C201.017 105.463 201.507 107.18 202.457 108.647C203.408 110.114 204.775 111.264 206.383 111.948C207.991 112.632 209.767 112.82 211.483 112.487C213.199 112.154 214.776 111.316 216.012 110.08C217.248 108.844 218.086 107.267 218.419 105.551C218.752 103.835 218.564 102.059 217.88 100.451C217.196 98.8425 216.046 97.4754 214.579 96.5252C213.113 95.575 211.395 95.0851 209.647 95.1183C207.381 95.1611 205.219 96.0806 203.616 97.6836C202.013 99.2867 201.093 101.449 201.05 103.715Z" fill="white"/>
<path d="M188.321 97.855H198.616C199.016 97.855 199.34 97.5308 199.34 97.1308V97.0554C199.34 96.6555 199.016 96.3313 198.616 96.3313H188.321C187.921 96.3313 187.597 96.6555 187.597 97.0554V97.1308C187.597 97.5308 187.921 97.855 188.321 97.855Z" fill="white"/>
<path d="M192.132 101.874H198.616C199.016 101.874 199.34 101.55 199.34 101.15V101.074C199.34 100.675 199.016 100.35 198.616 100.35H192.132C191.732 100.35 191.408 100.675 191.408 101.074V101.15C191.408 101.55 191.732 101.874 192.132 101.874Z" fill="white"/>
<path d="M181.004 101.874H189.316C189.716 101.874 190.04 101.55 190.04 101.15V101.074C190.04 100.675 189.716 100.35 189.316 100.35H181.004C180.604 100.35 180.28 100.675 180.28 101.074V101.15C180.28 101.55 180.604 101.874 181.004 101.874Z" fill="white"/>
<path d="M166.481 101.874H178.19C178.59 101.874 178.914 101.55 178.914 101.15V101.074C178.914 100.675 178.59 100.35 178.19 100.35H166.481C166.081 100.35 165.757 100.675 165.757 101.074V101.15C165.757 101.55 166.081 101.874 166.481 101.874Z" fill="white"/>
<path d="M166.479 97.855H184.927C185.327 97.855 185.651 97.5308 185.651 97.1308V97.0554C185.651 96.6555 185.327 96.3313 184.927 96.3313H166.479C166.079 96.3313 165.754 96.6555 165.754 97.0554V97.1308C165.754 97.5308 166.079 97.855 166.479 97.855Z" fill="white"/>
<path d="M166.479 109.751H198.616C199.016 109.751 199.34 109.427 199.34 109.027V108.951C199.34 108.552 199.016 108.227 198.616 108.227H166.479C166.079 108.227 165.755 108.552 165.755 108.951V109.027C165.755 109.427 166.079 109.751 166.479 109.751Z" fill="white"/>
<path d="M182.714 105.892H198.616C199.016 105.892 199.34 105.567 199.34 105.167V105.092C199.34 104.692 199.016 104.368 198.616 104.368H182.714C182.314 104.368 181.99 104.692 181.99 105.092V105.167C181.99 105.567 182.314 105.892 182.714 105.892Z" fill="white"/>
<path d="M166.478 105.892H178.727C179.127 105.892 179.451 105.567 179.451 105.167V105.092C179.451 104.692 179.127 104.368 178.727 104.368H166.478C166.078 104.368 165.754 104.692 165.754 105.092V105.167C165.754 105.567 166.078 105.892 166.478 105.892Z" fill="white"/>
<mask id="mask0_1_1572" style="mask-type:luminance" maskUnits="userSpaceOnUse" x="201" y="95" width="18" height="18">
<path d="M201.052 103.716C201.019 105.463 201.509 107.181 202.459 108.648C203.41 110.115 204.777 111.264 206.385 111.948C207.993 112.633 209.769 112.82 211.485 112.487C213.201 112.155 214.778 111.316 216.014 110.081C217.25 108.845 218.088 107.268 218.421 105.552C218.754 103.836 218.566 102.06 217.882 100.451C217.198 98.843 216.048 97.4759 214.581 96.5257C213.114 95.5755 211.397 95.0855 209.649 95.1188C207.383 95.1615 205.221 96.081 203.618 97.6841C202.015 99.2872 201.095 101.449 201.052 103.716Z" fill="white"/>
</mask>
<g mask="url(#mask0_1_1572)">
<path d="M208.6 97.6504C208.6 97.6504 204.676 96.6422 204.208 100.819C203.739 104.996 205.865 105.642 204.712 107.658C203.56 109.674 202.264 108.161 202.012 113.885C201.761 119.608 216.051 122.848 218.319 118.565C220.587 114.282 222.784 116.203 224.654 115.398C228.019 113.948 227.382 106.593 222.882 106.989C218.383 107.385 216.246 107.616 216.786 104.232C217.326 100.849 215.783 97.9775 213.732 96.7526C211.681 95.5277 209.068 95.5263 208.6 97.6504Z" fill="#20110C"/>
<path d="M210.359 104.787C210.359 104.787 210.18 107.626 210.359 108.273C210.41 108.459 211.192 109.203 211.321 109.318C211.994 109.915 209.158 115.397 208.504 115.169C207.799 114.921 206.526 110.799 206.119 109.462C206.059 109.272 206.077 109.066 206.169 108.889C206.261 108.713 206.419 108.58 206.609 108.519C207.271 108.327 207.505 103.112 207.505 103.112L210.359 104.787Z" fill="#F26E5A"/>
<g style="mix-blend-mode:multiply" opacity="0.65">
<path d="M207.95 102.963C207.95 102.963 207.95 103.097 207.931 103.31C207.905 103.747 207.964 104.186 208.103 104.601C208.759 106.515 209.88 107.621 210.755 107.864C210.655 106.922 210.799 104.633 210.799 104.633L207.95 102.963Z" fill="#F26E5A"/>
</g>
<path d="M207.563 100.918C207.563 100.918 208.071 98.8816 209.621 98.3082C211.17 97.7348 212.565 98.2234 213.053 100.24C213.542 102.256 212.699 105.418 211.743 106.372C210.788 107.327 207.573 105.618 207.563 100.918Z" fill="#FC7E72"/>
<path d="M208.009 101.576C208.009 101.576 207.266 100.365 206.778 101.046C206.291 101.727 206.672 103.38 207.563 103.486C208.454 103.592 208.009 101.576 208.009 101.576Z" fill="#FC7E72"/>
</g>
<path d="M16.8812 0H84.2471C85.2967 0 86.3032 0.416934 87.0453 1.15907C87.7875 1.90122 88.2044 2.90778 88.2044 3.95732V32.0247C88.2044 33.0742 87.7875 34.0808 87.0453 34.8229C86.3032 35.565 85.2967 35.982 84.2471 35.982H77.2478C77.6516 39.0778 78.19 43.5036 77.8939 43.5036C77.5977 43.5036 74.1883 38.8409 72.1356 35.982H16.8812C15.8316 35.982 14.8251 35.565 14.0829 34.8229C13.3408 34.0808 12.9238 33.0742 12.9238 32.0247V3.95732C12.9238 2.90778 13.3408 1.90122 14.0829 1.15907C14.8251 0.416934 15.8316 0 16.8812 0Z" fill="#FBB03B"/>
<path d="M26.6858 27.9458C32.1515 27.5569 36.267 22.8108 35.8781 17.3451C35.4892 11.8794 30.7431 7.76384 25.2774 8.15275C19.8117 8.54166 15.6961 13.2878 16.085 18.7535C16.474 24.2192 21.2201 28.3347 26.6858 27.9458Z" fill="white"/>
<path d="M77.9733 8.08838H40.1244C39.6717 8.08838 39.3047 8.45538 39.3047 8.90811V8.99291C39.3047 9.44563 39.6717 9.81264 40.1244 9.81264H77.9733C78.4261 9.81264 78.7931 9.44563 78.7931 8.99291V8.90811C78.7931 8.45538 78.4261 8.08838 77.9733 8.08838Z" fill="white"/>
<path d="M47.8102 12.6377H40.1244C39.6717 12.6377 39.3047 13.0047 39.3047 13.4574V13.5422C39.3047 13.9949 39.6717 14.362 40.1244 14.362H47.8102C48.263 14.362 48.63 13.9949 48.63 13.5422V13.4574C48.63 13.0047 48.263 12.6377 47.8102 12.6377Z" fill="white"/>
<path d="M77.9729 12.6377H52.9691C52.5164 12.6377 52.1494 13.0047 52.1494 13.4574V13.5422C52.1494 13.9949 52.5164 14.362 52.9691 14.362H77.9729C78.4257 14.362 78.7927 13.9949 78.7927 13.5422V13.4574C78.7927 13.0047 78.4257 12.6377 77.9729 12.6377Z" fill="white"/>
<path d="M58.8853 17.1875H40.1244C39.6717 17.1875 39.3047 17.5545 39.3047 18.0072V18.092C39.3047 18.5448 39.6717 18.9118 40.1244 18.9118H58.8853C59.3381 18.9118 59.7051 18.5448 59.7051 18.092V18.0072C59.7051 17.5545 59.3381 17.1875 58.8853 17.1875Z" fill="white"/>
<path d="M77.9731 17.1875H63.5073C63.0546 17.1875 62.6876 17.5545 62.6876 18.0072V18.092C62.6876 18.5448 63.0546 18.9118 63.5073 18.9118H77.9731C78.4258 18.9118 78.7928 18.5448 78.7928 18.092V18.0072C78.7928 17.5545 78.4258 17.1875 77.9731 17.1875Z" fill="white"/>
<path d="M77.9733 21.7368H40.1244C39.6717 21.7368 39.3047 22.1038 39.3047 22.5565V22.6413C39.3047 23.0941 39.6717 23.4611 40.1244 23.4611H77.9733C78.4261 23.4611 78.7931 23.0941 78.7931 22.6413V22.5565C78.7931 22.1038 78.4261 21.7368 77.9733 21.7368Z" fill="white"/>
<path d="M25.2256 9.5758C25.2256 9.5758 23.1783 9.75078 21.6614 12.4186C20.1444 15.0864 17.9221 19.356 18.3393 20.7088C19.1348 23.2851 21.555 21.8987 21.555 21.8987C21.9736 22.378 22.5196 22.7287 23.1295 22.9103C23.7394 23.0918 24.3883 23.0967 25.0008 22.9243C27.1854 22.3455 28.2152 21.2916 28.2152 21.2916C28.2152 21.2916 30.599 22.0454 31.0539 19.6347C31.5089 17.2239 30.2651 12.07 28.7361 10.6593C27.207 9.24871 25.2256 9.5758 25.2256 9.5758Z" fill="#313642"/>
<g style="mix-blend-mode:multiply" opacity="0.44">
<path d="M29.1986 15.3886C28.7544 13.1004 27.5187 8.62348 22.3661 13.2242C22.3661 13.2242 20.3215 16.2231 20.4278 18.8331C20.5342 21.443 22.7591 21.1927 24.0231 22.0137C24.4024 22.2624 24.8338 22.4207 25.284 22.4762C25.7342 22.5318 26.1911 22.4831 26.6196 22.3341C26.8161 22.2412 26.9951 22.1457 27.158 22.0541C27.229 22.0018 27.2952 21.9432 27.3558 21.8791C27.9265 21.2627 29.6414 17.6715 29.1986 15.3886Z" fill="#313642"/>
</g>
<path d="M27.4801 18.8286C27.4801 18.8286 27.7775 22.0322 28.5205 22.6083C28.6971 22.7358 28.8829 22.8501 29.0764 22.9501C29.0764 22.9501 28.8409 26.5534 27.017 26.9599C25.1931 27.3664 23.5106 23.2234 23.5106 23.2234C23.6489 23.2129 23.7835 23.1736 23.9057 23.1079C24.0279 23.0422 24.135 22.9517 24.2201 22.8422C24.3052 22.7326 24.3663 22.6064 24.3997 22.4718C24.4331 22.3372 24.4379 22.197 24.4138 22.0604L23.8606 18.9148L27.4801 18.8286Z" fill="#FF855C"/>
<g style="mix-blend-mode:multiply" opacity="0.5">
<path d="M27.4807 18.8286C27.4807 18.8286 27.6018 19.5312 27.7957 20.3187C26.8265 22.0308 25.0188 22.0591 24.265 21.2097L23.8612 18.9215L27.4807 18.8286Z" fill="#FF916C"/>
</g>
<path d="M23.2169 12.9689C23.2169 12.9689 22.7714 14.0902 22.8643 16.3865C22.9572 18.6828 23.5615 19.9777 24.6639 20.6938C25.7663 21.4099 26.9885 21.0249 27.5727 20.5767C28.628 19.769 29.5702 16.8764 29.1812 14.8682C28.7922 12.8599 27.714 8.92276 23.2169 12.9689Z" fill="#F99662"/>
<path d="M24.7471 10.5921C24.6394 10.5921 23.253 11.2046 22.6379 12.6704C22.0228 14.1362 22.7725 16.0691 22.7725 16.0691C22.7725 16.0691 23.2315 14.7621 23.6609 14.6369C24.0902 14.5118 25.7634 14.9815 26.3946 14.2964C27.0259 13.6113 27.7824 12.2168 27.7824 12.2168C27.7824 12.2168 27.6922 13.9599 27.2157 14.4781C26.7392 14.9963 28.7475 15.1982 29.2038 14.5656C29.6601 13.933 29.9939 16.45 29.9939 16.45C29.9939 16.45 30.107 13.194 28.4931 11.5882C26.8792 9.98237 24.7471 10.5921 24.7471 10.5921Z" fill="#313642"/>
<path d="M218.056 6.88086H150.69C149.64 6.88086 148.634 7.29779 147.891 8.03993C147.149 8.78208 146.732 9.78864 146.732 10.8382V38.9055C146.732 39.9551 147.149 40.9616 147.891 41.7038C148.634 42.4459 149.64 42.8628 150.69 42.8628H157.689C157.285 45.9587 156.747 50.3844 157.043 50.3844C157.339 50.3844 160.749 45.7218 162.801 42.8628H218.056C219.105 42.8628 220.112 42.4459 220.854 41.7038C221.596 40.9616 222.013 39.9551 222.013 38.9055V10.8382C222.013 9.78864 221.596 8.78208 220.854 8.03993C220.112 7.29779 219.105 6.88086 218.056 6.88086Z" fill="#0099A0"/>
<path d="M161.11 34.8252C166.54 34.0853 170.341 29.0842 169.601 23.6548C168.862 18.2255 163.86 14.4239 158.431 15.1638C153.002 15.9036 149.2 20.9048 149.94 26.3341C150.68 31.7635 155.681 35.5651 161.11 34.8252Z" fill="white"/>
<path d="M211.779 14.9692H173.93C173.477 14.9692 173.11 15.3362 173.11 15.789V15.8738C173.11 16.3265 173.477 16.6935 173.93 16.6935H211.779C212.232 16.6935 212.599 16.3265 212.599 15.8738V15.789C212.599 15.3362 212.232 14.9692 211.779 14.9692Z" fill="white"/>
<path d="M181.616 19.5186H173.93C173.477 19.5186 173.11 19.8856 173.11 20.3383V20.4231C173.11 20.8758 173.477 21.2428 173.93 21.2428H181.616C182.069 21.2428 182.436 20.8758 182.436 20.4231V20.3383C182.436 19.8856 182.069 19.5186 181.616 19.5186Z" fill="white"/>
<path d="M211.78 19.5186H186.776C186.323 19.5186 185.956 19.8856 185.956 20.3383V20.4231C185.956 20.8758 186.323 21.2428 186.776 21.2428H211.78C212.232 21.2428 212.599 20.8758 212.599 20.4231V20.3383C212.599 19.8856 212.232 19.5186 211.78 19.5186Z" fill="white"/>
<path d="M192.691 24.0684H173.93C173.477 24.0684 173.11 24.4354 173.11 24.8881V24.9729C173.11 25.4256 173.477 25.7926 173.93 25.7926H192.691C193.144 25.7926 193.511 25.4256 193.511 24.9729V24.8881C193.511 24.4354 193.144 24.0684 192.691 24.0684Z" fill="white"/>
<path d="M211.779 24.0684H197.313C196.86 24.0684 196.493 24.4354 196.493 24.8881V24.9729C196.493 25.4256 196.86 25.7926 197.313 25.7926H211.779C212.232 25.7926 212.599 25.4256 212.599 24.9729V24.8881C212.599 24.4354 212.232 24.0684 211.779 24.0684Z" fill="white"/>
<path d="M211.779 28.6167H173.93C173.477 28.6167 173.11 28.9837 173.11 29.4364V29.5212C173.11 29.974 173.477 30.341 173.93 30.341H211.779C212.232 30.341 212.599 29.974 212.599 29.5212V29.4364C212.599 28.9837 212.232 28.6167 211.779 28.6167Z" fill="white"/>
<path d="M136.97 166.737C136.97 166.737 138.601 217.063 140.581 220.756H124.158C124.158 220.756 133.014 216.832 132.369 213.947C132.369 213.947 122.757 171.008 124.158 165.355C125.559 159.702 136.97 166.737 136.97 166.737Z" fill="#DC7A63"/>
<path d="M112.742 167.891L112.851 168.43C113.87 173.438 121.713 212.128 121.713 215.798V219.721L105.402 219.953C105.402 219.953 115.655 215.915 115.655 214.067C115.655 212.218 99.2266 173.205 100.159 167.203C101.092 161.201 112.742 167.891 112.742 167.891Z" fill="#DC7A63"/>
<g style="mix-blend-mode:multiply" opacity="0.65">
<path d="M112.742 167.891C112.742 167.891 101.091 161.198 100.159 167.199C99.9549 168.515 100.583 171.413 101.691 175.158C105.406 175.562 109.715 175.327 114.164 174.926C113.532 171.777 113.054 169.427 112.851 168.426L112.742 167.891Z" fill="#F26E5A"/>
</g>
<g style="mix-blend-mode:multiply" opacity="0.65">
<path d="M136.969 166.738C136.969 166.738 125.55 159.697 124.152 165.353C123.838 166.625 124.082 169.787 124.647 173.923C126.89 173.741 129.076 173.619 131.143 173.619C133.168 173.632 135.191 173.512 137.2 173.262C137.056 169.275 136.969 166.738 136.969 166.738Z" fill="#F26E5A"/>
</g>
<path d="M110.541 99.6975C106.829 115.198 87.8838 165.979 95.7351 169.624C103.946 173.433 119.436 169.624 131.145 169.624C142.854 169.624 145.25 166.466 145.774 165.946C146.297 165.427 144.002 121.025 132.64 98.9585L110.541 99.6975Z" fill="#0099A0"/>
<path d="M111.731 216.713C111.731 216.713 103.902 218.993 103.902 219.943C103.902 220.894 120.437 220.751 122.261 219.712C123.179 219.191 122.184 215.616 121.884 215.339C120.716 214.262 117.98 217.395 115.834 217.395C113.687 217.395 112.782 216.395 111.731 216.713Z" fill="#09434C"/>
<path d="M129.827 217.276C129.827 217.276 122.775 219.995 122.775 220.95C122.775 221.906 138.793 221.78 140.857 220.985C141.636 220.687 140.578 217.684 140.578 217.684C140.266 216.876 140.029 216.793 139.536 217.011C138.275 217.567 136.141 218.402 134.708 218.402C132.561 218.405 130.88 216.958 129.827 217.276Z" fill="#09434C"/>
<path d="M116.903 25.7129C116.903 25.7129 123.855 25.2055 126.636 30.0619C129.417 34.9184 133.807 35.4272 136.369 37.9658C138.93 40.5044 135.198 44.8534 138.119 47.7528C141.039 50.6521 142.174 49.7059 145.218 55.6566C149.894 64.8015 141.072 77.4327 128.385 64.8635C121.44 57.9839 103.888 55.3565 106.137 37.7962C107.105 30.2733 106.148 26.6551 116.903 25.7129Z" fill="#020F45"/>
<path d="M118.517 57.6893C119.038 56.7848 131.228 64.0277 131.228 64.0277C134.779 60.3935 133.307 42.9705 125.091 39.8719C119.034 37.5837 125.001 30.2613 123.398 29.1603C119.293 26.3457 115.514 55.9395 118.517 57.6893Z" fill="#02092A"/>
<path d="M107.309 80.6878C107.309 80.6878 107.838 94.9328 105.571 96.3017C103.304 97.6706 92.0569 84.6411 89.6354 78.5638C87.2139 72.4864 88.5223 70.1296 88.9907 69.6558C88.9907 69.6558 99.9339 85.0005 100.297 84.6276C100.661 84.2548 101.152 79.1426 101.152 79.1426L107.309 80.6878Z" fill="#BC5A4A"/>
<path d="M107.571 60.7773C107.571 60.7773 105.759 61.1125 103.481 64.8652C100.789 69.2977 99.6143 81.6152 99.6143 81.6152C99.6143 81.6152 103.399 84.4567 107.571 82.089C111.742 79.7213 107.571 60.7773 107.571 60.7773Z" fill="#E08128"/>
<path d="M121.7 56.46C121.7 56.46 133.181 55.6147 136.697 63.0811C140.213 70.5475 139.509 93.1567 136.697 97.7736C133.885 102.39 115.725 106.415 105.878 99.6674C105.878 99.6674 102.244 65.1015 107.87 60.4846C113.497 55.8677 121.7 56.46 121.7 56.46Z" fill="#FBB03B"/>
<path d="M113.602 102.72C111.314 95.299 113.808 71.8041 113.92 70.765C113.923 70.7355 113.931 70.7069 113.945 70.6807C113.959 70.6546 113.978 70.6315 114.001 70.6129C114.024 70.5942 114.05 70.5803 114.079 70.5719C114.107 70.5636 114.137 70.5611 114.166 70.5644C114.196 70.5678 114.224 70.5769 114.25 70.5912C114.276 70.6055 114.299 70.6248 114.317 70.6479C114.335 70.671 114.349 70.6976 114.357 70.726C114.365 70.7544 114.368 70.7841 114.364 70.8134C114.337 71.0705 111.717 95.7782 114.102 102.81C113.935 102.782 113.768 102.751 113.602 102.72Z" fill="white"/>
<path d="M114.957 73.2601C114.958 73.3427 114.983 73.4233 115.03 73.4917C115.076 73.56 115.142 73.613 115.219 73.644C115.295 73.6751 115.379 73.6827 115.46 73.666C115.541 73.6493 115.615 73.609 115.674 73.5501C115.732 73.4913 115.771 73.4166 115.787 73.3354C115.802 73.2542 115.794 73.1702 115.762 73.094C115.73 73.0177 115.676 72.9527 115.607 72.907C115.538 72.8614 115.457 72.8371 115.374 72.8374C115.319 72.8378 115.265 72.849 115.214 72.8704C115.163 72.8918 115.117 72.923 115.078 72.9623C115.039 73.0015 115.009 73.048 114.988 73.0991C114.967 73.1502 114.957 73.2049 114.957 73.2601Z" fill="white"/>
<path d="M114.256 79.4197C114.257 79.5024 114.282 79.583 114.328 79.6513C114.375 79.7197 114.441 79.7727 114.517 79.8037C114.594 79.8347 114.678 79.8424 114.759 79.8257C114.84 79.8089 114.914 79.7686 114.972 79.7098C115.03 79.6509 115.07 79.5762 115.085 79.495C115.101 79.4139 115.092 79.3299 115.06 79.2536C115.028 79.1774 114.975 79.1124 114.906 79.0667C114.837 79.021 114.756 78.9968 114.673 78.9971C114.618 78.9974 114.563 79.0086 114.513 79.0301C114.462 79.0515 114.416 79.0827 114.377 79.122C114.338 79.1612 114.308 79.2077 114.287 79.2588C114.266 79.3099 114.255 79.3646 114.256 79.4197Z" fill="white"/>
<path d="M113.837 85.3772C113.838 85.4598 113.863 85.5404 113.909 85.6087C113.956 85.677 114.022 85.73 114.098 85.7611C114.175 85.7922 114.259 85.7999 114.34 85.7833C114.421 85.7667 114.495 85.7265 114.553 85.6678C114.611 85.6091 114.651 85.5345 114.666 85.4534C114.682 85.3723 114.674 85.2883 114.642 85.2121C114.61 85.1358 114.556 85.0707 114.488 85.0249C114.419 84.979 114.338 84.9546 114.256 84.9546C114.144 84.9553 114.037 85.0002 113.959 85.0794C113.88 85.1586 113.837 85.2657 113.837 85.3772Z" fill="#D9E5FF"/>
<path d="M113.722 93.8787C113.722 93.9613 113.748 94.0419 113.794 94.1102C113.841 94.1785 113.906 94.2315 113.983 94.2626C114.059 94.2936 114.143 94.3014 114.224 94.2848C114.305 94.2681 114.38 94.228 114.438 94.1693C114.496 94.1106 114.535 94.036 114.551 93.9549C114.567 93.8738 114.558 93.7898 114.527 93.7136C114.495 93.6373 114.441 93.5722 114.372 93.5263C114.304 93.4805 114.223 93.4561 114.14 93.4561C114.085 93.4562 114.03 93.4673 113.979 93.4887C113.928 93.51 113.882 93.5412 113.843 93.5805C113.804 93.6198 113.774 93.6663 113.753 93.7175C113.732 93.7687 113.721 93.8234 113.722 93.8787Z" fill="white"/>
<path d="M95.8284 66.2707L101.482 78.1158C101.539 78.2338 101.565 78.3643 101.558 78.4951C101.551 78.6259 101.511 78.7529 101.442 78.8642C101.373 78.9755 101.277 79.0675 101.162 79.1318C101.048 79.196 100.92 79.2304 100.788 79.2316H94.3572C94.1 79.232 93.848 79.1587 93.6312 79.0203C93.4143 78.882 93.2417 78.6844 93.1337 78.4509L87.8518 67.2372C87.795 67.1171 87.7687 66.9849 87.7752 66.8522C87.7816 66.7195 87.8208 66.5904 87.889 66.4765C87.9573 66.3625 88.0527 66.2672 88.1667 66.1989C88.2806 66.1306 88.4097 66.0915 88.5423 66.085L95.1056 65.8346C95.2555 65.8285 95.404 65.8666 95.5325 65.9441C95.661 66.0216 95.7639 66.1352 95.8284 66.2707Z" fill="#020F45"/>
<path d="M100.965 78.842L95.3119 66.997C95.2478 66.8611 95.1454 66.747 95.0171 66.6688C94.8889 66.5906 94.7406 66.5516 94.5904 66.5568L88.0259 66.8072C87.9398 66.8107 87.8548 66.8279 87.7742 66.8583C87.7807 66.6554 87.8634 66.4624 88.0059 66.3177C88.1483 66.173 88.34 66.0873 88.5428 66.0776L95.106 65.8272C95.2562 65.8214 95.4049 65.8598 95.5335 65.9379C95.662 66.0159 95.7647 66.13 95.8288 66.2661L101.482 78.1111C101.53 78.2097 101.557 78.3174 101.56 78.4271C101.564 78.5367 101.545 78.6459 101.503 78.7475C101.462 78.8491 101.399 78.9408 101.32 79.0167C101.241 79.0926 101.147 79.1509 101.043 79.1879C101.044 79.0682 101.017 78.95 100.965 78.842Z" fill="#3E519C"/>
<path d="M137.692 83.0311C137.692 83.0311 134.001 99.2548 128.787 99.2548C123.572 99.2548 111.505 82.9773 107.991 80.2543C107.991 80.2543 106.055 79.0428 104.518 76.4369C102.981 73.831 99.9415 73.2065 99.2617 72.5334C98.582 71.8604 99.2038 71.4983 102.25 71.7352C105.296 71.9721 104.269 69.4268 107.112 70.1079C109.955 70.789 113.088 80.1102 114.904 80.584C116.72 81.0578 126.547 89.033 127.153 88.426C127.758 87.8189 129.026 79.8464 129.026 79.8464L137.692 83.0311Z" fill="#C97B6E"/>
<g style="mix-blend-mode:multiply" opacity="0.46">
<path d="M128.342 83.7363C128.721 81.7281 129.015 79.8423 129.015 79.8423L137.686 83.031C137.686 83.031 137.217 85.0905 136.378 87.7421C134.057 87.4635 130.703 86.5495 128.342 83.7363Z" fill="#C97B6E"/>
</g>
<path d="M92.587 77.2846C92.587 77.2846 95.7287 77.7288 95.7287 76.9589C95.7287 76.189 96.4313 74.9264 95.9239 73.8025C95.4164 72.6785 92.6032 73.151 91.9396 72.7364C91.276 72.3218 90.9826 71.8884 91.1401 71.7309C91.2976 71.5734 93.2089 71.1185 93.8321 71.1925C94.4553 71.2665 94.4378 71.8938 95.2387 71.8938C96.0396 71.8938 95.1795 70.506 94.2427 69.9811C93.3058 69.4561 88.9932 69.6433 88.9932 69.6433L92.587 77.2846Z" fill="#BC5A4A"/>
<path d="M132.628 58.7539C132.628 58.7539 137.4 59.5965 139.684 65.3979C141.968 71.1993 140.856 84.5115 140.856 84.5115C140.856 84.5115 131.689 86.7311 127.383 82.3807C127.383 82.3807 127.676 71.6677 128.202 66.8731C128.729 62.0786 132.628 58.7539 132.628 58.7539Z" fill="#E08128"/>
<path d="M120.719 44.4892L120.095 56.8834C120.095 56.8834 122.06 57.3007 122.409 58.6332C122.757 59.9658 114.137 72.5996 110.933 69.4243C107.728 66.2491 112.809 57.3949 112.809 57.3949L113.322 48.5905L118.792 43.4541L120.719 44.4892Z" fill="#DC7A63"/>
<g style="mix-blend-mode:multiply" opacity="0.65">
<path d="M113.081 52.7171C115.354 54.1358 118.072 54.2583 120.311 52.6148L120.714 44.4889L118.787 43.4497L113.317 48.5861L113.081 52.7171Z" fill="#F26E5A"/>
</g>
<path d="M113.194 28.4806C113.194 28.4806 109.096 29.2545 108.51 34.0881C107.925 38.9217 109.388 47.5484 112.609 49.6253C116.146 51.9014 121 51.2957 123.342 46.0745C125.684 40.8532 126.562 31.9614 122.658 29.1576C118.755 26.3538 113.194 28.4806 113.194 28.4806Z" fill="#DC7A63"/>
<path d="M117.341 26.377C117.341 26.377 118.439 27.6826 116.463 32.177C114.487 36.6714 107.243 42.1834 107.243 42.1834C106.17 38.0458 106.55 33.6652 108.32 29.7743C108.993 28.2937 110.447 27.2869 112.078 27.0715L117.341 26.377Z" fill="#020F45"/>
<path d="M122.659 29.1538C120.926 27.9101 118.868 27.6368 117.113 27.7176C116.919 28.3906 116.844 29.384 117 30.8269C117.451 34.9996 122.696 38.4872 125.091 39.8722C125.73 35.5205 125.238 31.0086 122.659 29.1538Z" fill="#020F45"/>
<path d="M108.999 41.1667C108.999 41.1667 108.684 39.7372 107.682 39.8745C106.681 40.0118 106.548 43.6326 107.499 43.9947C108.451 44.3568 109.658 43.4509 108.999 41.1667Z" fill="#DC7A63"/>
<path d="M124.849 39.9975C124.849 39.9975 125.387 39.634 126.348 39.9315C127.309 40.229 126.543 43.8229 125.54 44.0261C124.538 44.2294 123.82 42.143 124.849 39.9975Z" fill="#DC7A63"/>
<g style="mix-blend-mode:multiply">
<path d="M118.502 104.495C118.78 104.591 119.067 104.658 119.359 104.695C119.879 104.747 120.404 104.678 120.893 104.495H118.502Z" fill="#E8E1D0"/>
</g>
<path d="M156.951 26.4512L157.032 31.2888C157.269 32.0601 160.935 33.0777 160.976 32.2485L161.015 26.8455L156.951 26.4512Z" fill="#F98548"/>
<g style="mix-blend-mode:multiply" opacity="0.5">
<path d="M160.6 29.7759C160.736 29.7566 160.869 29.719 160.995 29.6641L161.015 26.8455L156.951 26.4512L156.982 28.2993C157.97 29.4138 159.553 29.9051 160.6 29.7759Z" fill="#FF916C"/>
</g>
<path d="M159.853 19.2237C159.853 19.2237 161.522 19.6168 162.035 20.166C162.548 20.7151 162.72 23.3641 162.574 24.8313C162.338 27.1195 161.653 28.8559 160.207 29.0376C158.762 29.2193 156.191 28.0954 156.079 25.6551C155.967 23.2147 154.659 20.8094 157.118 19.96C159.577 19.1107 159.853 19.2237 159.853 19.2237Z" fill="#F99F70"/>
<path d="M164.014 18.0811C163.361 16.2397 160.658 16.0621 159.976 16.8212C159.294 17.5804 158.486 16.7606 157.357 16.9558C156.962 17.0218 156.443 17.3596 155.969 17.8375C155.814 17.9964 155.611 18.1008 155.391 18.1349C154.694 18.2292 154.06 18.9143 154.006 19.9117C153.98 20.3255 154.073 20.7382 154.276 21.1002C154.374 21.2738 154.419 21.4729 154.403 21.672C154.388 21.8711 154.314 22.061 154.189 22.2174C153.752 22.7774 154.6 24.0278 155.023 24.4774C155.445 24.927 154.888 25.5192 155.023 26.343C155.157 27.1668 156.832 27.6069 156.832 27.6069C156.832 27.545 155.393 24.6457 156.63 22.4005C156.693 22.2967 156.787 22.2147 156.898 22.1652C157.009 22.1156 157.132 22.101 157.252 22.1232C158.222 22.2699 159.319 22.0263 159.615 21.5256C159.696 21.402 159.814 21.3079 159.953 21.2574C160.091 21.2069 160.243 21.2027 160.384 21.2456C161.278 21.4892 161.73 21.5673 162.344 21.4462C165.103 20.9024 164.43 19.2656 164.014 18.0811Z" fill="#000444"/>
<path d="M156.395 24.724C156.395 24.724 156.195 23.88 155.695 24.0644C155.194 24.2488 155.695 26.2531 156.408 26.2921C157.121 26.3312 156.395 24.724 156.395 24.724Z" fill="#F99F70"/>
</g>
<defs>
<clipPath id="clip0_1_1572">
<rect width="234" height="222.19" fill="white"/>
</clipPath>
</defs>
</svg>
