<svg width="390" height="284" viewBox="0 0 390 284" fill="none" xmlns="http://www.w3.org/2000/svg">
<path d="M0 10C0 4.47715 4.47715 0 10 0H380C385.523 0 390 4.47715 390 10V284H0V10Z" fill="#170F58"/>
<path opacity="0.5" d="M237.474 259C237.474 259 236.965 264.026 233 264.373C236.965 264.72 237.474 269.745 237.474 269.745C237.474 269.745 237.984 264.72 241.95 264.373C237.988 264.026 237.474 259 237.474 259Z" fill="#02CCC0"/>
<path opacity="0.5" d="M22.4744 143C22.4744 143 21.9651 148.026 18 148.373C21.9651 148.72 22.4744 153.745 22.4744 153.745C22.4744 153.745 22.9838 148.72 26.9503 148.373C22.9882 148.026 22.4744 143 22.4744 143Z" fill="#02CCC0"/>
<path opacity="0.5" d="M239.474 14C239.474 14 238.965 19.0258 235 19.3731C238.965 19.7204 239.474 24.7447 239.474 24.7447C239.474 24.7447 239.984 19.7204 243.95 19.3731C239.988 19.0258 239.474 14 239.474 14Z" fill="#02CCC0"/>
<path opacity="0.5" d="M30.4123 61C30.4123 61 30.0244 65.4527 27 65.7595C30.0244 66.0677 30.4123 70.5205 30.4123 70.5205C30.4123 70.5205 30.8015 66.0677 33.826 65.7595C30.8015 65.4527 30.4123 61 30.4123 61Z" fill="#FEB546"/>
<path opacity="0.5" d="M110.412 14C110.412 14 110.024 18.4527 107 18.7595C110.024 19.0677 110.412 23.5205 110.412 23.5205C110.412 23.5205 110.802 19.0677 113.826 18.7595C110.802 18.4527 110.412 14 110.412 14Z" fill="#FEB546"/>
<path opacity="0.5" d="M30.4123 221C30.4123 221 30.0244 225.453 27 225.76C30.0244 226.068 30.4123 230.52 30.4123 230.52C30.4123 230.52 30.8015 226.068 33.826 225.76C30.8015 225.453 30.4123 221 30.4123 221Z" fill="#FEB546"/>
<path opacity="0.5" d="M107.412 255C107.412 255 107.024 259.453 104 259.76C107.024 260.068 107.412 264.52 107.412 264.52C107.412 264.52 107.802 260.068 110.826 259.76C107.802 259.453 107.412 255 107.412 255Z" fill="#FEB546"/>
<g clip-path="url(#clip0_200_2275)">
<g style="mix-blend-mode:multiply" opacity="0.3">
<path d="M187.881 143.004H129.177C128.724 143.004 128.275 143.094 127.857 143.267C127.438 143.441 127.058 143.695 126.738 144.015C126.417 144.336 126.163 144.716 125.99 145.135C125.817 145.554 125.728 146.003 125.729 146.456V170.912C125.729 171.826 126.092 172.703 126.739 173.35C127.385 173.997 128.262 174.36 129.177 174.36H135.274C134.919 177.053 134.456 180.916 134.711 180.916C134.965 180.916 137.939 176.852 139.728 174.36H187.881C188.334 174.36 188.783 174.271 189.202 174.098C189.62 173.925 190 173.671 190.321 173.351C190.641 173.03 190.895 172.65 191.069 172.232C191.242 171.813 191.331 171.365 191.331 170.912V146.456C191.332 146.003 191.243 145.554 191.07 145.135C190.896 144.716 190.642 144.335 190.322 144.015C190.001 143.694 189.621 143.44 189.202 143.267C188.784 143.093 188.335 143.004 187.881 143.004Z" fill="#DAEEF7"/>
</g>
<path d="M190.688 136.502H131.982C131.529 136.502 131.08 136.592 130.662 136.765C130.243 136.938 129.863 137.193 129.543 137.513C129.222 137.833 128.969 138.214 128.795 138.632C128.622 139.051 128.533 139.499 128.533 139.952V164.408C128.533 164.861 128.622 165.31 128.795 165.728C128.969 166.147 129.222 166.527 129.543 166.848C129.863 167.168 130.243 167.422 130.662 167.596C131.08 167.769 131.529 167.858 131.982 167.858H138.078C137.725 170.55 137.261 174.412 137.515 174.412C137.77 174.412 140.744 170.349 142.532 167.858H190.688C191.141 167.858 191.589 167.769 192.008 167.596C192.426 167.422 192.806 167.168 193.127 166.848C193.447 166.527 193.701 166.147 193.874 165.728C194.047 165.31 194.136 164.861 194.136 164.408V139.952C194.136 139.499 194.047 139.051 193.874 138.632C193.701 138.214 193.447 137.833 193.127 137.513C192.806 137.193 192.426 136.938 192.008 136.765C191.589 136.592 191.141 136.502 190.688 136.502Z" fill="#FEB546"/>
<path d="M146.012 158.382C149.388 155.005 149.388 149.53 146.012 146.154C142.635 142.777 137.161 142.777 133.784 146.154C130.407 149.53 130.407 155.005 133.784 158.382C137.161 161.758 142.635 161.758 146.012 158.382Z" fill="white"/>
<path d="M141.265 156.625H138.727V159.16H141.265V156.625Z" fill="#FFC0BB"/>
<path d="M141.266 158.144V156.625H138.727V157.917C139.271 158.211 140.083 158.38 141.266 158.144Z" fill="#F99893"/>
<path d="M145.272 152.088C145.137 152.027 144.99 151.998 144.843 152.004C144.695 152.009 144.551 152.05 144.421 152.121C144.421 150.922 143.945 149.772 143.097 148.925C142.249 148.077 141.099 147.601 139.9 147.601C138.701 147.601 137.552 148.077 136.704 148.925C135.856 149.772 135.38 150.922 135.38 152.121C135.251 152.05 135.106 152.009 134.959 152.004C134.811 151.998 134.665 152.027 134.53 152.088C134.021 152.338 133.863 153.055 134.177 153.69C134.491 154.325 135.157 154.635 135.665 154.385C135.734 154.35 135.797 154.306 135.854 154.254C136.144 156.322 137.88 157.872 139.906 157.843C141.932 157.872 143.661 156.322 143.958 154.254C144.015 154.306 144.08 154.35 144.149 154.385C144.657 154.635 145.323 154.324 145.637 153.69C145.951 153.056 145.786 152.338 145.272 152.088Z" fill="#FFC0BB"/>
<path d="M136.812 146.613C136.812 146.613 138.085 145.535 140.982 145.71C143.879 145.885 144.429 147.395 144.6 149.554L144.431 152.121C144.431 152.121 143.68 151.348 142.694 149.205C142.694 149.205 141.072 151.024 140.366 150.809C139.66 150.593 140.634 149.283 140.634 149.283C140.634 149.283 137.33 152.125 135.384 152.121C135.384 152.121 134.355 148.793 135.8 147.574C135.8 147.574 134.711 147.626 134.654 147.412C134.598 147.198 135.172 146.877 136.22 146.998C136.22 146.998 135.473 145.54 135.89 145.388C136.307 145.236 136.812 146.613 136.812 146.613Z" fill="#0003E9"/>
<path d="M141.561 155.042C141.449 155.544 140.875 155.937 140.172 155.959C139.468 155.981 138.869 155.622 138.725 155.128L141.561 155.042Z" fill="white"/>
<path d="M185.592 143.551H151.86C151.672 143.551 151.52 143.704 151.52 143.891V144.713C151.52 144.901 151.672 145.053 151.86 145.053H185.592C185.779 145.053 185.932 144.901 185.932 144.713V143.891C185.932 143.704 185.779 143.551 185.592 143.551Z" fill="white"/>
<path d="M159.306 147.516H151.86C151.672 147.516 151.52 147.668 151.52 147.856V148.678C151.52 148.866 151.672 149.018 151.86 149.018H159.306C159.494 149.018 159.646 148.866 159.646 148.678V147.856C159.646 147.668 159.494 147.516 159.306 147.516Z" fill="white"/>
<path d="M185.593 147.516H163.055C162.867 147.516 162.715 147.668 162.715 147.856V148.678C162.715 148.866 162.867 149.018 163.055 149.018H185.593C185.781 149.018 185.933 148.866 185.933 148.678V147.856C185.933 147.668 185.781 147.516 185.593 147.516Z" fill="white"/>
<path d="M168.957 151.481H151.86C151.672 151.481 151.52 151.634 151.52 151.822V152.643C151.52 152.831 151.672 152.984 151.86 152.984H168.957C169.145 152.984 169.297 152.831 169.297 152.643V151.822C169.297 151.634 169.145 151.481 168.957 151.481Z" fill="white"/>
<path d="M185.594 151.481H172.24C172.053 151.481 171.9 151.634 171.9 151.822V152.643C171.9 152.831 172.053 152.984 172.24 152.984H185.594C185.782 152.984 185.934 152.831 185.934 152.643V151.822C185.934 151.634 185.782 151.481 185.594 151.481Z" fill="white"/>
<path d="M185.592 155.445H151.86C151.672 155.445 151.52 155.598 151.52 155.785V156.607C151.52 156.795 151.672 156.947 151.86 156.947H185.592C185.779 156.947 185.932 156.795 185.932 156.607V155.785C185.932 155.598 185.779 155.445 185.592 155.445Z" fill="white"/>
<path d="M219.297 105.528L221.436 118.944L225.953 101.058C225.953 101.058 219.621 97.9839 219.34 99.1025C219.06 100.221 219.297 105.528 219.297 105.528Z" fill="#9E00E9"/>
<path d="M255.246 134.401L257.201 157.593L236.736 156.614L239.096 136.077L255.246 134.401Z" fill="#FFC0BB"/>
<path d="M237.971 145.844L239.094 136.077L255.243 134.4L255.921 142.431C252.709 145.631 246.935 148.948 237.971 145.844Z" fill="#F99893"/>
<path d="M225.423 118.774C226.654 121.32 226.002 124.181 223.966 125.165C221.93 126.149 219.281 124.885 218.051 122.34C216.821 119.795 217.473 116.934 219.509 115.95C221.545 114.966 224.193 116.23 225.423 118.774Z" fill="#F99893"/>
<path d="M225.277 130.538C223.812 127.257 222.961 123.736 222.455 120.637C222.348 119.972 222.203 119.317 222.045 118.663C221.38 115.907 221.256 113.048 221.681 110.245C223.103 100.756 230.738 93.1909 240.243 91.8769C243.226 91.4557 246.263 91.6554 249.166 92.4634C252.068 93.2715 254.772 94.6704 257.108 96.5726C259.444 98.4748 261.362 100.839 262.741 103.517C264.121 106.195 264.932 109.13 265.124 112.136C266.441 111.291 267.963 111.019 269.351 111.536C272.014 112.528 273.167 116.032 271.927 119.362C270.687 122.691 267.52 124.584 264.858 123.592C264.496 123.453 264.155 123.266 263.845 123.036C263.434 133.789 255.201 142.592 244.691 143.084C239.551 143.324 234.768 141.533 231.056 138.394C228.674 136.657 226.43 133.255 225.277 130.538Z" fill="#FFC0BB"/>
<path d="M238.4 113.627C238.358 114.88 238.348 116.103 238.283 117.301C238.209 118.408 238.088 120.001 237.397 120.845C237.296 120.99 236.753 121.576 236.74 122.466C236.737 122.854 236.822 123.237 236.987 123.588C237.152 123.938 237.394 124.247 237.695 124.492C238.813 125.432 240.26 125.521 241.458 125.225C240.235 125.01 239.064 124.589 238.381 123.791C238.066 123.395 237.856 122.951 237.93 122.535C237.983 122.058 238.25 121.812 238.345 121.667C238.685 121.217 239.095 120.748 239.268 119.217C239.329 118.576 239.329 117.931 239.268 117.29C239.157 116.033 238.864 114.8 238.4 113.627Z" fill="#F99893"/>
<path d="M245.649 115.282C245.666 115.659 245.795 116.023 246.019 116.327C246.243 116.63 246.553 116.861 246.908 116.989C247.263 117.117 247.648 117.137 248.014 117.046C248.381 116.955 248.712 116.758 248.966 116.479C249.221 116.2 249.386 115.851 249.443 115.478C249.499 115.105 249.443 114.723 249.283 114.381C249.122 114.04 248.864 113.753 248.54 113.559C248.217 113.364 247.843 113.269 247.466 113.287C246.96 113.31 246.485 113.534 246.144 113.908C245.803 114.282 245.625 114.777 245.649 115.282Z" fill="#333333"/>
<path d="M229.326 117.123C229.344 117.5 229.473 117.863 229.697 118.167C229.921 118.471 230.23 118.701 230.585 118.829C230.94 118.957 231.326 118.977 231.692 118.886C232.058 118.796 232.39 118.598 232.644 118.319C232.898 118.04 233.064 117.692 233.12 117.318C233.176 116.945 233.121 116.563 232.96 116.222C232.8 115.88 232.541 115.594 232.218 115.399C231.895 115.204 231.521 115.109 231.144 115.127C230.638 115.151 230.163 115.374 229.822 115.748C229.481 116.123 229.303 116.617 229.326 117.123Z" fill="#333333"/>
<path d="M248.85 128.207C246.906 129.9 244.378 131.222 241.869 131.526C239.154 131.869 236.756 131.041 234.445 129.619C236.597 131.426 239.089 132.342 241.93 132.024C244.697 131.664 247.283 130.07 248.85 128.207Z" fill="#F99893"/>
<path d="M243.254 110.972C245.943 110.14 247.466 110.094 248.695 110.249C251.378 110.609 252.892 111.796 253.824 112.207C252.695 110.127 250.961 109.023 248.864 108.757C246.594 108.478 244.373 109.504 243.254 110.972Z" fill="#9E00E9"/>
<path d="M234.845 111.919C233.466 110.7 231.082 110.119 228.912 110.829C226.913 111.491 225.423 112.912 224.715 115.171C225.557 114.585 226.803 113.13 229.366 112.256C230.538 111.877 232.039 111.625 234.845 111.919Z" fill="#9E00E9"/>
<path d="M234.45 148.337C234.45 148.337 215.19 150.782 210.299 154.757C205.408 158.733 181.869 217.119 181.869 217.119L201.434 240.047L243.009 240.352C243.009 240.352 274.19 257.166 293.755 241.269C313.319 225.373 303.232 170.042 291.92 158.119C280.608 146.196 260.434 146.503 260.434 146.503C260.434 146.503 242.092 159.348 234.45 148.337Z" fill="#02CCC0"/>
<path d="M271.744 177.384C271.055 180.568 270.634 183.796 270.333 187.036C270.168 188.657 270.096 190.284 270.003 191.91C269.954 193.538 269.916 195.168 269.938 196.799C270.002 200.059 270.181 203.329 270.741 206.556C271.301 209.783 272.084 212.997 273.579 215.902C272.573 212.804 272.074 209.618 271.714 206.425C271.353 203.231 271.236 200.004 271.194 196.783C271.127 193.559 271.207 190.33 271.308 187.097C271.41 183.864 271.572 180.632 271.744 177.384Z" fill="white"/>
<path d="M214.121 175.244C213.242 179.98 212.31 184.698 211.362 189.408C210.414 194.119 209.395 198.815 208.256 203.471C207.118 208.128 205.879 212.765 204.364 217.304C203.615 219.576 202.745 221.807 201.759 223.987C200.781 226.157 199.62 228.273 198.064 230.117C199.834 228.466 201.135 226.372 202.312 224.262C203.446 222.12 204.438 219.907 205.281 217.636C206.149 215.377 206.887 213.073 207.597 210.762C208.272 208.446 208.899 206.115 209.478 203.768C210.031 201.418 210.56 199.065 211.036 196.7C211.512 194.336 211.946 191.965 212.326 189.585C213.111 184.83 213.722 180.047 214.121 175.244Z" fill="white"/>
<path d="M204.441 226.838C204.564 225.872 211.911 224.791 214.611 224.65C216.658 224.545 230.221 224.092 234.835 223.883L234.496 225.07L234.567 230.308L235.324 233.781C231.272 234.036 221.381 234.424 219.32 234.832C216.571 235.376 211.795 237.451 211.795 237.451C211.795 237.451 209.81 237 212.334 235.912C213.871 235.236 215.25 234.248 216.385 233.01C216.731 232.622 216.357 231.934 216.105 231.997C209.235 233.797 208.528 234.095 208.528 234.095C208.528 234.095 200.454 234.051 208.483 232.236C213.294 231.148 215.019 230.515 215.448 229.976C215.63 229.746 215.303 228.963 215.014 228.945C210.843 228.688 203.36 230.165 205.411 229.197C207.082 228.405 212.347 227.54 214.393 227.213C214.519 227.193 214.723 226.43 214.163 226.384C210.186 226.054 204.327 227.738 204.441 226.838Z" fill="#FFC0BB"/>
<path d="M271.393 216.339C269.707 216.74 267.997 217.034 266.304 217.39C262.896 218.012 259.478 218.548 256.048 219.034C252.616 219.485 249.179 219.902 245.732 220.232C242.285 220.562 238.807 220.866 235.41 221.055L234.952 221.08L234.852 221.477C234.572 222.605 234.362 223.75 234.224 224.905C234.084 226.054 234.016 227.21 234.022 228.368C234.031 229.531 234.132 230.693 234.323 231.841C234.537 232.989 234.877 234.11 235.336 235.185L235.375 235.278L235.45 235.327L239.226 237.861C240.48 238.706 241.745 239.541 243.021 240.366C241.838 239.417 240.644 238.482 239.441 237.56L235.929 234.849C235.564 233.833 235.308 232.781 235.165 231.71C235.028 230.607 234.973 229.494 235.003 228.382C235.045 227.268 235.146 226.157 235.305 225.054C235.445 224.095 235.633 223.144 235.87 222.204C237.499 222.151 239.053 222.045 240.661 221.928C242.398 221.801 244.134 221.663 245.871 221.481C249.332 221.122 252.788 220.691 256.226 220.141C259.664 219.591 263.084 218.915 266.473 218.115C268.16 217.681 269.851 217.268 271.512 216.743C273.188 216.273 274.829 215.687 276.464 215.105C274.755 215.512 273.088 215.983 271.393 216.339Z" fill="white"/>
<path d="M123.83 187.931H189.352C190.335 187.931 191.295 188.224 192.111 188.772C192.928 189.319 193.562 190.097 193.935 191.006L213.998 239.976H250.223C250.709 239.976 251.176 240.17 251.52 240.514C251.863 240.858 252.057 241.325 252.057 241.811C252.057 242.052 252.009 242.29 251.917 242.513C251.825 242.735 251.69 242.937 251.52 243.107C251.349 243.278 251.147 243.413 250.925 243.505C250.702 243.597 250.464 243.645 250.223 243.645H145.641C144.696 243.645 143.771 243.372 142.977 242.858C142.183 242.345 141.555 241.613 141.168 240.75L120.075 193.733C119.794 193.106 119.674 192.419 119.727 191.734C119.779 191.049 120.002 190.388 120.376 189.811C120.749 189.234 121.261 188.76 121.864 188.432C122.467 188.104 123.143 187.931 123.83 187.931Z" fill="#0003E9"/>
<path d="M218.886 92.8363C218.886 92.8363 212.465 93.0433 219.203 87.6138C225.94 82.1842 244.031 75.8184 255.626 81.9411C255.626 81.9411 257.942 77.0123 261.296 78.1888C264.65 79.3653 259.117 82.7573 259.117 82.7573C259.117 82.7573 263.397 82.6126 264.702 84.7196C265.669 86.2709 263.047 86.3389 261.614 86.2694C264.051 86.6833 273.392 92.5831 268.705 111.419C267.039 111.052 257.544 97.2818 257.544 97.2818C257.544 97.2818 235.827 109.346 237.974 99.7535C237.974 99.7535 215.478 113.79 218.669 102.196C218.667 102.196 209.969 102.833 218.886 92.8363Z" fill="#9E00E9"/>
<path d="M268.723 111.531C268.723 111.531 266.924 110.899 264.991 112.434C263.058 113.97 263.271 119.362 263.271 119.362C263.271 119.362 254.039 125.315 255.013 100.127C256.055 73.3294 262.712 102.276 262.712 102.276L268.723 111.531Z" fill="#9E00E9"/>
<g style="mix-blend-mode:multiply" opacity="0.3">
<path d="M145.526 87.481H78.2893C77.174 87.481 76.1043 87.924 75.3157 88.7127C74.527 89.5013 74.084 90.5709 74.084 91.6862V119.433C74.084 120.548 74.527 121.618 75.3157 122.407C76.1043 123.195 77.174 123.638 78.2893 123.638H131.224C133.367 126.631 137.251 131.985 137.594 131.985C137.937 131.985 137.296 126.929 136.861 123.643H145.526C146.641 123.643 147.711 123.199 148.499 122.411C149.288 121.622 149.731 120.553 149.731 119.437V91.6862C149.731 90.5709 149.288 89.5013 148.499 88.7127C147.711 87.924 146.641 87.481 145.526 87.481Z" fill="#DAEEF7"/>
</g>
<path d="M142.745 80.2827H75.5158C74.4005 80.2827 73.3309 80.7258 72.5422 81.5144C71.7536 82.3031 71.3105 83.3727 71.3105 84.488V112.235C71.3105 113.35 71.7536 114.42 72.5422 115.208C73.3309 115.997 74.4005 116.44 75.5158 116.44H128.451C130.592 119.43 134.476 124.784 134.818 124.784C135.16 124.784 134.521 119.728 134.086 116.44H142.745C143.861 116.44 144.93 115.997 145.719 115.208C146.507 114.42 146.95 113.35 146.95 112.235V84.488C146.95 83.3727 146.507 82.3031 145.719 81.5144C144.93 80.7258 143.861 80.2827 142.745 80.2827Z" fill="#FF5B7E"/>
<path d="M89.8082 108.09C95.1791 105.842 97.7108 99.6657 95.4631 94.2948C93.2153 88.924 87.0391 86.3922 81.6683 88.64C76.2974 90.8878 73.7657 97.0639 76.0135 102.435C78.2612 107.806 84.4374 110.337 89.8082 108.09Z" fill="white"/>
<path d="M80.253 98.6396C80.253 98.6396 79.2067 94.3504 81.7001 92.7427C84.1934 91.135 86.8503 90.7689 88.6664 91.695C91.1858 92.9771 92.2205 96.4444 91.4159 98.3618L84.7303 96.6831L80.253 98.6396Z" fill="#040744"/>
<path d="M87.4096 103.675H84.3142V106.766H87.4096V103.675Z" fill="#FFC0BB"/>
<path d="M87.4096 105.527V103.673H84.3142V105.249C84.9813 105.608 85.9682 105.814 87.4096 105.527Z" fill="#F99893"/>
<path d="M92.2892 98.1416C92.125 98.0673 91.9456 98.0324 91.7655 98.0397C91.5854 98.047 91.4094 98.0962 91.2517 98.1835C91.2781 97.4533 91.1535 96.7255 90.8858 96.0456C90.6181 95.3657 90.2129 94.7484 89.6957 94.2322C89.1785 93.7161 88.5603 93.3122 87.8798 93.0459C87.1994 92.7796 86.4713 92.6566 85.7411 92.6846C85.0109 92.6566 84.2827 92.7796 83.6022 93.0459C82.9217 93.3122 82.3034 93.716 81.7861 94.2322C81.2687 94.7483 80.8634 95.3656 80.5955 96.0455C80.3276 96.7254 80.2029 97.4532 80.2291 98.1835C80.0714 98.0962 79.8954 98.047 79.7153 98.0397C79.5352 98.0324 79.3558 98.0673 79.1915 98.1416C78.5722 98.4469 78.3797 99.3224 78.7574 100.095C79.1351 100.868 79.9513 101.253 80.5706 100.943C80.6551 100.901 80.7335 100.847 80.8036 100.784C81.1582 103.305 83.2637 105.195 85.7368 105.16C88.2084 105.195 90.314 103.305 90.6699 100.784C90.7399 100.847 90.8177 100.9 90.9015 100.943C91.5208 101.248 92.3327 100.868 92.7161 100.095C93.0996 99.3224 92.9086 98.4469 92.2892 98.1416Z" fill="#FFC0BB"/>
<path d="M87.767 101.74C87.631 102.351 86.932 102.831 86.0739 102.857C85.2158 102.883 84.4821 102.448 84.3142 101.844L87.767 101.74Z" fill="white"/>
<path d="M80.231 98.1832C80.231 98.1832 84.2829 96.9561 86.0556 94.907C86.0556 94.907 85.5535 97.3757 85.1787 97.7693C85.2973 97.8475 89.2305 95.9388 89.7587 94.1762C90.2869 92.4136 85.743 91.7798 85.743 91.7798C85.743 91.7798 84.1831 92.444 84.1049 92.4831C84.0268 92.5222 82.5637 92.6929 82.3959 93.0619C82.1774 93.5467 81.1456 93.5901 81.1456 93.5901L80.4929 94.946L80.0371 96.3729L80.231 98.1832Z" fill="#040744"/>
<path d="M76.9121 92.6021C77.8064 92.9624 78.8396 93.1289 79.9105 92.8004C82.2751 92.0768 83.2113 92.3561 83.5283 92.5341C83.6202 92.59 83.7227 92.626 83.8294 92.64C83.936 92.6539 84.0444 92.6455 84.1476 92.6151C84.3806 92.537 84.5977 92.3257 84.5296 91.7932C84.5296 91.7932 84.6237 89.5473 82.6976 88.2666C80.3196 88.987 78.2712 90.522 76.9121 92.6021Z" fill="#040744"/>
<path d="M81.9968 92.4548C81.98 92.4329 81.9678 92.4078 81.9611 92.3811C81.9545 92.3543 81.9534 92.3265 81.958 92.2993C81.9626 92.2721 81.9729 92.2461 81.988 92.2231C82.0031 92.2 82.0229 92.1804 82.046 92.1653C82.4411 91.9049 83.4569 91.3202 84.6768 91.258C84.704 91.2568 84.7311 91.2612 84.7565 91.2707C84.7819 91.2803 84.8051 91.295 84.8247 91.3138C84.8443 91.3326 84.8599 91.3551 84.8706 91.3801C84.8812 91.4051 84.8867 91.432 84.8867 91.4591C84.8867 91.5104 84.8671 91.5597 84.8318 91.5969C84.7965 91.6341 84.7483 91.6562 84.6971 91.6588C83.5814 91.7167 82.6263 92.2666 82.266 92.5011C82.2237 92.5293 82.1722 92.5403 82.1221 92.5316C82.0721 92.523 82.0272 92.4955 81.9968 92.4548Z" fill="#FEB546"/>
<path d="M112.045 89.2808H98.7532C98.5238 89.2808 98.3379 89.4667 98.3379 89.6961V90.6975C98.3379 90.9268 98.5238 91.1128 98.7532 91.1128H112.045C112.274 91.1128 112.46 90.9268 112.46 90.6975V89.6961C112.46 89.4667 112.274 89.2808 112.045 89.2808Z" fill="white"/>
<path d="M107.462 94.1138H98.7532C98.5238 94.1138 98.3379 94.2997 98.3379 94.5291V95.5305C98.3379 95.7599 98.5238 95.9458 98.7532 95.9458H107.462C107.691 95.9458 107.877 95.7599 107.877 95.5305V94.5291C107.877 94.2997 107.691 94.1138 107.462 94.1138Z" fill="white"/>
<path d="M120.847 94.1138H109.939C109.709 94.1138 109.523 94.2997 109.523 94.5291V95.5305C109.523 95.7599 109.709 95.9458 109.939 95.9458H120.847C121.076 95.9458 121.262 95.7599 121.262 95.5305V94.5291C121.262 94.2997 121.076 94.1138 120.847 94.1138Z" fill="white"/>
<path d="M138.316 89.2808H115.216C114.987 89.2808 114.801 89.4667 114.801 89.6961V90.6975C114.801 90.9268 114.987 91.1128 115.216 91.1128H138.316C138.546 91.1128 138.731 90.9268 138.731 90.6975V89.6961C138.731 89.4667 138.546 89.2808 138.316 89.2808Z" fill="white"/>
<path d="M138.317 103.59H98.7532C98.5238 103.59 98.3379 103.776 98.3379 104.005V105.007C98.3379 105.236 98.5238 105.422 98.7532 105.422H138.317C138.546 105.422 138.732 105.236 138.732 105.007V104.005C138.732 103.776 138.546 103.59 138.317 103.59Z" fill="white"/>
<path d="M118.79 98.9492H98.7532C98.5238 98.9492 98.3379 99.1352 98.3379 99.3645V100.366C98.3379 100.595 98.5238 100.781 98.7532 100.781H118.79C119.019 100.781 119.205 100.595 119.205 100.366V99.3645C119.205 99.1352 119.019 98.9492 118.79 98.9492Z" fill="white"/>
<path d="M138.316 98.9492H122.673C122.444 98.9492 122.258 99.1352 122.258 99.3645V100.366C122.258 100.595 122.444 100.781 122.673 100.781H138.316C138.546 100.781 138.732 100.595 138.732 100.366V99.3645C138.732 99.1352 138.546 98.9492 138.316 98.9492Z" fill="white"/>
<path d="M161.584 221.441C163.821 220.969 165.112 218.105 164.466 215.044C163.821 211.983 161.484 209.885 159.246 210.357C157.009 210.828 155.719 213.692 156.364 216.753C157.01 219.814 159.347 221.912 161.584 221.441Z" fill="white"/>
<path d="M138.474 50.0406L139.875 60.6044L132.373 55.1271L109.412 43.394L127.172 45.0133C127.172 45.0133 136.22 47.2115 136.71 47.6543C137.201 48.0971 138.474 50.0406 138.474 50.0406Z" fill="#C12F56"/>
<path d="M146.338 43.6632L109.412 43.394L138.473 50.042L146.338 43.6632Z" fill="#FF5B7E"/>
<path d="M126.602 60.6666L136.279 52.8943L109.412 43.394L126.602 60.6666Z" fill="#FF5B7E"/>
<path d="M184.144 107.124L183.656 106.4C184.413 105.884 185.095 105.265 185.682 104.561L186.346 105.121C185.708 105.887 184.967 106.561 184.144 107.124Z" fill="#FEB546"/>
<path d="M189.028 100.037L188.199 99.7762C188.731 98.0137 189.063 96.1967 189.189 94.3597L190.057 94.4263C189.927 96.3293 189.582 98.2114 189.028 100.037ZM190.026 88.7493L189.158 88.8376C189.134 88.5988 189.106 88.3601 189.074 88.1227C188.967 87.3036 188.815 86.4911 188.618 85.6887C188.436 84.9478 188.212 84.2025 187.953 83.4718L188.773 83.1823C189.041 83.9406 189.272 84.7134 189.462 85.4818C189.668 86.3137 189.828 87.1562 189.941 88.0055C189.971 88.2443 190 88.4932 190.026 88.745V88.7493ZM185.565 78.5039C184.596 76.9317 183.494 75.4458 182.27 74.0627L182.921 73.4839C184.178 74.9058 185.31 76.4339 186.303 78.0509L185.565 78.5039ZM158.396 76.4475C157.804 76.5922 156.296 76.627 155.328 76.0496C154.569 75.5792 153.963 74.8978 153.584 74.0888L154.366 73.7067C154.669 74.3635 155.158 74.917 155.772 75.2985C156.471 75.7139 157.716 75.7153 158.187 75.5981C158.218 75.5923 158.247 75.5831 158.276 75.5706L158.399 75.4895L158.882 76.2131L158.737 76.3115C158.631 76.3747 158.516 76.4207 158.396 76.4475ZM178.306 70.1816C176.894 68.9847 175.408 67.877 173.858 66.8648L174.334 66.1413C175.917 67.176 177.433 68.3084 178.875 69.5318L178.306 70.1816ZM162.015 71.332L161.164 71.1526C161.275 70.6185 161.333 70.0745 161.335 69.5289C161.335 68.7391 161.237 67.9522 161.045 67.1861C160.936 66.7445 160.8 66.3096 160.64 65.8837L161.453 65.5784C161.626 66.0357 161.771 66.503 161.888 66.9777C162.097 67.8124 162.204 68.6697 162.204 69.5304C162.203 70.1358 162.139 70.7395 162.015 71.332ZM154.37 68.6549L153.586 68.2801C154.374 66.6318 155.855 65.1891 157.649 64.3194L157.768 64.2629L158.138 65.0502L158.028 65.1023C156.407 65.8866 155.075 67.1817 154.37 68.6549ZM168.793 64.7564C167.216 64.2745 165.964 63.9822 165.358 63.9533C164.663 63.92 164.026 63.9127 163.414 63.9316L163.388 63.0633C164.023 63.0445 164.682 63.0517 165.4 63.0865C166.324 63.1299 168.081 63.6306 169.046 63.9258L168.793 64.7564ZM157.82 61.2356C156.629 59.8436 155.239 58.6348 153.696 57.6482L154.164 56.916C155.781 57.9481 157.235 59.2135 158.481 60.6712L157.82 61.2356Z" fill="#FEB546"/>
<path d="M148.707 55.422C147.806 55.1731 146.886 54.9999 145.957 54.9039L146.045 54.0356C147.024 54.136 147.992 54.318 148.94 54.5798L148.707 55.422Z" fill="#FEB546"/>
<path opacity="0.5" d="M108.812 178.382C108.812 178.382 108.492 181.537 106.002 181.755C108.492 181.974 108.812 185.13 108.812 185.13C108.812 185.13 109.132 181.974 111.622 181.755C109.132 181.537 108.812 178.382 108.812 178.382Z" fill="#FF5B7E"/>
<path opacity="0.5" d="M202.553 133.399C202.553 133.399 202.043 138.425 198.078 138.772C202.043 139.119 202.553 144.144 202.553 144.144C202.553 144.144 203.062 139.119 207.027 138.772C203.062 138.425 202.553 133.399 202.553 133.399Z" fill="#02CCC0"/>
<path opacity="0.5" d="M65.4705 72.7056C65.4705 72.7056 64.9611 77.7313 60.9961 78.0787C64.9611 78.426 65.4705 83.4503 65.4705 83.4503C65.4705 83.4503 65.9799 78.426 69.9464 78.0787C65.9842 77.7313 65.4705 72.7056 65.4705 72.7056Z" fill="#02CCC0"/>
<path opacity="0.5" d="M161.344 114.737C161.344 114.737 160.956 119.188 157.932 119.496C160.956 119.805 161.344 124.256 161.344 124.256C161.344 124.256 161.733 119.805 164.756 119.496C161.733 119.188 161.344 114.737 161.344 114.737Z" fill="#FEB546"/>
<path opacity="0.5" d="M82.8888 49.6519C82.8888 49.6519 82.501 54.1046 79.4766 54.4114C82.501 54.7196 82.8888 59.1723 82.8888 59.1723C82.8888 59.1723 83.2781 54.7196 86.3025 54.4114C83.2781 54.1046 82.8888 49.6519 82.8888 49.6519Z" fill="#FEB546"/>
<path d="M301.215 87.8872C317.114 87.8872 330.002 76.2719 330.002 61.9436C330.002 47.6154 317.114 36 301.215 36C285.316 36 272.428 47.6154 272.428 61.9436C272.428 76.2719 285.316 87.8872 301.215 87.8872Z" fill="#E6F7FF"/>
<path d="M283.505 91.767C283.505 93.6396 281.821 95.1576 279.743 95.1576C277.665 95.1576 275.98 93.6396 275.98 91.767C275.98 89.8945 277.665 88.3779 279.743 88.3779C281.821 88.3779 283.505 89.8945 283.505 91.767Z" fill="#E6F7FF"/>
<path d="M314.245 57.6482C313.636 54.2735 311.31 51.5313 307.772 51.2809C303.332 50.9611 301.587 54.9696 301.269 55.3328C301.065 55.0926 300.146 52.7136 297.651 51.6094C293.562 49.802 288.605 52.6036 288.045 58.57C287.756 61.6624 288.663 64.0111 290.42 66.4755C292.942 70.0136 297.337 73.8311 300.839 76.4127C300.861 76.4356 300.888 76.4537 300.918 76.4661C300.947 76.4784 300.979 76.4848 301.011 76.4848C301.043 76.4848 301.075 76.4784 301.105 76.4661C301.134 76.4537 301.161 76.4356 301.183 76.4127C303.065 74.9946 309.432 70.6084 312.705 65.5088C314.247 63.0912 314.76 60.471 314.245 57.6482Z" fill="#FF5B7E"/>
<path opacity="0.5" d="M76.4744 182C76.4744 182 75.9651 187.026 72 187.373C75.9651 187.72 76.4744 192.745 76.4744 192.745C76.4744 192.745 76.9838 187.72 80.9503 187.373C76.9882 187.026 76.4744 182 76.4744 182Z" fill="#02CCC0"/>
<path opacity="0.5" d="M197.412 37C197.412 37 197.024 41.4527 194 41.7595C197.024 42.0677 197.412 46.5205 197.412 46.5205C197.412 46.5205 197.802 42.0677 200.826 41.7595C197.802 41.4527 197.412 37 197.412 37Z" fill="#FEB546"/>
</g>
<defs>
<clipPath id="clip0_200_2275">
<rect width="269" height="212.11" fill="white" transform="translate(61 36)"/>
</clipPath>
</defs>
</svg>
