<svg width="269" height="213" viewBox="0 0 269 213" fill="none" xmlns="http://www.w3.org/2000/svg">
<g clip-path="url(#clip0_1_1450)">
<g style="mix-blend-mode:multiply" opacity="0.3">
<path d="M126.881 107.004H68.177C67.7239 107.004 67.2752 107.094 66.8566 107.267C66.438 107.441 66.0578 107.695 65.7375 108.015C65.4173 108.336 65.1633 108.716 64.9902 109.135C64.817 109.554 64.7281 110.003 64.7285 110.456V134.912C64.7285 135.826 65.0918 136.703 65.7385 137.35C66.3852 137.997 67.2624 138.36 68.177 138.36H74.2736C73.919 141.053 73.456 144.916 73.7107 144.916C73.9653 144.916 76.9391 140.852 78.7278 138.36H126.881C127.334 138.36 127.783 138.271 128.202 138.098C128.62 137.925 129 137.671 129.321 137.351C129.641 137.03 129.895 136.65 130.069 136.232C130.242 135.813 130.331 135.365 130.331 134.912V110.456C130.332 110.003 130.243 109.554 130.07 109.135C129.896 108.716 129.642 108.335 129.322 108.015C129.001 107.694 128.621 107.44 128.202 107.267C127.784 107.093 127.335 107.004 126.881 107.004Z" fill="#DAEEF7"/>
</g>
<path d="M129.688 100.502H70.9816C70.5287 100.502 70.0801 100.592 69.6617 100.765C69.2432 100.938 68.863 101.193 68.5427 101.513C68.2225 101.833 67.9685 102.214 67.7953 102.632C67.6221 103.051 67.533 103.499 67.5332 103.952V128.408C67.533 128.861 67.6221 129.31 67.7953 129.728C67.9685 130.147 68.2225 130.527 68.5427 130.848C68.863 131.168 69.2432 131.422 69.6617 131.596C70.0801 131.769 70.5287 131.858 70.9816 131.858H77.0783C76.7252 134.55 76.2607 138.412 76.5154 138.412C76.77 138.412 79.7438 134.349 81.5325 131.858H129.688C130.141 131.858 130.589 131.769 131.008 131.596C131.426 131.422 131.806 131.168 132.127 130.848C132.447 130.527 132.701 130.147 132.874 129.728C133.047 129.31 133.136 128.861 133.136 128.408V103.952C133.136 103.499 133.047 103.051 132.874 102.632C132.701 102.214 132.447 101.833 132.127 101.513C131.806 101.193 131.426 100.938 131.008 100.765C130.589 100.592 130.141 100.502 129.688 100.502Z" fill="#FEB546"/>
<path d="M85.0118 122.382C88.3884 119.005 88.3884 113.53 85.0118 110.154C81.6351 106.777 76.1605 106.777 72.7839 110.154C69.4072 113.53 69.4072 119.005 72.7839 122.382C76.1605 125.758 81.6351 125.758 85.0118 122.382Z" fill="white"/>
<path d="M80.2649 120.625H77.7267V123.16H80.2649V120.625Z" fill="#FFC0BB"/>
<path d="M80.2663 122.144V120.625H77.7267V121.917C78.2708 122.211 79.0826 122.38 80.2663 122.144Z" fill="#F99893"/>
<path d="M84.272 116.088C84.1375 116.027 83.9904 115.998 83.8426 116.004C83.6949 116.009 83.5505 116.05 83.4212 116.121C83.4212 114.922 82.9449 113.772 82.0971 112.925C81.2493 112.077 80.0994 111.601 78.9004 111.601C77.7014 111.601 76.5516 112.077 75.7038 112.925C74.856 113.772 74.3797 114.922 74.3797 116.121C74.2506 116.05 74.1064 116.009 73.9589 116.004C73.8114 115.998 73.6645 116.027 73.5302 116.088C73.0208 116.338 72.8631 117.055 73.1771 117.69C73.4912 118.325 74.1568 118.635 74.6647 118.385C74.7337 118.35 74.7975 118.306 74.8543 118.254C75.1437 120.322 76.8803 121.872 78.9062 121.843C80.9321 121.872 82.6614 120.322 82.9581 118.254C83.0155 118.306 83.0797 118.35 83.1491 118.385C83.657 118.635 84.3227 118.324 84.6367 117.69C84.9507 117.056 84.7858 116.338 84.272 116.088Z" fill="#FFC0BB"/>
<path d="M75.8118 110.613C75.8118 110.613 77.0853 109.535 79.9824 109.71C82.8795 109.885 83.4293 111.395 83.6001 113.554L83.4308 116.121C83.4308 116.121 82.6798 115.348 81.6943 113.205C81.6943 113.205 80.0721 115.024 79.3659 114.809C78.6597 114.593 79.6336 113.283 79.6336 113.283C79.6336 113.283 76.3299 116.125 74.3835 116.121C74.3835 116.121 73.3546 112.793 74.8003 111.574C74.8003 111.574 73.7106 111.626 73.6542 111.412C73.5978 111.198 74.1722 110.877 75.2199 110.998C75.2199 110.998 74.4732 109.54 74.89 109.388C75.3068 109.236 75.8118 110.613 75.8118 110.613Z" fill="#0003E9"/>
<path d="M80.5609 119.042C80.4495 119.544 79.875 119.937 79.1717 119.959C78.4684 119.981 77.8693 119.622 77.7246 119.128L80.5609 119.042Z" fill="white"/>
<path d="M124.592 107.551H90.8596C90.6718 107.551 90.5195 107.704 90.5195 107.891V108.713C90.5195 108.901 90.6718 109.053 90.8596 109.053H124.592C124.779 109.053 124.932 108.901 124.932 108.713V107.891C124.932 107.704 124.779 107.551 124.592 107.551Z" fill="white"/>
<path d="M98.3064 111.516H90.8596C90.6718 111.516 90.5195 111.668 90.5195 111.856V112.678C90.5195 112.866 90.6718 113.018 90.8596 113.018H98.3064C98.4942 113.018 98.6464 112.866 98.6464 112.678V111.856C98.6464 111.668 98.4942 111.516 98.3064 111.516Z" fill="white"/>
<path d="M124.593 111.516H102.055C101.867 111.516 101.715 111.668 101.715 111.856V112.678C101.715 112.866 101.867 113.018 102.055 113.018H124.593C124.781 113.018 124.933 112.866 124.933 112.678V111.856C124.933 111.668 124.781 111.516 124.593 111.516Z" fill="white"/>
<path d="M107.957 115.481H90.8596C90.6718 115.481 90.5195 115.634 90.5195 115.822V116.643C90.5195 116.831 90.6718 116.984 90.8596 116.984H107.957C108.145 116.984 108.297 116.831 108.297 116.643V115.822C108.297 115.634 108.145 115.481 107.957 115.481Z" fill="white"/>
<path d="M124.594 115.481H111.24C111.053 115.481 110.9 115.634 110.9 115.822V116.643C110.9 116.831 111.053 116.984 111.24 116.984H124.594C124.782 116.984 124.934 116.831 124.934 116.643V115.822C124.934 115.634 124.782 115.481 124.594 115.481Z" fill="white"/>
<path d="M124.592 119.445H90.8596C90.6718 119.445 90.5195 119.598 90.5195 119.785V120.607C90.5195 120.795 90.6718 120.947 90.8596 120.947H124.592C124.779 120.947 124.932 120.795 124.932 120.607V119.785C124.932 119.598 124.779 119.445 124.592 119.445Z" fill="white"/>
<path d="M158.297 69.5276L160.436 82.9437L164.953 65.0575C164.953 65.0575 158.621 61.9839 158.34 63.1025C158.06 64.2211 158.297 69.5276 158.297 69.5276Z" fill="#9E00E9"/>
<path d="M194.246 98.4014L196.201 121.593L175.736 120.614L178.096 100.077L194.246 98.4014Z" fill="#FFC0BB"/>
<path d="M176.971 109.844L178.094 100.077L194.243 98.3999L194.921 106.431C191.709 109.631 185.935 112.948 176.971 109.844Z" fill="#F99893"/>
<path d="M164.423 82.7744C165.654 85.3198 165.002 88.1807 162.966 89.1647C160.93 90.1488 158.281 88.8855 157.051 86.34C155.821 83.7946 156.473 80.9336 158.509 79.9496C160.545 78.9656 163.193 80.2304 164.423 82.7744Z" fill="#F99893"/>
<path d="M164.277 94.5376C162.812 91.257 161.961 87.7362 161.455 84.6365C161.348 83.9723 161.203 83.3168 161.045 82.6627C160.38 79.9069 160.256 77.048 160.681 74.2449C162.103 64.7563 169.738 57.1909 179.243 55.8769C182.226 55.4557 185.263 55.6554 188.166 56.4634C191.068 57.2715 193.772 58.6704 196.108 60.5726C198.444 62.4748 200.362 64.8391 201.741 67.5173C203.121 70.1955 203.932 73.1298 204.124 76.1363C205.441 75.2912 206.963 75.0191 208.351 75.5357C211.014 76.5284 212.167 80.0319 210.927 83.3617C209.687 86.6914 206.52 88.5842 203.858 87.5915C203.496 87.4534 203.155 87.2664 202.845 87.0358C202.434 97.7892 194.201 106.592 183.691 107.084C178.551 107.324 173.768 105.533 170.056 102.394C167.674 100.657 165.43 97.2553 164.277 94.5376Z" fill="#FFC0BB"/>
<path d="M177.4 77.627C177.358 78.8801 177.348 80.1029 177.283 81.3011C177.209 82.4082 177.088 84.0014 176.397 84.8451C176.296 84.9898 175.753 85.5759 175.74 86.4658C175.737 86.8535 175.822 87.2369 175.987 87.5876C176.152 87.9383 176.394 88.2473 176.695 88.4918C177.813 89.4324 179.26 89.5207 180.458 89.2255C179.235 89.0098 178.064 88.5887 177.381 87.7914C177.066 87.3949 176.856 86.9506 176.93 86.5353C176.983 86.0578 177.25 85.8118 177.345 85.667C177.685 85.217 178.095 84.7481 178.268 83.2171C178.329 82.576 178.329 81.9306 178.268 81.2896C178.157 80.0333 177.864 78.7997 177.4 77.627Z" fill="#F99893"/>
<path d="M184.649 79.2823C184.666 79.6594 184.795 80.0228 185.019 80.3266C185.243 80.6304 185.553 80.8609 185.908 80.989C186.263 81.117 186.648 81.1369 187.014 81.0461C187.381 80.9552 187.712 80.7578 187.966 80.4787C188.221 80.1996 188.386 79.8513 188.443 79.478C188.499 79.1048 188.443 78.7231 188.283 78.3815C188.122 78.0398 187.864 77.7535 187.54 77.5586C187.217 77.3637 186.843 77.2691 186.466 77.2867C185.96 77.3104 185.485 77.5339 185.144 77.9081C184.803 78.2824 184.625 78.7767 184.649 79.2823Z" fill="#333333"/>
<path d="M168.326 81.1226C168.344 81.4997 168.473 81.8632 168.697 82.1669C168.921 82.4707 169.23 82.7012 169.585 82.8293C169.941 82.9573 170.326 82.9772 170.692 82.8864C171.059 82.7955 171.39 82.5981 171.644 82.319C171.898 82.0399 172.064 81.6917 172.12 81.3184C172.177 80.9451 172.121 80.5635 171.96 80.2218C171.8 79.8802 171.541 79.5938 171.218 79.3989C170.895 79.2041 170.521 79.1095 170.144 79.1271C169.638 79.1507 169.163 79.3742 168.822 79.7484C168.481 80.1227 168.303 80.617 168.326 81.1226Z" fill="#333333"/>
<path d="M187.85 92.2065C185.906 93.8997 183.378 95.2223 180.869 95.5262C178.154 95.8692 175.756 95.0414 173.445 93.6189C175.597 95.4263 178.089 96.3424 180.93 96.024C183.697 95.6637 186.283 94.0704 187.85 92.2065Z" fill="#F99893"/>
<path d="M182.254 74.9724C184.943 74.1403 186.466 74.094 187.695 74.2488C190.378 74.6092 191.892 75.7958 192.824 76.2068C191.695 74.1273 189.961 73.0231 187.864 72.7569C185.594 72.4776 183.373 73.5036 182.254 74.9724Z" fill="#9E00E9"/>
<path d="M173.845 75.919C172.466 74.7005 170.082 74.1188 167.911 74.8293C165.913 75.4906 164.423 76.9117 163.715 79.1706C164.557 78.5845 165.803 77.1302 168.366 76.2561C169.538 75.877 171.039 75.6252 173.845 75.919Z" fill="#9E00E9"/>
<path d="M173.45 112.337C173.45 112.337 154.19 114.782 149.299 118.757C144.408 122.733 120.869 181.119 120.869 181.119L140.434 204.047L182.009 204.352C182.009 204.352 213.19 221.166 232.755 205.269C252.319 189.373 242.232 134.042 230.92 122.119C219.608 110.196 199.434 110.503 199.434 110.503C199.434 110.503 181.092 123.348 173.45 112.337Z" fill="#02CCC0"/>
<path d="M210.744 141.384C210.055 144.568 209.634 147.796 209.333 151.036C209.168 152.657 209.096 154.284 209.003 155.91C208.954 157.538 208.916 159.168 208.938 160.799C209.002 164.059 209.181 167.329 209.741 170.556C210.301 173.783 211.084 176.997 212.579 179.902C211.573 176.804 211.074 173.618 210.714 170.425C210.353 167.231 210.236 164.004 210.194 160.783C210.127 157.559 210.207 154.33 210.308 151.097C210.41 147.864 210.572 144.632 210.744 141.384Z" fill="white"/>
<path d="M153.121 139.244C152.242 143.98 151.31 148.698 150.362 153.408C149.414 158.119 148.395 162.815 147.256 167.471C146.118 172.128 144.879 176.765 143.364 181.304C142.615 183.576 141.745 185.807 140.759 187.987C139.781 190.157 138.62 192.273 137.064 194.117C138.834 192.466 140.135 190.372 141.312 188.262C142.446 186.12 143.438 183.907 144.281 181.636C145.149 179.377 145.887 177.073 146.597 174.762C147.272 172.446 147.899 170.115 148.478 167.768C149.031 165.418 149.56 163.065 150.036 160.7C150.512 158.336 150.946 155.965 151.326 153.585C152.111 148.83 152.722 144.047 153.121 139.244Z" fill="white"/>
<path d="M143.441 190.838C143.564 189.872 150.911 188.791 153.611 188.65C155.658 188.545 169.221 188.092 173.835 187.883L173.496 189.07L173.567 194.308L174.324 197.781C170.272 198.036 160.381 198.424 158.32 198.832C155.571 199.376 150.795 201.451 150.795 201.451C150.795 201.451 148.81 201 151.334 199.912C152.871 199.236 154.25 198.248 155.385 197.01C155.731 196.622 155.357 195.934 155.105 195.997C148.235 197.797 147.528 198.095 147.528 198.095C147.528 198.095 139.454 198.051 147.483 196.236C152.294 195.148 154.019 194.515 154.448 193.976C154.63 193.746 154.303 192.963 154.014 192.945C149.843 192.688 142.36 194.165 144.411 193.197C146.082 192.405 151.347 191.54 153.393 191.213C153.519 191.193 153.723 190.43 153.163 190.384C149.186 190.054 143.327 191.738 143.441 190.838Z" fill="#FFC0BB"/>
<path d="M210.393 180.339C208.707 180.74 206.997 181.034 205.304 181.39C201.896 182.012 198.478 182.548 195.048 183.034C191.616 183.485 188.179 183.902 184.732 184.232C181.285 184.562 177.807 184.866 174.41 185.055L173.952 185.08L173.852 185.477C173.572 186.605 173.362 187.75 173.224 188.905C173.084 190.054 173.016 191.21 173.022 192.368C173.031 193.531 173.132 194.693 173.323 195.841C173.537 196.989 173.877 198.11 174.336 199.185L174.375 199.278L174.45 199.327L178.226 201.861C179.48 202.706 180.745 203.541 182.021 204.366C180.838 203.417 179.644 202.482 178.441 201.56L174.929 198.849C174.564 197.833 174.308 196.781 174.165 195.71C174.028 194.607 173.973 193.494 174.003 192.382C174.045 191.268 174.146 190.157 174.305 189.054C174.445 188.095 174.633 187.144 174.87 186.204C176.499 186.151 178.053 186.045 179.661 185.928C181.398 185.801 183.134 185.663 184.871 185.481C188.332 185.122 191.788 184.691 195.226 184.141C198.664 183.591 202.084 182.915 205.473 182.115C207.16 181.681 208.851 181.268 210.512 180.743C212.188 180.273 213.829 179.687 215.464 179.105C213.755 179.512 212.088 179.983 210.393 180.339Z" fill="white"/>
<path d="M62.8304 151.931H128.352C129.335 151.931 130.295 152.224 131.111 152.772C131.928 153.319 132.562 154.097 132.935 155.006L152.998 203.976H189.223C189.709 203.976 190.176 204.17 190.52 204.514C190.863 204.858 191.057 205.325 191.057 205.811C191.057 206.052 191.009 206.29 190.917 206.513C190.825 206.735 190.69 206.937 190.52 207.107C190.349 207.278 190.147 207.413 189.925 207.505C189.702 207.597 189.464 207.645 189.223 207.645H84.6411C83.6959 207.645 82.7707 207.372 81.977 206.858C81.1834 206.345 80.5552 205.613 80.1681 204.75L59.0752 157.733C58.7941 157.106 58.6744 156.419 58.7269 155.734C58.7794 155.049 59.0024 154.388 59.3757 153.811C59.749 153.234 60.2607 152.76 60.8641 152.432C61.4675 152.104 62.1435 151.931 62.8304 151.931Z" fill="#0003E9"/>
<path d="M157.886 56.8363C157.886 56.8363 151.465 57.0433 158.203 51.6138C164.94 46.1842 183.031 39.8184 194.626 45.9411C194.626 45.9411 196.942 41.0123 200.296 42.1888C203.65 43.3653 198.117 46.7573 198.117 46.7573C198.117 46.7573 202.397 46.6126 203.702 48.7196C204.669 50.2709 202.047 50.3389 200.614 50.2694C203.051 50.6833 212.392 56.5831 207.705 75.4186C206.039 75.0524 196.544 61.2818 196.544 61.2818C196.544 61.2818 174.827 73.3463 176.974 63.7535C176.974 63.7535 154.478 77.7904 157.669 66.1962C157.667 66.1962 148.969 66.8329 157.886 56.8363Z" fill="#9E00E9"/>
<path d="M207.723 75.5314C207.723 75.5314 205.924 74.899 203.991 76.4344C202.058 77.9697 202.271 83.3616 202.271 83.3616C202.271 83.3616 193.039 89.315 194.013 64.1268C195.055 37.3294 201.712 66.2757 201.712 66.2757L207.723 75.5314Z" fill="#9E00E9"/>
<g style="mix-blend-mode:multiply" opacity="0.3">
<path d="M84.5259 51.481H17.2893C16.174 51.481 15.1043 51.924 14.3157 52.7127C13.527 53.5013 13.084 54.5709 13.084 55.6862V83.4329C13.084 84.5482 13.527 85.6179 14.3157 86.4065C15.1043 87.1951 16.174 87.6382 17.2893 87.6382H70.2242C72.3673 90.6308 76.2514 95.9851 76.5943 95.9851C76.9373 95.9851 76.2962 90.9289 75.8606 87.6425H84.5259C85.6412 87.6425 86.7108 87.1995 87.4994 86.4108C88.2881 85.6222 88.7311 84.5526 88.7311 83.4373V55.6862C88.7311 54.5709 88.2881 53.5013 87.4994 52.7127C86.7108 51.924 85.6412 51.481 84.5259 51.481Z" fill="#DAEEF7"/>
</g>
<path d="M81.7452 44.2827H14.5158C13.4005 44.2827 12.3309 44.7258 11.5422 45.5144C10.7536 46.3031 10.3105 47.3727 10.3105 48.488V76.2347C10.3105 77.35 10.7536 78.4196 11.5422 79.2083C12.3309 79.9969 13.4005 80.44 14.5158 80.44H67.4507C69.5925 83.4297 73.4765 88.7839 73.818 88.7839C74.1595 88.7839 73.5213 83.7278 73.0858 80.44H81.7452C82.8605 80.44 83.9301 79.9969 84.7188 79.2083C85.5074 78.4196 85.9505 77.35 85.9505 76.2347V48.488C85.9505 47.3727 85.5074 46.3031 84.7188 45.5144C83.9301 44.7258 82.8605 44.2827 81.7452 44.2827Z" fill="#FF5B7E"/>
<path d="M28.8082 72.0896C34.1791 69.8418 36.7108 63.6657 34.4631 58.2948C32.2153 52.924 26.0391 50.3922 20.6683 52.64C15.2974 54.8878 12.7657 61.0639 15.0135 66.4348C17.2612 71.8056 23.4374 74.3374 28.8082 72.0896Z" fill="white"/>
<path d="M19.253 62.6396C19.253 62.6396 18.2067 58.3504 20.7001 56.7427C23.1934 55.135 25.8503 54.7689 27.6664 55.695C30.1858 56.9771 31.2205 60.4444 30.4159 62.3618L23.7303 60.6831L19.253 62.6396Z" fill="#040744"/>
<path d="M26.4096 67.6748H23.3142V70.7658H26.4096V67.6748Z" fill="#FFC0BB"/>
<path d="M26.4096 69.5271V67.6733H23.3142V69.2492C23.9813 69.6081 24.9682 69.8136 26.4096 69.5271Z" fill="#F99893"/>
<path d="M31.2892 62.1416C31.125 62.0673 30.9456 62.0324 30.7655 62.0397C30.5854 62.047 30.4094 62.0962 30.2517 62.1835C30.2781 61.4533 30.1535 60.7255 29.8858 60.0456C29.6181 59.3657 29.2129 58.7484 28.6957 58.2322C28.1785 57.7161 27.5603 57.3122 26.8798 57.0459C26.1994 56.7796 25.4713 56.6566 24.7411 56.6846C24.0109 56.6566 23.2827 56.7796 22.6022 57.0459C21.9217 57.3122 21.3034 57.716 20.7861 58.2322C20.2687 58.7483 19.8634 59.3656 19.5955 60.0455C19.3276 60.7254 19.2029 61.4532 19.2291 62.1835C19.0714 62.0962 18.8954 62.047 18.7153 62.0397C18.5352 62.0324 18.3558 62.0673 18.1915 62.1416C17.5722 62.4469 17.3797 63.3224 17.7574 64.0952C18.1351 64.8679 18.9513 65.2528 19.5706 64.9432C19.6551 64.9008 19.7335 64.8473 19.8036 64.784C20.1582 67.3048 22.2637 69.1947 24.7368 69.16C27.2084 69.1947 29.314 67.3048 29.6699 64.784C29.7399 64.8469 29.8177 64.9004 29.9015 64.9432C30.5208 65.2485 31.3327 64.8679 31.7161 64.0952C32.0996 63.3224 31.9086 62.4469 31.2892 62.1416Z" fill="#FFC0BB"/>
<path d="M26.767 65.7402C26.631 66.3509 25.932 66.8313 25.0739 66.8574C24.2158 66.8834 23.4821 66.4479 23.3142 65.8444L26.767 65.7402Z" fill="white"/>
<path d="M19.231 62.1832C19.231 62.1832 23.2829 60.9561 25.0556 58.907C25.0556 58.907 24.5535 61.3757 24.1787 61.7693C24.2973 61.8475 28.2305 59.9388 28.7587 58.1762C29.2869 56.4136 24.743 55.7798 24.743 55.7798C24.743 55.7798 23.1831 56.444 23.1049 56.4831C23.0268 56.5222 21.5637 56.6929 21.3959 57.0619C21.1774 57.5467 20.1456 57.5901 20.1456 57.5901L19.4929 58.946L19.0371 60.3729L19.231 62.1832Z" fill="#040744"/>
<path d="M15.9121 56.6021C16.8064 56.9624 17.8396 57.1289 18.9105 56.8004C21.2751 56.0768 22.2113 56.3561 22.5283 56.5341C22.6202 56.59 22.7227 56.626 22.8294 56.64C22.936 56.6539 23.0444 56.6455 23.1476 56.6151C23.3806 56.537 23.5977 56.3257 23.5296 55.7932C23.5296 55.7932 23.6237 53.5473 21.6976 52.2666C19.3196 52.987 17.2712 54.522 15.9121 56.6021Z" fill="#040744"/>
<path d="M20.9968 56.4548C20.98 56.4329 20.9678 56.4078 20.9611 56.3811C20.9545 56.3543 20.9534 56.3265 20.958 56.2993C20.9626 56.2721 20.9729 56.2461 20.988 56.2231C21.0031 56.2 21.0229 56.1804 21.046 56.1653C21.4411 55.9049 22.4569 55.3202 23.6768 55.258C23.704 55.2568 23.7311 55.2612 23.7565 55.2707C23.7819 55.2803 23.8051 55.295 23.8247 55.3138C23.8443 55.3326 23.8599 55.3551 23.8706 55.3801C23.8812 55.4051 23.8867 55.432 23.8867 55.4591C23.8867 55.5104 23.8671 55.5597 23.8318 55.5969C23.7965 55.6341 23.7483 55.6562 23.6971 55.6588C22.5814 55.7167 21.6263 56.2666 21.266 56.5011C21.2237 56.5293 21.1722 56.5403 21.1221 56.5316C21.0721 56.523 21.0272 56.4955 20.9968 56.4548Z" fill="#FEB546"/>
<path d="M51.0448 53.2808H37.7532C37.5238 53.2808 37.3379 53.4667 37.3379 53.6961V54.6975C37.3379 54.9268 37.5238 55.1128 37.7532 55.1128H51.0448C51.2742 55.1128 51.4601 54.9268 51.4601 54.6975V53.6961C51.4601 53.4667 51.2742 53.2808 51.0448 53.2808Z" fill="white"/>
<path d="M46.4619 58.1138H37.7532C37.5238 58.1138 37.3379 58.2997 37.3379 58.5291V59.5305C37.3379 59.7599 37.5238 59.9458 37.7532 59.9458H46.4619C46.6912 59.9458 46.8772 59.7599 46.8772 59.5305V58.5291C46.8772 58.2997 46.6912 58.1138 46.4619 58.1138Z" fill="white"/>
<path d="M59.847 58.1138H48.9388C48.7094 58.1138 48.5234 58.2997 48.5234 58.5291V59.5305C48.5234 59.7599 48.7094 59.9458 48.9388 59.9458H59.847C60.0764 59.9458 60.2623 59.7599 60.2623 59.5305V58.5291C60.2623 58.2997 60.0764 58.1138 59.847 58.1138Z" fill="white"/>
<path d="M77.3162 53.2808H54.2161C53.9867 53.2808 53.8008 53.4667 53.8008 53.6961V54.6975C53.8008 54.9268 53.9867 55.1128 54.2161 55.1128H77.3162C77.5455 55.1128 77.7315 54.9268 77.7315 54.6975V53.6961C77.7315 53.4667 77.5455 53.2808 77.3162 53.2808Z" fill="white"/>
<path d="M77.3169 67.5898H37.7532C37.5238 67.5898 37.3379 67.7758 37.3379 68.0052V69.0066C37.3379 69.2359 37.5238 69.4219 37.7532 69.4219H77.3169C77.5463 69.4219 77.7322 69.2359 77.7322 69.0066V68.0052C77.7322 67.7758 77.5463 67.5898 77.3169 67.5898Z" fill="white"/>
<path d="M57.7898 62.9492H37.7532C37.5238 62.9492 37.3379 63.1352 37.3379 63.3645V64.3659C37.3379 64.5953 37.5238 64.7812 37.7532 64.7812H57.7898C58.0191 64.7812 58.2051 64.5953 58.2051 64.3659V63.3645C58.2051 63.1352 58.0191 62.9492 57.7898 62.9492Z" fill="white"/>
<path d="M77.3163 62.9492H61.6731C61.4438 62.9492 61.2578 63.1352 61.2578 63.3645V64.3659C61.2578 64.5953 61.4438 64.7812 61.6731 64.7812H77.3163C77.5457 64.7812 77.7316 64.5953 77.7316 64.3659V63.3645C77.7316 63.1352 77.5457 62.9492 77.3163 62.9492Z" fill="white"/>
<path d="M100.584 185.441C102.821 184.969 104.112 182.105 103.466 179.044C102.821 175.983 100.484 173.885 98.2463 174.357C96.009 174.828 94.7186 177.692 95.3642 180.753C96.0098 183.814 98.3468 185.912 100.584 185.441Z" fill="white"/>
<path d="M77.4742 14.0406L78.875 24.6044L71.3733 19.1271L48.4121 7.39404L66.1724 9.01335C66.1724 9.01335 75.2196 11.2115 75.7102 11.6543C76.2008 12.0971 77.4742 14.0406 77.4742 14.0406Z" fill="#C12F56"/>
<path d="M85.3378 7.6632L48.4121 7.39404L77.4728 14.042L85.3378 7.6632Z" fill="#FF5B7E"/>
<path d="M65.6022 24.6666L75.279 16.8943L48.4121 7.39404L65.6022 24.6666Z" fill="#FF5B7E"/>
<path d="M123.144 71.1239L122.656 70.4003C123.413 69.8838 124.095 69.2648 124.682 68.561L125.346 69.1211C124.708 69.8874 123.967 70.5614 123.144 71.1239Z" fill="#FEB546"/>
<path d="M128.028 64.0367L127.199 63.7762C127.731 62.0137 128.064 60.1967 128.189 58.3597L129.057 58.4263C128.927 60.3293 128.582 62.2114 128.028 64.0367ZM129.026 52.7493L128.158 52.8376C128.134 52.5988 128.106 52.3601 128.074 52.1227C127.967 51.3036 127.815 50.4911 127.618 49.6887C127.436 48.9478 127.212 48.2025 126.953 47.4718L127.773 47.1823C128.041 47.9406 128.273 48.7134 128.462 49.4818C128.668 50.3137 128.828 51.1562 128.941 52.0055C128.972 52.2443 129 52.4932 129.026 52.745V52.7493ZM124.565 42.5039C123.596 40.9317 122.494 39.4458 121.27 38.0627L121.921 37.4839C123.178 38.9058 124.31 40.4339 125.303 42.0509L124.565 42.5039ZM97.3958 40.4475C96.8039 40.5922 95.296 40.627 94.3279 40.0496C93.5686 39.5792 92.9627 38.8978 92.5842 38.0888L93.3656 37.7067C93.6686 38.3635 94.1577 38.917 94.7722 39.2985C95.4711 39.7139 96.7156 39.7153 97.1874 39.5981C97.2178 39.5923 97.2474 39.5831 97.2757 39.5706L97.3987 39.4895L97.882 40.2131L97.7373 40.3115C97.6314 40.3747 97.5161 40.4207 97.3958 40.4475ZM117.306 34.1816C115.894 32.9847 114.408 31.877 112.858 30.8648L113.334 30.1413C114.917 31.176 116.433 32.3084 117.875 33.5318L117.306 34.1816ZM101.015 35.332L100.164 35.1526C100.276 34.6185 100.333 34.0745 100.335 33.5289C100.335 32.7391 100.237 31.9522 100.045 31.1861C99.9356 30.7445 99.8003 30.3096 99.6402 29.8837L100.453 29.5784C100.626 30.0357 100.771 30.503 100.888 30.9777C101.097 31.8124 101.204 32.6697 101.205 33.5304C101.203 34.1358 101.139 34.7395 101.015 35.332ZM93.3699 32.6549L92.5856 32.2801C93.3743 30.6318 94.8547 29.1891 96.6491 28.3194L96.7677 28.2629L97.1382 29.0502L97.0282 29.1023C95.4075 29.8866 94.0747 31.1817 93.3699 32.6549ZM107.793 28.7564C106.216 28.2745 104.964 27.9822 104.358 27.9533C103.663 27.92 103.026 27.9127 102.414 27.9316L102.388 27.0633C103.024 27.0445 103.682 27.0517 104.4 27.0865C105.324 27.1299 107.081 27.6306 108.046 27.9258L107.793 28.7564ZM96.8198 25.2356C95.6289 23.8436 94.2392 22.6348 92.6956 21.6482L93.1644 20.916C94.7806 21.9481 96.2353 23.2135 97.4811 24.6712L96.8198 25.2356Z" fill="#FEB546"/>
<path d="M87.7065 19.422C86.806 19.1731 85.8863 18.9999 84.957 18.9039L85.0453 18.0356C86.0235 18.136 86.9916 18.318 87.9395 18.5798L87.7065 19.422Z" fill="#FEB546"/>
<path opacity="0.5" d="M47.812 142.382C47.812 142.382 47.4922 145.537 45.0018 145.755C47.4922 145.974 47.812 149.13 47.812 149.13C47.812 149.13 48.1319 145.974 50.6223 145.755C48.1319 145.537 47.812 142.382 47.812 142.382Z" fill="#FF5B7E"/>
<path opacity="0.5" d="M141.553 97.3989C141.553 97.3989 141.043 102.425 137.078 102.772C141.043 103.119 141.553 108.144 141.553 108.144C141.553 108.144 142.062 103.119 146.027 102.772C142.062 102.425 141.553 97.3989 141.553 97.3989Z" fill="#02CCC0"/>
<path opacity="0.5" d="M4.47053 36.7056C4.47053 36.7056 3.96115 41.7313 -0.00390625 42.0787C3.96115 42.426 4.47053 47.4503 4.47053 47.4503C4.47053 47.4503 4.97991 42.426 8.94641 42.0787C4.98425 41.7313 4.47053 36.7056 4.47053 36.7056Z" fill="#02CCC0"/>
<path opacity="0.5" d="M100.344 78.7368C100.344 78.7368 99.9561 83.1881 96.9317 83.4963C99.9561 83.8046 100.344 88.2558 100.344 88.2558C100.344 88.2558 100.733 83.8046 103.756 83.4963C100.733 83.1881 100.344 78.7368 100.344 78.7368Z" fill="#FEB546"/>
<path opacity="0.5" d="M21.8888 13.6519C21.8888 13.6519 21.501 18.1046 18.4766 18.4114C21.501 18.7196 21.8888 23.1723 21.8888 23.1723C21.8888 23.1723 22.2781 18.7196 25.3025 18.4114C22.2781 18.1046 21.8888 13.6519 21.8888 13.6519Z" fill="#FEB546"/>
<path d="M240.215 51.8872C256.114 51.8872 269.002 40.2719 269.002 25.9436C269.002 11.6154 256.114 0 240.215 0C224.316 0 211.428 11.6154 211.428 25.9436C211.428 40.2719 224.316 51.8872 240.215 51.8872Z" fill="#E6F7FF"/>
<path d="M222.505 55.767C222.505 57.6396 220.821 59.1576 218.743 59.1576C216.665 59.1576 214.98 57.6396 214.98 55.767C214.98 53.8945 216.665 52.3779 218.743 52.3779C220.821 52.3779 222.505 53.8945 222.505 55.767Z" fill="#E6F7FF"/>
<path d="M253.245 21.6482C252.636 18.2735 250.31 15.5313 246.772 15.2809C242.332 14.9611 240.587 18.9696 240.269 19.3328C240.065 19.0926 239.146 16.7136 236.651 15.6094C232.562 13.802 227.605 16.6036 227.045 22.57C226.756 25.6624 227.663 28.0111 229.42 30.4755C231.942 34.0136 236.337 37.8311 239.839 40.4127C239.861 40.4356 239.888 40.4537 239.918 40.4661C239.947 40.4784 239.979 40.4848 240.011 40.4848C240.043 40.4848 240.075 40.4784 240.105 40.4661C240.134 40.4537 240.161 40.4356 240.183 40.4127C242.065 38.9946 248.432 34.6084 251.705 29.5088C253.247 27.0912 253.76 24.471 253.245 21.6482Z" fill="#FF5B7E"/>
<path opacity="0.5" d="M15.4744 146C15.4744 146 14.9651 151.026 11 151.373C14.9651 151.72 15.4744 156.745 15.4744 156.745C15.4744 156.745 15.9838 151.72 19.9503 151.373C15.9882 151.026 15.4744 146 15.4744 146Z" fill="#02CCC0"/>
<path opacity="0.5" d="M136.412 1C136.412 1 136.024 5.45273 133 5.75951C136.024 6.06775 136.412 10.5205 136.412 10.5205C136.412 10.5205 136.802 6.06775 139.826 5.75951C136.802 5.45273 136.412 1 136.412 1Z" fill="#FEB546"/>
</g>
<defs>
<clipPath id="clip0_1_1450">
<rect width="269" height="212.11" fill="white"/>
</clipPath>
</defs>
</svg>
