<svg width="390" height="284" viewBox="0 0 390 284" fill="none" xmlns="http://www.w3.org/2000/svg">
<path d="M0 10C0 4.47715 4.47715 0 10 0H380C385.523 0 390 4.47715 390 10V284H0V10Z" fill="#170F58"/>
<path opacity="0.5" d="M237.474 259C237.474 259 236.965 264.026 233 264.373C236.965 264.72 237.474 269.745 237.474 269.745C237.474 269.745 237.984 264.72 241.95 264.373C237.988 264.026 237.474 259 237.474 259Z" fill="#02CCC0"/>
<path opacity="0.5" d="M239.474 14C239.474 14 238.965 19.0258 235 19.3731C238.965 19.7204 239.474 24.7447 239.474 24.7447C239.474 24.7447 239.984 19.7204 243.95 19.3731C239.988 19.0258 239.474 14 239.474 14Z" fill="#02CCC0"/>
<path opacity="0.5" d="M110.412 14C110.412 14 110.024 18.4527 107 18.7595C110.024 19.0677 110.412 23.5205 110.412 23.5205C110.412 23.5205 110.802 19.0677 113.826 18.7595C110.802 18.4527 110.412 14 110.412 14Z" fill="#FEB546"/>
<path opacity="0.5" d="M107.412 255C107.412 255 107.024 259.453 104 259.76C107.024 260.068 107.412 264.52 107.412 264.52C107.412 264.52 107.802 260.068 110.826 259.76C107.802 259.453 107.412 255 107.412 255Z" fill="#FEB546"/>
<g clip-path="url(#clip0_200_2536)">
<path d="M294.5 252.169C305.594 231.207 311.998 206.481 311.998 180C311.998 104.277 259.616 42.8901 194.999 42.8901C130.381 42.8901 77.998 104.277 77.998 180C77.998 206.481 84.4051 231.207 95.4964 252.169H294.5Z" fill="#9EDFF6"/>
<g style="mix-blend-mode:screen" opacity="0.25">
<path d="M278.753 87.1971C273.689 86.4352 268.542 87.0746 263.451 86.5954C258.276 86.0896 253.269 84.4833 248.766 81.8843C247.497 81.1561 246.241 80.3444 244.862 79.9649C243.014 79.4547 241.085 79.7589 239.189 79.8491C235.455 80.0194 231.729 79.3626 228.278 77.9256C227.1 77.4384 225.785 76.6321 225.586 75.1851C225.338 73.3384 227.055 72.0179 228.555 71.3853C230.056 70.7526 231.857 69.9706 232.182 68.14C232.327 67.3176 232.132 66.3902 232.511 65.6754C232.771 65.1895 233.242 64.9244 233.692 64.6969C238.672 62.1812 244.091 61.1972 249.482 60.928C250.664 60.8701 251.882 60.9199 253.116 60.9818C246.705 56.6566 239.852 53.0261 232.673 50.1517C229.253 50.3644 225.825 50.4092 222.389 50.2863C215.203 50.0319 207.477 49.2095 201.34 53.6002C200.543 54.1696 199.74 54.8978 199.477 55.9477C198.83 58.5401 201.655 60.3088 203.889 60.9711C204.242 62.7667 202.218 63.787 200.668 64.1087C195.637 65.1569 190.719 66.6933 185.986 68.6959C182.603 70.1241 178.852 72.4056 178.179 76.546C177.711 79.4588 179.046 82.4685 181.016 84.3287C182.987 86.1889 185.493 87.0705 187.977 87.6345C196.428 89.554 205.169 88.2362 213.74 89.1946C214.884 89.3292 216.078 89.5149 217.009 90.3037C218.48 91.5501 218.875 93.8895 219.904 95.6434C221.949 99.1255 226.045 99.7609 229.647 99.991C237.664 100.504 245.702 100.581 253.727 100.221C255.746 100.131 257.81 100.018 259.763 100.638C261.816 101.293 263.617 102.715 265.519 103.831C270.043 106.487 275.139 107.409 280.14 108.304C285.272 109.223 290.446 110.148 295.62 110C291.648 102.153 286.937 94.7018 281.552 87.7476C280.624 87.5309 279.692 87.3438 278.753 87.1971Z" fill="white"/>
</g>
<g style="mix-blend-mode:screen" opacity="0.25">
<path d="M258.337 132.166C257.55 130.898 256.347 130.088 255.156 129.377C237.644 118.926 216.763 122.555 197.174 120.73C192.159 120.262 187.071 119.384 182.554 116.79C177.277 113.76 172.679 108.383 166.816 107.955C162.695 107.655 157.234 109.18 155.464 104.809C155.028 103.732 155.052 102.498 154.925 101.318C153.128 85.2462 127.126 89.9182 124.589 90.0569L105.942 91.0758C99.6749 99.7197 94.4079 109.046 90.242 118.877C96.0838 118.813 101.926 118.769 107.766 118.703C110.648 118.671 113.582 118.648 116.337 119.636C120.094 120.982 123.239 124.107 126.985 125.494C129.861 126.558 132.937 126.541 135.954 126.513L168.703 126.21C170.764 126.191 172.884 126.184 174.803 127.065C176.688 127.929 178.221 129.574 179.918 130.856C185.539 135.087 192.623 135.155 199.183 136.633C201.265 137.102 203.557 137.931 204.555 140.124C206.214 143.775 203.074 147.955 199.901 149.779C187.176 157.096 171.508 149.997 157.966 154.904C154.345 156.217 150.987 158.357 147.458 159.978C135.882 165.292 123.002 164.823 110.638 163.301C100.174 162.011 89.6672 160.019 79.1884 160.348C78.3904 166.868 77.9912 173.431 77.9932 180C77.9932 182.093 78.0344 184.174 78.117 186.243L95.6557 186.704C106.693 186.996 117.764 187.286 128.768 186.24C134.937 185.653 141.151 184.625 146.875 181.857C150.325 180.189 153.556 177.907 157.105 176.55C163.343 174.166 170.078 174.8 176.631 174.418C186.752 173.821 196.632 170.746 206.423 167.688C221.509 162.977 258.677 155.917 259.631 138.051C259.754 135.998 259.369 133.828 258.337 132.166Z" fill="white"/>
</g>
<path d="M283.412 126.488C283.412 126.488 283.076 130.374 280.459 130.643C283.076 130.912 283.412 134.797 283.412 134.797C283.412 134.797 283.749 130.912 286.365 130.643C283.753 130.374 283.412 126.488 283.412 126.488Z" fill="white"/>
<path d="M162.528 65.873C162.528 65.873 162.299 68.5059 160.525 68.6889C162.299 68.8707 162.528 71.5048 162.528 71.5048C162.528 71.5048 162.756 68.8707 164.53 68.6889C162.756 68.5059 162.528 65.873 162.528 65.873Z" fill="white"/>
<path d="M295.629 183.668C295.629 183.668 295.392 186.393 293.558 186.581C295.392 186.77 295.629 189.493 295.629 189.493C295.629 189.493 295.864 186.77 297.697 186.581C295.865 186.393 295.629 183.668 295.629 183.668Z" fill="white"/>
<path d="M271.908 158.694C273.304 158.694 273.306 156.151 271.908 156.151C270.509 156.151 270.511 158.694 271.908 158.694Z" fill="white"/>
<path d="M246.108 173.877C246.807 173.877 246.807 172.606 246.108 172.606C245.409 172.606 245.409 173.877 246.108 173.877Z" fill="white"/>
<path d="M285.882 146.758C286.58 146.758 286.582 145.486 285.882 145.486C285.182 145.486 285.183 146.758 285.882 146.758Z" fill="white"/>
<path d="M264.669 118.509C265.366 118.509 265.367 117.237 264.669 117.237C263.97 117.237 263.969 118.509 264.669 118.509Z" fill="white"/>
<path d="M150.892 84.6113C151.589 84.6113 151.59 83.3394 150.892 83.3394C150.193 83.3394 150.192 84.6113 150.892 84.6113Z" fill="white"/>
<path d="M171.381 100.783C172.777 100.783 172.779 98.2407 171.381 98.2407C169.982 98.2407 169.982 100.783 171.381 100.783Z" fill="white"/>
<path d="M172.345 81.2204C173.043 81.2204 173.045 79.9497 172.345 79.9497C171.645 79.9497 171.646 81.2204 172.345 81.2204Z" fill="white"/>
<path d="M151.615 68.5084C152.313 68.5084 152.314 67.2378 151.615 67.2378C150.917 67.2378 150.915 68.5084 151.615 68.5084Z" fill="white"/>
<path d="M143.659 68.1905C144.008 68.1905 144.009 67.5552 143.659 67.5552C143.309 67.5552 143.309 68.1905 143.659 68.1905Z" fill="white"/>
<path d="M110.151 122.429C110.5 122.429 110.501 121.793 110.151 121.793C109.801 121.793 109.801 122.429 110.151 122.429Z" fill="white"/>
<path d="M129.919 120.239C130.966 120.239 130.968 118.333 129.919 118.333C128.871 118.333 128.871 120.239 129.919 120.239Z" fill="white"/>
<path d="M90.627 154.668C91.3242 154.668 91.3256 153.397 90.627 153.397C89.9284 153.397 89.9271 154.668 90.627 154.668Z" fill="white"/>
<path d="M260.812 82.8623C262.383 82.8623 262.386 80.002 260.812 80.002C259.239 80.002 259.24 82.8623 260.812 82.8623Z" fill="white"/>
<path d="M233.573 62.0461C234.619 62.0461 234.622 60.1401 233.573 60.1401C232.524 60.1401 232.523 62.0461 233.573 62.0461Z" fill="white"/>
<path d="M209.227 69.3565C209.924 69.3565 209.925 68.0845 209.227 68.0845C208.528 68.0845 208.527 69.3565 209.227 69.3565Z" fill="white"/>
<path d="M251.411 73.9984C251.935 73.9984 251.936 73.0454 251.411 73.0454C250.886 73.0454 250.886 73.9984 251.411 73.9984Z" fill="white"/>
<path d="M272.624 88.9724C273.147 88.9724 273.147 88.0181 272.624 88.0181C272.1 88.0181 272.099 88.9724 272.624 88.9724Z" fill="white"/>
<path d="M252.375 117.502C252.898 117.502 252.9 116.549 252.375 116.549C251.85 116.549 251.851 117.502 252.375 117.502Z" fill="white"/>
<path d="M166.319 119.197C166.843 119.197 166.844 118.244 166.319 118.244C165.794 118.244 165.795 119.197 166.319 119.197Z" fill="white"/>
<path d="M303.358 253.189H85.5023C85.2887 253.189 85.0771 253.147 84.8797 253.065C84.6823 252.984 84.5028 252.864 84.3517 252.713C84.2006 252.562 84.0807 252.382 83.9989 252.185C83.9171 251.988 83.875 251.776 83.875 251.563C83.875 251.349 83.9171 251.137 83.9989 250.94C84.0807 250.743 84.2006 250.563 84.3517 250.412C84.5028 250.261 84.6823 250.142 84.8797 250.06C85.0771 249.978 85.2887 249.936 85.5023 249.937H303.358C303.789 249.937 304.203 250.108 304.508 250.413C304.813 250.718 304.984 251.131 304.984 251.563C304.984 251.994 304.813 252.407 304.508 252.712C304.203 253.017 303.789 253.189 303.358 253.189Z" fill="#7A9AFB"/>
<path d="M138.317 102.94H83.3605C82.9091 102.94 82.4621 103.029 82.045 103.201C81.6279 103.374 81.249 103.627 80.9297 103.946C80.6105 104.265 80.3572 104.644 80.1844 105.061C80.0117 105.478 79.9227 105.925 79.9227 106.376V129.056C79.9226 129.507 80.0113 129.954 80.184 130.371C80.3567 130.788 80.61 131.168 80.9292 131.487C81.2485 131.806 81.6275 132.059 82.0447 132.232C82.4619 132.405 82.909 132.493 83.3605 132.493H126.627C128.377 134.936 131.554 139.312 131.834 139.312C132.114 139.312 131.591 135.18 131.235 132.493H138.317C138.769 132.493 139.216 132.404 139.633 132.232C140.05 132.059 140.429 131.806 140.748 131.486C141.067 131.167 141.32 130.788 141.493 130.371C141.665 129.954 141.754 129.507 141.754 129.056V106.376C141.754 105.465 141.392 104.591 140.747 103.946C140.103 103.302 139.229 102.94 138.317 102.94Z" fill="#001989"/>
<path d="M100.335 117.717C100.335 119.42 99.8294 121.086 98.8828 122.503C97.9362 123.919 96.5908 125.023 95.0167 125.675C93.4426 126.327 91.7105 126.498 90.0394 126.166C88.3684 125.833 86.8334 125.013 85.6286 123.808C84.4239 122.603 83.6034 121.068 83.271 119.397C82.9386 117.726 83.1092 115.994 83.7612 114.42C84.4132 112.846 85.5174 111.5 86.934 110.554C88.3507 109.607 90.0162 109.102 91.72 109.102C94.0048 109.102 96.1959 110.01 97.8114 111.625C99.427 113.241 100.335 115.432 100.335 117.717Z" fill="white"/>
<path d="M112.847 110.293H102.728C102.335 110.293 102.016 110.612 102.016 111.005V111.078C102.016 111.471 102.335 111.79 102.728 111.79H112.847C113.24 111.79 113.559 111.471 113.559 111.078V111.005C113.559 110.612 113.24 110.293 112.847 110.293Z" fill="white"/>
<path d="M109.101 114.244H102.728C102.335 114.244 102.016 114.563 102.016 114.956V115.029C102.016 115.422 102.335 115.741 102.728 115.741H109.101C109.494 115.741 109.813 115.422 109.813 115.029V114.956C109.813 114.563 109.494 114.244 109.101 114.244Z" fill="white"/>
<path d="M120.042 114.244H111.87C111.477 114.244 111.158 114.563 111.158 114.956V115.029C111.158 115.422 111.477 115.741 111.87 115.741H120.042C120.435 115.741 120.754 115.422 120.754 115.029V114.956C120.754 114.563 120.435 114.244 120.042 114.244Z" fill="white"/>
<path d="M134.322 114.244H122.811C122.417 114.244 122.099 114.563 122.099 114.956V115.029C122.099 115.422 122.417 115.741 122.811 115.741H134.322C134.715 115.741 135.034 115.422 135.034 115.029V114.956C135.034 114.563 134.715 114.244 134.322 114.244Z" fill="white"/>
<path d="M134.319 110.293H116.183C115.789 110.293 115.471 110.612 115.471 111.005V111.078C115.471 111.471 115.789 111.79 116.183 111.79H134.319C134.712 111.79 135.031 111.471 135.031 111.078V111.005C135.031 110.612 134.712 110.293 134.319 110.293Z" fill="white"/>
<path d="M134.32 121.989H102.728C102.335 121.989 102.016 122.308 102.016 122.701V122.774C102.016 123.167 102.335 123.486 102.728 123.486H134.32C134.714 123.486 135.032 123.167 135.032 122.774V122.701C135.032 122.308 134.714 121.989 134.32 121.989Z" fill="white"/>
<path d="M118.361 118.196H102.728C102.335 118.196 102.016 118.515 102.016 118.908V118.981C102.016 119.374 102.335 119.693 102.728 119.693H118.361C118.754 119.693 119.073 119.374 119.073 118.981V118.908C119.073 118.515 118.754 118.196 118.361 118.196Z" fill="white"/>
<path d="M134.322 118.196H122.28C121.887 118.196 121.568 118.515 121.568 118.908V118.981C121.568 119.374 121.887 119.693 122.28 119.693H134.322C134.715 119.693 135.034 119.374 135.034 118.981V118.908C135.034 118.515 134.715 118.196 134.322 118.196Z" fill="white"/>
<path d="M89.3574 119.82L89.4342 124.411C89.6589 125.142 93.1357 126.107 93.1774 125.321L93.2151 120.193L89.3574 119.82Z" fill="#F98548"/>
<g style="mix-blend-mode:multiply" opacity="0.5">
<path d="M92.8207 122.975C92.9497 122.957 93.0756 122.921 93.1949 122.869L93.2151 120.193L89.3574 119.82L89.387 121.57C90.3198 122.63 91.8274 123.097 92.8207 122.975Z" fill="#FF916C"/>
</g>
<path d="M92.1089 112.961C92.1089 112.961 93.6932 113.334 94.1804 113.852C94.6677 114.37 94.8305 116.889 94.6878 118.28C94.4631 120.454 93.8143 122.1 92.4413 122.273C91.0684 122.445 88.6294 121.379 88.5231 119.061C88.4167 116.743 87.177 114.466 89.5097 113.657C91.8423 112.848 92.1089 112.961 92.1089 112.961Z" fill="#F99F70"/>
<path d="M96.0629 111.876C95.4437 110.126 92.8782 109.959 92.2321 110.68C91.586 111.402 90.8187 110.622 89.7473 110.805C89.3731 110.869 88.8791 111.19 88.4295 111.641C88.2826 111.793 88.0902 111.892 87.8817 111.924C87.2195 112.014 86.6178 112.664 86.5667 113.611C86.5415 114.003 86.6308 114.395 86.8237 114.739C86.9174 114.903 86.9598 115.092 86.9454 115.281C86.931 115.47 86.8605 115.651 86.743 115.799C86.3284 116.33 87.1333 117.517 87.5344 117.943C87.9356 118.37 87.3998 118.933 87.5344 119.713C87.669 120.494 89.2506 120.914 89.2506 120.914C89.2506 120.855 87.8858 118.1 89.0595 115.973C89.1188 115.873 89.2072 115.794 89.3128 115.746C89.4184 115.698 89.5362 115.683 89.6504 115.704C90.5711 115.838 91.6116 115.612 91.8929 115.137C91.9689 115.019 92.0812 114.929 92.2127 114.881C92.3443 114.832 92.4881 114.828 92.6224 114.868C93.4718 115.099 93.9052 115.173 94.4826 115.059C97.0926 114.553 96.4613 112.999 96.0629 111.876Z" fill="#000444"/>
<path d="M88.8298 118.18C88.8298 118.18 88.64 117.379 88.1662 117.554C87.6924 117.729 88.1662 119.631 88.8392 119.669C89.5122 119.707 88.8298 118.18 88.8298 118.18Z" fill="#F99F70"/>
<path d="M240.41 119.85H296.313C297.241 119.85 298.131 120.219 298.787 120.875C299.444 121.531 299.813 122.422 299.813 123.35V146.419C299.813 147.347 299.444 148.238 298.787 148.894C298.131 149.55 297.241 149.919 296.313 149.919H252.298C250.517 152.404 247.287 156.855 247.003 156.855C246.719 156.855 247.249 152.651 247.611 149.919H240.41C239.482 149.919 238.591 149.55 237.935 148.894C237.279 148.238 236.91 147.347 236.91 146.419V123.347C236.911 122.419 237.28 121.53 237.936 120.874C238.592 120.218 239.482 119.85 240.41 119.85Z" fill="#FF5136"/>
<path d="M279.05 134.715C279.017 136.463 279.507 138.18 280.457 139.647C281.408 141.114 282.775 142.264 284.383 142.948C285.991 143.632 287.767 143.82 289.483 143.487C291.199 143.154 292.776 142.316 294.012 141.08C295.248 139.844 296.086 138.267 296.419 136.551C296.752 134.835 296.564 133.059 295.88 131.451C295.196 129.843 294.046 128.475 292.579 127.525C291.113 126.575 289.395 126.085 287.648 126.118C285.381 126.161 283.219 127.081 281.616 128.684C280.013 130.287 279.093 132.449 279.05 134.715Z" fill="white"/>
<path d="M266.321 128.855H276.616C277.016 128.855 277.34 128.531 277.34 128.131V128.055C277.34 127.655 277.016 127.331 276.616 127.331H266.321C265.921 127.331 265.597 127.655 265.597 128.055V128.131C265.597 128.531 265.921 128.855 266.321 128.855Z" fill="white"/>
<path d="M270.132 132.874H276.616C277.016 132.874 277.34 132.55 277.34 132.15V132.074C277.34 131.675 277.016 131.35 276.616 131.35H270.132C269.732 131.35 269.408 131.675 269.408 132.074V132.15C269.408 132.55 269.732 132.874 270.132 132.874Z" fill="white"/>
<path d="M259.004 132.874H267.316C267.716 132.874 268.04 132.55 268.04 132.15V132.074C268.04 131.675 267.716 131.35 267.316 131.35H259.004C258.604 131.35 258.28 131.675 258.28 132.074V132.15C258.28 132.55 258.604 132.874 259.004 132.874Z" fill="white"/>
<path d="M244.481 132.874H256.19C256.59 132.874 256.914 132.55 256.914 132.15V132.074C256.914 131.675 256.59 131.35 256.19 131.35H244.481C244.081 131.35 243.757 131.675 243.757 132.074V132.15C243.757 132.55 244.081 132.874 244.481 132.874Z" fill="white"/>
<path d="M244.479 128.855H262.927C263.327 128.855 263.651 128.531 263.651 128.131V128.055C263.651 127.655 263.327 127.331 262.927 127.331H244.479C244.079 127.331 243.754 127.655 243.754 128.055V128.131C243.754 128.531 244.079 128.855 244.479 128.855Z" fill="white"/>
<path d="M244.479 140.751H276.616C277.016 140.751 277.34 140.427 277.34 140.027V139.951C277.34 139.552 277.016 139.227 276.616 139.227H244.479C244.079 139.227 243.755 139.552 243.755 139.951V140.027C243.755 140.427 244.079 140.751 244.479 140.751Z" fill="white"/>
<path d="M260.714 136.892H276.616C277.016 136.892 277.34 136.567 277.34 136.167V136.092C277.34 135.692 277.016 135.368 276.616 135.368H260.714C260.314 135.368 259.99 135.692 259.99 136.092V136.167C259.99 136.567 260.314 136.892 260.714 136.892Z" fill="white"/>
<path d="M244.478 136.892H256.727C257.127 136.892 257.451 136.567 257.451 136.167V136.092C257.451 135.692 257.127 135.368 256.727 135.368H244.478C244.078 135.368 243.754 135.692 243.754 136.092V136.167C243.754 136.567 244.078 136.892 244.478 136.892Z" fill="white"/>
<mask id="mask0_200_2536" style="mask-type:luminance" maskUnits="userSpaceOnUse" x="279" y="126" width="18" height="18">
<path d="M279.052 134.716C279.019 136.463 279.509 138.181 280.459 139.648C281.41 141.115 282.777 142.264 284.385 142.948C285.993 143.633 287.769 143.82 289.485 143.487C291.201 143.155 292.778 142.316 294.014 141.081C295.25 139.845 296.088 138.268 296.421 136.552C296.754 134.836 296.566 133.06 295.882 131.451C295.198 129.843 294.048 128.476 292.581 127.526C291.114 126.575 289.397 126.086 287.649 126.119C285.383 126.162 283.221 127.081 281.618 128.684C280.015 130.287 279.095 132.449 279.052 134.716Z" fill="white"/>
</mask>
<g mask="url(#mask0_200_2536)">
<path d="M286.6 128.65C286.6 128.65 282.676 127.642 282.208 131.819C281.739 135.996 283.865 136.642 282.712 138.658C281.56 140.674 280.264 139.161 280.012 144.885C279.761 150.608 294.051 153.848 296.319 149.565C298.587 145.282 300.784 147.203 302.654 146.398C306.019 144.948 305.382 137.593 300.882 137.989C296.383 138.385 294.247 138.616 294.786 135.232C295.326 131.849 293.783 128.977 291.732 127.753C289.681 126.528 287.068 126.526 286.6 128.65Z" fill="#20110C"/>
<path d="M288.359 135.787C288.359 135.787 288.18 138.626 288.359 139.273C288.41 139.459 289.192 140.203 289.321 140.318C289.994 140.915 287.158 146.397 286.504 146.169C285.799 145.921 284.527 141.799 284.119 140.462C284.059 140.272 284.077 140.066 284.169 139.889C284.261 139.713 284.419 139.58 284.609 139.519C285.271 139.327 285.505 134.112 285.505 134.112L288.359 135.787Z" fill="#F26E5A"/>
<g style="mix-blend-mode:multiply" opacity="0.65">
<path d="M285.95 133.963C285.95 133.963 285.95 134.097 285.931 134.31C285.905 134.747 285.964 135.186 286.103 135.601C286.759 137.515 287.88 138.621 288.755 138.864C288.656 137.922 288.799 135.633 288.799 135.633L285.95 133.963Z" fill="#F26E5A"/>
</g>
<path d="M285.563 131.918C285.563 131.918 286.072 129.882 287.621 129.308C289.17 128.735 290.565 129.223 291.053 131.24C291.542 133.256 290.699 136.418 289.744 137.372C288.788 138.327 285.574 136.618 285.563 131.918Z" fill="#FC7E72"/>
<path d="M286.009 132.576C286.009 132.576 285.266 131.365 284.778 132.046C284.291 132.727 284.672 134.38 285.563 134.486C286.454 134.592 286.009 132.576 286.009 132.576Z" fill="#FC7E72"/>
</g>
<path d="M94.8812 31H162.247C163.297 31 164.303 31.4169 165.045 32.1591C165.787 32.9012 166.204 33.9078 166.204 34.9573V63.0247C166.204 64.0742 165.787 65.0808 165.045 65.8229C164.303 66.565 163.297 66.982 162.247 66.982H155.248C155.652 70.0778 156.19 74.5036 155.894 74.5036C155.598 74.5036 152.188 69.8409 150.136 66.982H94.8812C93.8316 66.982 92.825 66.565 92.0829 65.8229C91.3408 65.0808 90.9238 64.0742 90.9238 63.0247V34.9573C90.9238 33.9078 91.3408 32.9012 92.0829 32.1591C92.825 31.4169 93.8316 31 94.8812 31Z" fill="#FBB03B"/>
<path d="M104.686 58.9458C110.151 58.5569 114.267 53.8108 113.878 48.3451C113.489 42.8794 108.743 38.7638 103.277 39.1527C97.8117 39.5417 93.6961 44.2878 94.085 49.7535C94.474 55.2192 99.2201 59.3347 104.686 58.9458Z" fill="white"/>
<path d="M155.973 39.0884H118.124C117.672 39.0884 117.305 39.4554 117.305 39.9081V39.9929C117.305 40.4456 117.672 40.8126 118.124 40.8126H155.973C156.426 40.8126 156.793 40.4456 156.793 39.9929V39.9081C156.793 39.4554 156.426 39.0884 155.973 39.0884Z" fill="white"/>
<path d="M125.81 43.6377H118.124C117.672 43.6377 117.305 44.0047 117.305 44.4574V44.5422C117.305 44.9949 117.672 45.362 118.124 45.362H125.81C126.263 45.362 126.63 44.9949 126.63 44.5422V44.4574C126.63 44.0047 126.263 43.6377 125.81 43.6377Z" fill="white"/>
<path d="M155.973 43.6377H130.969C130.516 43.6377 130.149 44.0047 130.149 44.4574V44.5422C130.149 44.9949 130.516 45.362 130.969 45.362H155.973C156.426 45.362 156.793 44.9949 156.793 44.5422V44.4574C156.793 44.0047 156.426 43.6377 155.973 43.6377Z" fill="white"/>
<path d="M136.885 48.1875H118.124C117.672 48.1875 117.305 48.5545 117.305 49.0072V49.092C117.305 49.5448 117.672 49.9118 118.124 49.9118H136.885C137.338 49.9118 137.705 49.5448 137.705 49.092V49.0072C137.705 48.5545 137.338 48.1875 136.885 48.1875Z" fill="white"/>
<path d="M155.973 48.1875H141.507C141.055 48.1875 140.688 48.5545 140.688 49.0072V49.092C140.688 49.5448 141.055 49.9118 141.507 49.9118H155.973C156.426 49.9118 156.793 49.5448 156.793 49.092V49.0072C156.793 48.5545 156.426 48.1875 155.973 48.1875Z" fill="white"/>
<path d="M155.973 52.7368H118.124C117.672 52.7368 117.305 53.1038 117.305 53.5565V53.6413C117.305 54.0941 117.672 54.4611 118.124 54.4611H155.973C156.426 54.4611 156.793 54.0941 156.793 53.6413V53.5565C156.793 53.1038 156.426 52.7368 155.973 52.7368Z" fill="white"/>
<path d="M103.226 40.5758C103.226 40.5758 101.178 40.7508 99.6614 43.4186C98.1444 46.0864 95.9221 50.356 96.3393 51.7088C97.1348 54.2851 99.555 52.8987 99.555 52.8987C99.9736 53.378 100.52 53.7287 101.129 53.9103C101.739 54.0918 102.388 54.0967 103.001 53.9243C105.185 53.3455 106.215 52.2916 106.215 52.2916C106.215 52.2916 108.599 53.0454 109.054 50.6347C109.509 48.2239 108.265 43.07 106.736 41.6593C105.207 40.2487 103.226 40.5758 103.226 40.5758Z" fill="#313642"/>
<g style="mix-blend-mode:multiply" opacity="0.44">
<path d="M107.199 46.3886C106.754 44.1004 105.519 39.6235 100.366 44.2242C100.366 44.2242 98.3215 47.2231 98.4278 49.8331C98.5342 52.443 100.759 52.1927 102.023 53.0137C102.402 53.2624 102.834 53.4207 103.284 53.4762C103.734 53.5318 104.191 53.4831 104.62 53.3341C104.816 53.2412 104.995 53.1457 105.158 53.0541C105.229 53.0018 105.295 52.9432 105.356 52.8791C105.927 52.2627 107.641 48.6715 107.199 46.3886Z" fill="#313642"/>
</g>
<path d="M105.48 49.8286C105.48 49.8286 105.778 53.0322 106.521 53.6083C106.697 53.7358 106.883 53.8501 107.076 53.9501C107.076 53.9501 106.841 57.5534 105.017 57.9599C103.193 58.3664 101.511 54.2234 101.511 54.2234C101.649 54.2129 101.784 54.1736 101.906 54.1079C102.028 54.0422 102.135 53.9517 102.22 53.8422C102.305 53.7326 102.366 53.6064 102.4 53.4718C102.433 53.3372 102.438 53.197 102.414 53.0604L101.861 49.9148L105.48 49.8286Z" fill="#FF855C"/>
<g style="mix-blend-mode:multiply" opacity="0.5">
<path d="M105.481 49.8286C105.481 49.8286 105.602 50.5312 105.796 51.3187C104.827 53.0308 103.019 53.0591 102.265 52.2097L101.861 49.9215L105.481 49.8286Z" fill="#FF916C"/>
</g>
<path d="M101.217 43.9689C101.217 43.9689 100.771 45.0902 100.864 47.3865C100.957 49.6828 101.562 50.9777 102.664 51.6938C103.766 52.4099 104.989 52.0249 105.573 51.5767C106.628 50.769 107.57 47.8764 107.181 45.8682C106.792 43.8599 105.714 39.9228 101.217 43.9689Z" fill="#F99662"/>
<path d="M102.747 41.5921C102.639 41.5921 101.253 42.2046 100.638 43.6704C100.023 45.1362 100.772 47.0691 100.772 47.0691C100.772 47.0691 101.231 45.7621 101.661 45.6369C102.09 45.5118 103.763 45.9815 104.395 45.2964C105.026 44.6113 105.782 43.2168 105.782 43.2168C105.782 43.2168 105.692 44.9599 105.216 45.4781C104.739 45.9963 106.748 46.1982 107.204 45.5656C107.66 44.933 107.994 47.45 107.994 47.45C107.994 47.45 108.107 44.194 106.493 42.5882C104.879 40.9824 102.747 41.5921 102.747 41.5921Z" fill="#313642"/>
<path d="M296.056 37.8809H228.69C227.64 37.8809 226.634 38.2978 225.891 39.0399C225.149 39.7821 224.732 40.7886 224.732 41.8382V69.9055C224.732 70.9551 225.149 71.9616 225.891 72.7038C226.634 73.4459 227.64 73.8628 228.69 73.8628H235.689C235.285 76.9587 234.747 81.3844 235.043 81.3844C235.339 81.3844 238.749 76.7218 240.801 73.8628H296.056C297.105 73.8628 298.112 73.4459 298.854 72.7038C299.596 71.9616 300.013 70.9551 300.013 69.9055V41.8382C300.013 40.7886 299.596 39.7821 298.854 39.0399C298.112 38.2978 297.105 37.8809 296.056 37.8809Z" fill="#0099A0"/>
<path d="M239.11 65.8252C244.54 65.0853 248.341 60.0842 247.601 54.6548C246.862 49.2255 241.86 45.4239 236.431 46.1638C231.002 46.9036 227.2 51.9048 227.94 57.3341C228.68 62.7635 233.681 66.5651 239.11 65.8252Z" fill="white"/>
<path d="M289.779 45.9692H251.93C251.477 45.9692 251.11 46.3362 251.11 46.789V46.8738C251.11 47.3265 251.477 47.6935 251.93 47.6935H289.779C290.232 47.6935 290.599 47.3265 290.599 46.8738V46.789C290.599 46.3362 290.232 45.9692 289.779 45.9692Z" fill="white"/>
<path d="M259.616 50.5186H251.93C251.477 50.5186 251.11 50.8856 251.11 51.3383V51.4231C251.11 51.8758 251.477 52.2428 251.93 52.2428H259.616C260.069 52.2428 260.436 51.8758 260.436 51.4231V51.3383C260.436 50.8856 260.069 50.5186 259.616 50.5186Z" fill="white"/>
<path d="M289.78 50.5186H264.776C264.323 50.5186 263.956 50.8856 263.956 51.3383V51.4231C263.956 51.8758 264.323 52.2428 264.776 52.2428H289.78C290.232 52.2428 290.599 51.8758 290.599 51.4231V51.3383C290.599 50.8856 290.232 50.5186 289.78 50.5186Z" fill="white"/>
<path d="M270.691 55.0684H251.93C251.477 55.0684 251.11 55.4354 251.11 55.8881V55.9729C251.11 56.4256 251.477 56.7926 251.93 56.7926H270.691C271.144 56.7926 271.511 56.4256 271.511 55.9729V55.8881C271.511 55.4354 271.144 55.0684 270.691 55.0684Z" fill="white"/>
<path d="M289.779 55.0684H275.313C274.86 55.0684 274.493 55.4354 274.493 55.8881V55.9729C274.493 56.4256 274.86 56.7926 275.313 56.7926H289.779C290.232 56.7926 290.599 56.4256 290.599 55.9729V55.8881C290.599 55.4354 290.232 55.0684 289.779 55.0684Z" fill="white"/>
<path d="M289.779 59.6167H251.93C251.477 59.6167 251.11 59.9837 251.11 60.4364V60.5212C251.11 60.974 251.477 61.341 251.93 61.341H289.779C290.232 61.341 290.599 60.974 290.599 60.5212V60.4364C290.599 59.9837 290.232 59.6167 289.779 59.6167Z" fill="white"/>
<path d="M214.97 197.737C214.97 197.737 216.601 248.063 218.581 251.756H202.158C202.158 251.756 211.014 247.832 210.369 244.947C210.369 244.947 200.757 202.008 202.158 196.355C203.559 190.702 214.97 197.737 214.97 197.737Z" fill="#DC7A63"/>
<path d="M190.742 198.891L190.851 199.43C191.87 204.438 199.713 243.128 199.713 246.798V250.721L183.402 250.953C183.402 250.953 193.655 246.915 193.655 245.067C193.655 243.218 177.227 204.205 178.159 198.203C179.092 192.201 190.742 198.891 190.742 198.891Z" fill="#DC7A63"/>
<g style="mix-blend-mode:multiply" opacity="0.65">
<path d="M190.742 198.891C190.742 198.891 179.091 192.198 178.159 198.199C177.955 199.515 178.583 202.413 179.691 206.158C183.406 206.562 187.715 206.327 192.164 205.926C191.532 202.777 191.054 200.427 190.851 199.426L190.742 198.891Z" fill="#F26E5A"/>
</g>
<g style="mix-blend-mode:multiply" opacity="0.65">
<path d="M214.969 197.738C214.969 197.738 203.55 190.697 202.152 196.353C201.838 197.625 202.082 200.787 202.647 204.923C204.89 204.741 207.076 204.619 209.143 204.619C211.168 204.632 213.191 204.512 215.2 204.262C215.056 200.275 214.969 197.738 214.969 197.738Z" fill="#F26E5A"/>
</g>
<path d="M188.541 130.697C184.829 146.198 165.884 196.979 173.735 200.624C181.946 204.433 197.436 200.624 209.145 200.624C220.854 200.624 223.25 197.466 223.774 196.946C224.297 196.427 222.002 152.025 210.64 129.958L188.541 130.697Z" fill="#0099A0"/>
<path d="M189.731 247.713C189.731 247.713 181.902 249.993 181.902 250.943C181.902 251.894 198.437 251.751 200.261 250.712C201.179 250.191 200.184 246.616 199.884 246.339C198.716 245.262 195.98 248.395 193.834 248.395C191.687 248.395 190.782 247.395 189.731 247.713Z" fill="#09434C"/>
<path d="M207.827 248.276C207.827 248.276 200.775 250.995 200.775 251.95C200.775 252.906 216.793 252.78 218.857 251.985C219.636 251.687 218.578 248.684 218.578 248.684C218.266 247.876 218.029 247.793 217.536 248.011C216.275 248.567 214.141 249.402 212.708 249.402C210.561 249.405 208.88 247.958 207.827 248.276Z" fill="#09434C"/>
<path d="M194.903 56.7129C194.903 56.7129 201.855 56.2055 204.636 61.0619C207.417 65.9184 211.807 66.4272 214.369 68.9658C216.93 71.5044 213.198 75.8534 216.119 78.7528C219.04 81.6521 220.174 80.7059 223.218 86.6566C227.894 95.8015 219.072 108.433 206.386 95.8635C199.44 88.9839 181.888 86.3565 184.137 68.7962C185.105 61.2733 184.148 57.6551 194.903 56.7129Z" fill="#020F45"/>
<path d="M196.517 88.6893C197.038 87.7848 209.228 95.0277 209.228 95.0277C212.779 91.3935 211.307 73.9705 203.091 70.8719C197.034 68.5837 203.001 61.2613 201.398 60.1603C197.293 57.3457 193.514 86.9395 196.517 88.6893Z" fill="#02092A"/>
<path d="M185.309 111.688C185.309 111.688 185.838 125.933 183.571 127.302C181.304 128.671 170.057 115.641 167.635 109.564C165.214 103.486 166.522 101.13 166.991 100.656C166.991 100.656 177.934 116 178.297 115.628C178.661 115.255 179.152 110.143 179.152 110.143L185.309 111.688Z" fill="#BC5A4A"/>
<path d="M185.571 91.7773C185.571 91.7773 183.759 92.1125 181.481 95.8652C178.789 100.298 177.614 112.615 177.614 112.615C177.614 112.615 181.399 115.457 185.571 113.089C189.742 110.721 185.571 91.7773 185.571 91.7773Z" fill="#E08128"/>
<path d="M199.7 87.46C199.7 87.46 211.181 86.6147 214.697 94.0811C218.213 101.547 217.509 124.157 214.697 128.774C211.885 133.39 193.725 137.415 183.878 130.667C183.878 130.667 180.244 96.1015 185.87 91.4846C191.497 86.8677 199.7 87.46 199.7 87.46Z" fill="#FBB03B"/>
<path d="M191.602 133.72C189.314 126.299 191.808 102.804 191.92 101.765C191.923 101.736 191.931 101.707 191.945 101.681C191.959 101.655 191.978 101.632 192.001 101.613C192.024 101.594 192.05 101.58 192.079 101.572C192.107 101.564 192.137 101.561 192.166 101.564C192.196 101.568 192.224 101.577 192.25 101.591C192.276 101.606 192.299 101.625 192.317 101.648C192.335 101.671 192.349 101.698 192.357 101.726C192.365 101.754 192.368 101.784 192.364 101.813C192.337 102.071 189.717 126.778 192.102 133.81C191.935 133.782 191.768 133.751 191.602 133.72Z" fill="white"/>
<path d="M192.957 104.26C192.958 104.343 192.983 104.423 193.03 104.492C193.076 104.56 193.142 104.613 193.219 104.644C193.295 104.675 193.379 104.683 193.46 104.666C193.541 104.649 193.615 104.609 193.673 104.55C193.732 104.491 193.771 104.417 193.787 104.335C193.802 104.254 193.794 104.17 193.762 104.094C193.73 104.018 193.676 103.953 193.607 103.907C193.538 103.861 193.457 103.837 193.374 103.837C193.319 103.838 193.265 103.849 193.214 103.87C193.163 103.892 193.117 103.923 193.078 103.962C193.039 104.002 193.009 104.048 192.988 104.099C192.967 104.15 192.957 104.205 192.957 104.26Z" fill="white"/>
<path d="M192.256 110.42C192.257 110.502 192.282 110.583 192.328 110.651C192.375 110.72 192.441 110.773 192.517 110.804C192.594 110.835 192.678 110.842 192.759 110.826C192.84 110.809 192.914 110.769 192.972 110.71C193.03 110.651 193.07 110.576 193.085 110.495C193.101 110.414 193.092 110.33 193.06 110.254C193.028 110.177 192.975 110.112 192.906 110.067C192.837 110.021 192.756 109.997 192.673 109.997C192.618 109.997 192.563 110.009 192.513 110.03C192.462 110.051 192.416 110.083 192.377 110.122C192.338 110.161 192.308 110.208 192.287 110.259C192.266 110.31 192.256 110.365 192.256 110.42Z" fill="white"/>
<path d="M191.837 116.377C191.838 116.46 191.863 116.54 191.909 116.609C191.956 116.677 192.022 116.73 192.098 116.761C192.175 116.792 192.259 116.8 192.34 116.783C192.421 116.767 192.495 116.726 192.553 116.668C192.611 116.609 192.651 116.534 192.666 116.453C192.682 116.372 192.674 116.288 192.642 116.212C192.61 116.136 192.556 116.071 192.488 116.025C192.419 115.979 192.338 115.955 192.256 115.955C192.144 115.955 192.037 116 191.959 116.079C191.88 116.159 191.837 116.266 191.837 116.377Z" fill="#D9E5FF"/>
<path d="M191.722 124.879C191.722 124.961 191.748 125.042 191.794 125.11C191.841 125.178 191.906 125.232 191.983 125.263C192.059 125.294 192.143 125.301 192.224 125.285C192.305 125.268 192.38 125.228 192.438 125.169C192.496 125.111 192.535 125.036 192.551 124.955C192.567 124.874 192.558 124.79 192.527 124.714C192.495 124.637 192.441 124.572 192.372 124.526C192.304 124.481 192.223 124.456 192.14 124.456C192.085 124.456 192.03 124.467 191.979 124.489C191.928 124.51 191.882 124.541 191.843 124.58C191.804 124.62 191.774 124.666 191.753 124.717C191.732 124.769 191.721 124.823 191.722 124.879Z" fill="white"/>
<path d="M173.828 97.2707L179.482 109.116C179.539 109.234 179.565 109.364 179.558 109.495C179.551 109.626 179.511 109.753 179.442 109.864C179.373 109.975 179.276 110.068 179.162 110.132C179.048 110.196 178.919 110.23 178.788 110.232H172.357C172.1 110.232 171.848 110.159 171.631 110.02C171.414 109.882 171.242 109.684 171.134 109.451L165.852 98.2372C165.795 98.1171 165.769 97.9849 165.775 97.8522C165.782 97.7195 165.821 97.5904 165.889 97.4765C165.957 97.3625 166.053 97.2672 166.167 97.1989C166.281 97.1306 166.41 97.0915 166.542 97.085L173.106 96.8346C173.256 96.8285 173.404 96.8666 173.532 96.9441C173.661 97.0216 173.764 97.1352 173.828 97.2707Z" fill="#020F45"/>
<path d="M178.965 109.842L173.312 97.997C173.248 97.8611 173.145 97.747 173.017 97.6688C172.889 97.5906 172.741 97.5516 172.59 97.5568L166.026 97.8072C165.94 97.8107 165.855 97.8279 165.774 97.8583C165.781 97.6554 165.863 97.4624 166.006 97.3177C166.148 97.173 166.34 97.0873 166.543 97.0776L173.106 96.8272C173.256 96.8214 173.405 96.8598 173.533 96.9379C173.662 97.0159 173.765 97.13 173.829 97.2661L179.482 109.111C179.53 109.21 179.557 109.317 179.56 109.427C179.564 109.537 179.545 109.646 179.503 109.747C179.462 109.849 179.399 109.941 179.32 110.017C179.241 110.093 179.147 110.151 179.043 110.188C179.044 110.068 179.017 109.95 178.965 109.842Z" fill="#3E519C"/>
<path d="M215.692 114.031C215.692 114.031 212.001 130.255 206.787 130.255C201.572 130.255 189.505 113.977 185.991 111.254C185.991 111.254 184.055 110.043 182.518 107.437C180.981 104.831 177.941 104.206 177.262 103.533C176.582 102.86 177.204 102.498 180.25 102.735C183.296 102.972 182.269 100.427 185.112 101.108C187.955 101.789 191.088 111.11 192.904 111.584C194.72 112.058 204.547 120.033 205.153 119.426C205.758 118.819 207.026 110.846 207.026 110.846L215.692 114.031Z" fill="#C97B6E"/>
<g style="mix-blend-mode:multiply" opacity="0.46">
<path d="M206.342 114.736C206.721 112.728 207.015 110.842 207.015 110.842L215.686 114.031C215.686 114.031 215.217 116.09 214.378 118.742C212.057 118.463 208.703 117.55 206.342 114.736Z" fill="#C97B6E"/>
</g>
<path d="M170.587 108.285C170.587 108.285 173.729 108.729 173.729 107.959C173.729 107.189 174.431 105.926 173.924 104.802C173.416 103.679 170.603 104.151 169.94 103.736C169.276 103.322 168.983 102.888 169.14 102.731C169.298 102.573 171.209 102.118 171.832 102.193C172.455 102.267 172.438 102.894 173.239 102.894C174.04 102.894 173.18 101.506 172.243 100.981C171.306 100.456 166.993 100.643 166.993 100.643L170.587 108.285Z" fill="#BC5A4A"/>
<path d="M210.628 89.7539C210.628 89.7539 215.4 90.5965 217.684 96.3979C219.968 102.199 218.856 115.511 218.856 115.511C218.856 115.511 209.689 117.731 205.383 113.381C205.383 113.381 205.676 102.668 206.202 97.8731C206.729 93.0786 210.628 89.7539 210.628 89.7539Z" fill="#E08128"/>
<path d="M198.719 75.4892L198.095 87.8834C198.095 87.8834 200.06 88.3007 200.409 89.6332C200.757 90.9658 192.137 103.6 188.933 100.424C185.728 97.2491 190.809 88.3949 190.809 88.3949L191.322 79.5905L196.792 74.4541L198.719 75.4892Z" fill="#DC7A63"/>
<g style="mix-blend-mode:multiply" opacity="0.65">
<path d="M191.081 83.7171C193.354 85.1358 196.072 85.2583 198.311 83.6148L198.714 75.4889L196.787 74.4497L191.317 79.5861L191.081 83.7171Z" fill="#F26E5A"/>
</g>
<path d="M191.194 59.4806C191.194 59.4806 187.096 60.2545 186.51 65.0881C185.925 69.9217 187.388 78.5484 190.609 80.6253C194.146 82.9014 199 82.2957 201.342 77.0745C203.684 71.8532 204.562 62.9614 200.658 60.1576C196.755 57.3538 191.194 59.4806 191.194 59.4806Z" fill="#DC7A63"/>
<path d="M195.341 57.377C195.341 57.377 196.439 58.6826 194.463 63.177C192.487 67.6714 185.243 73.1834 185.243 73.1834C184.17 69.0458 184.55 64.6652 186.32 60.7743C186.993 59.2937 188.447 58.2869 190.078 58.0715L195.341 57.377Z" fill="#020F45"/>
<path d="M200.659 60.1538C198.926 58.9101 196.868 58.6368 195.113 58.7176C194.919 59.3906 194.844 60.384 195 61.8269C195.451 65.9996 200.696 69.4872 203.091 70.8722C203.73 66.5205 203.238 62.0086 200.659 60.1538Z" fill="#020F45"/>
<path d="M186.999 72.1667C186.999 72.1667 186.684 70.7372 185.682 70.8745C184.681 71.0118 184.548 74.6326 185.499 74.9947C186.451 75.3568 187.658 74.4509 186.999 72.1667Z" fill="#DC7A63"/>
<path d="M202.849 70.9975C202.849 70.9975 203.387 70.634 204.348 70.9315C205.309 71.229 204.543 74.8229 203.54 75.0261C202.538 75.2294 201.82 73.143 202.849 70.9975Z" fill="#DC7A63"/>
<g style="mix-blend-mode:multiply">
<path d="M196.502 135.495C196.78 135.591 197.067 135.658 197.359 135.695C197.879 135.747 198.404 135.678 198.893 135.495H196.502Z" fill="#E8E1D0"/>
</g>
<path d="M234.951 57.4512L235.032 62.2888C235.269 63.0601 238.935 64.0777 238.976 63.2485L239.015 57.8455L234.951 57.4512Z" fill="#F98548"/>
<g style="mix-blend-mode:multiply" opacity="0.5">
<path d="M238.6 60.7759C238.736 60.7566 238.869 60.719 238.995 60.6641L239.015 57.8455L234.951 57.4512L234.982 59.2993C235.97 60.4138 237.553 60.9051 238.6 60.7759Z" fill="#FF916C"/>
</g>
<path d="M237.853 50.2237C237.853 50.2237 239.522 50.6168 240.035 51.166C240.548 51.7151 240.72 54.3641 240.574 55.8313C240.338 58.1195 239.653 59.8559 238.207 60.0376C236.762 60.2193 234.191 59.0954 234.079 56.6551C233.967 54.2147 232.659 51.8094 235.118 50.96C237.578 50.1107 237.853 50.2237 237.853 50.2237Z" fill="#F99F70"/>
<path d="M242.014 49.0811C241.361 47.2397 238.658 47.0621 237.976 47.8212C237.294 48.5804 236.486 47.7606 235.357 47.9558C234.962 48.0218 234.443 48.3596 233.969 48.8375C233.814 48.9964 233.611 49.1008 233.391 49.1349C232.694 49.2292 232.06 49.9143 232.006 50.9117C231.98 51.3255 232.073 51.7382 232.276 52.1002C232.374 52.2738 232.419 52.4729 232.403 52.672C232.388 52.8711 232.314 53.061 232.189 53.2174C231.752 53.7774 232.6 55.0278 233.023 55.4774C233.445 55.927 232.888 56.5192 233.023 57.343C233.157 58.1668 234.832 58.6069 234.832 58.6069C234.832 58.545 233.393 55.6457 234.63 53.4005C234.693 53.2967 234.787 53.2147 234.898 53.1652C235.009 53.1156 235.132 53.101 235.252 53.1232C236.222 53.2699 237.319 53.0263 237.615 52.5256C237.696 52.402 237.814 52.3079 237.953 52.2574C238.091 52.2069 238.243 52.2027 238.384 52.2456C239.278 52.4892 239.73 52.5673 240.344 52.4462C243.103 51.9024 242.43 50.2656 242.014 49.0811Z" fill="#000444"/>
<path d="M234.395 55.724C234.395 55.724 234.195 54.88 233.695 55.0644C233.194 55.2488 233.695 57.2531 234.408 57.2921C235.121 57.3312 234.395 55.724 234.395 55.724Z" fill="#F99F70"/>
</g>
<defs>
<clipPath id="clip0_200_2536">
<rect width="234" height="222.19" fill="white" transform="translate(78 31)"/>
</clipPath>
</defs>
</svg>
