<svg width="153" height="153" viewBox="0 0 153 153" fill="none" xmlns="http://www.w3.org/2000/svg">
<g filter="url(#filter0_d_249_69)">
<circle cx="76.497" cy="72.497" r="72.497" fill="white"/>
</g>
<g clip-path="url(#clip0_249_69)">
<path d="M87.2504 51.3757C87.2501 49.1761 88.0233 47.0464 89.4346 45.3592C90.846 43.6721 92.8056 42.5349 94.9707 42.1467C97.1358 41.7585 99.3685 42.1439 101.278 43.2356C103.188 44.3272 104.653 46.0556 105.417 48.1183C106.181 50.181 106.195 52.4466 105.457 54.5188C104.72 56.5911 103.277 58.3379 101.381 59.4537C99.4855 60.5696 97.258 60.9833 95.0881 60.6226C92.9182 60.2619 90.9443 59.1498 89.5116 57.4807L64.3191 69.1807C64.8983 71.0161 64.8983 72.9853 64.3191 74.8207L89.5116 86.5207C91.026 84.7594 93.1404 83.6231 95.4449 83.3319C97.7494 83.0407 100.08 83.6154 101.985 84.9445C103.89 86.2737 105.233 88.2628 105.755 90.5262C106.277 92.7896 105.941 95.1662 104.81 97.1954C103.68 99.2245 101.836 100.762 99.6369 101.509C97.4377 102.257 95.0392 102.161 92.9064 101.241C90.7736 100.321 89.0584 98.6417 88.0931 96.529C87.1278 94.4162 86.9811 92.0204 87.6816 89.8057L62.4891 78.1057C61.242 79.5591 59.5797 80.5957 57.7258 81.076C55.8719 81.5564 53.9154 81.4574 52.1194 80.7925C50.3234 80.1276 48.7742 78.9286 47.68 77.3568C46.5859 75.785 45.9994 73.9158 45.9994 72.0007C45.9994 70.0856 46.5859 68.2164 47.68 66.6446C48.7742 65.0728 50.3234 63.8738 52.1194 63.2089C53.9154 62.544 55.8719 62.445 57.7258 62.9254C59.5797 63.4057 61.242 64.4423 62.4891 65.8957L87.6816 54.1957C87.3949 53.2832 87.2494 52.3322 87.2504 51.3757Z" fill="#0915EA"/>
</g>
<defs>
<filter id="filter0_d_249_69" x="0" y="0" width="152.994" height="152.994" filterUnits="userSpaceOnUse" color-interpolation-filters="sRGB">
<feFlood flood-opacity="0" result="BackgroundImageFix"/>
<feColorMatrix in="SourceAlpha" type="matrix" values="0 0 0 0 0 0 0 0 0 0 0 0 0 0 0 0 0 0 127 0" result="hardAlpha"/>
<feOffset dy="4"/>
<feGaussianBlur stdDeviation="2"/>
<feComposite in2="hardAlpha" operator="out"/>
<feColorMatrix type="matrix" values="0 0 0 0 0 0 0 0 0 0 0 0 0 0 0 0 0 0 0.25 0"/>
<feBlend mode="normal" in2="BackgroundImageFix" result="effect1_dropShadow_249_69"/>
<feBlend mode="normal" in="SourceGraphic" in2="effect1_dropShadow_249_69" result="shape"/>
</filter>
<clipPath id="clip0_249_69">
<rect width="60" height="60" fill="white" transform="translate(46 42)"/>
</clipPath>
</defs>
</svg>
