<svg width="15" height="15" viewBox="0 0 15 15" fill="none" xmlns="http://www.w3.org/2000/svg">
<g clip-path="url(#clip0_1_1411)">
<path d="M11.25 10.05C10.775 10.05 10.35 10.2375 10.025 10.5312L5.56875 7.9375C5.6 7.79375 5.625 7.65 5.625 7.5C5.625 7.35 5.6 7.20625 5.56875 7.0625L9.975 4.49375C10.3125 4.80625 10.7563 5 11.25 5C12.2875 5 13.125 4.1625 13.125 3.125C13.125 2.0875 12.2875 1.25 11.25 1.25C10.2125 1.25 9.375 2.0875 9.375 3.125C9.375 3.275 9.4 3.41875 9.43125 3.5625L5.025 6.13125C4.6875 5.81875 4.24375 5.625 3.75 5.625C2.7125 5.625 1.875 6.4625 1.875 7.5C1.875 8.5375 2.7125 9.375 3.75 9.375C4.24375 9.375 4.6875 9.18125 5.025 8.86875L9.475 11.4688C9.44375 11.6 9.425 11.7375 9.425 11.875C9.425 12.8813 10.2437 13.7 11.25 13.7C12.2563 13.7 13.075 12.8813 13.075 11.875C13.075 10.8687 12.2563 10.05 11.25 10.05ZM11.25 2.5C11.5938 2.5 11.875 2.78125 11.875 3.125C11.875 3.46875 11.5938 3.75 11.25 3.75C10.9062 3.75 10.625 3.46875 10.625 3.125C10.625 2.78125 10.9062 2.5 11.25 2.5ZM3.75 8.125C3.40625 8.125 3.125 7.84375 3.125 7.5C3.125 7.15625 3.40625 6.875 3.75 6.875C4.09375 6.875 4.375 7.15625 4.375 7.5C4.375 7.84375 4.09375 8.125 3.75 8.125ZM11.25 12.5125C10.9062 12.5125 10.625 12.2313 10.625 11.8875C10.625 11.5437 10.9062 11.2625 11.25 11.2625C11.5938 11.2625 11.875 11.5437 11.875 11.8875C11.875 12.2313 11.5938 12.5125 11.25 12.5125Z" fill="#170F58"/>
</g>
<defs>
<clipPath id="clip0_1_1411">
<rect width="15" height="15" fill="white"/>
</clipPath>
</defs>
</svg>
