<svg width="57" height="57" viewBox="0 0 57 57" fill="none" xmlns="http://www.w3.org/2000/svg">
<g clip-path="url(#clip0_1_2435)">
<g clip-path="url(#clip1_1_2435)">
<path d="M28.5001 56.9994C37.6598 56.9994 45.0852 56.1158 45.0852 55.0258C45.0852 53.9358 37.6598 53.0522 28.5001 53.0522C19.3404 53.0522 11.915 53.9358 11.915 55.0258C11.915 56.1158 19.3404 56.9994 28.5001 56.9994Z" fill="#FBFBFB"/>
<path d="M29.4439 49.9781L34.1474 47.42C44.7122 41.6796 51.2999 30.5468 51.2999 18.4355V6.20777C51.3036 5.75165 51.1292 5.31204 50.8139 4.98207C50.4985 4.65211 50.0668 4.45773 49.6104 4.44012C38.4909 4.13699 31.5984 0.898434 29.3286 -0.356314C29.0748 -0.496051 28.7897 -0.569336 28.4999 -0.569336C28.2101 -0.569336 27.9249 -0.496051 27.6711 -0.356314C25.4014 0.898434 18.505 4.13699 7.38939 4.44012C6.93294 4.45773 6.5013 4.65211 6.18592 4.98207C5.87054 5.31204 5.69622 5.75165 5.69989 6.20777V18.4355C5.69989 30.5468 12.2875 41.6796 22.8524 47.4226L27.5559 49.9807C27.8456 50.1382 28.1703 50.2206 28.5002 50.2201C28.8301 50.2197 29.1546 50.1365 29.4439 49.9781Z" fill="white"/>
<path d="M49.0453 7.64809V18.0237C49.0453 29.5748 42.7932 40.1513 32.7292 45.6179L29.3988 47.4304C29.125 47.5797 28.818 47.658 28.5061 47.658C28.1941 47.658 27.8871 47.5797 27.6133 47.4304L24.2727 45.6167C14.2061 40.1462 7.95404 29.5748 7.95404 18.0237V7.64809C7.95614 7.41129 8.04791 7.18404 8.21091 7.01203C8.37391 6.84001 8.59607 6.73596 8.83274 6.72078C18.3011 6.08126 24.803 3.57304 28.0923 1.96784C28.2185 1.9036 28.3581 1.87012 28.4997 1.87012C28.6413 1.87012 28.7808 1.9036 28.907 1.96784C32.1963 3.57304 38.6995 6.07742 48.1666 6.72078C48.4032 6.73596 48.6254 6.84001 48.7884 7.01203C48.9514 7.18404 49.0432 7.41129 49.0453 7.64809Z" fill="#21A2DB"/>
<path d="M49.045 7.64795V18.0236C49.045 29.5747 42.7929 40.1511 32.7289 45.6178L29.3986 47.4302C29.1233 47.5793 28.8151 47.6576 28.5019 47.6579V1.87305C28.6434 1.87341 28.7829 1.9067 28.9093 1.97025C32.1986 3.57546 38.7017 6.07984 48.1688 6.7232C48.4046 6.73896 48.6258 6.84292 48.7882 7.01433C48.9506 7.18574 49.0423 7.412 49.045 7.64795Z" fill="#158CB5"/>
<path d="M36.3133 20.6582H20.6863C20.24 20.6585 19.812 20.8355 19.4961 21.1502C19.1802 21.465 19.002 21.8919 19.0006 22.3376V34.7827C19.0006 35.2292 19.1782 35.6573 19.4944 35.973C19.8105 36.2886 20.2392 36.466 20.6863 36.466H36.3133C36.5346 36.466 36.7538 36.4224 36.9583 36.3378C37.1629 36.2533 37.3487 36.1293 37.5052 35.973C37.6617 35.8167 37.7859 35.6311 37.8706 35.4269C37.9553 35.2227 37.9989 35.0038 37.9989 34.7827V22.3376C37.9976 21.8919 37.8194 21.465 37.5035 21.1502C37.1875 20.8355 36.7596 20.6585 36.3133 20.6582ZM30.0074 29.3557V30.599C30.0074 30.9982 29.8486 31.3812 29.5658 31.6635C29.2831 31.9458 28.8996 32.1044 28.4998 32.1044C28.0999 32.1044 27.7165 31.9458 27.4337 31.6635C27.151 31.3812 26.9922 30.9982 26.9922 30.599V29.3557C26.5549 29.0379 26.2296 28.5901 26.0629 28.0764C25.8961 27.5627 25.8964 27.0095 26.0637 26.496C26.2311 25.9824 26.5569 25.535 26.9945 25.2176C27.432 24.9003 27.959 24.7294 28.4998 24.7294C29.0406 24.7294 29.5675 24.9003 30.0051 25.2176C30.4427 25.535 30.7685 25.9824 30.9359 26.496C31.1032 27.0095 31.1035 27.5627 30.9367 28.0764C30.7699 28.5901 30.4446 29.0379 30.0074 29.3557Z" fill="white"/>
<path d="M34.0773 15.998V17.9486C34.0775 18.1067 34.0465 18.2634 33.986 18.4095C33.9255 18.5557 33.8367 18.6885 33.7248 18.8004C33.6128 18.9123 33.4799 19.0011 33.3336 19.0617C33.1873 19.1222 33.0304 19.1534 32.872 19.1534C32.552 19.1534 32.2451 19.0265 32.0188 18.8005C31.7925 18.5746 31.6654 18.2681 31.6654 17.9486V16.0709C31.6654 14.3583 30.3346 12.8976 28.6207 12.8336C28.1951 12.8176 27.7706 12.8875 27.3726 13.039C26.9746 13.1906 26.6113 13.4207 26.3044 13.7156C25.9974 14.0105 25.7532 14.3641 25.5862 14.7554C25.4193 15.1467 25.333 15.5676 25.3326 15.9929V19.4463H22.9207V16.0888C22.9207 13.0524 25.316 10.5058 28.3556 10.429C29.0999 10.4103 29.8405 10.5404 30.5337 10.8118C31.2269 11.0832 31.8587 11.4904 32.3919 12.0093C32.9251 12.5283 33.3489 13.1485 33.6383 13.8336C33.9278 14.5186 34.0771 15.2545 34.0773 15.998Z" fill="white"/>
</g>
</g>
<defs>
<clipPath id="clip0_1_2435">
<rect width="57" height="57" fill="white"/>
</clipPath>
<clipPath id="clip1_1_2435">
<rect width="45.6" height="57.57" fill="white" transform="translate(5.70001 -0.569824)"/>
</clipPath>
</defs>
</svg>
