<svg width="50" height="50" viewBox="0 0 50 50" fill="none" xmlns="http://www.w3.org/2000/svg">
<g clip-path="url(#clip0_1_1213)">
<path d="M25 46.875C19.1984 46.875 13.6344 44.5703 9.53204 40.468C5.42968 36.3656 3.125 30.8016 3.125 25C3.125 19.1984 5.42968 13.6344 9.53204 9.53204C13.6344 5.42968 19.1984 3.125 25 3.125C30.8016 3.125 36.3656 5.42968 40.468 9.53204C44.5703 13.6344 46.875 19.1984 46.875 25C46.875 30.8016 44.5703 36.3656 40.468 40.468C36.3656 44.5703 30.8016 46.875 25 46.875ZM25 50C31.6304 50 37.9893 47.3661 42.6777 42.6777C47.3661 37.9893 50 31.6304 50 25C50 18.3696 47.3661 12.0107 42.6777 7.32233C37.9893 2.63392 31.6304 0 25 0C18.3696 0 12.0107 2.63392 7.32233 7.32233C2.63392 12.0107 0 18.3696 0 25C0 31.6304 2.63392 37.9893 7.32233 42.6777C12.0107 47.3661 18.3696 50 25 50Z" fill="#170F58"/>
<path d="M13.2812 30.9385C13.6401 30.7313 14.0666 30.6752 14.4668 30.7824C14.8671 30.8897 15.2084 31.1515 15.4156 31.5104C16.3753 33.1739 17.7564 34.5553 19.4197 35.5153C21.0831 36.4754 22.97 36.9803 24.8906 36.9791C26.8111 36.9803 28.6981 36.4754 30.3614 35.5153C32.0248 34.5553 33.4059 33.1739 34.3656 31.5104C34.4674 31.3312 34.6037 31.174 34.7666 31.0478C34.9294 30.9215 35.1156 30.8287 35.3145 30.7747C35.5134 30.7207 35.7209 30.7066 35.9253 30.7332C36.1296 30.7597 36.3267 30.8265 36.5052 30.9295C36.6836 31.0325 36.8399 31.1698 36.9651 31.3335C37.0903 31.4972 37.1818 31.6841 37.2345 31.8833C37.2872 32.0825 37.2999 32.2902 37.272 32.4943C37.2441 32.6985 37.176 32.8951 37.0718 33.0729C35.8378 35.2115 34.0623 36.9873 31.9239 38.2216C29.7855 39.456 27.3597 40.1052 24.8906 40.1041C22.4215 40.1052 19.9957 39.456 17.8573 38.2216C15.7189 36.9873 13.9433 35.2115 12.7093 33.0729C12.5021 32.714 12.446 32.2875 12.5532 31.8873C12.6605 31.487 12.9223 31.1457 13.2812 30.9385ZM21.7656 21.3541C21.7656 23.9416 20.3656 26.0416 18.6406 26.0416C16.9156 26.0416 15.5156 23.9416 15.5156 21.3541C15.5156 18.7666 16.9156 16.6666 18.6406 16.6666C20.3656 16.6666 21.7656 18.7666 21.7656 21.3541ZM34.2656 21.3541C34.2656 23.9416 32.8656 26.0416 31.1406 26.0416C29.4156 26.0416 28.0156 23.9416 28.0156 21.3541C28.0156 18.7666 29.4156 16.6666 31.1406 16.6666C32.8656 16.6666 34.2656 18.7666 34.2656 21.3541Z" fill="#170F58"/>
</g>
<defs>
<clipPath id="clip0_1_1213">
<rect width="50" height="50" fill="white"/>
</clipPath>
</defs>
</svg>
