<svg width="61" height="40" viewBox="0 0 61 40" fill="none" xmlns="http://www.w3.org/2000/svg">
<path d="M24.8629 6.11475C23.2833 3.69113 20.9479 1.83811 18.2078 0.834194C15.4677 -0.169723 12.4709 -0.270302 9.6678 0.547581C6.86471 1.36546 4.40677 3.05762 2.66343 5.36971C0.920079 7.68181 -0.0144958 10.4889 0.000170004 13.3692C0.00162402 15.7543 0.653157 18.0953 1.8867 20.1475C3.12025 22.1998 4.89055 23.888 7.01264 25.0359C9.13474 26.1837 11.5308 26.749 13.9504 26.6728C16.37 26.5965 18.7245 25.8814 20.7677 24.6023C19.7054 27.7102 17.7268 31.0258 14.4669 34.3494C13.8432 34.9851 13.5014 35.8389 13.5166 36.7229C13.5318 37.6069 13.9028 38.4487 14.548 39.0632C15.1932 39.6777 16.0598 40.0145 16.957 39.9995C17.8543 39.9845 18.7087 39.619 19.3324 38.9833C31.3826 26.6796 29.8176 13.3052 24.8629 6.13072V6.11475ZM57.2996 6.11475C55.7199 3.69113 53.3846 1.83811 50.6445 0.834194C47.9044 -0.169723 44.9076 -0.270302 42.1045 0.547581C39.3014 1.36546 36.8434 3.05762 35.1001 5.36971C33.3568 7.68181 32.4222 10.4889 32.4368 13.3692C32.4383 15.7543 33.0898 18.0953 34.3234 20.1475C35.5569 22.1998 37.3272 23.888 39.4493 25.0359C41.5714 26.1837 43.9674 26.749 46.3871 26.6728C48.8067 26.5965 51.1611 25.8814 53.2044 24.6023C52.1421 27.7102 50.1635 31.0258 46.9036 34.3494C46.2799 34.9851 45.9381 35.8389 45.9533 36.7229C45.9685 37.6069 46.3395 38.4487 46.9847 39.0632C47.6299 39.6777 48.4964 40.0145 49.3937 39.9995C50.2909 39.9845 51.1454 39.619 51.7691 38.9833C63.8193 26.6796 62.2543 13.3052 57.2996 6.13072V6.11475Z" fill="white" fill-opacity="0.6"/>
</svg>
