<svg width="785" height="405" viewBox="0 0 785 405" fill="none" xmlns="http://www.w3.org/2000/svg">
<path d="M8.47461 100.127L738.476 -9.59699e-05L782.603 290.067L54.8431 404.926L8.47461 100.127Z" fill="#000ABC"/>
<path d="M48.1895 3.14478L779.231 95.3672L746.78 386.971L14.0902 309.559L48.1895 3.14478Z" fill="#5F0077"/>
<path d="M0 21.0964H744.739V330.969L0 346.707V21.0964Z" fill="#2B36FF"/>
<path d="M51.1371 324.823C52.7167 327.246 55.0521 329.099 57.7922 330.103C60.5323 331.107 63.5291 331.208 66.3322 330.39C69.1353 329.572 71.5932 327.88 73.3366 325.568C75.0799 323.256 76.0145 320.449 75.9998 317.568C75.9984 315.183 75.3468 312.842 74.1133 310.79C72.8797 308.738 71.1095 307.05 68.9874 305.902C66.8653 304.754 64.4692 304.189 62.0496 304.265C59.63 304.341 57.2755 305.056 55.2323 306.335C56.2946 303.227 58.2732 299.912 61.5331 296.588C62.1568 295.952 62.4986 295.099 62.4834 294.215C62.4682 293.331 62.0972 292.489 61.452 291.874C60.8068 291.26 59.9402 290.923 59.043 290.938C58.1457 290.953 57.2913 291.319 56.6676 291.954C44.6174 304.258 46.1824 317.632 51.1371 324.807V324.823ZM18.7004 324.823C20.2801 327.246 22.6154 329.099 25.3555 330.103C28.0956 331.107 31.0924 331.208 33.8955 330.39C36.6986 329.572 39.1566 327.88 40.8999 325.568C42.6432 323.256 43.5778 320.449 43.5632 317.568C43.5617 315.183 42.9102 312.842 41.6766 310.79C40.4431 308.738 38.6728 307.05 36.5507 305.902C34.4286 304.754 32.0326 304.189 29.6129 304.265C27.1933 304.341 24.8389 305.056 22.7956 306.335C23.8579 303.227 25.8365 299.912 29.0964 296.588C29.7201 295.952 30.0619 295.099 30.0467 294.215C30.0315 293.331 29.6605 292.489 29.0153 291.874C28.3701 291.26 27.5036 290.923 26.6063 290.938C25.7091 290.953 24.8546 291.319 24.2309 291.954C12.1807 304.258 13.7457 317.632 18.7004 324.807V324.823Z" fill="white" fill-opacity="0.6"/>
<path d="M692.863 43.0523C691.283 40.6287 688.948 38.7756 686.208 37.7717C683.468 36.7678 680.471 36.6672 677.668 37.4851C674.865 38.303 672.407 39.9951 670.663 42.3072C668.92 44.6193 667.986 47.4265 668 50.3067C668.002 52.6918 668.653 55.0328 669.887 57.0851C671.12 59.1373 672.891 60.8256 675.013 61.9734C677.135 63.1212 679.531 63.6866 681.95 63.6103C684.37 63.534 686.724 62.819 688.768 61.5398C687.705 64.6477 685.727 67.9634 682.467 71.287C681.843 71.9226 681.501 72.7764 681.517 73.6604C681.532 74.5444 681.903 75.3863 682.548 76.0007C683.193 76.6152 684.06 76.952 684.957 76.937C685.854 76.9221 686.709 76.5565 687.332 75.9208C699.383 63.6171 697.818 50.2428 692.863 43.0683V43.0523ZM725.3 43.0523C723.72 40.6287 721.385 38.7756 718.644 37.7717C715.904 36.7678 712.908 36.6672 710.104 37.4851C707.301 38.303 704.843 39.9951 703.1 42.3072C701.357 44.6193 700.422 47.4265 700.437 50.3067C700.438 52.6918 701.09 55.0328 702.323 57.0851C703.557 59.1373 705.327 60.8256 707.449 61.9734C709.571 63.1212 711.967 63.6866 714.387 63.6103C716.807 63.534 719.161 62.819 721.204 61.5398C720.142 64.6477 718.163 67.9634 714.904 71.287C714.28 71.9226 713.938 72.7764 713.953 73.6604C713.968 74.5444 714.339 75.3863 714.985 76.0007C715.63 76.6152 716.496 76.952 717.394 76.937C718.291 76.9221 719.145 76.5565 719.769 75.9208C731.819 63.6171 730.254 50.2428 725.3 43.0683V43.0523Z" fill="white" fill-opacity="0.6"/>
</svg>
