<svg width="61" height="40" viewBox="0 0 61 40" fill="none" xmlns="http://www.w3.org/2000/svg">
<path d="M36.1371 33.8853C37.7167 36.3089 40.0521 38.1619 42.7922 39.1658C45.5323 40.1697 48.5291 40.2703 51.3322 39.4524C54.1353 38.6345 56.5932 36.9424 58.3366 34.6303C60.0799 32.3182 61.0145 29.5111 60.9998 26.6308C60.9984 24.2457 60.3468 21.9047 59.1133 19.8525C57.8797 17.8002 56.1095 16.112 53.9874 14.9641C51.8653 13.8163 49.4692 13.251 47.0496 13.3272C44.63 13.4035 42.2755 14.1186 40.2323 15.3977C41.2946 12.2898 43.2732 8.97417 46.5331 5.65056C47.1568 5.01488 47.4986 4.16113 47.4834 3.27713C47.4682 2.39312 47.0972 1.55128 46.452 0.936787C45.8068 0.322296 44.9402 -0.0145035 44.043 0.000480652C43.1457 0.015461 42.2913 0.381004 41.6676 1.01669C29.6174 13.3204 31.1824 26.6948 36.1371 33.8693V33.8853ZM3.70045 33.8853C5.28006 36.3089 7.61542 38.1619 10.3555 39.1658C13.0956 40.1697 16.0924 40.2703 18.8955 39.4524C21.6986 38.6345 24.1566 36.9424 25.8999 34.6303C27.6432 32.3182 28.5778 29.5111 28.5632 26.6308C28.5617 24.2457 27.9102 21.9047 26.6766 19.8525C25.4431 17.8002 23.6728 16.112 21.5507 14.9641C19.4286 13.8163 17.0326 13.251 14.6129 13.3272C12.1933 13.4035 9.83887 14.1186 7.79558 15.3977C8.85788 12.2898 10.8365 8.97417 14.0964 5.65056C14.7201 5.01488 15.0619 4.16113 15.0467 3.27713C15.0315 2.39312 14.6605 1.55128 14.0153 0.936787C13.3701 0.322296 12.5036 -0.0145035 11.6063 0.000480652C10.7091 0.015461 9.8546 0.381004 9.2309 1.01669C-2.81932 13.3204 -1.25425 26.6948 3.70045 33.8693V33.8853Z" fill="white" fill-opacity="0.6"/>
</svg>
