<svg width="153" height="153" viewBox="0 0 153 153" fill="none" xmlns="http://www.w3.org/2000/svg">
<g filter="url(#filter0_d_249_71)">
<circle cx="76.497" cy="72.497" r="72.497" fill="white"/>
</g>
<path d="M81 49.3V70.075C81 72.625 78.925 74.7 76.375 74.7H53.5C52.125 74.7 51 73.575 51 72.2V56.225C51 51.125 55.125 47 60.225 47H78.675C79.975 47 81 48.025 81 49.3Z" fill="#0915EA"/>
<path d="M99.75 80.75C100.45 80.75 101 81.3 101 82V84.5C101 88.65 97.65 92 93.5 92C93.5 87.875 90.125 84.5 86 84.5C81.875 84.5 78.5 87.875 78.5 92H73.5C73.5 87.875 70.125 84.5 66 84.5C61.875 84.5 58.5 87.875 58.5 92C54.35 92 51 88.65 51 84.5V79.5C51 78.125 52.125 77 53.5 77H77.25C80.7 77 83.5 74.2 83.5 70.75V57C83.5 55.625 84.625 54.5 86 54.5H88.1C89.9 54.5 91.55 55.475 92.45 57.025L94.05 59.825C94.275 60.225 93.975 60.75 93.5 60.75C90.05 60.75 87.25 63.55 87.25 67V74.5C87.25 77.95 90.05 80.75 93.5 80.75H99.75Z" fill="#0915EA"/>
<path d="M66 97C68.7614 97 71 94.7615 71 92C71 89.2385 68.7614 87 66 87C63.2386 87 61 89.2385 61 92C61 94.7615 63.2386 97 66 97Z" fill="#0915EA"/>
<path d="M86 97C88.7615 97 91 94.7615 91 92C91 89.2385 88.7615 87 86 87C83.2385 87 81 89.2385 81 92C81 94.7615 83.2385 97 86 97Z" fill="#0915EA"/>
<path d="M101 73.325V77H93.5C92.125 77 91 75.875 91 74.5V67C91 65.625 92.125 64.5 93.5 64.5H96.725L100.35 70.85C100.775 71.6 101 72.45 101 73.325Z" fill="#0915EA"/>
<defs>
<filter id="filter0_d_249_71" x="0" y="0" width="152.994" height="152.994" filterUnits="userSpaceOnUse" color-interpolation-filters="sRGB">
<feFlood flood-opacity="0" result="BackgroundImageFix"/>
<feColorMatrix in="SourceAlpha" type="matrix" values="0 0 0 0 0 0 0 0 0 0 0 0 0 0 0 0 0 0 127 0" result="hardAlpha"/>
<feOffset dy="4"/>
<feGaussianBlur stdDeviation="2"/>
<feComposite in2="hardAlpha" operator="out"/>
<feColorMatrix type="matrix" values="0 0 0 0 0 0 0 0 0 0 0 0 0 0 0 0 0 0 0.25 0"/>
<feBlend mode="normal" in2="BackgroundImageFix" result="effect1_dropShadow_249_71"/>
<feBlend mode="normal" in="SourceGraphic" in2="effect1_dropShadow_249_71" result="shape"/>
</filter>
</defs>
</svg>
