<svg width="50" height="50" viewBox="0 0 50 50" fill="none" xmlns="http://www.w3.org/2000/svg">
<circle cx="25" cy="25" r="25" fill="#1D9BF0"/>
<path d="M34.057 20.1807C34.0663 20.3919 34.0663 20.5935 34.0663 20.8047C34.0755 27.2079 29.3711 34.5999 20.7678 34.5999C18.2304 34.5999 15.7392 33.8415 13.6 32.4207C13.9704 32.4687 14.3408 32.4879 14.7113 32.4879C16.8135 32.4879 18.8601 31.7583 20.5178 30.4047C18.5174 30.3663 16.7579 29.0127 16.1467 27.0351C16.8505 27.1791 17.5728 27.1503 18.2581 26.9487C16.0819 26.5071 14.5168 24.5199 14.5075 22.2063C14.5075 22.1871 14.5075 22.1679 14.5075 22.1487C15.1558 22.5231 15.8874 22.7343 16.6282 22.7535C14.5816 21.3327 13.9426 18.5007 15.1836 16.283C17.5636 19.3167 21.0642 21.1503 24.824 21.3519C24.4443 19.6719 24.9629 17.9054 26.1761 16.715C28.056 14.8814 31.0195 14.9774 32.7975 16.9262C33.844 16.715 34.8534 16.3118 35.7702 15.7454C35.4183 16.8686 34.6867 17.819 33.7144 18.4239C34.6404 18.3087 35.548 18.0494 36.4 17.6654C35.7702 18.6447 34.9738 19.4895 34.057 20.1807Z" fill="white"/>
</svg>
