<svg width="39" height="38" viewBox="0 0 39 38" fill="none" xmlns="http://www.w3.org/2000/svg">
<circle cx="19.47" cy="18.8235" r="18.8235" fill="#170F58"/>
<g clip-path="url(#clip0_1_959)">
<rect width="12.0471" height="12.0471" transform="translate(13.4473 12.8)" fill="#170F58"/>
<path d="M24.256 16.3694C24.2636 16.4764 24.2636 16.5834 24.2636 16.6904C24.2636 19.9544 21.7793 23.7153 17.2387 23.7153C15.8399 23.7153 14.5404 23.3102 13.4473 22.6069C13.646 22.6298 13.8371 22.6375 14.0435 22.6375C15.1977 22.6375 16.2603 22.2477 17.1088 21.5826C16.0233 21.5597 15.1137 20.8488 14.8003 19.8703C14.9531 19.8933 15.106 19.9086 15.2666 19.9086C15.4882 19.9086 15.7099 19.878 15.9163 19.8245C14.785 19.5951 13.9365 18.6014 13.9365 17.4013V17.3707C14.2651 17.5542 14.6474 17.6689 15.0525 17.6841C14.3875 17.2408 13.9518 16.484 13.9518 15.6279C13.9518 15.1692 14.074 14.7488 14.2881 14.3819C15.5035 15.8801 17.3304 16.8586 19.379 16.9656C19.3408 16.7821 19.3179 16.591 19.3179 16.3999C19.3179 15.0393 20.4186 13.9309 21.7869 13.9309C22.4978 13.9309 23.1399 14.229 23.5909 14.7106C24.1489 14.6036 24.684 14.3972 25.1579 14.1144C24.9745 14.6877 24.5846 15.1693 24.0725 15.475C24.5694 15.4215 25.0509 15.2839 25.4943 15.0928C25.158 15.582 24.7375 16.0177 24.256 16.3694Z" fill="white"/>
</g>
<defs>
<clipPath id="clip0_1_959">
<rect width="12.0471" height="12.0471" fill="white" transform="translate(13.4473 12.8)"/>
</clipPath>
</defs>
</svg>
