<svg width="50" height="50" viewBox="0 0 50 50" fill="none" xmlns="http://www.w3.org/2000/svg">
<circle cx="25" cy="25" r="25" fill="#FF0000"/>
<path d="M36.5057 19.2294C36.2289 18.2014 35.4184 17.3909 34.3904 17.1141C32.5123 16.6001 24.9999 16.6001 24.9999 16.6001C24.9999 16.6001 17.4876 16.6001 15.6095 17.0943C14.6013 17.3711 13.771 18.2014 13.4942 19.2294C13 21.1075 13 25.002 13 25.002C13 25.002 13 28.9164 13.4942 30.7747C13.771 31.8027 14.5815 32.6132 15.6095 32.89C17.5074 33.404 24.9999 33.404 24.9999 33.404C24.9999 33.404 32.5123 33.404 34.3904 32.9097C35.4184 32.633 36.2289 31.8224 36.5057 30.7944C36.9999 28.9164 36.9999 25.0218 36.9999 25.0218C36.9999 25.0218 37.0197 21.1075 36.5057 19.2294Z" fill="white"/>
<path d="M22.6079 28.5998L28.855 25.0018L22.6079 21.4038V28.5998Z" fill="#FF0000"/>
</svg>
