<?xml version="1.0" encoding="utf-8"?>
<!-- Generator: Adobe Illustrator 27.5.0, SVG Export Plug-In . SVG Version: 6.00 Build 0)  -->
<svg version="1.1" xmlns="http://www.w3.org/2000/svg" xmlns:xlink="http://www.w3.org/1999/xlink" x="0px" y="0px"
	 viewBox="0 0 500 500" style="enable-background:new 0 0 500 500;" xml:space="preserve">
<g id="Background_Simple">
	<g>
		<path style="fill:#92E3A9;" d="M466.948,187.702c-2.807-7.763-6.033-15.326-9.603-22.596
			c-31.657-64.474-90.653-108.196-163.284-119.69c-3.13-0.495-6.271-0.931-9.419-1.31c-59.279-7.131-142.276,1.768-176.112,56.567
			c-17.573,28.46-10.362,64.348-28.999,92.04c-24.128,35.85-55.149,53.775-60.894,109.79c-4.227,41.212-2.252,85.743,26.885,118.62
			c34.34,38.747,93.269,52.087,143.605,44.652c48.86-7.216,92.6-31.34,135.336-54.002c40.56-21.509,86.954-37.13,119.816-70.035
			C485.723,300.237,485.687,239.528,466.948,187.702z"/>
		<path style="opacity:0.7;fill:#FFFFFF;" d="M466.948,187.702c-2.807-7.763-6.033-15.326-9.603-22.596
			c-31.657-64.474-90.653-108.196-163.284-119.69c-3.13-0.495-6.271-0.931-9.419-1.31c-59.279-7.131-142.276,1.768-176.112,56.567
			c-17.573,28.46-10.362,64.348-28.999,92.04c-24.128,35.85-55.149,53.775-60.894,109.79c-4.227,41.212-2.252,85.743,26.885,118.62
			c34.34,38.747,93.269,52.087,143.605,44.652c48.86-7.216,92.6-31.34,135.336-54.002c40.56-21.509,86.954-37.13,119.816-70.035
			C485.723,300.237,485.687,239.528,466.948,187.702z"/>
	</g>
</g>
<g id="Graphics">
	<g>
		<g>
			<g>
				<g>
					<path style="fill-rule:evenodd;clip-rule:evenodd;fill:none;stroke:#969696;stroke-miterlimit:10;" d="M104.564,79.733v20.394
						c0,2.147-1.74,3.887-3.887,3.887h-24.79c-2.147,0-3.887-1.74-3.887-3.887v-24.79c0-2.147,1.74-3.887,3.887-3.887h22.167"/>
				</g>
				<path style="fill-rule:evenodd;clip-rule:evenodd;fill:none;stroke:#969696;stroke-miterlimit:10;" d="M99.506,80.513H77.37
					c-0.502,0-0.91,0.407-0.91,0.91v12.736c0,0.502,0.407,0.91,0.91,0.91h22.136c0.502,0,0.91-0.407,0.91-0.91V81.423
					C100.416,80.921,100.008,80.513,99.506,80.513z M99.803,83.271l-7.064,4.363l6.294,4.652c0.364,0.269,0.441,0.783,0.171,1.147
					c-0.16,0.217-0.409,0.332-0.66,0.332c-0.169,0-0.34-0.052-0.487-0.161l-6.822-5.042l-2.529,1.562l-2.967-1.649l-6.94,5.129
					c-0.147,0.109-0.318,0.161-0.487,0.161c-0.252,0-0.499-0.115-0.66-0.332c-0.269-0.364-0.192-0.878,0.172-1.147l6.339-4.685
					l-7.193-3.996c-0.396-0.22-0.539-0.719-0.318-1.115c0.219-0.396,0.718-0.541,1.115-0.319l10.896,6.052l10.277-6.347
					c0.385-0.239,0.891-0.119,1.128,0.267C100.308,82.528,100.189,83.033,99.803,83.271z"/>
			</g>
			<path style="fill-rule:evenodd;clip-rule:evenodd;fill:none;stroke:#969696;stroke-miterlimit:10;" d="M108.53,74.31
				c0-3.176-2.575-5.751-5.751-5.751s-5.751,2.575-5.751,5.751c0,3.176,2.575,5.751,5.751,5.751S108.53,77.486,108.53,74.31z"/>
		</g>
		<g>
			<g>
				<g>
					<path style="fill-rule:evenodd;clip-rule:evenodd;fill:none;stroke:#969696;stroke-miterlimit:10;" d="M454.177,336.65v24.867
						c0,2.618-2.122,4.74-4.74,4.74h-30.227c-2.618,0-4.74-2.122-4.74-4.74V331.29c0-2.618,2.122-4.74,4.74-4.74h27.028"/>
				</g>
				<path style="fill-rule:evenodd;clip-rule:evenodd;fill:none;stroke:#969696;stroke-miterlimit:10;" d="M448.009,337.601h-26.99
					c-0.613,0-1.109,0.497-1.109,1.109v15.529c0,0.613,0.497,1.109,1.109,1.109h26.99c0.613,0,1.109-0.497,1.109-1.109V338.71
					C449.119,338.098,448.622,337.601,448.009,337.601z M448.372,340.964l-8.613,5.32l7.675,5.672
					c0.443,0.328,0.538,0.954,0.209,1.398c-0.195,0.265-0.498,0.405-0.805,0.405c-0.206,0-0.415-0.063-0.594-0.196l-8.318-6.148
					l-3.083,1.904l-3.618-2.01l-8.461,6.253c-0.179,0.133-0.387,0.196-0.593,0.196c-0.307,0-0.609-0.141-0.805-0.405
					c-0.328-0.444-0.234-1.07,0.21-1.398l7.729-5.713l-8.771-4.873c-0.482-0.269-0.657-0.877-0.388-1.359
					c0.268-0.482,0.876-0.659,1.36-0.389l13.285,7.38l12.531-7.739c0.47-0.291,1.087-0.145,1.376,0.325
					C448.987,340.057,448.842,340.674,448.372,340.964z"/>
			</g>
			<path style="fill-rule:evenodd;clip-rule:evenodd;fill:none;stroke:#969696;stroke-miterlimit:10;" d="M459.012,330.038
				c0-3.873-3.139-7.012-7.012-7.012c-3.873,0-7.012,3.139-7.012,7.012c0,3.873,3.139,7.012,7.012,7.012
				C455.873,337.049,459.012,333.91,459.012,330.038z"/>
		</g>
		<g>
			<g>
				<g>
					<g>
						<path style="fill-rule:evenodd;clip-rule:evenodd;fill:none;stroke:#969696;stroke-miterlimit:10;" d="M360.177,56.65v24.867
							c0,2.618-2.122,4.74-4.74,4.74h-30.227c-2.618,0-4.74-2.122-4.74-4.74V51.29c0-2.618,2.122-4.74,4.74-4.74h27.028"/>
					</g>
				</g>
				<path style="fill-rule:evenodd;clip-rule:evenodd;fill:none;stroke:#969696;stroke-miterlimit:10;" d="M365.012,50.037
					c0-3.873-3.139-7.012-7.012-7.012c-3.873,0-7.012,3.139-7.012,7.012c0,3.873,3.139,7.012,7.012,7.012
					C361.873,57.049,365.012,53.91,365.012,50.037z"/>
			</g>
			<path style="fill-rule:evenodd;clip-rule:evenodd;fill:none;stroke:#969696;stroke-miterlimit:10;" d="M340.536,53.464
				c-7.089,0-12.836,4.909-12.836,10.964c0,3.619,2.062,6.819,5.227,8.816l-0.58,5.094l5.244-3.247
				c0.947,0.19,1.929,0.301,2.944,0.301c7.089,0,12.836-4.909,12.836-10.964C353.372,58.373,347.625,53.464,340.536,53.464z"/>
		</g>
		<g>
			<g>
				<g>
					<g>
						<path style="fill-rule:evenodd;clip-rule:evenodd;fill:none;stroke:#969696;stroke-miterlimit:10;" d="M66.177,282.65v24.867
							c0,2.618-2.122,4.74-4.74,4.74H31.211c-2.618,0-4.74-2.122-4.74-4.74V277.29c0-2.618,2.122-4.74,4.74-4.74h27.028"/>
					</g>
				</g>
				<path style="fill-rule:evenodd;clip-rule:evenodd;fill:none;stroke:#969696;stroke-miterlimit:10;" d="M71.012,276.038
					c0-3.873-3.139-7.012-7.012-7.012s-7.012,3.139-7.012,7.012c0,3.873,3.139,7.012,7.012,7.012S71.012,279.91,71.012,276.038z"/>
			</g>
			<path style="fill-rule:evenodd;clip-rule:evenodd;fill:none;stroke:#969696;stroke-miterlimit:10;" d="M46.536,279.464
				c-7.089,0-12.836,4.909-12.836,10.964c0,3.619,2.062,6.819,5.227,8.816l-0.58,5.094l5.244-3.247
				c0.947,0.19,1.929,0.301,2.944,0.301c7.089,0,12.836-4.909,12.836-10.964C59.372,284.373,53.625,279.464,46.536,279.464z"/>
		</g>
		<g>
			
				<rect x="288.1" y="61.049" transform="matrix(0.7071 -0.7071 0.7071 0.7071 38.3146 228.5987)" style="fill:none;stroke:#969696;stroke-miterlimit:10;" width="14" height="14"/>
			
				<rect x="344.1" y="370.049" transform="matrix(0.7071 -0.7071 0.7071 0.7071 -163.7793 358.7006)" style="fill:none;stroke:#969696;stroke-miterlimit:10;" width="14" height="14"/>
			
				<rect x="57.1" y="397.049" transform="matrix(0.7071 -0.7071 0.7071 0.7071 -266.9315 163.6693)" style="fill:none;stroke:#969696;stroke-miterlimit:10;" width="14" height="14"/>
			
				<rect x="189.883" y="29.232" transform="matrix(0.7071 -0.7071 0.7071 0.7071 33.3642 146.6474)" style="fill:none;stroke:#969696;stroke-miterlimit:10;" width="7.636" height="7.636"/>
			
				<rect x="57.782" y="251.231" transform="matrix(0.7071 -0.7071 0.7071 0.7071 -162.3049 118.2604)" style="fill:none;stroke:#969696;stroke-miterlimit:10;" width="7.636" height="7.636"/>
			
				<rect x="423.883" y="106.231" transform="matrix(0.7071 -0.7071 0.7071 0.7071 47.4542 334.6634)" style="fill:none;stroke:#969696;stroke-miterlimit:10;" width="7.636" height="7.636"/>
			<circle style="fill:none;stroke:#969696;stroke-miterlimit:10;" cx="131.1" cy="97.049" r="4"/>
			<circle style="fill:none;stroke:#969696;stroke-miterlimit:10;" cx="442.1" cy="314.049" r="4"/>
			<circle style="fill:none;stroke:#969696;stroke-miterlimit:10;" cx="345.1" cy="112.049" r="4"/>
			<circle style="fill:none;stroke:#969696;stroke-miterlimit:10;" cx="461" cy="239.049" r="2"/>
			<circle style="fill:none;stroke:#969696;stroke-miterlimit:10;" cx="32.1" cy="142.049" r="4"/>
		</g>
		<g>
			<g>
				<g>
					<g>
						<g>
							<path style="fill-rule:evenodd;clip-rule:evenodd;fill:none;stroke:#969696;stroke-miterlimit:10;" d="M448.689,157.74
								v19.291c0,2.031-1.646,3.677-3.677,3.677h-23.449c-2.031,0-3.677-1.646-3.677-3.677v-23.45c0-2.031,1.646-3.677,3.677-3.677
								h20.968"/>
						</g>
					</g>
					
						<circle style="fill-rule:evenodd;clip-rule:evenodd;fill:none;stroke:#969696;stroke-miterlimit:10;" cx="447" cy="152.61" r="5.44"/>
				</g>
			</g>
			<path id="XMLID_13_" style="fill:none;stroke:#969696;stroke-miterlimit:10;" d="M424.879,170.727
				c1.58,1.013,3.456,1.604,5.471,1.604c6.627,0,10.371-5.597,10.145-10.618c0.697-0.503,1.302-1.131,1.781-1.848
				c-0.641,0.284-1.329,0.476-2.05,0.562c0.737-0.441,1.303-1.14,1.569-1.975c-0.69,0.409-1.454,0.706-2.266,0.867
				c-0.651-0.694-1.579-1.127-2.606-1.127c-2.303,0-3.997,2.15-3.477,4.382c-2.967-0.149-5.597-1.57-7.357-3.73
				c-0.935,1.605-0.485,3.704,1.105,4.766c-0.585-0.018-1.136-0.18-1.617-0.447c-0.038,1.654,1.146,3.2,2.863,3.545
				c-0.502,0.137-1.053,0.168-1.611,0.061c0.453,1.419,1.772,2.45,3.334,2.479C428.663,170.425,426.773,170.95,424.879,170.727z"/>
		</g>
	</g>
</g>
<g id="Plants">
	<g>
		<path style="fill:#92E3A9;" d="M74.933,189.093c3.075,1.344,10.599,1.174,10.604,1.174c0.078-0.002-1.617-4.925-1.759-5.223
			c-1.651-3.453-6.871-9.154-11.118-8.58c-3.06,0.414-4.761,3.476-4.07,6.357C69.295,185.763,72.313,187.948,74.933,189.093z"/>
		<path style="fill:#92E3A9;" d="M151.026,190.748c0.066,0.042,1.368-4.999,1.414-5.327c0.528-3.791-0.681-11.425-4.54-13.29
			c-2.78-1.343-5.888,0.272-6.901,3.056c-1.035,2.844,0.277,6.332,1.83,8.732C144.653,186.736,151.021,190.745,151.026,190.748z"/>
		<path style="fill:#92E3A9;" d="M173.481,163.486c-4.261-0.458-9.325,5.381-10.882,8.878c-0.134,0.302-1.696,5.269-1.617,5.269
			c0,0,0.073-0.001,0.091-0.001c-0.807,0.916-1.661,1.907-2.572,3.009c-1.667,2.048-3.532,4.377-5.39,7.049
			c-1.864,2.665-3.815,5.613-5.588,8.904c-1.783,3.296-3.49,6.854-4.774,10.747c-0.015,0.044-0.024,0.092-0.038,0.136
			c0.022-1.255-0.034-4.768-0.069-5.037c-0.492-3.795-3.673-10.84-7.888-11.62c-3.037-0.561-5.608,1.818-5.85,4.77
			c-0.247,3.016,1.939,6.034,4.072,7.938c2.404,2.148,9.078,4.227,9.61,4.391c-1.189,3.719-2.108,7.632-2.819,11.643
			c-0.409,2.293-0.75,4.615-1.062,6.948c-0.016-1.086-0.038-2.057-0.056-2.193c-0.492-3.796-3.673-10.84-7.888-11.619
			c-3.037-0.561-5.608,1.817-5.85,4.77c-0.247,3.016,1.939,6.034,4.072,7.938c2.163,1.932,7.818,3.82,9.32,4.299
			c-0.11,0.896-0.231,1.79-0.337,2.686c-0.514,4.301-1.008,8.596-1.622,12.793c-0.215,1.479-0.482,2.928-0.744,4.379
			c-0.015-0.965-0.036-1.777-0.052-1.9c-0.492-3.796-3.673-10.84-7.888-11.619c-3.036-0.562-5.608,1.817-5.85,4.771
			c-0.247,3.015,1.94,6.033,4.071,7.938c2.064,1.844,7.268,3.633,9.051,4.211c-0.313,1.477-0.623,2.958-0.993,4.375
			c-0.275,0.962-0.472,1.908-0.801,2.859c-0.306,0.949-0.609,1.888-0.909,2.818c-0.644,1.77-1.297,3.6-1.969,5.31
			c-0.458,1.193-0.916,2.322-1.375,3.46c0.232-1.47,0.625-4.357,0.631-4.602c0.059-2.542-0.844-6.676-2.641-9.581
			c0.011-0.375-0.011-0.75-0.07-1.122c-0.47-2.925-3.218-5.097-6.202-4.303c-4.142,1.103-6.768,8.373-6.965,12.195
			c-0.012,0.225,0.136,2.686,0.255,4.237c-0.208-0.901-0.4-1.778-0.627-2.703c-0.434-1.832-0.921-3.647-1.438-5.602
			c-0.283-0.935-0.569-1.88-0.858-2.834c-0.266-0.952-0.668-1.924-1-2.897c-0.82-2.24-1.758-4.469-2.754-6.695
			c1.603-0.384,7.276-1.83,9.554-3.579c2.268-1.74,4.673-4.587,4.651-7.613c-0.021-2.962-2.408-5.526-5.478-5.193
			c-4.261,0.463-7.959,7.25-8.732,10.999c-0.048,0.234-0.301,2.985-0.41,4.5c-0.609-1.333-1.21-2.667-1.87-3.995
			c-1.904-3.836-3.951-7.658-5.977-11.481c-0.621-1.171-1.225-2.344-1.836-3.517c0.572-0.13,7.353-1.704,9.904-3.661
			c2.268-1.74,4.673-4.587,4.652-7.613c-0.021-2.962-2.408-5.526-5.478-5.193c-4.261,0.463-7.959,7.251-8.732,10.999
			c-0.058,0.282-0.416,4.243-0.457,5.254c-1.342-2.584-2.655-5.17-3.846-7.773c-1.649-3.589-3.068-7.202-4.184-10.804
			c0.266-0.06,7.351-1.67,9.964-3.675c2.268-1.74,4.673-4.587,4.651-7.613c-0.021-2.963-2.408-5.526-5.478-5.193
			c-4.261,0.463-7.959,7.251-8.732,10.999c-0.051,0.247-0.327,3.265-0.424,4.703c-0.134,0.014-0.109,0.012-0.243,0.026
			c-1.15-3.874-1.775-7.77-2.18-11.446c-0.239-2.129-0.349-4.177-0.41-6.171c1.35-0.164,7.512-0.985,10.064-2.53
			c2.445-1.481,5.149-4.046,5.46-7.056c0.304-2.947-1.787-5.758-4.875-5.763c-4.286-0.008-8.706,6.333-9.887,9.973
			c-0.064,0.198-0.494,2.283-0.786,3.806c-0.014-0.9-0.045-1.83-0.041-2.693c0.006-3.241,0.211-6.208,0.414-8.835
			c0.127-1.493,0.272-2.84,0.421-4.099c1.241-0.853,6.198-4.352,7.722-6.853c1.488-2.441,2.705-5.964,1.594-8.778
			c-1.088-2.756-4.239-4.286-6.982-2.869c-3.808,1.968-4.809,9.633-4.179,13.408c0.055,0.326,1.492,5.331,1.558,5.287
			c0,0,0.061-0.041,0.075-0.051c-0.168,1.208-0.333,2.507-0.485,3.928c-0.261,2.627-0.531,5.599-0.608,8.853
			c-0.084,3.251-0.085,6.786,0.25,10.509c0.331,3.732,0.87,7.642,1.947,11.598c0.012,0.045,0.031,0.09,0.043,0.134
			c-0.674-1.059-2.658-3.958-2.836-4.163c-2.504-2.894-9.044-7.014-12.989-5.34c-2.842,1.207-3.675,4.61-2.248,7.206
			c1.458,2.651,4.946,3.962,7.775,4.375c3.19,0.465,9.904-1.482,10.438-1.639c1.06,3.758,2.452,7.529,4.072,11.267
			c0.923,2.138,1.92,4.263,2.946,6.381c-0.612-0.897-1.167-1.695-1.256-1.798c-2.505-2.895-9.045-7.014-12.989-5.339
			c-2.842,1.207-3.675,4.609-2.248,7.206c1.457,2.652,4.946,3.963,7.775,4.375c2.87,0.418,8.627-1.127,10.146-1.556
			c0.402,0.808,0.795,1.62,1.2,2.427c1.945,3.871,3.901,7.726,5.705,11.565c0.637,1.353,1.213,2.708,1.796,4.063
			c-0.545-0.796-1.01-1.463-1.092-1.557c-2.504-2.894-9.044-7.015-12.989-5.34c-2.842,1.207-3.675,4.61-2.247,7.206
			c1.458,2.651,4.946,3.962,7.775,4.374c2.739,0.399,8.066-0.979,9.872-1.48c0.554,1.405,1.112,2.811,1.585,4.197
			c0.302,0.954,0.659,1.851,0.909,2.826c0.268,0.96,0.533,1.91,0.796,2.852c0.439,1.831,0.904,3.718,1.287,5.515
			c0.277,1.248,0.517,2.442,0.762,3.645c-0.617-1.354-1.882-3.979-2.013-4.187c-2.036-3.24-7.876-8.304-12.03-7.246
			c-2.992,0.763-4.331,4-3.313,6.782c1.039,2.842,4.289,4.666,7.022,5.502c3.01,0.92,9.674,0.079,10.506-0.031
			c0.399,1.991,0.769,3.931,1.088,5.768c1.112,6.304,1.801,11.602,2.234,15.337h2.905c-0.012-0.085-0.021-0.161-0.033-0.248
			c-0.52-3.775-1.336-9.154-2.609-15.555c-0.397-2.024-0.863-4.178-1.361-6.386c0.501-0.199,3.343-1.349,5.861-2.756
			c2.194,2.375,7.815,5.156,8.543,5.509c-0.765,1.881-1.528,3.703-2.274,5.411c-2.551,5.871-4.898,10.67-6.598,14.024h3.188
			c1.575-3.327,3.591-7.76,5.748-13.035c0.785-1.907,1.586-3.96,2.388-6.077c0.806,0.169,7.403,1.509,10.477,0.815
			c2.788-0.63,6.165-2.207,7.413-4.964c1.222-2.699,0.128-6.027-2.799-7.01c-4.063-1.365-10.264,3.249-12.537,6.329
			c-0.134,0.182-1.368,2.315-2.125,3.674c0.324-0.866,0.647-1.704,0.969-2.6c0.648-1.767,1.244-3.55,1.891-5.466
			c0.28-0.936,0.563-1.882,0.848-2.837c0.304-0.941,0.505-1.973,0.764-2.969c0.552-2.32,0.999-4.698,1.396-7.103
			c1.549,0.564,7.079,2.488,9.943,2.286c2.851-0.2,6.428-1.248,8.079-3.783c1.617-2.483,1.04-5.938-1.704-7.354
			c-3.809-1.964-10.638,1.657-13.351,4.357c-0.169,0.168-1.898,2.324-2.825,3.527c0.228-1.448,0.462-2.892,0.644-4.364
			c0.528-4.249,0.929-8.567,1.349-12.873c0.128-1.319,0.271-2.631,0.41-3.946c0.549,0.207,7.072,2.635,10.28,2.41
			c2.852-0.2,6.428-1.248,8.08-3.783c1.616-2.483,1.04-5.938-1.705-7.353c-3.809-1.965-10.638,1.657-13.351,4.356
			c-0.204,0.204-2.687,3.309-3.28,4.13c0.306-2.895,0.638-5.778,1.08-8.605c0.605-3.904,1.414-7.7,2.471-11.319
			c0.255,0.097,7.053,2.662,10.338,2.432c2.852-0.2,6.429-1.248,8.08-3.784c1.617-2.482,1.04-5.938-1.704-7.353
			c-3.81-1.965-10.638,1.657-13.351,4.357c-0.178,0.177-2.072,2.541-2.947,3.687c-0.12-0.062-0.098-0.051-0.218-0.113
			c1.178-3.864,2.806-7.458,4.495-10.747c0.975-1.907,2.013-3.676,3.063-5.374c1.217,0.608,6.809,3.323,9.789,3.442
			c2.857,0.114,6.527-0.534,8.446-2.873c1.88-2.29,1.686-5.788-0.886-7.496c-3.57-2.371-10.756,0.479-13.748,2.864
			c-0.163,0.13-1.671,1.632-2.755,2.741c0.485-0.759,0.972-1.551,1.451-2.269c1.793-2.7,3.601-5.062,5.219-7.141
			c0.93-1.175,1.794-2.218,2.612-3.187c1.505-0.027,7.57-0.211,10.221-1.455c2.587-1.215,5.546-3.482,6.172-6.442
			C178.334,166.832,176.551,163.816,173.481,163.486z"/>
	</g>
	<g>
		<path style="fill:#92E3A9;" d="M240.956,319.637c3.468,1.515,11.951,1.324,11.958,1.324c0.088-0.002-1.823-5.553-1.984-5.89
			c-1.862-3.893-7.748-10.323-12.538-9.676c-3.45,0.466-5.369,3.92-4.59,7.168C234.598,315.882,238.002,318.346,240.956,319.637z"/>
		<path style="fill:#92E3A9;" d="M326.762,321.503c0.074,0.047,1.543-5.637,1.595-6.007c0.595-4.274-0.768-12.884-5.12-14.986
			c-3.135-1.514-6.64,0.307-7.782,3.446c-1.167,3.206,0.313,7.14,2.064,9.846C319.575,316.979,326.757,321.5,326.762,321.503z"/>
		<path style="fill:#92E3A9;" d="M352.082,290.762c-4.805-0.517-10.515,6.068-12.271,10.011c-0.151,0.341-1.912,5.942-1.823,5.941
			c0,0,0.082-0.001,0.102-0.001c-0.91,1.033-1.873,2.15-2.9,3.392c-1.879,2.309-3.982,4.936-6.078,7.948
			c-2.102,3.005-4.302,6.329-6.302,10.04c-2.01,3.717-3.935,7.728-5.384,12.119c-0.017,0.05-0.027,0.103-0.043,0.153
			c0.025-1.415-0.038-5.376-0.078-5.68c-0.555-4.28-4.142-12.224-8.895-13.103c-3.424-0.632-6.324,2.05-6.597,5.379
			c-0.278,3.4,2.187,6.804,4.591,8.952c2.711,2.422,10.237,4.767,10.836,4.952c-1.341,4.194-2.377,8.606-3.179,13.13
			c-0.461,2.586-0.846,5.204-1.198,7.834c-0.018-1.225-0.043-2.319-0.063-2.472c-0.555-4.28-4.142-12.224-8.895-13.102
			c-3.424-0.633-6.324,2.049-6.597,5.379c-0.279,3.401,2.187,6.804,4.591,8.952c2.439,2.179,8.815,4.307,10.51,4.848
			c-0.124,1.01-0.26,2.018-0.38,3.029c-0.58,4.85-1.137,9.693-1.829,14.426c-0.243,1.668-0.544,3.302-0.839,4.938
			c-0.017-1.088-0.04-2.004-0.058-2.143c-0.555-4.281-4.142-12.224-8.895-13.102c-3.424-0.633-6.324,2.049-6.596,5.38
			c-0.279,3.4,2.187,6.804,4.591,8.951c2.328,2.079,8.195,4.096,10.206,4.749c-0.353,1.666-0.703,3.335-1.12,4.934
			c-0.31,1.085-0.532,2.151-0.903,3.224c-0.345,1.07-0.687,2.129-1.025,3.177c-0.726,1.996-1.463,4.059-2.22,5.988
			c-0.516,1.346-1.033,2.618-1.55,3.902c0.262-1.657,0.705-4.913,0.711-5.189c0.066-2.867-0.952-7.528-2.978-10.804
			c0.012-0.423-0.012-0.846-0.079-1.265c-0.53-3.298-3.629-5.748-6.994-4.852c-4.67,1.243-7.632,9.441-7.854,13.751
			c-0.013,0.254,0.154,3.029,0.287,4.777c-0.235-1.016-0.451-2.005-0.707-3.048c-0.49-2.066-1.039-4.113-1.622-6.318
			c-0.319-1.054-0.641-2.12-0.967-3.195c-0.299-1.074-0.753-2.17-1.128-3.267c-0.924-2.525-1.983-5.04-3.105-7.549
			c1.808-0.434,8.205-2.064,10.774-4.035c2.557-1.962,5.269-5.173,5.245-8.584c-0.024-3.34-2.715-6.232-6.177-5.856
			c-4.805,0.522-8.975,8.176-9.846,12.403c-0.055,0.264-0.339,3.367-0.462,5.074c-0.687-1.504-1.365-3.007-2.109-4.505
			c-2.148-4.325-4.456-8.636-6.74-12.947c-0.701-1.32-1.382-2.644-2.07-3.966c0.645-0.147,8.291-1.921,11.168-4.129
			c2.557-1.962,5.27-5.173,5.246-8.585c-0.024-3.34-2.716-6.232-6.177-5.856c-4.805,0.522-8.975,8.177-9.847,12.403
			c-0.065,0.318-0.469,4.784-0.516,5.925c-1.513-2.913-2.994-5.83-4.337-8.766c-1.859-4.047-3.46-8.121-4.718-12.183
			c0.3-0.068,8.289-1.883,11.236-4.144c2.557-1.962,5.27-5.173,5.245-8.584c-0.024-3.341-2.716-6.232-6.177-5.856
			c-4.805,0.522-8.975,8.176-9.847,12.402c-0.057,0.278-0.368,3.682-0.478,5.303c-0.151,0.016-0.123,0.013-0.274,0.03
			c-1.296-4.368-2.001-8.762-2.459-12.907c-0.269-2.4-0.393-4.71-0.462-6.959c1.522-0.185,8.471-1.111,11.348-2.853
			c2.758-1.67,5.806-4.563,6.157-7.956c0.343-3.323-2.015-6.492-5.497-6.499c-4.833-0.009-9.818,7.141-11.149,11.246
			c-0.072,0.223-0.557,2.574-0.886,4.291c-0.016-1.015-0.051-2.063-0.047-3.037c0.006-3.655,0.238-7.001,0.466-9.963
			c0.144-1.684,0.307-3.203,0.475-4.622c1.399-0.962,6.989-4.907,8.708-7.727c1.678-2.752,3.05-6.725,1.798-9.898
			c-1.227-3.107-4.78-4.833-7.873-3.235c-4.294,2.22-5.423,10.862-4.713,15.12c0.062,0.368,1.683,6.011,1.757,5.961
			c0,0,0.068-0.046,0.085-0.058c-0.189,1.363-0.376,2.827-0.547,4.43c-0.294,2.963-0.599,6.314-0.685,9.983
			c-0.095,3.666-0.096,7.652,0.283,11.85c0.374,4.209,0.981,8.617,2.195,13.078c0.014,0.051,0.035,0.101,0.048,0.151
			c-0.76-1.194-2.997-4.463-3.198-4.695c-2.824-3.264-10.198-7.91-14.647-6.021c-3.205,1.361-4.144,5.198-2.535,8.126
			c1.644,2.99,5.578,4.468,8.767,4.933c3.597,0.524,11.168-1.671,11.77-1.848c1.195,4.238,2.766,8.49,4.592,12.705
			c1.041,2.411,2.165,4.807,3.322,7.195c-0.691-1.011-1.315-1.911-1.416-2.027c-2.824-3.264-10.199-7.91-14.647-6.021
			c-3.205,1.361-4.144,5.198-2.534,8.125c1.643,2.99,5.578,4.469,8.768,4.934c3.236,0.471,9.729-1.27,11.441-1.755
			c0.454,0.911,0.896,1.827,1.353,2.736c2.193,4.365,4.399,8.712,6.433,13.041c0.718,1.526,1.368,3.054,2.025,4.582
			c-0.615-0.898-1.139-1.649-1.231-1.755c-2.824-3.264-10.198-7.91-14.647-6.021c-3.205,1.361-4.144,5.198-2.534,8.126
			c1.644,2.99,5.578,4.468,8.768,4.933c3.089,0.45,9.095-1.104,11.132-1.669c0.624,1.584,1.254,3.169,1.788,4.733
			c0.341,1.076,0.743,2.088,1.025,3.187c0.302,1.083,0.601,2.154,0.897,3.216c0.495,2.065,1.019,4.193,1.452,6.22
			c0.312,1.407,0.583,2.754,0.859,4.11c-0.696-1.527-2.123-4.487-2.27-4.721c-2.296-3.654-8.882-9.364-13.566-8.171
			c-3.374,0.86-4.884,4.51-3.736,7.648c1.172,3.204,4.836,5.262,7.919,6.205c3.394,1.037,10.908,0.089,11.846-0.036
			c0.45,2.245,0.867,4.433,1.227,6.504c1.254,7.109,2.031,13.083,2.519,17.294h3.276c-0.013-0.096-0.024-0.181-0.038-0.28
			c-0.586-4.257-1.507-10.322-2.942-17.54c-0.448-2.282-0.972-4.711-1.534-7.201c0.565-0.224,3.769-1.52,6.609-3.107
			c2.474,2.678,8.812,5.814,9.633,6.213c-0.863,2.121-1.723,4.176-2.565,6.102c-2.876,6.62-5.523,12.032-7.44,15.814h3.595
			c1.776-3.751,4.05-8.75,6.482-14.699c0.885-2.151,1.788-4.466,2.693-6.853c0.909,0.19,8.348,1.702,11.815,0.919
			c3.144-0.711,6.952-2.489,8.359-5.597c1.378-3.044,0.145-6.796-3.156-7.905c-4.581-1.539-11.574,3.664-14.137,7.137
			c-0.151,0.205-1.543,2.611-2.396,4.143c0.365-0.977,0.729-1.921,1.092-2.932c0.731-1.993,1.402-4.004,2.132-6.164
			c0.316-1.056,0.635-2.122,0.956-3.199c0.342-1.061,0.569-2.225,0.862-3.348c0.622-2.616,1.127-5.297,1.574-8.01
			c1.747,0.636,7.982,2.805,11.212,2.578c3.215-0.226,7.249-1.407,9.111-4.266c1.823-2.8,1.173-6.696-1.922-8.292
			c-4.296-2.215-11.996,1.869-15.055,4.913c-0.191,0.19-2.14,2.621-3.185,3.977c0.257-1.633,0.521-3.261,0.727-4.921
			c0.595-4.792,1.048-9.661,1.521-14.516c0.144-1.488,0.306-2.967,0.462-4.45c0.619,0.233,7.975,2.971,11.593,2.717
			c3.216-0.225,7.249-1.407,9.111-4.266c1.823-2.799,1.173-6.696-1.922-8.292c-4.295-2.215-11.996,1.868-15.055,4.913
			c-0.23,0.229-3.03,3.732-3.699,4.657c0.345-3.265,0.719-6.515,1.218-9.704c0.683-4.402,1.595-8.683,2.786-12.764
			c0.288,0.11,7.953,3.002,11.658,2.742c3.216-0.226,7.249-1.407,9.111-4.267c1.823-2.799,1.173-6.695-1.922-8.292
			c-4.296-2.215-11.996,1.869-15.055,4.913c-0.201,0.2-2.336,2.865-3.323,4.157c-0.135-0.07-0.11-0.057-0.245-0.127
			c1.328-4.357,3.164-8.41,5.069-12.119c1.1-2.151,2.27-4.145,3.454-6.059c1.372,0.685,7.678,3.747,11.039,3.881
			c3.221,0.128,7.36-0.602,9.524-3.239c2.119-2.583,1.901-6.527-1-8.453c-4.026-2.674-12.129,0.54-15.503,3.23
			c-0.184,0.146-1.885,1.84-3.106,3.091c0.547-0.856,1.096-1.749,1.636-2.559c2.022-3.045,4.06-5.708,5.885-8.053
			c1.049-1.325,2.023-2.501,2.946-3.593c1.698-0.03,8.536-0.238,11.526-1.641c2.918-1.37,6.254-3.926,6.96-7.264
			C357.556,294.534,355.544,291.134,352.082,290.762z"/>
	</g>
	<g>
		<path style="fill:#92E3A9;" d="M76.957,341.411c3.151,1.028,10.532,0.144,10.537,0.143c0.076-0.009-2.059-4.687-2.227-4.967
			c-1.953-3.237-7.628-8.344-11.749-7.375c-2.969,0.698-4.35,3.871-3.396,6.637C71.096,338.675,74.272,340.535,76.957,341.411z"/>
		<path style="fill:#92E3A9;" d="M151.923,335.783c0.069,0.035,0.868-5.045,0.882-5.372c0.157-3.777-1.759-11.167-5.731-12.632
			c-2.861-1.055-5.763,0.829-6.494,3.663c-0.746,2.894,0.876,6.199,2.632,8.41C145.275,332.447,151.918,335.781,151.923,335.783z"/>
		<path style="fill:#92E3A9;" d="M171.399,306.841c-4.233-0.044-8.654,6.18-9.852,9.765c-0.103,0.31-1.165,5.342-1.087,5.334
			c0,0,0.072-0.008,0.089-0.01c-0.706,0.977-1.451,2.033-2.242,3.203c-1.443,2.172-3.055,4.64-4.627,7.443
			c-1.578,2.798-3.215,5.882-4.645,9.286c-1.438,3.41-2.777,7.07-3.669,11.021c-0.01,0.045-0.015,0.092-0.025,0.137
			c-0.098-1.236-0.488-4.684-0.548-4.945c-0.845-3.685-4.645-10.307-8.862-10.671c-3.039-0.262-5.34,2.322-5.296,5.248
			c0.045,2.988,2.482,5.747,4.76,7.416c2.568,1.882,9.328,3.29,9.866,3.401c-0.815,3.77-1.344,7.704-1.662,11.716
			c-0.184,2.293-0.297,4.609-0.382,6.932c-0.119-1.066-0.234-2.019-0.264-2.15c-0.845-3.685-4.645-10.307-8.862-10.671
			c-3.039-0.262-5.34,2.321-5.296,5.247c0.044,2.988,2.482,5.747,4.76,7.416c2.311,1.693,8.05,3.01,9.573,3.338
			c-0.023,0.892-0.056,1.782-0.076,2.673c-0.096,4.278-0.172,8.547-0.375,12.732c-0.071,1.475-0.195,2.925-0.314,4.376
			c-0.107-0.947-0.205-1.744-0.232-1.863c-0.846-3.685-4.645-10.307-8.863-10.671c-3.038-0.263-5.34,2.321-5.296,5.248
			c0.044,2.987,2.482,5.747,4.76,7.416c2.205,1.616,7.491,2.878,9.3,3.277c-0.167,1.482-0.331,2.967-0.559,4.396
			c-0.178,0.972-0.282,1.92-0.515,2.887c-0.21,0.962-0.419,1.914-0.625,2.857c-0.465,1.801-0.932,3.663-1.43,5.409
			c-0.336,1.217-0.68,2.37-1.022,3.533c0.088-1.467,0.199-4.343,0.181-4.584c-0.184-2.505-1.466-6.482-3.51-9.167
			c-0.025-0.37-0.082-0.736-0.176-1.096c-0.741-2.831-3.65-4.704-6.507-3.639c-3.967,1.479-5.856,8.876-5.685,12.653
			c0.01,0.223,0.39,2.627,0.654,4.141c-0.291-0.866-0.563-1.71-0.874-2.597c-0.602-1.759-1.254-3.498-1.948-5.371
			c-0.367-0.892-0.738-1.794-1.113-2.704c-0.352-0.911-0.84-1.828-1.26-2.753c-1.019-2.124-2.155-4.226-3.346-6.319
			c1.539-0.531,6.979-2.493,9.052-4.429c2.063-1.927,4.157-4.955,3.847-7.927c-0.303-2.91-2.894-5.203-5.881-4.583
			c-4.145,0.861-7.133,7.887-7.536,11.646c-0.025,0.234-0.011,2.964,0.026,4.463c-0.726-1.253-1.444-2.506-2.219-3.75
			c-2.238-3.589-4.615-7.152-6.97-10.718c-0.723-1.092-1.428-2.188-2.14-3.283c0.55-0.183,7.066-2.376,9.388-4.544
			c2.064-1.927,4.157-4.955,3.848-7.928c-0.304-2.91-2.895-5.203-5.881-4.583c-4.145,0.861-7.133,7.887-7.536,11.646
			c-0.03,0.283-0.004,4.211,0.051,5.209c-1.565-2.412-3.104-4.83-4.522-7.275c-1.963-3.372-3.703-6.788-5.143-10.222
			c0.256-0.085,7.067-2.343,9.446-4.563c2.064-1.927,4.157-4.955,3.847-7.928c-0.303-2.91-2.894-5.203-5.88-4.583
			c-4.145,0.861-7.133,7.887-7.536,11.645c-0.027,0.247-0.01,3.241,0.032,4.664c-0.13,0.027-0.106,0.022-0.236,0.049
			c-1.499-3.699-2.486-7.47-3.235-11.045c-0.438-2.07-0.741-4.073-0.992-6.028c1.312-0.29,7.291-1.684,9.653-3.447
			c2.263-1.689,4.676-4.469,4.695-7.457c0.018-2.926-2.306-5.49-5.342-5.201c-4.214,0.401-7.956,7.056-8.769,10.748
			c-0.044,0.201-0.268,2.291-0.41,3.816c-0.099-0.884-0.219-1.794-0.297-2.644c-0.303-3.187-0.385-6.124-0.436-8.725
			c-0.017-1.48-0.003-2.818,0.023-4.07c1.139-0.957,5.678-4.869,6.939-7.473c1.23-2.541,2.091-6.121,0.73-8.781
			c-1.333-2.605-4.576-3.81-7.138-2.155c-3.556,2.298-3.809,9.928-2.83,13.58c0.085,0.316,1.975,5.098,2.036,5.049
			c0,0,0.056-0.046,0.069-0.058c-0.049,1.204-0.088,2.496-0.102,3.908c-0.006,2.608,0.012,5.555,0.247,8.761
			c0.227,3.204,0.563,6.679,1.248,10.307c0.682,3.638,1.584,7.43,3.02,11.216c0.016,0.043,0.039,0.085,0.055,0.128
			c-0.764-0.977-2.991-3.638-3.185-3.823c-2.738-2.606-9.56-6.034-13.279-4.011c-2.679,1.458-3.173,4.882-1.523,7.299
			c1.686,2.467,5.241,3.424,8.061,3.56c3.181,0.153,9.596-2.401,10.105-2.607c1.4,3.594,3.129,7.168,5.077,10.688
			c1.111,2.014,2.294,4.008,3.505,5.992c-0.688-0.823-1.309-1.555-1.406-1.648c-2.738-2.607-9.561-6.034-13.279-4.011
			c-2.679,1.458-3.173,4.882-1.523,7.298c1.685,2.468,5.241,3.424,8.061,3.56c2.861,0.137,8.374-1.93,9.826-2.497
			c0.472,0.756,0.936,1.517,1.411,2.271c2.281,3.62,4.572,7.223,6.711,10.826c0.755,1.27,1.451,2.547,2.153,3.823
			c-0.612-0.731-1.133-1.342-1.222-1.426c-2.738-2.607-9.56-6.034-13.279-4.011c-2.679,1.458-3.173,4.882-1.522,7.299
			c1.686,2.467,5.24,3.424,8.061,3.559c2.731,0.131,7.836-1.731,9.564-2.396c0.678,1.328,1.361,2.657,1.959,3.975
			c0.388,0.909,0.825,1.757,1.163,2.692c0.355,0.918,0.706,1.827,1.054,2.728c0.606,1.759,1.243,3.569,1.791,5.3
			c0.391,1.2,0.741,2.352,1.097,3.51c-0.736-1.272-2.23-3.732-2.378-3.924c-2.311-2.991-8.535-7.413-12.518-5.976
			c-2.869,1.035-3.876,4.345-2.61,6.983c1.292,2.695,4.661,4.178,7.428,4.74c3.047,0.617,9.518-0.844,10.325-1.033
			c0.582,1.919,1.131,3.792,1.619,5.567c1.694,6.092,2.877,11.234,3.658,14.865l2.856-0.277c-0.02-0.083-0.036-0.156-0.057-0.241
			c-0.871-3.662-2.186-8.872-4.048-15.043c-0.584-1.952-1.246-4.025-1.946-6.148c0.473-0.243,3.158-1.644,5.499-3.268
			c2.383,2.126,8.174,4.324,8.924,4.602c-0.573,1.922-1.149,3.786-1.72,5.537c-1.948,6.015-3.798,10.957-5.149,14.416l3.134-0.304
			c1.231-3.421,2.791-7.971,4.409-13.363c0.59-1.95,1.182-4.045,1.768-6.202c0.809,0.089,7.422,0.778,10.378-0.198
			c2.681-0.885,5.85-2.758,6.815-5.587c0.944-2.77-0.448-5.937-3.42-6.625c-4.124-0.955-9.781,4.173-11.722,7.417
			c-0.114,0.192-1.124,2.406-1.739,3.815c0.235-0.883,0.474-1.737,0.704-2.648c0.469-1.799,0.884-3.609,1.338-5.554
			c0.186-0.947,0.374-1.904,0.563-2.87c0.209-0.954,0.308-1.988,0.468-2.991c0.321-2.333,0.534-4.714,0.696-7.116
			c1.577,0.407,7.196,1.771,9.993,1.3c2.784-0.469,6.201-1.84,7.582-4.49c1.353-2.595,0.456-5.937-2.377-7.067
			c-3.932-1.568-10.3,2.643-12.71,5.556c-0.15,0.182-1.644,2.466-2.441,3.737c0.086-1.445,0.179-2.887,0.217-4.352
			c0.114-4.228,0.097-8.511,0.099-12.784c0-1.309,0.016-2.613,0.027-3.919c0.559,0.151,7.204,1.916,10.337,1.389
			c2.784-0.468,6.201-1.84,7.582-4.49c1.352-2.595,0.456-5.936-2.377-7.066c-3.932-1.568-10.301,2.643-12.71,5.556
			c-0.182,0.22-2.327,3.51-2.831,4.373c0.025-2.875,0.076-5.741,0.241-8.563c0.223-3.895,0.656-7.705,1.35-11.364
			c0.26,0.071,7.187,1.945,10.396,1.405c2.785-0.469,6.201-1.84,7.582-4.49c1.353-2.594,0.456-5.936-2.377-7.066
			c-3.933-1.568-10.3,2.643-12.71,5.556c-0.159,0.191-1.795,2.695-2.546,3.905c-0.123-0.049-0.101-0.04-0.225-0.09
			c0.79-3.911,2.048-7.6,3.395-10.995c0.777-1.968,1.629-3.806,2.499-5.575c1.254,0.481,7.011,2.617,9.952,2.451
			c2.819-0.16,6.366-1.148,8.03-3.629c1.63-2.431,1.106-5.851-1.586-7.285c-3.736-1.99-10.529,1.496-13.243,4.126
			c-0.148,0.143-1.487,1.763-2.447,2.958c0.405-0.792,0.808-1.618,1.21-2.369c1.505-2.825,3.057-5.32,4.45-7.518
			c0.803-1.243,1.552-2.352,2.265-3.382c1.477-0.17,7.422-0.929,9.91-2.405c2.428-1.441,5.12-3.952,5.453-6.922
			C176.49,309.667,174.449,306.873,171.399,306.841z"/>
	</g>
</g>
<g id="Device">
	<g>
		<g>
			<path id="XMLID_12_" style="fill:#263238;" d="M290.704,448.049H130.661c-8.02,0-14.522-6.502-14.522-14.522V93.571
				c0-8.02,6.502-14.522,14.522-14.522h160.043c8.02,0,14.522,6.502,14.522,14.522v339.956
				C305.226,441.548,298.724,448.049,290.704,448.049z"/>
			<path style="fill:none;stroke:#FFFFFF;stroke-linecap:round;stroke-linejoin:round;stroke-miterlimit:10;" d="M216.425,436.049
				c0-3.549-2.877-6.425-6.425-6.425c-3.548,0-6.425,2.876-6.425,6.425c0,3.548,2.877,6.425,6.425,6.425
				C213.548,442.474,216.425,439.598,216.425,436.049z"/>
			<path style="opacity:0.3;fill:#FFFFFF;" d="M235.158,79.049H130.661c-8.02,0-14.522,6.502-14.522,14.522v289.016L235.158,79.049z
				"/>
			
				<rect id="XMLID_11_" x="124.548" y="104.108" style="fill:#FFFFFF;stroke:#263238;stroke-linecap:round;stroke-linejoin:round;stroke-miterlimit:10;" width="172.268" height="322.039"/>
			<g>
				<g>
					
						<rect x="276.672" y="107.449" style="fill:none;stroke:#263238;stroke-width:0.8211;stroke-linecap:round;stroke-linejoin:round;stroke-miterlimit:10;" width="14.284" height="7.833"/>
					
						<rect x="276.672" y="107.449" style="fill:#263238;stroke:#263238;stroke-width:0.7251;stroke-linecap:round;stroke-linejoin:round;stroke-miterlimit:10;" width="11.139" height="7.833"/>
					
						<rect x="290.926" y="109.641" style="fill:#263238;stroke:#263238;stroke-width:0.7251;stroke-linecap:round;stroke-linejoin:round;stroke-miterlimit:10;" width="2.012" height="3.45"/>
				</g>
				<g>
					
						<rect x="128.427" y="109.879" style="fill:#263238;stroke:#263238;stroke-width:0.8831;stroke-linecap:round;stroke-linejoin:round;stroke-miterlimit:10;" width="2.619" height="4.489"/>
					
						<rect x="132.542" y="108.303" style="fill:#263238;stroke:#263238;stroke-width:0.8831;stroke-linecap:round;stroke-linejoin:round;stroke-miterlimit:10;" width="2.619" height="6.066"/>
					
						<rect x="136.657" y="106.44" style="fill:#263238;stroke:#263238;stroke-width:0.8831;stroke-linecap:round;stroke-linejoin:round;stroke-miterlimit:10;" width="2.619" height="7.928"/>
				</g>
			</g>
			<g>
				<rect x="127.326" y="119.638" style="fill:#92E3A9;" width="165.424" height="12.435"/>
			</g>
		</g>
		<path style="fill:#263238;" d="M304.614,464.494c0,3.99-40.89,7.224-91.331,7.224c-50.441,0-91.331-3.234-91.331-7.224
			c0-3.99,40.89-7.224,91.331-7.224C263.724,457.27,304.614,460.505,304.614,464.494z"/>
		<g>
			<path style="fill-rule:evenodd;clip-rule:evenodd;fill:#263238;" d="M175.697,337.823H145.47c-2.618,0-4.74-2.122-4.74-4.74
				v-30.227c0-2.618,2.122-4.74,4.74-4.74h30.227c2.618,0,4.74,2.122,4.74,4.74v30.227
				C180.436,335.701,178.314,337.823,175.697,337.823z"/>
			<path id="XMLID_10_" style="fill:#FFFFFF;" d="M150.21,325.072c2.036,1.306,4.454,2.067,7.052,2.067
				c8.542,0,13.368-7.215,13.077-13.686c0.899-0.648,1.679-1.458,2.296-2.382c-0.826,0.366-1.712,0.614-2.642,0.724
				c0.949-0.568,1.679-1.47,2.022-2.545c-0.889,0.527-1.874,0.911-2.921,1.117c-0.84-0.894-2.035-1.453-3.359-1.453
				c-2.969,0-5.152,2.771-4.481,5.649c-3.824-0.192-7.214-2.023-9.483-4.808c-1.205,2.069-0.625,4.774,1.424,6.143
				c-0.755-0.024-1.465-0.231-2.085-0.576c-0.049,2.132,1.478,4.125,3.69,4.57c-0.648,0.176-1.357,0.216-2.077,0.078
				c0.585,1.829,2.284,3.158,4.298,3.195C155.088,324.683,152.651,325.36,150.21,325.072z"/>
		</g>
		<g>
			<path style="fill-rule:evenodd;clip-rule:evenodd;fill:#263238;" d="M226.281,337.823h-30.227c-2.618,0-4.74-2.122-4.74-4.74
				v-30.227c0-2.618,2.122-4.74,4.74-4.74h30.227c2.618,0,4.74,2.122,4.74,4.74v30.227
				C231.021,335.701,228.899,337.823,226.281,337.823z"/>
			<path id="XMLID_9_" style="fill:#FFFFFF;" d="M212.321,337.823h6.722V320.99h4.69l0.5-5.636h-5.19c0,0,0-2.104,0-3.21
				c0-1.329,0.267-1.854,1.552-1.854c1.034,0,3.638,0,3.638,0v-5.849c0,0-3.835,0-4.655,0c-5.002,0-7.257,2.203-7.257,6.419
				c0,3.673,0,4.494,0,4.494h-3.497v5.707h3.497V337.823z"/>
		</g>
		<g>
			<path style="fill-rule:evenodd;clip-rule:evenodd;fill:#263238;" d="M276.866,337.823h-30.227c-2.618,0-4.74-2.122-4.74-4.74
				v-30.227c0-2.618,2.122-4.74,4.74-4.74h30.227c2.618,0,4.74,2.122,4.74,4.74v30.227
				C281.606,335.701,279.484,337.823,276.866,337.823z"/>
			<g id="XMLID_3_">
				<path id="XMLID_6_" style="fill-rule:evenodd;clip-rule:evenodd;fill:#FFFFFF;" d="M273.29,317.386
					c-0.154-6.081-5.163-10.962-11.328-10.962c-6.091,0-11.057,4.77-11.323,10.755c-0.005,0.164-0.011,0.329-0.011,0.493
					c0,2.128,0.594,4.112,1.624,5.81l-2.043,6.033l6.277-1.995c1.624,0.891,3.491,1.401,5.476,1.401
					c6.261,0,11.333-5.035,11.333-11.249C273.296,317.577,273.296,317.482,273.29,317.386z M261.962,327.128
					c-1.937,0-3.735-0.573-5.242-1.565l-3.661,1.167l1.188-3.513c-1.141-1.56-1.815-3.475-1.815-5.545
					c0-0.308,0.016-0.615,0.048-0.918c0.467-4.786,4.542-8.537,9.482-8.537c5.004,0,9.116,3.847,9.498,8.718
					c0.021,0.244,0.032,0.488,0.032,0.737C271.492,322.888,267.215,327.128,261.962,327.128z"/>
				<path id="XMLID_5_" style="fill-rule:evenodd;clip-rule:evenodd;fill:#FFFFFF;" d="M267.157,319.944
					c-0.281-0.138-1.645-0.807-1.899-0.897c-0.255-0.096-0.441-0.138-0.626,0.138c-0.186,0.276-0.721,0.897-0.881,1.077
					c-0.164,0.186-0.323,0.207-0.605,0.069c-0.276-0.138-1.173-0.424-2.234-1.369c-0.822-0.727-1.385-1.629-1.544-1.905
					c-0.159-0.276-0.016-0.424,0.122-0.563c0.127-0.127,0.276-0.324,0.419-0.483c0.037-0.048,0.069-0.09,0.101-0.133
					c0.064-0.101,0.111-0.197,0.175-0.329c0.096-0.185,0.048-0.345-0.021-0.483c-0.069-0.138-0.626-1.496-0.86-2.048
					c-0.228-0.552-0.462-0.456-0.626-0.456c-0.159,0-0.345-0.026-0.531-0.026c-0.186,0-0.488,0.069-0.743,0.345
					c-0.255,0.276-0.971,0.945-0.971,2.303c0,0.318,0.059,0.637,0.143,0.939c0.281,0.971,0.886,1.772,0.992,1.91
					c0.138,0.18,1.921,3.056,4.743,4.165c2.828,1.099,2.828,0.732,3.337,0.685c0.509-0.043,1.645-0.663,1.873-1.311
					c0.234-0.642,0.234-1.194,0.165-1.311C267.618,320.15,267.432,320.082,267.157,319.944z"/>
			</g>
		</g>
		<g>
			<path style="fill-rule:evenodd;clip-rule:evenodd;fill:#263238;" d="M226.281,410.557h-30.227c-2.618,0-4.74-2.122-4.74-4.74
				v-30.227c0-2.618,2.122-4.74,4.74-4.74h30.227c2.618,0,4.74,2.122,4.74,4.74v30.227
				C231.021,408.435,228.899,410.557,226.281,410.557z"/>
			<path style="fill-rule:evenodd;clip-rule:evenodd;fill:#FFFFFF;" d="M211.07,377.608c-7.089,0-12.836,4.909-12.836,10.964
				c0,3.619,2.062,6.819,5.228,8.816l-0.58,5.094l5.244-3.247c0.947,0.19,1.929,0.301,2.944,0.301
				c7.089,0,12.836-4.909,12.836-10.964C223.906,382.517,218.16,377.608,211.07,377.608z"/>
		</g>
		<g>
			<g>
				<path style="fill-rule:evenodd;clip-rule:evenodd;fill:#263238;" d="M276.866,410.557h-30.227c-2.618,0-4.74-2.122-4.74-4.74
					v-30.227c0-2.618,2.122-4.74,4.74-4.74h30.227c2.618,0,4.74,2.122,4.74,4.74v30.227
					C281.606,408.435,279.484,410.557,276.866,410.557z"/>
			</g>
			<path style="fill-rule:evenodd;clip-rule:evenodd;fill:#FFFFFF;" d="M275.438,381.902h-26.99c-0.613,0-1.109,0.497-1.109,1.109
				v15.529c0,0.613,0.497,1.109,1.109,1.109h26.99c0.613,0,1.109-0.497,1.109-1.109v-15.529
				C276.547,382.398,276.051,381.902,275.438,381.902z M275.801,385.264l-8.613,5.32l7.675,5.672
				c0.443,0.328,0.538,0.954,0.209,1.398c-0.195,0.265-0.498,0.405-0.805,0.405c-0.206,0-0.415-0.064-0.594-0.196l-8.318-6.148
				l-3.083,1.904l-3.618-2.01l-8.461,6.253c-0.179,0.133-0.387,0.196-0.593,0.196c-0.307,0-0.609-0.141-0.805-0.405
				c-0.328-0.444-0.234-1.07,0.21-1.398l7.729-5.713l-8.771-4.873c-0.482-0.268-0.657-0.877-0.388-1.359
				c0.268-0.483,0.876-0.659,1.36-0.389l13.285,7.38l12.531-7.739c0.47-0.291,1.087-0.146,1.376,0.325
				C276.416,384.358,276.271,384.974,275.801,385.264z"/>
		</g>
		<path style="fill-rule:evenodd;clip-rule:evenodd;fill:#D4D4D4;" d="M269.519,263.968h-118.39
			c-8.718,0-15.785-7.067-15.785-15.785l0,0c0-8.718,7.067-15.785,15.785-15.785h118.39c8.718,0,15.785,7.067,15.785,15.785l0,0
			C285.304,256.901,278.237,263.968,269.519,263.968z"/>
		<rect x="135.343" y="168.538" style="fill-rule:evenodd;clip-rule:evenodd;fill:#808080;" width="72.469" height="45.203"/>
		<g>
			<rect x="212.118" y="168.538" style="fill-rule:evenodd;clip-rule:evenodd;fill:#808080;" width="72.469" height="45.203"/>
			<rect x="212.118" y="168.538" style="fill-rule:evenodd;clip-rule:evenodd;fill:#999999;" width="72.469" height="25.001"/>
			<g>
				<path style="fill-rule:evenodd;clip-rule:evenodd;fill:#4A4A4A;" d="M254.451,203.697c0-3.17-2.57-5.74-5.74-5.74
					c-3.17,0-5.74,2.57-5.74,5.74c0,3.17,2.57,5.74,5.74,5.74C251.881,209.437,254.451,206.867,254.451,203.697z"/>
				<polygon style="fill-rule:evenodd;clip-rule:evenodd;fill:#FFFFFF;" points="252.118,203.649 246.929,200.653 246.929,206.645 
									"/>
			</g>
			<g>
				<circle style="fill-rule:evenodd;clip-rule:evenodd;fill:#4A4A4A;" cx="275.976" cy="203.697" r="5.74"/>
				<polygon style="fill-rule:evenodd;clip-rule:evenodd;fill:#FFFFFF;" points="277.77,200.905 277.77,203.281 273.218,200.653 
					273.218,206.645 277.77,204.017 277.77,206.907 278.924,206.907 278.924,200.905 				"/>
			</g>
			<g>
				<circle style="fill-rule:evenodd;clip-rule:evenodd;fill:#4A4A4A;" cx="221.445" cy="203.697" r="5.74"/>
				<polygon style="fill-rule:evenodd;clip-rule:evenodd;fill:#FFFFFF;" points="219.841,200.905 219.841,203.281 224.393,200.653 
					224.393,206.645 219.841,204.017 219.841,206.907 218.687,206.907 218.687,200.905 				"/>
			</g>
		</g>
		<g>
			<g>
				
					<ellipse transform="matrix(0.9699 -0.2436 0.2436 0.9699 -67.4627 51.4493)" style="fill:#92E3A9;stroke:#263238;stroke-miterlimit:10;" cx="174.318" cy="298.529" rx="9.798" ry="9.798"/>
				<g>
					<path style="fill:#263238;" d="M169.073,294.009c1.494,0,1.828-0.723,2.127-1.551h1.301v12.337h-1.934v-9.411h-1.494V294.009z"
						/>
					<path style="fill:#263238;" d="M177.669,294.081c-0.615,0-1.002,0.334-1.002,1.216v1.321h-1.828v-1.198
						c0-1.974,0.984-3.102,2.883-3.102c1.898,0,2.883,1.128,2.883,3.102c0,3.877-3.85,5.322-3.85,7.35c0,0.088,0,0.176,0.018,0.264
						h3.656v1.763h-5.59v-1.516c0-3.631,3.832-4.229,3.832-7.79C178.671,294.38,178.284,294.081,177.669,294.081z"/>
				</g>
			</g>
			<g>
				
					<ellipse transform="matrix(0.987 -0.1607 0.1607 0.987 -45.0015 40.5326)" style="fill:#92E3A9;stroke:#263238;stroke-miterlimit:10;" cx="228.128" cy="298.529" rx="9.798" ry="9.798"/>
				<g>
					<path style="fill:#263238;" d="M222.884,294.009c1.494,0,1.828-0.723,2.127-1.551h1.301v12.337h-1.934v-9.411h-1.494V294.009z"
						/>
					<path style="fill:#263238;" d="M230.39,300.812v1.146c0,0.882,0.387,1.199,1.002,1.199c0.615,0,1.002-0.317,1.002-1.199v-2.714
						c0-0.881-0.387-1.216-1.002-1.216c-0.615,0-1.002,0.335-1.002,1.216v0.37h-1.828l0.352-7.155h5.098v1.763h-3.357l-0.158,2.943
						c0.352-0.582,0.914-0.899,1.688-0.899c1.424,0,2.145,1.005,2.145,2.82v2.749c0,1.974-0.984,3.102-2.883,3.102
						c-1.898,0-2.883-1.128-2.883-3.102v-1.022H230.39z"/>
				</g>
			</g>
			<g>
				
					<ellipse transform="matrix(0.7071 -0.7071 0.7071 0.7071 -130.428 282.176)" style="fill:#92E3A9;stroke:#263238;stroke-miterlimit:10;" cx="275.403" cy="298.529" rx="9.798" ry="9.798"/>
				<g>
					<path style="fill:#263238;" d="M271.793,294.081c-0.615,0-1.002,0.334-1.002,1.216v1.321h-1.828v-1.198
						c0-1.974,0.984-3.102,2.883-3.102c1.898,0,2.883,1.128,2.883,3.102c0,3.877-3.85,5.322-3.85,7.35c0,0.088,0,0.176,0.018,0.264
						h3.656v1.763h-5.59v-1.516c0-3.631,3.832-4.229,3.832-7.79C272.795,294.38,272.408,294.081,271.793,294.081z"/>
					<path style="fill:#263238;" d="M279.65,295.49c0-1.11-0.387-1.409-1.002-1.409c-0.615,0-1.002,0.334-1.002,1.216v0.793h-1.828
						v-0.67c0-1.974,0.984-3.102,2.883-3.102c1.898,0,2.883,1.128,2.883,3.102v0.317c0,1.321-0.422,2.15-1.354,2.538
						c0.967,0.423,1.354,1.339,1.354,2.591v0.969c0,1.974-0.984,3.102-2.883,3.102c-1.898,0-2.883-1.128-2.883-3.102v-1.022h1.828
						v1.146c0,0.882,0.387,1.217,1.002,1.217c0.615,0,1.002-0.3,1.002-1.392v-0.97c0-1.146-0.387-1.568-1.266-1.568h-0.65v-1.762
						h0.756c0.721,0,1.16-0.317,1.16-1.305V295.49z"/>
				</g>
			</g>
			<g>
				
					<ellipse transform="matrix(0.987 -0.1607 0.1607 0.987 -56.9189 41.4962)" style="fill:#92E3A9;stroke:#263238;stroke-miterlimit:10;" cx="228.128" cy="372.701" rx="9.798" ry="9.798"/>
				<g>
					<path style="fill:#263238;" d="M222.884,368.181c1.494,0,1.828-0.723,2.127-1.551h1.301v12.337h-1.934v-9.411h-1.494V368.181z"
						/>
					<path style="fill:#263238;" d="M228.491,369.591c0-1.974,1.037-3.102,2.936-3.102c1.898,0,2.936,1.128,2.936,3.102v6.415
						c0,1.974-1.037,3.102-2.936,3.102c-1.898,0-2.936-1.128-2.936-3.102V369.591z M230.425,376.13c0,0.882,0.387,1.217,1.002,1.217
						c0.615,0,1.002-0.335,1.002-1.217v-6.661c0-0.882-0.387-1.216-1.002-1.216c-0.615,0-1.002,0.334-1.002,1.216V376.13z"/>
				</g>
			</g>
			<g>
				
					<ellipse transform="matrix(0.976 -0.2177 0.2177 0.976 -74.5131 69.1523)" style="fill:#92E3A9;stroke:#263238;stroke-miterlimit:10;" cx="276.542" cy="372.701" rx="9.798" ry="9.798"/>
				<g>
					<path style="fill:#263238;" d="M275.323,374.984v1.146c0,0.882,0.387,1.199,1.002,1.199s1.002-0.317,1.002-1.199v-2.714
						c0-0.881-0.387-1.216-1.002-1.216s-1.002,0.335-1.002,1.216v0.37h-1.828l0.352-7.155h5.098v1.763h-3.357l-0.158,2.943
						c0.352-0.582,0.914-0.899,1.688-0.899c1.424,0,2.145,1.005,2.145,2.82v2.749c0,1.974-0.984,3.102-2.883,3.102
						c-1.898,0-2.883-1.128-2.883-3.102v-1.022H275.323z"/>
				</g>
			</g>
		</g>
		<g>
			<g>
				<path style="fill-rule:evenodd;clip-rule:evenodd;fill:#999999;" d="M175.697,410.557H145.47c-2.618,0-4.74-2.122-4.74-4.74
					v-30.227c0-2.618,2.122-4.74,4.74-4.74h30.227c2.618,0,4.74,2.122,4.74,4.74v30.227
					C180.436,408.435,178.314,410.557,175.697,410.557z"/>
			</g>
			<g>
				<ellipse style="fill-rule:evenodd;clip-rule:evenodd;fill:#FFFFFF;" cx="160.583" cy="384.537" rx="6.261" ry="8.154"/>
				<path style="fill-rule:evenodd;clip-rule:evenodd;fill:#FFFFFF;" d="M159.952,405.716c4.836,0,9.19-2.046,12.252-5.318
					c-2.607-3.155-6.82-5.208-11.584-5.208c-5.135,0-9.629,2.384-12.162,5.964C151.461,403.98,155.502,405.716,159.952,405.716z"/>
			</g>
		</g>
		<g>
			<path style="fill:#999999;" d="M146.812,144.315c0,6.794-9.245,9.058-9.384,17.454v0.139h9.245v0.732h-10.01v-0.523
				c0-9.128,9.384-11.218,9.384-17.768c0-3.066-0.973-5.574-4.344-5.574c-3.267,0-4.31,2.648-4.31,5.574v1.324h-0.73v-1.289
				c0-3.379,1.321-6.306,5.074-6.306C145.561,138.079,146.812,140.866,146.812,144.315z"/>
			<path style="fill:#999999;" d="M159.672,144.245v0.592c0,2.334-1.286,4.355-3.476,5.052c2.329,0.592,3.476,2.508,3.476,4.877
				v1.881c0,3.414-1.355,6.166-5.074,6.166c-3.719,0-5.109-2.752-5.109-6.166v-1.15h0.765v1.15c0,2.996,1.077,5.47,4.31,5.47
				s4.344-2.473,4.344-5.505v-1.846c0-2.648-1.425-4.355-4.032-4.494h-1.773v-0.697h1.807c2.468-0.209,3.997-2.16,3.997-4.633
				v-0.697c0-3.031-1.112-5.47-4.344-5.47s-4.31,2.439-4.31,5.435v0.732h-0.765v-0.697c0-3.414,1.39-6.167,5.109-6.167
				C158.317,138.079,159.672,140.831,159.672,144.245z"/>
			<path style="fill:#999999;" d="M163.183,146.544v2.822h-0.765v-2.822H163.183z M163.183,159.818v2.822h-0.765v-2.822H163.183z"/>
			<path style="fill:#999999;" d="M170.307,139.716c-0.799,1.602-2.19,2.508-4.066,2.717v-0.697
				c2.155-0.209,3.441-1.637,4.101-3.519h0.73v24.422h-0.765V139.716z"/>
			<path style="fill:#999999;" d="M175.347,149.018c0.938-1.498,2.259-2.16,4.136-2.16c3.58,0,4.901,2.787,4.901,6.097v3.693
				c0,3.38-1.39,6.166-5.074,6.166s-5.109-2.787-5.109-6.166v-1.045h0.765v1.045c0,2.961,1.112,5.435,4.31,5.435
				c3.232,0,4.344-2.474,4.344-5.435v-3.658c0-2.926-1.112-5.4-4.344-5.4c-1.981,0-3.371,1.08-4.032,2.927v0.279h-0.73l0.626-12.577
				h8.793v0.732h-8.098L175.347,149.018z"/>
		</g>
	</g>
</g>
<g id="Character">
	<g>
		<ellipse style="fill:#263238;" cx="402.653" cy="461.914" rx="68.111" ry="9.804"/>
		<g>
			<g>
				<g>
					<path style="fill:#92E3A9;stroke:#263238;stroke-linecap:round;stroke-linejoin:round;stroke-miterlimit:10;" d="
						M420.972,441.317c0,0-5.66,8.341-7.448,9.831c-1.788,1.49-9.235,4.767-9.533,5.958c-0.298,1.192-0.894,2.085,0.298,2.979
						c1.192,0.894,15.491,1.192,18.172,1.192c2.681,0,4.469-2.681,5.66-3.575c1.192-0.894,4.766-3.575,6.852-5.064
						c2.085-1.49,8.341-5.064,8.639-7.15c0.298-2.085-8.043-10.129-8.043-10.129L420.972,441.317z"/>
					<path style="fill:#FFFFFF;stroke:#263238;stroke-linecap:round;stroke-linejoin:round;stroke-miterlimit:10;" d="
						M404.289,460.085c1.192,0.894,15.491,1.192,18.172,1.192c2.681,0,4.469-2.681,5.66-3.575c1.192-0.894,4.766-3.575,6.852-5.064
						c2.085-1.49,8.341-5.064,8.639-7.15c0.106-0.744-0.894-2.25-2.217-3.875c-1.885,1.83-4.529,4.55-6.125,6.854
						c-2.681,3.873-10.129,8.639-14.3,8.937c-4.171,0.298-16.981-0.298-16.981-0.298
						C403.693,458.298,403.097,459.192,404.289,460.085z"/>
				</g>
				<path style="fill:#263238;stroke:#263238;stroke-linecap:round;stroke-linejoin:round;stroke-miterlimit:10;" d="
					M370.625,323.346c0,0,4.469,14.597,8.341,26.216c3.873,11.618,11.618,33.663,15.193,39.621
					c3.575,5.958,14.3,24.428,17.279,31.876c2.979,7.448,8.639,18.768,8.639,18.768l14.895-7.448c0,0-5.064-15.193-6.852-22.939
					c-1.788-7.746-3.873-16.385-7.15-21.151c-3.277-4.766-7.15-8.937-7.15-8.937l-7.746-35.451l-7.746-30.982
					C398.331,312.92,377.775,312.622,370.625,323.346z"/>
				<path style="fill:#FFFFFF;stroke:#263238;stroke-linecap:round;stroke-linejoin:round;stroke-miterlimit:10;" d="
					M416.205,437.444c0,0,2.085,3.873,2.681,5.064c0.596,1.192,6.554,1.49,9.235,0.298c2.681-1.192,10.129-5.064,10.129-6.852
					c0-1.787-2.383-6.256-3.277-7.745c-0.894-1.49-4.171-0.298-6.256,0.596s-9.831,4.766-10.725,5.064
					C417.099,434.168,415.609,435.061,416.205,437.444z"/>
			</g>
			<g>
				<path style="fill:#92E3A9;stroke:#263238;stroke-linecap:round;stroke-linejoin:round;stroke-miterlimit:10;" d="
					M363.476,446.68c0,0-2.085,2.383-5.958,5.064c-3.873,2.681-13.108,5.362-16.385,5.958c-3.277,0.596-3.277,2.383-3.277,4.171
					c0,1.787,11.32,4.469,16.981,5.362c5.66,0.894,20.853,0.596,22.343-0.596c1.49-1.192,1.49-13.108,1.49-14.299
					C378.669,451.148,363.476,446.68,363.476,446.68z"/>
				<path style="fill:#FFFFFF;stroke:#263238;stroke-linecap:round;stroke-linejoin:round;stroke-miterlimit:10;" d="
					M377.179,466.639c0.487-0.39,0.814-1.928,1.035-3.86c-3.65,0.591-9.131,1.179-16.526,1.179c-11.269,0-19.806-3.238-23.296-4.816
					c-0.532,0.782-0.536,1.755-0.536,2.73c0,1.787,11.32,4.469,16.981,5.362C360.497,468.129,375.69,467.831,377.179,466.639z"/>
			</g>
			<path style="fill:#263238;stroke:#263238;stroke-linecap:round;stroke-linejoin:round;stroke-miterlimit:10;" d="
				M377.477,323.644c0,0-2.383,22.045-2.979,32.77c-0.596,10.725-2.383,20.258-2.383,25.024c0,4.767-4.171,34.557-4.171,39.622
				s-3.575,20.258-3.575,20.258s0,0.596,3.277,1.49c3.277,0.894,8.639,2.085,8.639,2.085h2.681c0,0,3.277-9.831,7.15-18.768
				c3.873-8.937,7.15-15.193,8.043-24.13c0.894-8.937,0-19.662,1.192-21.747c1.192-2.085,14.597-36.047,16.385-39.026
				c1.788-2.979,5.362-10.427,5.362-10.427s4.171-4.767,3.873-13.406c-0.298-8.639-4.767-8.044-13.108-8.044
				c-8.341,0-18.768,3.575-22.343,5.958C381.946,317.686,377.477,323.644,377.477,323.644z"/>
			<path style="fill:none;stroke:#636363;stroke-linecap:round;stroke-linejoin:round;stroke-miterlimit:10;" d="M379.861,431.722
				c-0.788,2.496-1.34,4.117-1.34,4.117"/>
			<path style="fill:none;stroke:#636363;stroke-linecap:round;stroke-linejoin:round;stroke-miterlimit:10;" d="M387.404,377.461
				c-0.009,1.703,0.04,2.945,0.04,3.351c0,1.115-1.115,1.487-1.487,4.09c-0.372,2.603,2.603,6.693,1.487,7.436
				c-1.115,0.744-2.231,1.487-2.231,3.346c0,1.859,0.744,5.577,0,14.129c-0.435,5.006-2.654,13.07-4.42,18.896"/>
			<path style="fill:none;stroke:#636363;stroke-linecap:round;stroke-linejoin:round;stroke-miterlimit:10;" d="M403.159,327.165
				c-4.674,11.964-13.513,34.797-14.6,39.146c-0.598,2.394-0.896,5.029-1.038,7.396"/>
			<path style="fill:none;stroke:#636363;stroke-linecap:round;stroke-linejoin:round;stroke-miterlimit:10;" d="M406.034,319.835
				c0,0-0.574,1.455-1.514,3.853"/>
			<path style="fill:#FFFFFF;stroke:#263238;stroke-linecap:round;stroke-linejoin:round;stroke-miterlimit:10;" d="M362.88,438.04
				c0,0,9.235,3.277,11.618,4.171c2.383,0.894,6.554,0.894,6.554,2.681c0,1.788,0.298,8.044-1.192,8.341
				c-1.49,0.298-10.129-1.49-13.108-2.681c-2.979-1.192-5.064-1.192-5.66-2.383c-0.596-1.192,0.298-4.469,0.298-6.256
				C361.39,440.126,362.88,438.04,362.88,438.04z"/>
			<g>
				<path style="fill:#92E3A9;stroke:#263238;stroke-linecap:round;stroke-linejoin:round;stroke-miterlimit:10;" d="
					M390.102,206.031c0,0-15.035,3.59-16.382,5.161c-1.346,1.571-10.547,17.504-11.22,18.177c-0.673,0.673-4.039,3.366-4.937,3.815
					c-0.898,0.449-2.244,2.469-2.468,3.366c-0.224,0.898-0.898,2.244-3.59,6.956c-2.693,4.713-8.976,12.791-7.181,13.24
					c1.795,0.449,7.63-1.346,12.567-2.468c4.937-1.122,11.22-6.283,11.22-6.283s-1.122,13.464-1.122,21.543
					c0,8.079,0.224,35.007,0.224,39.944c0,4.937-0.449,9.874,0,11.445c0.449,1.571,3.591,6.508,3.591,6.508l2.469-2.917l2.02,4.264
					c0,0,2.693-3.366,13.913-7.181c11.22-3.815,16.157-5.386,19.074-5.161c2.917,0.224,18.85,9.201,19.748,9.65
					c0.898,0.449-0.898-17.055-0.898-26.929c0-9.874-0.673-27.377-0.673-27.377s7.63-37.027,8.527-45.106
					c0.898-8.079-3.142-15.484-4.712-17.728s-20.645-7.405-20.645-7.405L390.102,206.031z"/>
				<path style="fill:none;stroke:#263238;stroke-linecap:round;stroke-miterlimit:10;" d="M368.11,247.995
					c0,0,0.673-11.669,3.142-18.85"/>
				<path style="fill:none;stroke:#263238;stroke-linecap:round;stroke-miterlimit:10;" d="M355.319,238.57
					c0,0,1.571,8.752,1.346,11.445c-0.224,2.693,1.122,0.673,1.122-5.61"/>
				<path style="fill:none;stroke:#263238;stroke-linecap:round;stroke-miterlimit:10;" d="M389.328,213.57
					c0,0-5.958,19.839-7.978,29.713"/>
				
					<line style="fill:none;stroke:#263238;stroke-linecap:round;stroke-miterlimit:10;" x1="376.189" y1="275.597" x2="375.291" y2="287.042"/>
				<path style="fill:none;stroke:#263238;stroke-linecap:round;stroke-miterlimit:10;" d="M374.842,295.345
					c0,0-1.795,18.177-1.346,26.48"/>
			</g>
			<path style="fill:#92E3A9;stroke:#263238;stroke-linecap:round;stroke-linejoin:round;stroke-miterlimit:10;" d="
				M350.831,235.204c0,0-0.898,4.039-4.264,8.527c-3.366,4.488-4.638,5.161-6.657,5.386c-2.02,0.224-4.563-3.142-5.236-4.488
				c-0.673-1.346-1.347,0-0.673,4.488c0.673,4.488,6.508,8.976,9.649,8.976c3.142,0,8.079-6.283,9.201-9.425
				c1.122-3.142,1.571-7.405,1.122-9.874C353.524,236.326,353.524,234.306,350.831,235.204z"/>
			<g>
				<path style="fill:#FFFFFF;stroke:#263238;stroke-linecap:round;stroke-linejoin:round;stroke-miterlimit:10;" d="
					M355.095,200.197c0,0,4.488-4.264,5.386-5.386c0.898-1.122,1.795-6.283,2.02-7.854c0.224-1.571,2.881-5.702,2.899-6.441
					c0.018-0.74-1.553-1.413-2.675-0.066c-1.122,1.346-1.795,3.142-2.244,3.815s-1.795,0.449-1.795,0.449s0.148-1.198,0.372-2.544
					c0.224-1.346,2.712-5.12,3.609-6.466c0.898-1.346,0.119-5.052-1.931-2.284c-2.05,2.768-6.089,7.704-6.089,7.704
					s-6.508,8.079-7.405,10.098c-0.898,2.02-0.898,5.386-0.898,7.405c0,2.02,0.673,1.122-0.449,4.713
					c-1.122,3.59-7.405,19.074-10.098,25.807c-2.693,6.732-3.59,11.669-2.244,14.362c1.346,2.693,5.386,6.957,7.63,6.508
					c2.244-0.449,7.854-8.079,8.976-10.771c1.122-2.693,1.122-5.386,1.122-7.405c0-2.02-1.122-15.035,0-19.748
					C352.402,207.378,355.095,200.197,355.095,200.197z"/>
				<g>
					<path style="fill:#FFFFFF;stroke:#263238;stroke-linecap:round;stroke-linejoin:round;stroke-miterlimit:10;" d="
						M348.811,192.567l1.115-0.82c0,0,1.25,1.364,1.923,1.589c2.258,0.753,3.595-0.92,3.595-0.92l0.323-0.522l1.795-2.02l1.673-1.84
						c0.392-0.431,0.588-1.002,0.541-1.583c-0.066-0.818-0.261-1.98-0.82-2.732c-0.483-0.649-2.291-4.841-3.413-5.066
						c-1.122-0.224-2.469,2.468-2.469,2.468s-2.244,1.347-2.917,2.469c-0.673,1.122-0.898,1.795-0.898,1.795
						s-2.917,1.571-3.142,3.59c-0.224,2.02,0.463,7.62,0.463,7.62"/>
					<path style="fill:none;stroke:#263238;stroke-linecap:round;stroke-linejoin:round;stroke-miterlimit:10;" d="M353.605,181.462
						c0,0,4.348,5.602,4.683,7.609"/>
					<path style="fill:none;stroke:#263238;stroke-linecap:round;stroke-linejoin:round;stroke-miterlimit:10;" d="M349.675,185.308
						c0,0,4.66,3.054,6.093,6.586"/>
				</g>
			</g>
			<polygon style="fill:#92E3A9;stroke:#263238;stroke-linecap:round;stroke-linejoin:round;stroke-miterlimit:10;" points="
				392.776,203.43 389.126,205.864 387.706,215.192 389.328,213.57 392.573,205.458 			"/>
			<g>
				<path style="fill:#FFFFFF;stroke:#263238;stroke-linecap:round;stroke-linejoin:round;stroke-miterlimit:10;" d="
					M368.036,174.432c0,0-0.203,5.07,0.811,7.098c1.014,2.028,3.245,6.286,3.245,8.314c0,2.028,0.811,4.867,3.042,7.909
					c2.231,3.042,7.3,8.112,9.734,8.112c2.433,0,7.098-4.259,7.098-4.259l0.608,3.853l-2.636,7.909c0,0,8.923-6.692,11.559-9.125
					c2.636-2.434,5.678-8.517,5.678-8.517l-5.273-10.748c0,0,2.028-2.636,2.231-6.489c0.203-3.853-0.203-2.839-0.608-5.272
					c-0.406-2.434-4.867-8.517-10.748-11.965c-5.881-3.447-16.426-1.825-20.482,0.406
					C368.238,163.887,368.036,174.432,368.036,174.432z"/>
				<path style="fill:#263238;stroke:#263238;stroke-linecap:round;stroke-linejoin:round;stroke-miterlimit:10;" d="
					M395.747,208.926l-1.579-0.987l1.795-8.676l-3.999,2.342l0.608,3.853l-2.636,7.909
					C389.937,213.367,392.791,211.227,395.747,208.926z"/>
				<path style="fill:none;stroke:#263238;stroke-linecap:round;stroke-linejoin:round;stroke-miterlimit:10;" d="M374.728,181.935
					l1.825,3.042c0,0,0.608,6.489,1.014,7.706c0.406,1.217,2.839,1.217,4.056,0.406"/>
				<path style="fill:none;stroke:#263238;stroke-linecap:round;stroke-linejoin:round;stroke-miterlimit:10;" d="M379.797,196.536
					c0,0,6.084,1.622,7.706-5.475"/>
				<path style="fill:none;stroke:#263238;stroke-linecap:round;stroke-linejoin:round;stroke-miterlimit:10;" d="M373.511,181.327
					c0,0-2.231,0.203-2.839,1.622"/>
				<path style="fill:none;stroke:#263238;stroke-linecap:round;stroke-linejoin:round;stroke-miterlimit:10;" d="M378.783,179.704
					c0,0,3.042-2.231,6.692-0.406"/>
				<path style="fill:#263238;" d="M384.029,183.845c0.201,0.816-0.032,1.575-0.521,1.695c-0.489,0.121-1.049-0.442-1.251-1.258
					c-0.201-0.816,0.032-1.575,0.521-1.695C383.268,182.467,383.828,183.03,384.029,183.845z"/>
				<path style="fill:#263238;" d="M374.701,186.279c0.201,0.816-0.032,1.574-0.521,1.695c-0.489,0.121-1.049-0.442-1.25-1.258
					c-0.201-0.816,0.032-1.575,0.521-1.695C373.94,184.9,374.5,185.463,374.701,186.279z"/>
			</g>
			<path style="fill:#8A8A8A;stroke:#263238;stroke-linecap:round;stroke-linejoin:round;stroke-miterlimit:10;" d="
				M372.497,154.964c0,0-2.231,2.839-4.259,2.636c-2.028-0.203-6.489-2.636-9.328,1.217c-2.839,3.853-1.825,8.314,1.622,9.328
				c3.447,1.014,3.245,2.839,5.881,4.258c2.636,1.419,6.489,2.636,9.734-1.622c3.245-4.259,8.72-4.664,11.762-3.245
				c3.042,1.419,1.622,3.447,2.636,5.475c1.014,2.028,3.042,3.447,3.042,3.447s0.406,2.433,1.014,2.839
				c0.608,0.406,1.825,1.014,2.028-0.406c0.203-1.419-0.203-2.231,0.608-3.65c0.811-1.42,1.622-1.622,2.839-1.825
				c1.217-0.203,3.65,1.217,3.65,1.217s1.014-4.259,1.014-8.923c0-4.664-2.231-9.734-7.909-13.384
				c-5.678-3.65-15.209-1.825-18.048-1.014C375.944,152.125,372.497,154.964,372.497,154.964z"/>
			<g>
				<path style="fill:#263238;stroke:#263238;stroke-linecap:round;stroke-linejoin:round;stroke-miterlimit:10;" d="
					M388.923,165.306c0,0-4.664-0.608-8.517-0.203c-3.853,0.406-5.273,1.419-5.678,2.028c-0.406,0.608,0.203,7.3,2.434,9.126
					c2.231,1.825,6.489,2.231,9.125,0.406c2.636-1.825,4.056-5.475,4.259-7.503C390.748,167.131,390.139,165.306,388.923,165.306z"
					/>
				
					<line style="fill:none;stroke:#263238;stroke-linecap:round;stroke-linejoin:round;stroke-miterlimit:10;" x1="389.734" y1="165.509" x2="399.265" y2="173.621"/>
				
					<line style="fill:none;stroke:#263238;stroke-linecap:round;stroke-linejoin:round;stroke-miterlimit:10;" x1="374.728" y1="167.131" x2="371.483" y2="167.943"/>
				<path style="fill:#263238;stroke:#263238;stroke-linecap:round;stroke-linejoin:round;stroke-miterlimit:10;" d="
					M372.902,170.984c0,0-0.405-3.245-3.447-3.245c-3.042,0-8.314,3.245-8.72,5.678c-0.406,2.434,1.825,5.881,4.664,7.098
					c2.839,1.217,6.286-1.825,6.895-3.042C372.902,176.257,373.511,173.012,372.902,170.984z"/>
			</g>
			<polygon style="fill:#92E3A9;stroke:#263238;stroke-linecap:round;stroke-linejoin:round;stroke-miterlimit:10;" points="
				407.579,194.102 392.776,208.703 396.223,214.178 411.027,200.997 			"/>
			<g>
				<polygon style="fill:#263238;stroke:#263238;stroke-linecap:round;stroke-linejoin:round;stroke-miterlimit:10;" points="
					312.209,244.335 323.111,261.873 331.169,262.11 320.741,243.387 				"/>
				<g>
					<path style="fill:#FFFFFF;stroke:#263238;stroke-linecap:round;stroke-linejoin:round;stroke-miterlimit:10;" d="
						M391.604,255.948c0,0-27.255,5.688-34.839,5.925c-7.584,0.237-12.798,0.474-12.798,0.474s-3.792-4.266-6.399-6.873
						s-7.584-1.659-7.584-1.659s-5.925,0.237-7.584,0.237s-5.925,1.185-5.925,2.133s0.948,1.422,2.37,1.422c1.422,0,4.74,0,4.74,0
						l3.318,0.948c0,0-5.688,0.948-6.636,1.422c-0.948,0.474,0,2.607,0,2.607l0.948,0.948l0.948,1.896l1.185,0.948
						c0,0,0,1.185,2.37,2.133c2.37,0.948,10.665,1.422,12.087,1.422s3.792,0,3.792,0s22.041,2.607,27.018,3.318
						c4.977,0.711,22.989,1.185,27.018,0.474c4.029-0.711,5.925-0.237,6.873-1.896c0.948-1.659-4.266-12.798-5.688-14.457
						S391.604,255.948,391.604,255.948z"/>
					
						<line style="fill:none;stroke:#263238;stroke-linecap:round;stroke-linejoin:round;stroke-miterlimit:10;" x1="321.215" y1="263.532" x2="328.562" y2="263.058"/>
					
						<line style="fill:none;stroke:#263238;stroke-linecap:round;stroke-linejoin:round;stroke-miterlimit:10;" x1="323.348" y1="266.376" x2="330.458" y2="266.85"/>
				</g>
				<g>
					<path style="fill:#92E3A9;stroke:#263238;stroke-linecap:round;stroke-linejoin:round;stroke-miterlimit:10;" d="
						M412.697,218.265c0,0-5.925,12.561-7.584,17.775c-1.659,5.214-2.607,6.636-2.133,8.532c0.474,1.896-0.711,3.081-0.711,3.081
						s-1.896,1.896-1.896,2.607s-2.37,0.237-0.237,4.74c2.133,4.503,6.162,13.272,7.347,15.168s3.555,2.607,5.688,1.422
						s7.821-4.029,8.532-8.058c0.711-4.029,0.711-8.058,1.659-9.717s7.821-14.22,9.717-21.093
						c1.896-6.873,2.844-11.139,1.185-15.642c-1.659-4.503-4.74-5.214-4.74-5.214"/>
					<path style="fill:#92E3A9;stroke:#263238;stroke-linecap:round;stroke-linejoin:round;stroke-miterlimit:10;" d="
						M400.373,250.26c0,0,10.428,15.642,11.139,17.775s0.474,3.555-0.474,4.503c-0.948,0.948-7.821,3.555-9.717,3.555
						c-1.896,0-2.607-3.081-2.607-4.503s-9.243-15.879-9.243-15.879s0.948-2.607,1.659-3.318S400.373,250.26,400.373,250.26z"/>
					<path style="fill:none;stroke:#263238;stroke-linecap:round;stroke-linejoin:round;stroke-miterlimit:10;" d="M412.368,258.644
						c1.189,1.066,2.048,2.044,2.226,2.755"/>
					<path style="fill:none;stroke:#263238;stroke-linecap:round;stroke-linejoin:round;stroke-miterlimit:10;" d="M402.269,251.445
						c0,0,4.445,2.722,8.004,5.471"/>
					<path style="fill:none;stroke:#263238;stroke-linecap:round;stroke-linejoin:round;stroke-miterlimit:10;" d="M404.165,250.497
						c0,0,9.243,1.422,10.191,3.555"/>
				</g>
			</g>
		</g>
	</g>
</g>
</svg>
